<?xml version="1.0" encoding="utf-8"?>
<!-- Generator: Adobe Illustrator 23.0.3, SVG Export Plug-In . SVG Version: 6.00 Build 0)  -->
<svg version="1.1" id="Layer_1" xmlns="http://www.w3.org/2000/svg" xmlns:xlink="http://www.w3.org/1999/xlink" x="0px" y="0px"
	 viewBox="0 0 100.08 100" style="enable-background:new 0 0 100.08 100;" xml:space="preserve">
<style type="text/css">
	.st0{fill:#00ABE2;}
	.st1{fill:#FFFFFF;}
</style>
<g>
	<g>
		<path class="st0" d="M26.47,20.64c-2.84,0.34-5.06,2.77-5.06,5.69v9.23l-0.02,0l0.02,27.66v10.42c0,3.15,2.58,5.73,5.73,5.73
			h45.82c3.1,0,5.64-2.49,5.73-5.57V20.64l-2.91,0H26.47z"/>
	</g>
	<g>
		<path class="st1" d="M45.91,43.23c2.69-0.17,5.39-0.26,8.09-0.28c0.01-0.55,0.04-1.5,0.04-1.92c0-0.08,0.02-0.16,0.04-0.22
			c-0.85-0.18-1.15,0.03-1.15,0.03s-1.21-0.72-1.66-1.06c-0.31-0.23-0.29-0.67-0.25-0.92c0.1-0.13,0.17-0.29,0.18-0.5v-0.43
			c0,0,0.36-0.17,0.47-0.48c0.12-0.31,0.09-0.73-0.02-0.78c-0.12-0.05-0.21-0.09-0.21-0.09s0.19-2.18-1.35-2.16
			c-1.54,0.02-1.64,1.28-1.64,1.73c0,0.45,0,0.45,0,0.45s-0.14-0.16-0.26,0.03c-0.12,0.19-0.14,0.52-0.07,0.69
			c0.07,0.17,0.47,0.55,0.47,0.55s0.02,0.14,0.02,0.4c0,0.09,0.04,0.25,0.14,0.41c-0.01,0.27-0.04,0.88-0.12,1.13
			c-0.1,0.33-1.66,1.04-1.66,1.04s-0.27-0.03-1.08,0.04c0.06,0.08,0.1,0.18,0.1,0.3C46.02,41.87,45.96,42.55,45.91,43.23z"/>
		<path class="st1" d="M46.59,46.8c0,0,0.21,1.72,0.08,2.39c-0.14,0.66,0.06,1.48-0.14,1.86c-0.1,0.18-0.26,0.98-0.41,2.04
			c2.43-0.15,4.87-0.3,7.3-0.41c-0.17-1.18-0.56-1.37-0.47-1.64c0.1-0.31-0.06-1.52-0.18-1.74c-0.12-0.22,0-2.05,0-2.05
			s0.06-0.04,0.45-1.04c0.28-0.7,0.41-1.81,0.49-2.41c-2.67,0.02-5.33,0.11-8,0.28c0.03,0.21,0.07,0.46,0.14,0.76
			C46.06,45.71,46.59,46.8,46.59,46.8z"/>
		<path class="st1" d="M53.1,72.61c-0.12-0.08-0.45-1.6-0.49-1.88s-0.08-1.48,0.39-2.68c0.47-1.19,0.53-3.61,0.45-3.83
			c-0.08-0.21-0.24-1.29-0.25-1.58c-0.02-0.29-0.08-1-0.08-1.17s-0.02-0.92,0.1-1.21c0.12-0.29,0.47-2.07,0.53-3.01
			c0.05-0.88,0.04-2.24-0.06-3.76c-2.5,0.11-4.99,0.26-7.49,0.42c-0.11,0.93-0.2,1.96-0.23,2.92c-0.08,2.48,0.74,3.64,0.74,3.64
			s0,0.96-0.1,1.52c-0.1,0.57-0.31,1.74-0.37,2.93c-0.06,1.19,0.51,3.65,0.68,4.47c0.17,0.82-0.04,1.11-0.08,1.37
			c-0.04,0.25,0.04,0.45,0.04,0.51c0,0.06-0.1,0.39-0.25,0.65c-0.16,0.25-0.43,0.64-0.62,0.9c-0.2,0.25-0.39,0.53-0.41,0.67
			c-0.02,0.14,0.12,0.06,0.22,0.14c0.1,0.08,0.16,0.08,0.16,0.16c0,0.08,0.18,0.04,0.31,0.12c0.14,0.08,0.33-0.12,0.33-0.12
			s0.1,0,0.14,0.12c0.04,0.12,0.33,0.16,0.78-0.21c0.45-0.37,0.27-0.72,0.29-0.92c0.02-0.2,0.19-0.08,0.39-0.35
			c0.19-0.27-0.08-0.66,0-0.84c0.08-0.18,0.17-0.59,0.08-0.78c-0.1-0.2-0.2-0.59-0.2-0.82c0-0.24,0.02-1.11,0.1-1.7
			c0.08-0.59,0.47-1.5,0.53-2.44c0.06-0.94-0.27-1.87-0.25-2.38c0.02-0.51,0.37-1.21,0.35-1.6c-0.02-0.39,0.12-0.9,0.14-1.19
			c0.02-0.29,0.19-1.09,0.55-2.58c0.35-1.48,0.17-2.15,0.16-2.5c-0.02-0.35-0.04-0.33,0.29-0.31c0.33,0.02,0.23-0.06,0.15,0.33
			c-0.08,0.39,0.14,1.92,0.24,2.83c0.1,0.92,0.47,2.33,0.49,2.46c0.02,0.14,0.06,1.27,0.18,1.62c0.12,0.35,0.21,0.78,0.21,0.78
			s-0.16,1.41-0.18,2.89c-0.02,1.48,0.41,2.31,0.45,3.05c0.04,0.74-0.02,1.37-0.14,1.58c-0.12,0.21-0.04,0.49-0.06,0.84
			c-0.02,0.35,0.25,0.82,0.25,0.82s0.08,0.12,0.08,0.33c0,0.22,0.08,0.7,0.1,0.78c0.02,0.08,0.43,0.41,0.61,0.45
			c0.18,0.04,0.35-0.14,0.35-0.14s0.2,0.16,0.35,0.12c0.16-0.04,0.25-0.08,0.43-0.08c0.18,0,0.1-0.27,0.18-0.29
			c0.08-0.02,0.08-0.04,0.2-0.22C53.96,73.25,53.22,72.69,53.1,72.61z"/>
		<g>
			<path class="st1" d="M48.47,42.43c0-0.17-0.02-0.63-0.17-1.6c-0.19-1.28-0.69-1.56-0.69-1.56s0-0.04-0.04-0.64
				c-0.05-0.6-0.36-1.12-0.35-1.76c0.01-0.65,0.18-0.85,0.09-2.08c-0.09-1.23-0.5-2.23-0.77-3.1c-0.12-0.39-0.17-0.73-0.19-1.02
				c-0.01-0.32-0.16-0.69,0-0.74c0.49-0.15,0.63-1.03,0.64-1.19c0.01-0.18,0.06-0.4,0.2-0.66c0.14-0.26,0.09-0.49,0.09-0.49
				c-0.23-0.06-0.38,0.1-0.43,0.22c-0.05,0.13-0.05,0.4-0.09,0.5c-0.01,0.03-0.05,0.12-0.09,0.23c-0.14-0.1-0.16-0.25-0.25-0.42
				c-0.01-0.23-0.04-0.62-0.06-0.76c-0.04-0.24,0.02-0.41,0.04-0.67c0.03-0.26,0.07-0.45-0.12-0.49c-0.19-0.04-0.27,0.39-0.27,0.5
				c0,0.14,0.01,0.5-0.02,0.7c-0.01,0.12-0.06,0.28-0.08,0.38c-0.07,0-0.13-0.02-0.22,0c-0.05-0.27-0.02-0.86-0.02-0.92
				c-0.01-0.5,0.05-0.91-0.18-0.91c-0.26,0-0.24,0.49-0.26,0.89c-0.01,0.31,0.03,0.7-0.03,1c-0.06,0.01-0.1,0.02-0.15,0.04
				c0,0-0.08-0.35-0.11-0.47c0,0.01,0,0.01-0.01-0.02c-0.01-0.04,0-0.02,0.01,0.02c0.01-0.08-0.03-0.81-0.05-0.89
				c-0.02-0.1-0.06-0.31-0.23-0.31c-0.21,0-0.15,0.43-0.12,0.75c0.02,0.3,0.07,0.91,0.11,1.18c-0.04,0.04-0.03,0.02-0.06,0.06
				c0,0-0.27-0.4-0.3-0.53c-0.02-0.13-0.18-0.56-0.36-0.49c-0.16,0.06-0.02,0.39,0.13,0.71c0.1,0.2,0.34,0.66,0.44,0.85
				c0.01,0.07,0.02,0.16,0.03,0.26c0,0.1,0.01,0.2,0,0.33c0,0.05,0,0.09,0,0.13c0.01,0.57,0.37,0.69,0.44,0.78
				c0.08,0.09,0.13,0.49,0.14,0.55c0,0.2,0.01,0.96,0.03,3.16c0.02,2.14,0.31,2.45,0.31,2.45s0.02,0.96,0.04,2.28
				c0.01,1.33,0.53,2.4,0.53,2.52C46.02,41.34,47.57,42.29,48.47,42.43z"/>
			<path class="st1" d="M44.92,27.4c0.01,0.03,0.01,0.03,0.01,0.02C44.92,27.37,44.91,27.36,44.92,27.4z"/>
		</g>
		<g>
			<path class="st1" d="M51.61,42.43c0-0.17,0.02-0.63,0.17-1.6c0.19-1.28,0.69-1.56,0.69-1.56s0-0.04,0.04-0.64
				c0.05-0.6,0.36-1.12,0.35-1.76c-0.01-0.65-0.18-0.85-0.09-2.08c0.09-1.23,0.5-2.23,0.77-3.1c0.12-0.39,0.17-0.73,0.19-1.02
				c0.01-0.32,0.16-0.69,0-0.74c-0.49-0.15-0.63-1.03-0.64-1.19c-0.01-0.18-0.06-0.4-0.2-0.66c-0.14-0.26-0.09-0.49-0.09-0.49
				c0.23-0.06,0.38,0.1,0.43,0.22c0.05,0.13,0.05,0.4,0.09,0.5c0.01,0.03,0.05,0.12,0.09,0.23c0.14-0.1,0.16-0.25,0.25-0.42
				c0.01-0.23,0.04-0.62,0.06-0.76c0.04-0.24-0.02-0.41-0.04-0.67c-0.03-0.26-0.07-0.45,0.12-0.49c0.19-0.04,0.27,0.39,0.27,0.5
				c0,0.14-0.01,0.5,0.02,0.7c0.02,0.12,0.06,0.28,0.08,0.38c0.07,0,0.13-0.02,0.22,0c0.05-0.27,0.02-0.86,0.02-0.92
				c0.01-0.5-0.05-0.91,0.18-0.91c0.26,0,0.24,0.49,0.26,0.89c0.01,0.31-0.03,0.7,0.03,1c0.06,0.01,0.1,0.02,0.15,0.04
				c0,0,0.08-0.35,0.11-0.47c0,0.01,0,0.01,0.01-0.02c0.01-0.04,0-0.02-0.01,0.02c-0.01-0.08,0.03-0.81,0.05-0.89
				c0.02-0.1,0.06-0.31,0.23-0.31c0.21,0,0.15,0.43,0.12,0.75c-0.02,0.3-0.07,0.91-0.11,1.18c0.04,0.04,0.03,0.02,0.06,0.06
				c0,0,0.27-0.4,0.3-0.53c0.02-0.13,0.18-0.56,0.36-0.49c0.16,0.06,0.02,0.39-0.13,0.71c-0.1,0.2-0.34,0.66-0.44,0.85
				c-0.01,0.07-0.02,0.16-0.03,0.26c0,0.1-0.01,0.2,0,0.33c0,0.05,0,0.09,0,0.13c-0.01,0.57-0.37,0.69-0.44,0.78
				c-0.08,0.09-0.13,0.49-0.14,0.55c0,0.2-0.01,0.96-0.03,3.16c-0.02,2.14-0.31,2.45-0.31,2.45s-0.02,0.96-0.04,2.28
				c-0.01,1.33-0.53,2.4-0.53,2.52C54.06,41.34,52.51,42.29,51.61,42.43z"/>
			<path class="st1" d="M55.16,34.19c-0.01,0.03-0.01,0.03-0.01,0.02C55.16,34.17,55.17,34.15,55.16,34.19z"/>
		</g>
		<path class="st1" d="M47.2,41.05"/>
		<path class="st1" d="M55.83,41.75"/>
	</g>
</g>
</svg>
