<?xml version="1.0" encoding="utf-8"?>
<!-- Generator: Adobe Illustrator 23.0.3, SVG Export Plug-In . SVG Version: 6.00 Build 0)  -->
<svg version="1.1" id="Layer_1" xmlns="http://www.w3.org/2000/svg" xmlns:xlink="http://www.w3.org/1999/xlink" x="0px" y="0px"
	 viewBox="0 0 100.08 100" style="enable-background:new 0 0 100.08 100;" xml:space="preserve">
<style type="text/css">
	.st0{fill:#E8533B;}
	.st1{fill:#FFFFFF;}
</style>
<g>
	<g>
		<path class="st0" d="M26.47,20.64c-2.84,0.34-5.06,2.77-5.06,5.69v9.23l-0.02,0l0.02,27.66v10.42c0,3.15,2.58,5.73,5.73,5.73
			h45.82c3.1,0,5.64-2.49,5.73-5.57V20.64l-2.91,0H26.47z"/>
	</g>
	<path class="st1" d="M67.68,37.47c-0.01-0.01-0.01-0.01-0.02-0.02l-0.04-0.02c0.05-0.14,0.16-0.48,0.02-0.59
		c-0.01-0.01-0.02-0.01-0.03-0.01h-0.14c0.03-0.08,0.05-0.21,0.01-0.28c-0.01-0.02-0.04-0.04-0.06-0.05
		c-0.02-0.01-0.05-0.03-0.11-0.03c-0.09,0-0.19,0.05-0.3,0.16c-0.02-0.06-0.06-0.12-0.14-0.12c-0.09,0-0.2,0.08-0.33,0.23
		c-0.03,0.03-0.71,0.8-0.93,1.18l-0.03,0.04c0.01-0.21-0.03-0.53-0.27-0.63c-0.01,0-0.07-0.04-0.13-0.04c-0.05,0-0.09,0.03-0.1,0.05
		c-0.04,0.05-0.04,0.13-0.02,0.26c0,0.17-0.01,0.62-0.13,0.76c-0.01,0.01-0.23,0.26-0.08,0.75c0.06,0.22,0.11,0.49,0.11,0.55
		c-0.1,0.05-0.69,0.3-2.3,0.55c0,0-0.01,0-0.01,0c0,0-0.28,0.12-0.83,0.12c-0.25,0-0.51-0.02-0.79-0.07
		c-0.12-0.09-1.19-0.87-2.07-1.08c-0.07-0.11-0.48-0.67-0.88-1.02c0.07-0.05,0.17-0.17,0.24-0.44c0.13-0.01,0.2-0.04,0.2-0.1
		l0.04-0.19c0.05-0.01,0.15-0.02,0.21-0.05c0.02-0.01,0.03-0.02,0.03-0.04c0.02-0.12,0.05-0.26,0.07-0.3c0.03,0,0.07,0.01,0.12,0.01
		h0c0.11,0,0.26-0.02,0.36-0.11c0.01-0.01,0.02-0.03,0.01-0.05c-0.04-0.19-0.12-0.68-0.12-0.85c0.08-0.05,0.29-0.21,0.26-0.68
		c0.02-0.11,0.21-1.71-1-2.53c-0.02-0.02-0.59-0.48-1.39-0.48c-0.58,0-1.12,0.25-1.62,0.74c-0.03,0.03-0.67,0.87-0.85,2.59
		l-0.03,0.07c-0.26,0.01-1.96,0.06-2.41,0.18c-0.47-0.17-3.88-1.4-4.22-1.44c-0.08-0.04-0.65-0.34-0.77-0.44
		c-0.05-0.04-0.46-0.22-3.65,0.49c-0.08,0.02-1.88,0.59-2.18,0.79c-0.14,0.02-1.28,0.15-1.64,0.58c-0.56,0.02-1.79,0.09-1.84,0.35
		c-0.01,0.02-0.01,0.05,0.01,0.08c0.02,0.03,0.08,0.14,0.66,0.14c0.21,0,0.46-0.01,0.76-0.04c0.03,0.03,0.07,0.09,0.06,0.13
		c-0.01,0.04-0.09,0.08-0.2,0.1c-0.38,0.05-1.59,0.24-1.62,0.56c-0.01,0.02-0.02,0.06,0,0.11c0.07,0.11,0.32,0.1,0.8-0.04l1-0.26
		c0.01,0.01,0.02,0.03,0.02,0.05c0,0.04-0.04,0.09-0.06,0.11c-0.71,0.41-1.55,0.94-1.55,1.08c0.01,0.05,0.07,0.15,0.22,0.15
		c0.13,0,0.32-0.07,0.55-0.22c0.03-0.02,0.82-0.52,1.01-0.67c0.06,0.01,0.15,0.03,0.17,0.08c0.02,0.04-0.02,0.09-0.04,0.12
		c-0.06,0.06-0.56,0.54-0.64,0.69c-0.09,0.08-0.43,0.39-0.43,0.56c0,0.06,0.04,0.14,0.15,0.14c0.16,0,0.42-0.17,0.81-0.53l0.52-0.62
		c0.18-0.16,0.41-0.32,0.48-0.34c0,0,0.01,0,0.01,0.01c0,0,0.03,0.02,0.04,0.06c0,0.02-0.01,0.05-0.03,0.09
		c-0.03,0.06-0.32,0.64-0.2,0.9c0.03,0.06,0.08,0.1,0.15,0.12c0.01,0,0.03,0.01,0.05,0.01c0.06,0,0.17-0.04,0.17-0.31
		c0.2-0.34,0.43-0.72,0.48-0.75c0.01-0.01,0.32-0.26,0.51-1.01c0.21-0.06,1.5-0.41,1.76-0.41c0.02,0,0.02,0,0.02,0
		c0.01,0,0.01,0,0.01,0c0.04,0,2.94-0.05,3.74-0.15c0.12,0.15,0.84,0.96,2.27,1.44c-0.28,0.31-1.49,1.74-1.67,2.71
		c-0.11,0.15-1.44,1.96-2.11,2.18c-0.03,0.01-3.09,0.58-2.65,4.36c0,0.01,0.02,0.72-0.28,1.15c-0.01,0.02-1.35,1.89-1.64,3.41
		c0,0.01-0.35,1.26-1.09,1.95c-0.01,0.01-1.21,1.05-1.76,1.39c-0.02,0.02-0.57,0.39-1.36,1.99c-0.64,1.12-1.94,3.31-2.25,3.54
		l-0.36,0.33c-0.1,0.03-0.35,0.1-0.45,0.1c-0.07,0.01-1.65,0.33-1.6,1.03c-0.01,0.07-0.05,0.6,0.61,1.92c-0.02,0.24-0.2,3.03,2.1,4
		c0.01,0,0.01,0,0.01,0l0.01,0c0.01,0,0.34-0.05,0.44-0.22c0.04-0.07,0.04-0.15,0-0.23c-0.01-0.01-0.02-0.02-0.03-0.03
		c-0.14-0.04-0.36-0.15-0.37-0.25c0-0.03-0.05-2.99,0.5-3.8c0.01-0.03,1.16-2.56,1.76-3.17c0.1-0.09,2.4-2.21,2.81-2.99
		c0.29-0.34,0.77-0.87,0.91-0.93c0.07-0.03,1.65-0.82,2.02-1.36c0.26-0.35,0.71-0.9,0.84-0.96c0.01,0,0.01-0.01,0.02-0.01
		c0.01-0.02,1.41-1.6,2.16-2.42c0.48-0.63,1.04-1.29,1.13-1.33c0.01,0,0.02,0,0.03-0.01c0,0,0,0,0.01,0l0.01,0
		c0.07,0,0.31,0.04,1.15,0.39c0.03,0.01,0.85,0.34,1.32,0.42c0.36,0.12,0.76,0.28,0.88,0.35c-0.28,0.14-1.25,0.62-1.39,0.81
		c-0.13,0.11-2.59,2.19-3.36,2.4c-0.01,0-0.01,0-0.01,0.01c0,0-0.47,0.31-1.06,0.31c-0.09,0-0.18-0.01-0.27-0.02
		c0,0-0.1-0.01-0.24-0.01c-0.33,0-1.12,0.08-1.19,0.84c0,0.02,0.03,0.61,0.88,2.12c0,0.01,0.24,0.66,0.19,1.27c0,0,0,0.01,0,0.01
		c0.01,0.04,0.18,1.04,0.68,1.39c0.02,0.01,0.61,0.29,0.92,0.29c0.08,0,0.14-0.02,0.17-0.06c0.03-0.03,0.04-0.07,0.04-0.12
		c0-0.01-0.01-0.02-0.02-0.03l-0.2-0.18c-0.03-0.22-0.25-2.36,0.34-3.23l1.34-1.25c0.11-0.06,1.52-0.8,1.91-0.8c0,0,0.01,0,0.01,0
		c0.02-0.01,2.14-0.54,3.37-1.39c0.19-0.05,2.57-0.7,2.59-1.56c0.01-0.03,0.16-0.8-0.15-1.18c-0.03-0.04-2.57-3.53-4.95-4.63
		c0.01-0.1,0.02-0.38-0.03-0.52c0.46-0.54,0.98-1.1,1.08-1.11c0,0,0.02,0,0.02,0c0.05-0.02,1.17-0.55,1.38-0.8
		c0.01-0.01,0.26-0.22,1.05-1.12c0.42-0.37,0.91-0.77,0.98-0.78c0,0,0.01,0,0.01,0c0.06,0,0.29-0.1,1.12-1.03
		c0.23-0.15,0.61-0.38,0.72-0.38c0.07,0.06,1.25,1.1,2.41,1.43c0.1,0.06,1.48,0.85,2.41,1.14c0.01,0,0.02,0,0.02,0
		c0.01,0,0.34-0.05,0.48-0.11c0.06-0.01,0.39-0.04,0.69-0.09c0.02-0.01,2.44-0.91,3.62-2.16c0.09-0.05,0.91-0.55,1.07-1.64
		C67.4,38.76,67.91,37.77,67.68,37.47z"/>
</g>
</svg>
