<?xml version="1.0" encoding="utf-8"?>
<!-- Generator: Adobe Illustrator 23.0.3, SVG Export Plug-In . SVG Version: 6.00 Build 0)  -->
<svg version="1.1" id="Layer_1" xmlns="http://www.w3.org/2000/svg" xmlns:xlink="http://www.w3.org/1999/xlink" x="0px" y="0px"
	 viewBox="0 0 100.08 100" style="enable-background:new 0 0 100.08 100;" xml:space="preserve">
<style type="text/css">
	.st0{fill:#FFFFFF;}
</style>
<path class="st0" d="M64.71,42.24c0.3,0,0.67-0.01,0.66-0.22c-0.01-0.17-0.49-0.12-0.69-0.11c-0.19,0.01-0.58-0.02-0.72-0.02
	c0.01-0.06-0.01-0.08-0.01-0.13c0.08-0.02,0.2-0.05,0.31-0.08c0.08-0.02,0.41-0.03,0.52-0.03c0.11-0.01,0.44-0.07,0.44-0.21
	c0-0.14-0.26-0.14-0.45-0.1c-0.23,0.04-0.34,0.08-0.5,0.08c-0.11,0-0.49-0.03-0.65-0.03c-0.17-0.06-0.13-0.08-0.23-0.13
	c0.09-0.04,0.13-0.1,0.16-0.11c0.07-0.03,0.28-0.05,0.37-0.08c0.12-0.04,0.2-0.16,0.15-0.33c0,0-0.16-0.06-0.36,0.08
	c-0.18,0.12-0.36,0.15-0.49,0.17c-0.85,0.15-0.63,0.42-0.87,0.51c-0.22,0.08-1.36-0.04-1.73-0.05c-0.37-0.01-0.67-0.07-0.67-0.07
	s-1.51-0.36-2.37-0.47c-0.84-0.11-1.17,0.13-1.17,0.13s-0.39,0.04-0.86-0.06c-0.47-0.1-1.36-0.12-1.55-0.22
	c-0.08-0.04-0.22-0.11-0.4-0.19c0.02-0.01,0.04-0.02,0.06-0.03c0.85-0.52,1.46-0.89,1.46-0.89s0.32,0.06,1.68-0.78
	c1.4-0.87,1.88-1.16,2.01-1.24c0.04-0.02,0.32-0.15,0.41-0.13c0.09,0.01,0.31,0.19,0.67-0.03c0.03-0.01,0.06-0.03,0.09-0.05
	c0.08-0.05,0.14-0.09,0.21-0.13c0.07-0.04,0.13-0.06,0.17-0.09c0.16-0.02,0.54-0.04,0.71-0.06c0.26-0.03,0.52-0.08,0.5-0.2
	c-0.03-0.14-0.36-0.07-0.45-0.03c-0.09,0.04-0.46,0.02-0.46,0.02c0.01-0.04,0.01-0.02,0.02-0.06c0.18-0.08,0.59-0.29,0.79-0.4
	c0.21-0.11,0.5-0.25,0.43-0.38c-0.07-0.11-0.22-0.05-0.29-0.03c-0.06,0.02-0.54,0.28-0.58,0.32c-0.09,0.03-0.34,0.12-0.34,0.12
	c-0.01-0.04-0.02-0.07-0.03-0.11c0.16-0.16,0.43-0.29,0.62-0.42c0.25-0.17,0.57-0.36,0.46-0.52c-0.09-0.14-0.33,0.05-0.65,0.25
	c-0.04,0.02-0.4,0.28-0.59,0.36c-0.03-0.06-0.07-0.09-0.09-0.14c0.05-0.05,0.13-0.14,0.2-0.2c0.12-0.1,0.34-0.23,0.43-0.29
	c0.07-0.04,0.31-0.27,0.21-0.37c-0.1-0.1-0.21,0-0.36,0.12c-0.15,0.12-0.23,0.23-0.4,0.3c-0.09,0.04-0.36,0.18-0.51,0.26
	c-0.14,0.01-0.24,0.06-0.36,0.01c0.05-0.07,0.09-0.13,0.11-0.15c0.05-0.07,0.22-0.18,0.28-0.26c0.06-0.08,0.1-0.24-0.03-0.36
	c0,0-0.16,0.06-0.27,0.25c-0.11,0.19-0.23,0.32-0.34,0.39c-0.1,0.07-0.6,0.51-0.5,0.88c0.03,0.12-0.26,0.18-0.47,0.3
	c-0.19,0.1-0.42,0.21-0.72,0.29c-0.66,0.18-1.46,0.32-2.27,0.75c-0.81,0.44-0.87,0.62-1.28,0.89c-0.4,0.27-0.85,0.27-1.25,0.49
	c-0.4,0.22-0.43,0.23-0.43,0.23s-0.37-0.21-1.26,0.19c-0.12,0.05-0.22,0.1-0.31,0.14c-0.18-0.12-0.36-0.23-0.47-0.32
	c-0.23-0.17-0.22-0.5-0.19-0.69c0.07-0.1,0.13-0.22,0.14-0.38v-0.32c0,0,0.27-0.12,0.36-0.36c0.09-0.23,0.07-0.55-0.02-0.59
	c-0.09-0.04-0.16-0.07-0.16-0.07s0.14-1.64-1.01-1.62c-1.16,0.02-1.23,0.96-1.23,1.3c0,0.34,0,0.34,0,0.34s-0.11-0.12-0.2,0.02
	c-0.09,0.14-0.11,0.39-0.05,0.52c0.05,0.12,0.36,0.41,0.36,0.41s0.02,0.11,0.02,0.3c0,0.07,0.03,0.19,0.1,0.31
	c-0.01,0.2-0.03,0.66-0.09,0.85c-0.03,0.1-0.23,0.24-0.47,0.38c-0.13-0.06-0.29-0.14-0.48-0.22c-0.89-0.39-1.26-0.19-1.26-0.19
	s-0.03-0.01-0.43-0.23c-0.4-0.21-0.85-0.22-1.25-0.49c-0.41-0.27-0.47-0.45-1.28-0.89c-0.81-0.44-1.61-0.57-2.27-0.75
	c-0.29-0.08-0.53-0.18-0.72-0.29c-0.21-0.12-0.5-0.17-0.47-0.3c0.1-0.37-0.4-0.81-0.5-0.88c-0.11-0.08-0.23-0.2-0.34-0.39
	c-0.11-0.19-0.27-0.25-0.27-0.25c-0.13,0.12-0.09,0.28-0.03,0.36c0.06,0.08,0.23,0.19,0.28,0.26c0.01,0.02,0.06,0.08,0.11,0.15
	c-0.12,0.05-0.22,0-0.37-0.01c-0.15-0.08-0.41-0.23-0.5-0.26c-0.17-0.07-0.25-0.18-0.4-0.3c-0.15-0.12-0.26-0.22-0.36-0.12
	c-0.1,0.1,0.14,0.33,0.21,0.37c0.09,0.06,0.32,0.19,0.44,0.29c0.07,0.06,0.15,0.15,0.2,0.2c-0.02,0.05-0.06,0.08-0.09,0.14
	c-0.19-0.07-0.55-0.33-0.59-0.36c-0.32-0.2-0.56-0.39-0.65-0.25c-0.11,0.17,0.21,0.35,0.46,0.52c0.19,0.13,0.45,0.26,0.62,0.42
	c-0.02,0.04-0.03,0.07-0.04,0.11c0,0-0.25-0.09-0.34-0.12c-0.05-0.04-0.52-0.3-0.58-0.32c-0.07-0.03-0.22-0.09-0.29,0.03
	c-0.08,0.13,0.22,0.27,0.43,0.38c0.2,0.11,0.61,0.32,0.79,0.4c0.01,0.04,0,0.03,0.02,0.06c0,0-0.36,0.01-0.46-0.02
	c-0.09-0.04-0.43-0.11-0.45,0.03c-0.02,0.12,0.24,0.17,0.5,0.2c0.17,0.02,0.55,0.05,0.71,0.06c0.05,0.02,0.11,0.05,0.17,0.09
	c0.06,0.04,0.13,0.08,0.21,0.13c0.03,0.02,0.06,0.04,0.09,0.05c0.37,0.22,0.58,0.05,0.67,0.03c0.09-0.01,0.37,0.11,0.41,0.13
	c0.13,0.08,0.61,0.37,2.01,1.24c1.36,0.85,1.68,0.78,1.68,0.78S44.15,40,45,40.52c0,0,0.01,0,0.01,0.01
	c-0.21,0.11-0.27,0.22-0.27,0.22s-0.03,0-0.48,0.02c-0.45,0.01-0.85,0.23-1.33,0.2c-0.48-0.03-0.63-0.16-1.55-0.13
	c-0.92,0.03-1.68,0.31-2.34,0.48c-0.3,0.08-0.55,0.1-0.77,0.11c-0.24,0-0.52,0.1-0.55-0.02c-0.1-0.37-0.75-0.5-0.87-0.51
	c-0.13-0.01-0.3-0.06-0.49-0.17C36.17,40.61,36,40.65,36,40.65c-0.05,0.17,0.06,0.29,0.15,0.33c0.09,0.04,0.3,0.05,0.37,0.08
	c0.02,0.01,0.09,0.04,0.16,0.08c-0.08,0.1-0.19,0.11-0.32,0.17c-0.17,0-0.47,0.01-0.57,0.02c-0.18,0.03-0.3-0.03-0.5-0.05
	c-0.19-0.03-0.34-0.06-0.37,0.08c-0.04,0.14,0.28,0.22,0.37,0.22c0.11,0,0.37,0.01,0.52,0.03c0.09,0.02,0.2,0.05,0.28,0.08
	c0,0.05-0.02,0.1-0.01,0.16c-0.2,0.03-0.65-0.01-0.69-0.01c-0.37-0.01-0.68-0.07-0.69,0.11c-0.01,0.2,0.36,0.2,0.66,0.22
	c0.23,0.02,0.52,0,0.75,0.06c0.01,0.05,0.01,0.07,0.02,0.11c0,0-0.27,0.05-0.36,0.07c-0.06-0.01-0.61,0-0.67,0.01
	c-0.07,0.01-0.23,0.03-0.23,0.17c0,0.15,0.32,0.12,0.56,0.12c0.23-0.01,0.69-0.02,0.88-0.05c0.03,0.03,0.02,0.02,0.05,0.05
	c0,0-0.31,0.19-0.41,0.21c-0.1,0.01-0.43,0.12-0.38,0.25c0.04,0.12,0.29,0.03,0.53-0.07c0.16-0.07,0.5-0.24,0.65-0.3
	c0.05,0,0.12-0.01,0.19-0.01c0.07,0,0.15,0,0.25,0.01c0.04,0,0.07,0,0.1,0c0.43,0.01,0.53-0.25,0.6-0.31
	c0.07-0.06,0.38-0.08,0.42-0.09c0.16,0,0.72,0.02,2.36,0.07c1.6,0.05,1.84-0.16,1.84-0.16s0.72,0.01,1.71,0.04
	c0.99,0.03,1.81-0.32,1.9-0.32c0.09,0,0.21,0.13,0.21,0.13s0,0.39,0.15,1.05c0.15,0.66,0.54,1.47,0.54,1.47s0.16,1.29,0.06,1.79
	c-0.07,0.34-0.03,0.73-0.04,1.04c-0.57,0.66-1.47,1.86-2.16,2.97c-0.98,1.58-0.88,2.63-0.88,2.63s-0.36,0.62-0.63,0.95
	c-0.27,0.33-0.85,1.01-1.34,1.76c-0.48,0.75-1.04,2.56-1.23,3.16c-0.19,0.6-0.44,0.71-0.56,0.86c-0.12,0.15-0.14,0.31-0.16,0.34
	c-0.02,0.04-0.21,0.22-0.41,0.32c-0.2,0.11-0.52,0.26-0.74,0.35c-0.22,0.09-0.45,0.2-0.51,0.28c-0.06,0.08,0.05,0.08,0.09,0.17
	c0.03,0.09,0.07,0.11,0.04,0.16c-0.03,0.05,0.1,0.09,0.16,0.19c0.06,0.1,0.26,0.05,0.26,0.05s0.06,0.04,0.05,0.13
	c-0.02,0.09,0.16,0.23,0.59,0.15c0.43-0.07,0.45-0.37,0.53-0.49c0.09-0.12,0.16,0.02,0.39-0.08c0.23-0.1,0.2-0.46,0.31-0.54
	c0.12-0.08,0.33-0.31,0.34-0.48c0.01-0.16,0.09-0.45,0.18-0.61c0.09-0.15,0.43-0.72,0.7-1.07c0.27-0.35,0.87-0.8,1.26-1.39
	c0.39-0.58,0.52-1.32,0.73-1.64c0.2-0.32,0.69-0.65,0.83-0.91c0.13-0.26,0.41-0.54,0.54-0.72c0.11-0.16,0.44-0.52,1.04-1.17
	c0.09,1.38,0.55,2.02,0.55,2.02s0,0.72-0.07,1.14c-0.07,0.42-0.23,1.3-0.28,2.19c-0.04,0.89,0.38,2.74,0.51,3.35
	c0.13,0.61-0.03,0.83-0.06,1.02c-0.03,0.19,0.03,0.33,0.03,0.38c0,0.04-0.07,0.29-0.19,0.48c-0.12,0.19-0.32,0.48-0.47,0.67
	c-0.15,0.19-0.29,0.4-0.31,0.5c-0.01,0.1,0.09,0.04,0.16,0.1c0.07,0.06,0.12,0.06,0.12,0.12c0,0.06,0.13,0.03,0.23,0.09
	c0.1,0.06,0.25-0.09,0.25-0.09s0.07,0,0.1,0.09c0.03,0.09,0.25,0.12,0.58-0.16c0.34-0.28,0.2-0.54,0.22-0.69
	c0.01-0.15,0.15-0.06,0.29-0.26c0.15-0.2-0.06-0.5,0-0.63c0.06-0.13,0.13-0.44,0.06-0.58c-0.07-0.15-0.15-0.44-0.15-0.61
	c0-0.18,0.01-0.83,0.07-1.27c0.06-0.44,0.35-1.13,0.39-1.83c0.04-0.7-0.2-1.4-0.19-1.78c0.02-0.38,0.28-0.91,0.26-1.2
	c-0.01-0.29,0.09-0.67,0.1-0.89c0.01-0.22,0.14-0.82,0.41-1.93c0.26-1.11,0.13-1.61,0.12-1.87c-0.02-0.26-0.03-0.25,0.22-0.23
	c0.25,0.01,0.18-0.05,0.12,0.25c-0.06,0.29,0.1,1.43,0.18,2.12c0.07,0.69,0.35,1.74,0.37,1.84c0.01,0.1,0.04,0.95,0.13,1.21
	c0.09,0.26,0.16,0.59,0.16,0.59s-0.12,1.05-0.13,2.16c-0.02,1.11,0.31,1.72,0.34,2.28c0.03,0.56-0.01,1.02-0.1,1.18
	c-0.09,0.16-0.03,0.36-0.04,0.63c-0.02,0.26,0.19,0.61,0.19,0.61s0.06,0.09,0.06,0.25c0,0.16,0.06,0.53,0.07,0.59
	c0.02,0.06,0.32,0.31,0.45,0.34c0.13,0.03,0.26-0.1,0.26-0.1s0.15,0.12,0.26,0.09c0.12-0.03,0.19-0.06,0.32-0.06
	c0.13,0,0.07-0.2,0.13-0.22c0.06-0.01,0.06-0.03,0.15-0.16c0.09-0.13-0.47-0.56-0.56-0.61c-0.09-0.06-0.34-1.2-0.37-1.4
	c-0.03-0.21-0.06-1.11,0.29-2c0.35-0.89,0.39-2.71,0.34-2.87c-0.06-0.16-0.18-0.97-0.19-1.18c-0.01-0.22-0.06-0.75-0.06-0.88
	c0-0.13-0.01-0.69,0.07-0.91c0.09-0.22,0.34-1.51,0.39-2.22c0.02,0.02,0.03,0.04,0.05,0.06c0.78,0.83,1.2,1.28,1.32,1.47
	c0.12,0.18,0.4,0.46,0.53,0.72c0.13,0.26,0.63,0.58,0.83,0.91c0.2,0.32,0.34,1.05,0.73,1.64c0.39,0.59,0.99,1.04,1.26,1.39
	c0.27,0.35,0.61,0.91,0.7,1.07c0.09,0.15,0.17,0.44,0.18,0.61c0.01,0.16,0.23,0.39,0.34,0.48c0.12,0.08,0.08,0.44,0.31,0.54
	c0.23,0.11,0.3-0.04,0.39,0.08c0.08,0.12,0.1,0.41,0.53,0.49c0.43,0.07,0.6-0.06,0.59-0.15c-0.02-0.09,0.05-0.13,0.05-0.13
	s0.2,0.05,0.26-0.05c0.06-0.1,0.19-0.14,0.16-0.19c-0.03-0.05,0.01-0.07,0.04-0.16c0.03-0.09,0.15-0.09,0.09-0.17
	c-0.06-0.08-0.29-0.19-0.51-0.28c-0.22-0.09-0.55-0.24-0.74-0.35c-0.2-0.11-0.38-0.29-0.41-0.32c-0.02-0.04-0.04-0.19-0.17-0.34
	c-0.12-0.15-0.37-0.26-0.56-0.86c-0.19-0.6-0.75-2.4-1.23-3.16c-0.48-0.75-1.06-1.43-1.34-1.76c-0.28-0.33-0.64-0.95-0.64-0.95
	s0.1-1.05-0.88-2.63c-0.76-1.23-1.78-2.55-2.32-3.16c-0.03-0.33-0.09-0.69-0.14-0.78c-0.09-0.16,0-1.54,0-1.54s0.04-0.03,0.34-0.78
	c0.29-0.74,0.38-2.11,0.42-2.12c0.04-0.01,0.31-0.24,0.31-0.24s0.36,0.4,1.23,0.51c0.56,0.07,2.07-0.07,2.07-0.07s0,0,0.42,0.19
	c0.42,0.19,1.07,0.01,2.24,0c1.01-0.01,3.04-0.03,3.04-0.03s0.35,0.03,0.42,0.09c0.07,0.06,0.31,0.35,0.64,0.31
	c0.22-0.03,0.38-0.01,0.5,0c0.33,0.21,0.57,0.25,0.64,0.3c0.08,0.05,0.47,0.16,0.54,0.07c0.1-0.12-0.45-0.25-0.52-0.31
	c-0.06-0.06-0.31-0.16-0.31-0.16c0.03-0.02,0.08-0.03,0.1-0.06c0.15,0.02,0.53,0.05,0.62,0.05c0.24,0.01,0.81,0.05,0.81-0.08
	c0-0.13-0.41-0.18-0.41-0.18l-0.39-0.01l-0.52-0.07c0.01-0.03,0.02-0.06,0.02-0.1C64.1,42.24,64.43,42.24,64.71,42.24z"/>
</svg>
