<?xml version="1.0" encoding="utf-8"?>
<!-- Generator: Adobe Illustrator 23.0.3, SVG Export Plug-In . SVG Version: 6.00 Build 0)  -->
<svg version="1.1" id="Layer_1" xmlns="http://www.w3.org/2000/svg" xmlns:xlink="http://www.w3.org/1999/xlink" x="0px" y="0px"
	 viewBox="0 0 100.08 100" style="enable-background:new 0 0 100.08 100;" xml:space="preserve">
<style type="text/css">
	.st0{fill:#FCB74E;}
	.st1{fill:#FFFFFF;}
</style>
<g>
	<g>
		<path class="st0" d="M26.47,20.64c-2.84,0.34-5.06,2.77-5.06,5.69v9.23l-0.02,0l0.02,27.66v10.42c0,3.15,2.58,5.73,5.73,5.73
			h45.82c3.1,0,5.64-2.49,5.73-5.57V20.64l-2.91,0H26.47z"/>
	</g>
	<g>
		<g>
			<path class="st1" d="M53.52,46.5c0.4-1.01,0.51-2.86,0.58-2.87c0.01,0,0.04-0.02,0.07-0.05c0.01-0.78,0.1-1.56,0.21-2.36
				c0.01-0.05,0.02-0.09,0.03-0.13c-0.03-0.01-0.05-0.01-0.08-0.02c-0.97-0.24-1.31,0-1.31,0s-1.23-0.73-1.69-1.07
				c-0.31-0.23-0.3-0.68-0.26-0.93c0.1-0.13,0.17-0.29,0.19-0.51v-0.44c0,0,0.36-0.17,0.48-0.48c0.12-0.31,0.1-0.75-0.02-0.79
				c-0.12-0.05-0.22-0.1-0.22-0.1s0.19-2.22-1.37-2.19c-1.57,0.02-1.66,1.3-1.66,1.76c0,0.46,0,0.46,0,0.46s-0.14-0.17-0.27,0.03
				c-0.12,0.19-0.15,0.53-0.07,0.7c0.07,0.17,0.48,0.55,0.48,0.55s0.03,0.14,0.03,0.41c0,0.09,0.04,0.25,0.14,0.42
				c-0.01,0.27-0.04,0.89-0.12,1.15c-0.1,0.34-1.69,1.05-1.69,1.05s-0.38-0.04-1.63,0.09c0.34,0.88,0.54,1.91,0.52,2.93
				c0.03,0.24,0.07,0.59,0.17,1.02c0.2,0.89,0.73,2,0.73,2s0.22,1.75,0.08,2.42c-0.14,0.67,0.06,1.51-0.14,1.88
				c-0.2,0.38-0.68,3.37-0.76,5.89c-0.08,2.52,0.76,3.69,0.76,3.69s0,0.97-0.1,1.54c-0.1,0.58-0.32,1.77-0.37,2.98
				c-0.06,1.21,0.51,3.71,0.69,4.54c0.18,0.83-0.04,1.13-0.08,1.39c-0.04,0.26,0.04,0.45,0.04,0.52c0,0.06-0.1,0.4-0.26,0.65
				c-0.16,0.26-0.43,0.65-0.63,0.91c-0.2,0.26-0.4,0.54-0.42,0.68c-0.02,0.14,0.12,0.06,0.22,0.14c0.1,0.08,0.16,0.08,0.16,0.16
				c0,0.08,0.18,0.04,0.32,0.12c0.14,0.08,0.34-0.12,0.34-0.12s0.1,0,0.14,0.12c0.04,0.12,0.34,0.16,0.79-0.22
				c0.45-0.38,0.28-0.73,0.3-0.93c0.02-0.2,0.2-0.08,0.4-0.36c0.2-0.28-0.08-0.67,0-0.85c0.08-0.18,0.18-0.59,0.08-0.79
				c-0.1-0.2-0.2-0.6-0.2-0.83c0-0.24,0.02-1.13,0.1-1.72c0.08-0.6,0.48-1.53,0.54-2.48c0.06-0.95-0.28-1.9-0.26-2.42
				c0.02-0.51,0.38-1.23,0.36-1.62c-0.02-0.4,0.12-0.91,0.14-1.21c0.02-0.3,0.2-1.11,0.56-2.62c0.36-1.51,0.18-2.18,0.16-2.54
				c-0.02-0.36-0.04-0.34,0.3-0.31c0.34,0.02,0.24-0.06,0.16,0.33c-0.08,0.4,0.14,1.94,0.24,2.87c0.1,0.93,0.47,2.36,0.5,2.5
				c0.02,0.14,0.06,1.29,0.18,1.65c0.12,0.36,0.22,0.79,0.22,0.79s-0.16,1.43-0.18,2.93c-0.02,1.51,0.41,2.34,0.45,3.09
				c0.04,0.75-0.02,1.39-0.14,1.61c-0.12,0.22-0.04,0.49-0.06,0.85c-0.02,0.36,0.26,0.83,0.26,0.83s0.08,0.12,0.08,0.34
				c0,0.22,0.08,0.71,0.1,0.79c0.02,0.08,0.44,0.42,0.61,0.46c0.18,0.04,0.36-0.14,0.36-0.14s0.2,0.16,0.36,0.12
				c0.16-0.04,0.26-0.08,0.44-0.08c0.18,0,0.1-0.28,0.18-0.3c0.08-0.02,0.08-0.04,0.2-0.22c0.12-0.18-0.64-0.75-0.75-0.83
				c-0.12-0.08-0.46-1.63-0.5-1.9c-0.04-0.28-0.08-1.51,0.4-2.72c0.48-1.21,0.53-3.67,0.46-3.88c-0.08-0.22-0.24-1.31-0.26-1.61
				c-0.02-0.3-0.08-1.01-0.08-1.19s-0.02-0.93,0.1-1.23c0.12-0.3,0.48-2.1,0.54-3.05c0.06-0.95,0.04-2.48-0.08-4.14
				c-0.12-1.66-0.63-1.86-0.53-2.18c0.1-0.32-0.06-1.55-0.18-1.77c-0.12-0.22,0-2.08,0-2.08S53.12,47.51,53.52,46.5z"/>
			<path class="st1" d="M45.51,41.28"/>
			<path class="st1" d="M54.27,41.99"/>
			<path class="st1" d="M48.99,40.08c0-0.01-0.01-0.01-0.01-0.02L48.87,40c-0.09-0.05-0.43-0.11-0.52-0.13
				c-0.06-0.48-1.08-1.23-1.22-1.33c0.22-1.97-0.75-3.09-0.87-3.21c0.13-0.78-0.69-2.9-0.72-2.99c-0.18-1.37-0.07-1.9-0.05-1.99
				c0.87-0.28,0.9-0.69,0.89-0.77c0.24-0.32,0.16-0.58,0.15-0.59c0-0.01-0.02-0.02-0.03-0.02c-0.14,0.01-0.24-0.13-0.25-0.14
				l-0.11-0.13c-0.03-0.04-0.06-0.05-0.09-0.04c-0.05,0.02-0.07,0.1-0.08,0.16l-0.18-0.09c-0.01-0.04-0.03-0.07-0.05-0.08
				c-0.09-0.05-0.27,0.04-0.35,0.08c-0.01-0.01-0.01-0.02-0.02-0.02c-0.1-0.08-0.42-0.04-0.46-0.03c-0.01,0-0.02,0.01-0.02,0.02l0,0
				c-0.03,0.01-0.08,0.03-0.12,0.08c-0.06,0.02-0.11,0.05-0.12,0.05c-0.01,0.01-0.01,0.01-0.01,0.02l-0.01,0.33
				c-0.06-0.01-0.11,0-0.15,0.03c-0.22,0.15-0.25,0.74-0.25,0.76c0,0,0,0.01,0,0.01c0.19,0.41,0.02,2.25,0.02,2.26
				c-0.2,1.36,0.14,2.5,0.14,2.52c0.23,0.7,0.38,1.9,0.39,2.01c-0.61,1.33,0.38,3.7,0.39,3.73c0.01,0.01,0.85,4.5,0.85,4.5l-0.01,0
				c-0.01,0.01-0.02,0.02-0.01,0.04c0,0.01,0.02,0.02,0.03,0.02c0,0,0.01,0,0.01,0l3.9-1.75c0.01-0.01,0.02-0.02,0.02-0.04
				L48.99,40.08z M44.93,28.77C44.93,28.77,44.94,28.77,44.93,28.77l-0.01,0.01C44.93,28.77,44.93,28.77,44.93,28.77z"/>
			<path class="st1" d="M49.94,43.28c0,0.01,0,0.03,0.02,0.04l3.9,1.75c0,0,0.01,0,0.01,0c0.01,0,0.02-0.01,0.03-0.02
				c0.01-0.01,0-0.03-0.01-0.04l-0.01,0c0,0,0.84-4.49,0.85-4.5c0.01-0.02,1-2.4,0.39-3.73c0.01-0.11,0.16-1.31,0.39-2.01
				c0-0.01,0.34-1.16,0.14-2.52c0-0.02-0.16-1.86,0.02-2.26c0,0,0-0.01,0-0.01c0-0.03-0.03-0.62-0.25-0.76
				c-0.05-0.03-0.1-0.04-0.15-0.03l-0.01-0.33c0-0.01-0.01-0.02-0.01-0.02c0,0-0.05-0.03-0.12-0.05c-0.04-0.05-0.09-0.07-0.12-0.08
				v0c0-0.01-0.01-0.01-0.02-0.02c-0.04-0.01-0.36-0.05-0.46,0.03c-0.01,0.01-0.01,0.01-0.02,0.02c-0.07-0.04-0.25-0.13-0.35-0.08
				c-0.02,0.01-0.05,0.03-0.05,0.08l-0.18,0.09c-0.01-0.06-0.03-0.14-0.08-0.16c-0.03-0.01-0.06,0-0.09,0.04l-0.11,0.13
				c0,0-0.1,0.15-0.25,0.14c-0.01,0-0.03,0.01-0.03,0.02c0,0.01-0.08,0.27,0.15,0.59c0,0.08,0.02,0.49,0.89,0.77
				c0.02,0.09,0.14,0.61-0.05,1.99c-0.03,0.08-0.85,2.21-0.72,2.99c-0.11,0.12-1.09,1.24-0.87,3.21c-0.14,0.1-1.16,0.85-1.22,1.33
				c-0.09,0.02-0.42,0.08-0.52,0.13l-0.1,0.06c-0.01,0-0.01,0.01-0.01,0.02L49.94,43.28z M55,28.77c-0.01,0-0.01,0-0.02,0
				c0,0,0,0,0-0.01C54.99,28.77,55,28.77,55,28.77z"/>
		</g>
		<polygon class="st1" points="68.46,28.91 66.9,28.91 66.9,28.58 65.77,28.58 65.77,28.91 65.68,28.91 65.68,26.67 64.84,26.67 
			64.84,28.36 64.68,28.36 64.68,26.1 63.72,26.1 63.72,28.36 63.56,28.36 63.56,25.52 62.52,25.52 62.52,28.36 62.35,28.36 
			62.35,25.25 61.17,25.25 61.17,28.26 60.99,28.26 60.99,28.56 60.42,28.56 60.42,28.91 50.11,28.91 49.97,28.91 39.66,28.91 
			39.66,28.56 39.09,28.56 39.09,28.26 38.91,28.26 38.91,25.25 37.73,25.25 37.73,28.36 37.56,28.36 37.56,25.52 36.52,25.52 
			36.52,28.36 36.36,28.36 36.36,26.1 35.4,26.1 35.4,28.36 35.24,28.36 35.24,26.67 34.4,26.67 34.4,28.91 34.31,28.91 
			34.31,28.58 33.18,28.58 33.18,28.91 31.62,28.91 31.62,29.66 33.18,29.66 33.18,29.99 34.31,29.99 34.31,29.66 34.4,29.66 
			34.4,31.9 35.24,31.9 35.24,30.21 35.4,30.21 35.4,32.47 36.36,32.47 36.36,30.21 36.52,30.21 36.52,33.05 37.56,33.05 
			37.56,30.21 37.73,30.21 37.73,33.32 38.91,33.32 38.91,30.31 39.09,30.31 39.09,30.01 39.66,30.01 39.66,29.66 49.97,29.66 
			50.11,29.66 60.42,29.66 60.42,30.01 60.99,30.01 60.99,30.31 61.17,30.31 61.17,33.32 62.35,33.32 62.35,30.21 62.52,30.21 
			62.52,33.05 63.56,33.05 63.56,30.21 63.72,30.21 63.72,32.47 64.68,32.47 64.68,30.21 64.84,30.21 64.84,31.9 65.68,31.9 
			65.68,29.66 65.77,29.66 65.77,29.99 66.9,29.99 66.9,29.66 68.46,29.66 		"/>
	</g>
</g>
</svg>
