<svg xmlns="http://www.w3.org/2000/svg" viewBox="0 0 40 40"><title>b_bess_Rft</title><path d="M16.6,31.66s4.58.95,5.61-2.42a53.39,53.39,0,0,1,1-6.77h0l.22-.46,0,0,0-.09L24.36,20l.15-.33h0a5.8,5.8,0,0,0,.32-2.88,1.09,1.09,0,0,1,.16-.89,1.9,1.9,0,0,0-.45-2.36.44.44,0,0,0-.59-.37v.05h0a2,2,0,0,0-.1-.85c-.22-.88-.78-.93-.78-.93a.73.73,0,0,0-.83.51,4,4,0,0,0,0-.75A1.08,1.08,0,0,0,21,10.09h0c.12-.71-.68-.9-.68-.9-1.44-.33-1.35,1.36-1.32,1.68s-.22,1.23-.22,1.23a5.06,5.06,0,0,0-.09.6h-.07l-.05,0-.1,0a1.07,1.07,0,0,0-.16.14l0,0h0l-.14-.22a11.3,11.3,0,0,1,.34-1.2c1.28-2.9-.67-3.29-.67-3.29-2.17-.36-2.36,2.36-2.36,2.36.07.29-.07,2.57-.07,2.57a12.59,12.59,0,0,0-.25,2.14,43.37,43.37,0,0,1,0,4.62l0-.05h0l0,.05V20h0c.05.6.31,3.76.29,3.95h0c-.05.45-.14,1.06-.29,1.77C15.09,25.76,13.8,30.31,16.6,31.66ZM22.25,12h0Z" style="fill:#005d83"/></svg>