<svg xmlns="http://www.w3.org/2000/svg" viewBox="0 0 40 40"><title>b_bess_ftft</title><path d="M18.73,25.76c-.15-.71-.24-1.32-.3-1.77h0c0-.19.24-3.35.29-3.95h0v-.1l0-.05h0l0,.05a40.66,40.66,0,0,1,0-4.62,12,12,0,0,0-.26-2.14s-.14-2.28-.07-2.57c0,0-.19-2.72-2.36-2.36,0,0-1.94.39-.67,3.29,0,0,.31.93.35,1.2l-.15.22h0l0,0-.17-.14-.09,0,0,0h-.07a3.58,3.58,0,0,0-.1-.6s-.18-1-.22-1.23.13-2-1.31-1.68c0,0-.81.19-.69.9h0a1.08,1.08,0,0,0-1.29,1.12,5.37,5.37,0,0,0,0,.75.72.72,0,0,0-.83-.51s-.55.05-.77.93a1.83,1.83,0,0,0-.1.85h0v-.05a.43.43,0,0,0-.58.37,1.89,1.89,0,0,0-.45,2.36A1.09,1.09,0,0,1,9,16.8a5.73,5.73,0,0,0,.31,2.88h0a2.41,2.41,0,0,0,.15.33l.85,1.87,0,.09,0,0,.21.46h0a53.39,53.39,0,0,1,1,6.77c1,3.37,5.61,2.42,5.61,2.42C20,30.31,18.73,25.76,18.73,25.76ZM11.57,12h0Z" style="fill:#005d83"/><path d="M22.79,31.66s4.57.95,5.61-2.42a53.39,53.39,0,0,1,1-6.77h0l.21-.46,0,0,0-.09L30.54,20a2.41,2.41,0,0,0,.15-.33h0A5.73,5.73,0,0,0,31,16.8a1.09,1.09,0,0,1,.16-.89,1.89,1.89,0,0,0-.45-2.36.43.43,0,0,0-.58-.37v.05h0a1.83,1.83,0,0,0-.1-.85c-.22-.88-.77-.93-.77-.93a.72.72,0,0,0-.83.51,5.37,5.37,0,0,0,0-.75,1.08,1.08,0,0,0-1.29-1.12h0c.12-.71-.69-.9-.69-.9-1.44-.33-1.34,1.36-1.31,1.68s-.22,1.23-.22,1.23a3.58,3.58,0,0,0-.1.6h-.07l-.05,0-.09,0-.17.14,0,0h0l-.15-.22c0-.27.35-1.2.35-1.2C25.9,8.64,24,8.25,24,8.25c-2.17-.36-2.36,2.36-2.36,2.36.07.29-.07,2.57-.07,2.57a12,12,0,0,0-.26,2.14,40.66,40.66,0,0,1,0,4.62l0-.05h0l0,.05V20h0c0,.6.31,3.76.29,3.95h0c-.06.45-.15,1.06-.3,1.77C21.27,25.76,20,30.31,22.79,31.66ZM28.43,12Z" style="fill:#005d83"/></svg>