<svg xmlns="http://www.w3.org/2000/svg" viewBox="0 0 100 100"><title>b_res_an_l</title><path d="M64.86,67.42c-.45-2.15-.72-4-.89-5.34h0c-.06-.57.72-10.15.88-12h0l0-.11,0-.19-.06-.13h0l.06.13a126.38,126.38,0,0,1,0-14,37.78,37.78,0,0,0-.78-6.48s-.42-6.91-.21-7.77c0,0-.57-8.26-7.14-7.17,0,0-5.88,1.2-2,10a37.33,37.33,0,0,1,1,3.63l-.43.69h0s-.06-.07-.1-.1a3.94,3.94,0,0,0-.49-.41,2.61,2.61,0,0,0-.28-.17L54.28,28a.78.78,0,0,0-.18-.05h0a10.1,10.1,0,0,0-.29-1.8s-.56-3-.66-3.74c.09-.95.38-6.08-4-5.07,0,0-2.45.58-2.09,2.72v0h0v0a3.25,3.25,0,0,0-3.9,3.38,13.43,13.43,0,0,0,.06,2.28,2.2,2.2,0,0,0-2.51-1.54s-1.67.15-2.35,2.81a6,6,0,0,0-.3,2.58h0v-.16a1.33,1.33,0,0,0-1.77,1.11S32.83,33,34.92,37.62a3.35,3.35,0,0,1,.46,2.71,17.41,17.41,0,0,0,1,8.69h0v0q.21.49.45,1L39.4,55.7l.11.3a.18.18,0,0,1,.05.07l.65,1.42h0C41.85,62.6,43.3,78,43.3,78c3.13,10.2,17,7.32,17,7.32C68.77,81.21,64.86,67.42,64.86,67.42ZM43.21,25.67v0h0Z" style="fill:#73478f"/></svg>