<svg xmlns="http://www.w3.org/2000/svg" viewBox="0 0 100 100"><title>b_res_ave_r</title><path d="M39.72,85.29s13.85,2.88,17-7.32c0,0,1.45-15.37,3.09-20.48h0l.65-1.42a.18.18,0,0,1,.05-.07l.11-.3,2.59-5.65q.24-.49.45-1v0h0a17.41,17.41,0,0,0,1-8.69,3.35,3.35,0,0,1,.46-2.71c2.09-4.59-1.35-7.14-1.35-7.14A1.33,1.33,0,0,0,62,29.37v.16h0a6,6,0,0,0-.3-2.58c-.68-2.66-2.35-2.81-2.35-2.81a2.2,2.2,0,0,0-2.51,1.54,13.43,13.43,0,0,0,.06-2.28A3.25,3.25,0,0,0,53,20v0h0v0c.36-2.14-2.09-2.72-2.09-2.72-4.35-1-4.06,4.12-4,5.07-.1.78-.66,3.74-.66,3.74a10.1,10.1,0,0,0-.29,1.8h0a.78.78,0,0,0-.18.05l-.15.07a2.61,2.61,0,0,0-.28.17,3.94,3.94,0,0,0-.49.41s-.06.07-.1.1h0L44.25,28a37.33,37.33,0,0,1,1-3.63c3.85-8.76-2-10-2-10-6.57-1.09-7.14,7.17-7.14,7.17.21.86-.21,7.77-.21,7.77a37.78,37.78,0,0,0-.78,6.48,126.38,126.38,0,0,1,0,14l.06-.13h0l-.06.13,0,.19,0,.11h0c.16,1.82.94,11.4.88,12h0c-.17,1.37-.44,3.19-.89,5.34C35.14,67.42,31.23,81.21,39.72,85.29ZM56.8,25.7h0v0Z" style="fill:#94519f"/></svg>