<?xml version="1.0" encoding="utf-8"?>
<!-- Generator: Adobe Illustrator 23.0.3, SVG Export Plug-In . SVG Version: 6.00 Build 0)  -->
<svg version="1.1" id="Layer_1" xmlns="http://www.w3.org/2000/svg" xmlns:xlink="http://www.w3.org/1999/xlink" x="0px" y="0px"
	 viewBox="0 0 400 400" style="enable-background:new 0 0 400 400;" xml:space="preserve">
<style type="text/css">
	.st0{fill:#00AAE1;}
</style>
<path class="st0" d="M340.83,96.89c2.88,0,6.44-0.11,6.33-2.14c-0.11-1.65-4.74-1.15-6.6-1.03c-1.8,0.14-5.57-0.21-6.95-0.18
	c0.07-0.58-0.08-0.79-0.04-1.25c0.77-0.2,1.89-0.5,2.98-0.74c0.81-0.18,3.94-0.26,5-0.33c1.04-0.07,4.22-0.68,4.25-2.06
	c0.04-1.33-2.47-1.35-4.3-1.01c-2.22,0.42-3.29,0.77-4.78,0.73c-1.06-0.01-4.71-0.31-6.24-0.3c-1.65-0.6-1.29-0.76-2.19-1.26
	c0.89-0.43,1.25-1,1.5-1.11c0.69-0.33,2.66-0.47,3.57-0.81c1.13-0.43,1.94-1.56,1.46-3.18c0,0-1.5-0.56-3.45,0.77
	c-1.74,1.18-3.41,1.42-4.68,1.64c-8.17,1.43-6.06,4.11-8.34,4.97c-2.14,0.8-13.08-0.39-16.59-0.53c-3.51-0.14-6.45-0.7-6.45-0.7
	s-14.49-3.45-22.76-4.54c-8.03-1.06-11.22,1.27-11.22,1.27s-3.79,0.43-8.29-0.56c-4.49-1-13.06-1.14-14.88-2.14
	c-1.81-0.99-6.6-3.53-13.48-5.23c-1.22-0.3-2.26-0.47-3.21-0.58c-0.34-0.07-0.69-0.11-1.07-0.12c-0.06,0-0.12-0.01-0.18-0.01
	c-0.12,0-0.22-0.02-0.34-0.02c0,0-0.1,0-0.25,0.01c-0.55-0.01-1.05,0-1.48,0.03c-3.85,0.06-13,0.02-14.98-1.69V64.75l-0.15-0.09
	c1.26-2.22,2.32-4.98,2.73-8.3c3.08,1.68,4.31-5.96,4.31-5.96c0.67-4.7-3.38-2.6-3.38-2.6l0,0c0.24-2.83,0.42-5.8,0.36-7.98
	c0-7.19-6.05-13.01-13.51-13.01c-7.1,0-12.91,5.27-13.46,11.97l-0.01,0v0.13c-0.02,0.3-0.05,0.6-0.05,0.91
	c0,0.31,0.03,0.61,0.05,0.91v7.01c-0.63-0.29-3.87-1.6-3.27,2.65c0,0,1.2,7.43,4.19,6c0.7,2.67,1.84,6.13,3.56,9.08l-0.17,0.11v9.74
	c0,0-5.44,2.44-12.32,1.76c0,0-0.74-0.15-1.76,0.09c-1.82,0.04-4.88,0.2-9.76,0.73c-9.28,1-11.39,4.52-11.39,4.52s-0.28,0-4.63,0.15
	c-4.36,0.12-8.15,2.26-12.78,1.98c-4.63-0.29-6.03-1.57-14.88-1.29c-8.84,0.3-16.14,2.99-22.46,4.68C91.51,88.73,89.06,88.97,87,89
	c-2.3,0.02-4.99,1.01-5.32-0.19c-0.96-3.59-7.18-4.88-8.35-4.95c-1.28-0.09-2.87-0.59-4.7-1.64c-1.81-1.09-3.44-0.77-3.44-0.77
	c-0.48,1.6,0.59,2.76,1.46,3.17c0.88,0.41,2.87,0.47,3.59,0.8c0.2,0.11,0.82,0.38,1.58,0.74c-0.76,0.99-1.86,1.1-3.09,1.69
	c-1.63,0-4.5,0.11-5.45,0.24c-1.73,0.26-2.93-0.25-4.79-0.5c-1.85-0.27-3.23-0.61-3.57,0.73c-0.34,1.36,2.73,2.08,3.54,2.1
	c1.03,0.02,3.56,0.08,5.01,0.32c0.85,0.16,1.96,0.53,2.67,0.73c0.01,0.48-0.16,0.93-0.09,1.56c-1.94,0.32-6.19-0.11-6.62-0.11
	c-3.6-0.11-6.51-0.64-6.59,1.03c-0.1,1.91,3.45,1.9,6.33,2.14c2.23,0.2,5.01-0.04,7.16,0.54c0.05,0.44,0.1,0.69,0.23,1.07
	c0,0-2.52,0.47-3.41,0.67c-0.58-0.1-5.82,0-6.41,0.11c-0.7,0.12-2.22,0.32-2.25,1.61c-0.03,1.49,3.07,1.19,5.38,1.13
	c2.18-0.07,6.59-0.23,8.47-0.47c0.29,0.32,0.17,0.22,0.46,0.45c0,0-2.96,1.85-3.92,1.99c-0.95,0.13-4.09,1.13-3.62,2.45
	c0.4,1.17,2.79,0.3,5.12-0.71c1.49-0.65,4.82-2.31,6.21-2.93c0.49-0.04,1.12-0.09,1.85-0.1c0.7,0,1.47,0.01,2.36,0.09
	c0.34,0.01,0.66,0,0.96,0c4.11,0.08,5.06-2.44,5.75-2.98c0.65-0.54,3.6-0.82,4.01-0.85c1.49,0.03,6.88,0.19,22.7,0.7
	c15.36,0.5,17.69-1.56,17.69-1.56s6.88,0.14,16.42,0.42c9.54,0.3,17.41-3.11,18.25-3.11c0.85,0,1.97,1.28,1.97,1.28
	s0.02,3.37,1.16,9.05c-0.64,2.47-2.83,12.39,2,16.05c0,0,5.04,26.69,3.86,31.39c0,0-9.9,13.43-10.91,41.63
	c0,0-1.18,12.76,10.91,60.1c0,0,2.69,13.6,2.18,19.81l0.17,2.85c0,0-3.19,18.3,0.34,28.87c0,0,6.55,25.52,6.55,27.36
	c0,0,2.18,15.61,2.01,18.97l-5.04,15.78c0,0-0.67,3.53,1.01,3.36c0,0,1.34,1.51,2.18,0.84c0,0,1.18,0.51,2.35,0.17
	c0,0,2.52,2.08,3.69,0.12c0,0,4.7,3.57,5.2-3.31c0,0,1.18-3.02,1.01-6.55c0,0-0.2-2.93,0.78-4.62l0.73,3.27c0,0-0.5,5.37,0,7.05
	c0,0-0.17,5.28,3.36,5.08c0,0,1.85-0.54,2.01-1.05c0,0,2.69,1.68,3.53,0.34c0,0,2.18,0.17,2.85-1.01c0,0,2.69,0.17,2.85-2.35
	l-1.34-3.69c0,0-3.36-11.08-4.53-12.25c0,0-0.34-2.18,0.34-3.53c0,0,0.67-7.39,0.5-8.56l3.19-15.78c0,0,6.38-22.5,6.55-31.22
	c0,0,0.17-12.09-1.51-19.47c0,0,0.85-12.59,1.52-16.28l9.23-39.95c0,0,5.04-19.81,1.01-37.77c0,0-6.04-21.66-8.56-27.53
	c0,0,1.18-22.16,3.86-32.4c0,0,2.45-1.17,1.87-15.24c0.05-0.33,0.11-0.66,0.16-0.99c0.53-1.33,2.15-5.61,3.34-10.43
	c0.54-0.44,0.97-0.8,0.97-0.8s3.44,3.85,11.82,4.9c5.4,0.69,19.9-0.65,19.9-0.65s0,0,4.06,1.85c4.06,1.83,10.26,0.13,21.49,0
	c9.72-0.14,29.23-0.33,29.23-0.33s3.37,0.27,4.06,0.84c0.71,0.57,3,3.38,6.17,2.97c2.14-0.26,3.69-0.08,4.76,0.02
	c3.13,2.05,5.46,2.44,6.19,2.93c0.73,0.48,4.5,1.5,5.14,0.71c0.93-1.15-4.32-2.47-4.97-3.03c-0.62-0.58-2.97-1.56-2.97-1.56
	c0.24-0.2,0.75-0.3,1-0.57c1.46,0.19,5.08,0.44,6,0.47c2.34,0.08,7.79,0.48,7.79-0.82c0-1.29-3.96-1.7-3.96-1.7l-3.72-0.08l-5-0.7
	c0.08-0.33,0.14-0.57,0.2-0.94C335.02,96.93,338.2,96.89,340.83,96.89z M195.08,327.81c0,0-0.21,16.96-1.03,16.96l-0.38,1.66
	c-0.13-0.55-0.27-1.1-0.44-1.66c0,0-1.04-9.61-1.85-17.63c-0.17-1.68,3.19-24.51,0.5-37.77c0,0-1.85-7.72-0.17-17.79
	c0,0,0.84-16.28-0.67-35.93c0,0,0.5-29.88-0.5-33.91c0,0,3.53-1.34,5.2,0v39.62c0,0-1.18,27.87,0,33.74c0,0,0.46,12.25-1.7,17.96
	C194.05,293.06,193.73,303.3,195.08,327.81z"/>
</svg>
