<svg xmlns="http://www.w3.org/2000/svg" viewBox="0 0 40 40"><title>bc_bp</title><path d="M25.39,17.87a2,2,0,0,0-.93,2.26l-.25.2a2.2,2.2,0,0,0-.78,1.39,2.1,2.1,0,0,0,.66,1.62,3.65,3.65,0,0,0,.69.57l.3.08a3.5,3.5,0,0,1,2.33.72,4.78,4.78,0,0,1,.9.84,3.38,3.38,0,0,1,.54,3c-.59,1.53-2.62,2.22-2.89,2.31a2.77,2.77,0,0,1-2.53-.59c-.95-1-.48-3.09-.45-3.21a3.78,3.78,0,0,0-.11-2.19,7.74,7.74,0,0,0-1-1.94,12.61,12.61,0,0,0-1.23-1.59,2.59,2.59,0,0,0,.78-.8,5.47,5.47,0,0,0,.7-2.92,20.58,20.58,0,0,0-1-5.79l-.31.1c-.36-2.08-1-3.33-2-3.73a1.92,1.92,0,0,0-1.71.16l-.08-.15a.24.24,0,0,0-.33-.09l-.92.51a.24.24,0,0,0-.1.33l.34.6a.24.24,0,0,0,.33.1l.92-.51a.24.24,0,0,0,.09-.33l-.07-.14a1.6,1.6,0,0,1,1.4-.15c.58.25,1.34,1.07,1.76,3.5l-.33.1a19.62,19.62,0,0,1,1,5.41A6.44,6.44,0,0,1,21,19h0c-1,2.81-3.6,1.62-4,1.39a8.37,8.37,0,0,1-1.47-1.06A18.58,18.58,0,0,1,13,16.63h0l-.28.2c-2.16-1.82-2.49-3-2.39-3.66a1.58,1.58,0,0,1,.87-1.1l.07.13a.25.25,0,0,0,.33.1l.93-.51a.26.26,0,0,0,.09-.33l-.34-.61a.22.22,0,0,0-.32-.09l-.93.51a.24.24,0,0,0-.09.33l.08.15a1.89,1.89,0,0,0-1,1.36c-.18,1.09.64,2.41,2.44,3.94l-.26.17a18.8,18.8,0,0,0,2.61,2.88,8.21,8.21,0,0,0,2.55,1.61,3.33,3.33,0,0,0,2.36.07,13.19,13.19,0,0,1,1.38,1.73A4.42,4.42,0,0,1,22,26.79v0c0,.11-.65,2.67.69,4.15a3.71,3.71,0,0,0,3.48.91l.06,0a6.42,6.42,0,0,0,1.35-.58,4.8,4.8,0,0,0,2.24-2.35A4.33,4.33,0,0,0,29.17,25l0,0a5.1,5.1,0,0,0-3.95-2c-.29-.21-.78-.67-.74-1.14A1.28,1.28,0,0,1,25,21a2,2,0,1,0,.4-3.14Z" style="fill:#005d83"/></svg>