<?xml version="1.0" encoding="utf-8"?>
<!-- Generator: Adobe Illustrator 23.0.3, SVG Export Plug-In . SVG Version: 6.00 Build 0)  -->
<svg version="1.1" id="Layer_1" xmlns="http://www.w3.org/2000/svg" xmlns:xlink="http://www.w3.org/1999/xlink" x="0px" y="0px"
	 viewBox="0 0 550 350" style="enable-background:new 0 0 550 350;" xml:space="preserve">
<style type="text/css">
	.st0{opacity:0.1;fill:#00AAE1;}
</style>
<path class="st0" d="M532.1,209.65c-8.98-1.75-18.02-3.35-25.35-4.3c-23.04-3.02-32.2,3.62-32.2,3.62s-10.88,1.22-23.79-1.59
	c-12.88-2.84-37.47-3.24-42.71-6.08c-5.21-2.81-18.92-10.04-38.69-14.87c-19.74-4.83-26.57,0-26.57,0s-24.98-14.93-34.25-21.76
	c-6.37-4.74-6.05-13.81-5.23-18.99c2.01-2.62,3.46-5.95,3.77-10.35v-8.92c0,0,7.34-3.43,9.79-9.82c2.45-6.33,1.95-15.15-0.48-16.15
	c-2.44-0.97-4.4-1.93-4.4-1.93s3.9-45.05-27.9-44.58c-31.83,0.5-33.78,26.44-33.78,35.76c0,9.26,0,9.26,0,9.26s-2.93-3.4-5.39,0.53
	c-2.45,3.93-2.96,10.76-1.48,14.22c1.48,3.43,9.79,11.25,9.79,11.25s0.51,2.9,0.51,8.29c0,1.9,0.87,5.14,2.82,8.48
	c-0.2,5.49-0.83,18.05-2.42,23.32c-1.99,6.86-34.26,21.39-34.26,21.39s-8.03-0.84-34.6,1.99c-26.62,2.84-32.67,12.88-32.67,12.88
	s-0.79,0-13.28,0.44c-12.5,0.34-23.38,6.42-36.68,5.64c-13.28-0.81-17.31-4.46-42.69-3.68c-15.56,0.52-29.45,3.6-42.05,7.02v36.57
	c6.68,0.21,14.34,0.46,23.13,0.74c44.07,1.43,50.77-4.43,50.77-4.43s19.75,0.41,47.12,1.19c27.39,0.84,49.96-8.85,52.36-8.85
	c2.44,0,5.66,3.65,5.66,3.65s0,10.85,4.02,29.06c2.07,9.17,5.88,19.49,9.13,27.43h143.05c7.82-20.66,10.19-57.33,11.42-57.67
	c1.19-0.41,8.48-6.49,8.48-6.49s9.88,10.94,33.92,13.94c15.5,1.96,57.11-1.84,57.11-1.84s0,0,11.66,5.27
	c11,4.91,27.45,0.89,56.36,0.1V209.65z"/>
</svg>
