<?xml version="1.0" encoding="utf-8"?>
<!-- Generator: Adobe Illustrator 23.0.3, SVG Export Plug-In . SVG Version: 6.00 Build 0)  -->
<svg version="1.1" id="Layer_1" xmlns="http://www.w3.org/2000/svg" xmlns:xlink="http://www.w3.org/1999/xlink" x="0px" y="0px"
	 viewBox="0 0 550 350" style="enable-background:new 0 0 550 350;" xml:space="preserve">
<style type="text/css">
	.st0{opacity:0.1;fill:#00AAE1;}
</style>
<path class="st0" d="M476.43,193.85c-19.83-2.62-27.72,3.14-27.72,3.14s-9.36,1.05-20.47-1.38c-11.08-2.46-32.25-2.81-36.76-5.28
	c-4.48-2.43-16.29-8.71-33.3-12.91c-3.02-0.75-5.57-1.16-7.92-1.44c-0.83-0.16-1.71-0.26-2.65-0.31c-0.15-0.01-0.29-0.02-0.45-0.03
	c-0.28-0.01-0.54-0.05-0.83-0.05c0,0-0.25,0.01-0.62,0.02c-1.37-0.03-2.59-0.01-3.66,0.08c-9.5,0.15-32.11,0.06-36.99-4.17v-24.88
	l-0.38-0.23c3.1-5.49,5.74-12.31,6.73-20.5c7.6,4.15,10.64-14.72,10.64-14.72c1.66-11.61-8.35-6.41-8.35-6.41l0,0
	c0.6-6.98,1.05-14.32,0.88-19.71c0-17.75-14.94-32.13-33.38-32.13c-17.53,0-31.88,13.02-33.24,29.56l-0.02,0v0.32
	c-0.05,0.75-0.12,1.49-0.12,2.25s0.06,1.5,0.12,2.25v17.32c-1.55-0.72-9.57-3.95-8.07,6.55c0,0,2.97,18.34,10.36,14.83
	c1.73,6.59,4.54,15.14,8.79,22.42l-0.42,0.28v24.05c0,0-13.43,6.02-30.43,4.36c0,0-1.83-0.38-4.36,0.22
	c-4.51,0.1-12.06,0.5-24.11,1.8c-22.92,2.46-28.12,11.18-28.12,11.18s-0.68,0-11.43,0.38c-10.76,0.3-20.12,5.57-31.57,4.9
	c-11.43-0.7-14.9-3.87-36.75-3.19c-21.84,0.73-39.86,7.39-55.46,11.55c-7.02,1.89-13.06,2.49-18.17,2.57
	c-0.11,0-0.22,0.01-0.33,0.01v22.77c0.78-0.09,1.37-0.14,1.61-0.16c3.67,0.08,16.98,0.46,56.07,1.73c37.93,1.24,43.7-3.84,43.7-3.84
	s17,0.35,40.56,1.03c23.57,0.73,43-7.68,45.07-7.68c2.1,0,4.87,3.16,4.87,3.16s0.04,8.33,2.88,22.34c-1.58,6.1-7,30.6,4.94,39.65
	c0,0,0.86,4.56,2.08,11.5H343.1c0.79-4.54,1.66-8.73,2.6-12.33c0,0,6.04-2.89,4.61-37.63c0.13-0.82,0.27-1.63,0.39-2.44
	c1.3-3.29,5.32-13.84,8.24-25.77c1.32-1.08,2.4-1.98,2.4-1.98s8.51,9.5,29.19,12.09c13.34,1.71,49.16-1.6,49.16-1.6s0,0,10.03,4.57
	c10.03,4.52,25.33,0.33,53.08,0c7.98-0.12,18.63-0.25,29.29-0.37v-26.69C527.59,203.86,495.39,196.34,476.43,193.85z"/>
</svg>
