<svg xmlns="http://www.w3.org/2000/svg" viewBox="0 0 40 40"><title>bc_bmi</title><path d="M31.45,10.78C20.29,8,8.58,10.89,8.58,10.89a30.8,30.8,0,0,0,.77,19.54H30.71A32.22,32.22,0,0,0,31.45,10.78Zm-15.06,4.6L15.1,19.33h-.92l-.73-2.17-.74,2.17H11.8l-1.3-3.95v-.05h1.15l.66,2.35.75-2.24h.77l.75,2.24.67-2.35h1.14ZM19,19.33H17.87v-3H16.58v-1h3.66v1H19Zm.3,3.11L21,17.7l.63.23-1.71,4.74Zm6,2.23H24.22V23.11H22.68v1.56H21.59v-4h1.09v1.45h1.54V20.67h1.09Zm4.19-3H28.21v3H27.13v-3H25.84v-1H29.5Z" style="fill:#005d83"/></svg>