<svg xmlns="http://www.w3.org/2000/svg" viewBox="0 0 400 400"><title>bc_body</title><path d="M371.19,106.77c3.5,0,7.83-.13,7.7-2.57-.13-2-5.75-1.39-8-1.24s-6.77-.25-8.45-.21c.08-.7-.09-1-.05-1.51.94-.24,2.3-.61,3.62-.9,1-.21,4.79-.31,6.07-.39s5.13-.82,5.17-2.49-3-1.62-5.23-1.21c-2.7.5-4,.92-5.82.88-1.29,0-5.73-.37-7.58-.35-2-.73-1.57-.91-2.66-1.52a10,10,0,0,0,1.82-1.34c.84-.39,3.23-.56,4.34-1a2.91,2.91,0,0,0,1.77-3.83,4.88,4.88,0,0,0-4.2.92A13.14,13.14,0,0,1,354,92c-9.93,1.73-7.37,5-10.14,6-2.6,1-15.9-.48-20.17-.64a60.93,60.93,0,0,1-7.84-.84s-17.62-4.16-27.67-5.47c-9.76-1.28-13.64,1.53-13.64,1.53a34.5,34.5,0,0,1-10.08-.67c-5.45-1.2-15.87-1.37-18.09-2.58A68.56,68.56,0,0,0,230,83.06c-8.36-2-11.26,0-11.26,0s-10.58-6.33-14.51-9.22c-2.7-2-2.56-5.85-2.21-8a7.94,7.94,0,0,0,1.6-4.38V57.63s3.1-1.45,4.14-4.16.83-6.42-.2-6.84-1.87-.82-1.87-.82,1.66-19.08-11.82-18.88-14.3,11.2-14.3,15.15V46a1.33,1.33,0,0,0-2.29.22,7.74,7.74,0,0,0-.63,6c.63,1.46,4.15,4.77,4.15,4.77a22.21,22.21,0,0,1,.22,3.52,8.06,8.06,0,0,0,1.19,3.59c-.08,2.32-.35,7.64-1,9.88-.85,2.9-14.52,9.06-14.52,9.06s-3.4-.36-14.65.84-13.85,5.45-13.85,5.45-.33,0-5.62.19-9.91,2.72-15.54,2.39S109.63,90,98.87,90.37,79.26,94,71.58,96a36.15,36.15,0,0,1-8.94,1.26c-2.81,0-6.07,1.21-6.47-.23-1.17-4.33-8.73-5.88-10.16-6a13.74,13.74,0,0,1-5.71-2,6.41,6.41,0,0,0-4.18-.92A3.17,3.17,0,0,0,37.89,92c1.08.49,3.49.57,4.37,1,.24.13,1,.46,1.92.89-.92,1.19-2.26,1.33-3.75,2-2,0-5.47.13-6.63.29-2.1.32-3.56-.3-5.82-.61s-3.93-.74-4.34.89S27,99,27.93,99a52.23,52.23,0,0,1,6.09.39c1,.19,2.39.63,3.24.88a14.81,14.81,0,0,0-.1,1.88c-2.36.38-7.53-.14-8-.14-4.37-.13-7.91-.76-8,1.25-.12,2.29,4.19,2.28,7.7,2.57,2.7.24,6.09,0,8.7.65a5.18,5.18,0,0,0,.28,1.29s-5.69,1.06-4.32.89c1.81-.24-6.79-.11-7.62,0s-2.7.38-2.74,1.94c0,1.8,3.74,1.44,6.54,1.36s8-.28,10.3-.57a2.31,2.31,0,0,0,.55.54s-3.59,2.24-4.77,2.41-5,1.36-4.4,3c.49,1.41,3.39.35,6.23-.86,1.81-.78,5.85-2.79,7.55-3.53.6,0,1.36-.1,2.25-.12s1.79,0,2.87.11H51.4c5,.09,6.15-3,7-3.59s4.38-1,4.87-1c1.81,0,8.36.22,27.6.84,18.67.61,21.51-1.87,21.51-1.87s8.36.17,20,.5S153.49,104,154.51,104s2.39,1.54,2.39,1.54a63.18,63.18,0,0,0,1.71,12.31c1.72,7.66,6.32,17.21,6.32,17.21s1.87,15,.68,20.84.51,13-1.18,16.21-5.82,29-6.51,50.68,6.51,31.76,6.51,31.76a100.09,100.09,0,0,1-.87,13.3,212.75,212.75,0,0,0-3.23,25.62c-.52,10.39,4.43,31.93,6,39.08s-.34,9.72-.69,11.94A13.59,13.59,0,0,0,166,349a18.31,18.31,0,0,1-2.23,5.64c-1.36,2.21-3.74,5.61-5.45,7.84s-3.42,4.62-3.6,5.82,1,.49,1.88,1.19,1.36.67,1.36,1.36,1.53.33,2.73,1,2.91-1,2.91-1a1.34,1.34,0,0,1,1.2,1c.33,1,2.9,1.38,6.82-1.88s2.39-6.31,2.57-8,1.71-.68,3.41-3.06-.69-5.8,0-7.34,1.53-5.12.69-6.83a19.75,19.75,0,0,1-1.71-7.17,145,145,0,0,1,.84-14.84c.69-5.14,4.1-13.14,4.61-21.34s-2.38-16.38-2.23-20.83,3.27-10.58,3.09-14,1-7.84,1.2-10.4,1.69-9.57,4.77-22.53,1.53-18.78,1.38-21.86-.36-2.91,2.56-2.71,2-.53,1.35,2.88,1.19,16.73,2.06,24.75,4.08,20.31,4.26,21.5.51,11.09,1.55,14.18,1.86,6.83,1.86,6.83-1.37,12.28-1.53,25.25,3.57,20.14,3.92,26.63S206.06,343,205,344.88s-.35,4.25-.51,7.33,2.22,7.17,2.22,7.17a5.55,5.55,0,0,1,.67,2.89,49.22,49.22,0,0,0,.86,6.84c.18.68,3.75,3.58,5.29,3.92s3.07-1.2,3.07-1.2,1.71,1.38,3.07,1a13.13,13.13,0,0,1,3.77-.69c1.54,0,.85-2.38,1.54-2.55s.66-.35,1.7-1.89-5.47-6.49-6.49-7.17-3.92-14-4.27-16.38a53.9,53.9,0,0,1,3.42-23.39c4.1-10.41,4.6-31.57,3.92-33.44s-2.05-11.27-2.21-13.83-.69-8.7-.69-10.23-.17-8,.85-10.59,4.1-18.1,4.62-26.29a296.28,296.28,0,0,0-.7-35.67c-1-14.31-5.46-16-4.6-18.76s-.5-13.32-1.53-15.2,0-17.93,0-17.93.5-.34,3.92-9,4.42-24.59,4.95-24.74a39,39,0,0,0,3.6-2.75s4.18,4.64,14.36,5.91c6.57.83,24.2-.78,24.2-.78l4.94,2.23c4.94,2.21,12.47.16,26.12,0,11.82-.17,35.53-.4,35.53-.4s4.09.33,4.94,1,3.64,4.07,7.5,3.58a24.3,24.3,0,0,1,5.78,0c3.81,2.47,6.65,2.94,7.53,3.52s5.47,1.81,6.25.86c1.13-1.39-5.26-3-6-3.66a19.3,19.3,0,0,0-3.6-1.87c.29-.24.91-.36,1.21-.69,1.77.22,6.18.53,7.29.57,2.84.09,9.47.58,9.47-1s-4.81-2.05-4.81-2.05l-4.51-.09-6.08-.85a10.63,10.63,0,0,0,.24-1.13C364.13,106.83,368,106.77,371.19,106.77Z" style="fill:#00aae1"/></svg>