<svg xmlns="http://www.w3.org/2000/svg" viewBox="0 0 40 40"><title>bc_cc_bmr</title><path d="M29.62,27.13a2.19,2.19,0,0,1-1,1H28a9.18,9.18,0,0,0,.13-7.88,12.31,12.31,0,0,1-1.07-2.41,2.26,2.26,0,0,1,.71-2.39,4.13,4.13,0,0,0-2.5,4.3,8.63,8.63,0,0,1,.21,1.32,2.26,2.26,0,0,1-.71,1.66,1.21,1.21,0,0,1-.78.36,1.06,1.06,0,0,1-.88-.57,2.45,2.45,0,0,1-.26-1.07A10.09,10.09,0,0,0,22.68,19c-.28-.86-.95-1.56-1.25-2.41-.51-1.47.14-3.06.14-4.61a5.52,5.52,0,0,0-2.31-4.42,2.64,2.64,0,0,1,.88,2.54A6.05,6.05,0,0,1,19,12.61,17.45,17.45,0,0,0,17.4,15a7.41,7.41,0,0,0-.35,4.83,5.84,5.84,0,0,1,.29,1.93,1.41,1.41,0,0,1-1.2,1.33,1.55,1.55,0,0,1-1.2-.72c-.29-.39-.48-.84-.78-1.23-.86-1.11-2.39-1.4-3.78-1.62a3.29,3.29,0,0,1,2.39,2.44,8.27,8.27,0,0,1,0,3.57,5.75,5.75,0,0,0,.08,3.44,3,3,0,0,0,.61.84A5.41,5.41,0,0,0,15.93,32a10.54,10.54,0,0,0,4.17.52l5.17-.08a4.66,4.66,0,0,0,2.9-.7,3.85,3.85,0,0,0,1.38-3.08A12.32,12.32,0,0,0,29.62,27.13Z" style="fill:#005d83"/></svg>