<svg xmlns="http://www.w3.org/2000/svg" viewBox="0 0 40 40"><title>bc_cc_tcirc</title><path d="M9.93,31.31a.09.09,0,0,1-.07,0l-3.5-3.72a.08.08,0,0,1,0-.08.08.08,0,0,1,0-.07l10.19-5.27c3.54-2,5.15-8.65,5.17-8.72v0a8.13,8.13,0,0,1,3.87-4.21,4.83,4.83,0,0,1,2.16-.5l0,0,4,2.38A3,3,0,0,1,33.56,13a5.83,5.83,0,0,1-.78,4,12.32,12.32,0,0,1-1.28,2,4.75,4.75,0,0,1-4.75,2.23h0L24.9,20c-1.15,3.14-4.45,5.51-4.66,5.66-1.1,1.24-9.89,5.49-10.27,5.67ZM6.6,27.52,10,31.09c.83-.4,9.16-4.46,10.15-5.6,0,0,0,0,0,0s3.54-2.46,4.64-5.69a.14.14,0,0,1,.07-.06.08.08,0,0,1,.08,0l1.91,1.31a4.54,4.54,0,0,0,4.53-2.15h0s2.67-3.26,2-5.84a2.89,2.89,0,0,0-1.63-1.78h0l-4-2.37a4.72,4.72,0,0,0-2.06.48,7.9,7.9,0,0,0-3.75,4.1c-.07.3-1.72,6.84-5.27,8.84Z" style="fill:#005d83"/><path d="M32.58,11.64C31.35,10.18,28.49,13,28.49,13c-2,1.72-3.64,6.82-3.64,6.82l1.92,1.33a4.11,4.11,0,0,0,3.56-1l.2-.25a3.48,3.48,0,0,0,1.27-1.59l.4-.5c.1-.15.19-.3.27-.44C34.93,13.34,32.58,11.64,32.58,11.64Zm-4.09,6.21A2.65,2.65,0,0,1,30.14,15C30.16,17.58,28.49,17.85,28.49,17.85Z" style="fill:#005d83"/><polygon points="8.88 26.23 12.41 29.99 9.93 31.21 6.44 27.5 8.88 26.23" style="fill:#005d83"/><path d="M13.34,29.62a.11.11,0,0,1-.07,0L10.53,27a.1.1,0,0,1,0-.14.11.11,0,0,1,.14,0l2.75,2.62a.1.1,0,0,1,0,.14A.09.09,0,0,1,13.34,29.62Z" style="fill:#005d83"/><path d="M16.09,28.18a.11.11,0,0,1-.07,0l-2.75-2.61a.1.1,0,0,1,.14-.14L16.16,28a.1.1,0,0,1,0,.14A.09.09,0,0,1,16.09,28.18Z" style="fill:#005d83"/><path d="M18.92,26.63l-.07,0L16,24.17a.1.1,0,1,1,.13-.15L19,26.46a.09.09,0,0,1,0,.13A.09.09,0,0,1,18.92,26.63Z" style="fill:#005d83"/><path d="M21.39,24.59a.09.09,0,0,1-.07,0l-2.9-2.44a.09.09,0,0,1,0-.13.1.1,0,0,1,.14,0l2.9,2.44a.1.1,0,0,1,0,.14A.09.09,0,0,1,21.39,24.59Z" style="fill:#005d83"/><path d="M23.72,22.05l0,0-3.06-2.24a.11.11,0,0,1,0-.14.1.1,0,0,1,.14,0l3.05,2.24a.1.1,0,0,1-.06.18Z" style="fill:#005d83"/><path d="M25.2,19.13a.06.06,0,0,1-.05,0L22,17a.09.09,0,0,1,0-.13.1.1,0,0,1,.14,0L25.26,19a.1.1,0,0,1-.06.18Z" style="fill:#005d83"/><path d="M26.42,16.22l-.06,0-3.14-2.12a.1.1,0,0,1,0-.14.11.11,0,0,1,.14,0L26.47,16a.09.09,0,0,1,0,.13A.1.1,0,0,1,26.42,16.22Z" style="fill:#005d83"/><path d="M28.3,13.3l-.06,0L25.1,11.16a.09.09,0,0,1,0-.13.1.1,0,0,1,.14,0l3.14,2.12a.1.1,0,0,1,0,.14A.12.12,0,0,1,28.3,13.3Z" style="fill:#005d83"/><path d="M30.79,11.52l-.05,0L27.59,9.38a.09.09,0,0,1,0-.13.09.09,0,0,1,.13,0l3.15,2.12a.11.11,0,0,1,0,.14A.12.12,0,0,1,30.79,11.52Z" style="fill:#005d83"/></svg>