<svg xmlns="http://www.w3.org/2000/svg" viewBox="0 0 40 40"><title>bc_cc_totalexp</title><path d="M15.16,17.76a.94.94,0,0,1-.44.44h-.25a3.92,3.92,0,0,0,0-3.38,6,6,0,0,1-.46-1,1,1,0,0,1,.31-1,1.78,1.78,0,0,0-1.08,1.85,3.75,3.75,0,0,1,.09.57.94.94,0,0,1-.3.71.52.52,0,0,1-.34.16.46.46,0,0,1-.38-.25,1,1,0,0,1-.11-.46,4.34,4.34,0,0,0-.08-1.08c-.12-.37-.4-.67-.53-1a6,6,0,0,1,.06-2,2.39,2.39,0,0,0-1-1.9,1.11,1.11,0,0,1,.38,1.09,2.54,2.54,0,0,1-.51,1.09,6.84,6.84,0,0,0-.66,1,3.16,3.16,0,0,0-.16,2.08,2.34,2.34,0,0,1,.13.82.62.62,0,0,1-.52.58.69.69,0,0,1-.52-.31c-.12-.17-.2-.36-.33-.53a2.47,2.47,0,0,0-1.63-.7,1.43,1.43,0,0,1,1,1,3.48,3.48,0,0,1,0,1.54,2.48,2.48,0,0,0,0,1.48,1.14,1.14,0,0,0,.26.36,2.31,2.31,0,0,0,1.07.93,4.37,4.37,0,0,0,1.79.22l2.23,0a2,2,0,0,0,1.25-.3,1.67,1.67,0,0,0,.59-1.33A4.5,4.5,0,0,0,15.16,17.76Z" style="fill:#005d83"/><path d="M33.08,13.59h0c0-.09.09-.28,0-.34H33a.3.3,0,0,0,0-.16s0,0,0,0l-.06,0a.26.26,0,0,0-.17.09.09.09,0,0,0-.08-.06s-.11,0-.19.13a5.82,5.82,0,0,0-.53.66v0c0-.12,0-.31-.16-.36s0,0-.07,0a.09.09,0,0,0-.06,0,.18.18,0,0,0,0,.15,1.05,1.05,0,0,1-.07.43s-.13.14-.05.42.07.28.07.31a5.12,5.12,0,0,1-1.3.31h0a1.28,1.28,0,0,1-.47.07,2.42,2.42,0,0,1-.45,0,4,4,0,0,0-1.17-.61,3.55,3.55,0,0,0-.5-.58.44.44,0,0,0,.14-.25c.07,0,.11,0,.11-.05l0-.11a.23.23,0,0,0,.11,0l0,0a.85.85,0,0,1,0-.17h.07a.3.3,0,0,0,.2-.06,0,0,0,0,0,0,0,4.28,4.28,0,0,1-.07-.48c.05,0,.16-.12.15-.39A1.54,1.54,0,0,0,27.88,11a1.31,1.31,0,0,0-.78-.27,1.29,1.29,0,0,0-.92.42,3.15,3.15,0,0,0-.48,1.46l0,0a11.78,11.78,0,0,0-1.36.1c-.27-.09-2.19-.79-2.39-.81,0,0-.37-.2-.43-.25s-.26-.12-2.07.28a11.21,11.21,0,0,0-1.23.44,1.8,1.8,0,0,0-.93.33c-.32,0-1,.05-1,.2v0s.05.08.38.08L17,13a.13.13,0,0,1,0,.07s-.05,0-.12.06-.9.14-.91.32a0,0,0,0,0,0,.06c0,.07.18.06.45,0l.56-.15,0,0a.08.08,0,0,1,0,.06,3.64,3.64,0,0,0-.88.61.13.13,0,0,0,.13.09.73.73,0,0,0,.31-.13s.46-.29.57-.38.09,0,.1.05,0,.05,0,.06-.31.31-.36.39-.24.23-.24.32a.08.08,0,0,0,.08.08c.09,0,.24-.1.46-.3l.3-.35a1.76,1.76,0,0,1,.27-.2h0a.07.07,0,0,1,0,0l0,0s-.18.36-.11.51a.09.09,0,0,0,.08.06h0s.1,0,.1-.17a2.82,2.82,0,0,1,.27-.43,1.11,1.11,0,0,0,.29-.57c.12,0,.85-.23,1-.23h0s1.67,0,2.12-.09a2.87,2.87,0,0,0,1.28.82,4.43,4.43,0,0,0-.94,1.53c-.06.09-.81,1.11-1.2,1.23a2,2,0,0,0-1.49,2.47,1.26,1.26,0,0,1-.16.65,6.27,6.27,0,0,0-.93,1.93,2.63,2.63,0,0,1-.61,1.1,11.61,11.61,0,0,1-1,.79,3,3,0,0,0-.76,1.12,15.92,15.92,0,0,1-1.28,2l-.2.19a1.29,1.29,0,0,1-.25.06s-.94.19-.91.58a2.25,2.25,0,0,0,.35,1.09,2.26,2.26,0,0,0,1.19,2.26h0s.19,0,.25-.12a.17.17,0,0,0,0-.14h0c-.07,0-.2-.09-.2-.14A6.13,6.13,0,0,1,15,28.11a10.75,10.75,0,0,1,1-1.8,13.7,13.7,0,0,0,1.59-1.69,3.13,3.13,0,0,1,.51-.52,4.51,4.51,0,0,0,1.14-.77,2.63,2.63,0,0,1,.48-.55h0s.79-.91,1.22-1.37a6.65,6.65,0,0,1,.63-.75h0a2.6,2.6,0,0,1,.65.23,6.82,6.82,0,0,0,.75.24,2.28,2.28,0,0,1,.49.2,3.71,3.71,0,0,0-.79.45,11.09,11.09,0,0,1-1.89,1.36h0a1.14,1.14,0,0,1-.6.18h-.29c-.19,0-.63,0-.67.47a3,3,0,0,0,.5,1.2,2.1,2.1,0,0,1,.1.72h0a1.5,1.5,0,0,0,.39.79,1.91,1.91,0,0,0,.51.16.13.13,0,0,0,.1,0,.07.07,0,0,0,0-.07s0,0,0,0l-.11-.1a3.62,3.62,0,0,1,.2-1.83l.75-.71a5.2,5.2,0,0,1,1.09-.45h0a7.5,7.5,0,0,0,1.91-.79c.11,0,1.46-.4,1.47-.88,0,0,.09-.46-.09-.67a9.61,9.61,0,0,0-2.8-2.62,1,1,0,0,0,0-.29,3.6,3.6,0,0,1,.61-.63h0a4.69,4.69,0,0,0,.78-.46,5.07,5.07,0,0,0,.6-.63,4,4,0,0,1,.55-.44h0s.16-.06.63-.58a2.47,2.47,0,0,1,.41-.22,4.2,4.2,0,0,0,1.37.81,8.62,8.62,0,0,0,1.36.64,0,0,0,0,0,0,0s.2,0,.27-.06l.39-.06a6.32,6.32,0,0,0,2.05-1.22,1.32,1.32,0,0,0,.61-.93C32.92,14.32,33.21,13.76,33.08,13.59Z" style="fill:#005d83"/></svg>