<svg xmlns="http://www.w3.org/2000/svg" viewBox="0 0 40 40"><title>bc_cc_lbmass</title><path d="M31.77,22.86s-2.66-3.32-9.9-1.15c0,0-3.79-1.25-5.92-.37a14.34,14.34,0,0,0,1.19-5.15s2-4.56,3.1-4.14A6.41,6.41,0,0,0,22.9,13s1.18.24,1.3.54a.83.83,0,0,0,.89-1.13s1.54.07,1.55-.58a20.42,20.42,0,0,1-.77-3.27s-.23-.47-1.48-.53a56.23,56.23,0,0,0-5.75.87,7.48,7.48,0,0,0-2.25,2.31s-2.5,2.54-2.86,2.78a24.93,24.93,0,0,0-3.27,5.09s-.71,1.06-.89,1.36a11.18,11.18,0,0,0-1.13,3.19s.29,1.6,3.78,3c0,0,5.62,5.58,12.91,3.17A11,11,0,0,0,25.76,32l1.78-.35,3.21-4.55Z" style="fill:#005d83"/></svg>