<svg xmlns="http://www.w3.org/2000/svg" viewBox="0 0 40 40"><title>bc_cc_bodyfat</title><path d="M24.1,19.75A2.91,2.91,0,1,1,27,22.59,2.83,2.83,0,0,1,24.1,19.75Zm1.59,8.18,8.14-11.65,1.24.88L26.93,28.81ZM28,19.75a1,1,0,0,0-1-1,1,1,0,0,0-1,1,1,1,0,0,0,1,1A1,1,0,0,0,28,19.75Zm2.85,5.59a2.91,2.91,0,1,1,2.9,2.84A2.81,2.81,0,0,1,30.85,25.34Zm3.89,0a.94.94,0,0,0-1-1,1,1,0,1,0,0,1.93A.94.94,0,0,0,34.74,25.34Z" style="fill:#005d83"/><path d="M26.24,14.08c.23,0,.52,0,.51-.17s-.38-.09-.53-.08-.44,0-.55,0,0-.06,0-.1l.23-.06.4,0c.08,0,.34-.05.34-.16s-.2-.11-.34-.08a1.58,1.58,0,0,1-.38,0l-.5,0c-.13-.05-.1-.06-.17-.1a.5.5,0,0,0,.12-.09c.05,0,.21,0,.28-.06a.18.18,0,0,0,.11-.25.33.33,0,0,0-.27.06,1,1,0,0,1-.37.13c-.65.11-.48.32-.67.39a7.43,7.43,0,0,1-1.31,0,4.53,4.53,0,0,1-.52-.05s-1.15-.28-1.81-.36a1.26,1.26,0,0,0-.89.1,2.32,2.32,0,0,1-.66-.05c-.36-.07-1-.09-1.18-.16A4.72,4.72,0,0,0,17,12.52c-.54-.13-.73,0-.73,0s-.69-.41-.95-.6a.55.55,0,0,1-.15-.53.48.48,0,0,0,.11-.28v-.25a.57.57,0,0,0,.27-.27c.07-.18,0-.42,0-.45l-.12-.05s.1-1.25-.78-1.24a.89.89,0,0,0-.93,1v.26s-.09-.09-.15,0a.48.48,0,0,0,0,.4,1.89,1.89,0,0,0,.27.31,2.07,2.07,0,0,1,0,.23.57.57,0,0,0,.08.23,3.41,3.41,0,0,1-.07.65c-.05.19-1,.59-1,.59a6.09,6.09,0,0,0-1,.06c-.73.08-.9.36-.9.36h-.37a8.35,8.35,0,0,1-1,.15A6.52,6.52,0,0,0,8.43,13a7.93,7.93,0,0,0-1.78.37,2.35,2.35,0,0,1-.59.08c-.18,0-.4.08-.42,0-.08-.28-.57-.39-.67-.39a1,1,0,0,1-.37-.13.38.38,0,0,0-.27-.06.21.21,0,0,0,.11.25c.07,0,.23,0,.29.06l.12.06c-.06.08-.14.09-.24.13l-.44,0a1.3,1.3,0,0,1-.38,0c-.14,0-.25-.05-.28.06s.22.16.28.17a3,3,0,0,1,.4,0l.21.06s0,.07,0,.12a2.72,2.72,0,0,1-.52,0c-.29,0-.52,0-.53.08s.28.15.51.17a5.46,5.46,0,0,1,.57,0,.25.25,0,0,0,0,.09l-.28.06a2.58,2.58,0,0,0-.5,0s-.17,0-.18.13.25.09.43.09.53,0,.68,0l0,0a1.43,1.43,0,0,1-.31.16c-.07,0-.32.09-.29.2s.22,0,.41-.06l.49-.23h.42a.49.49,0,0,0,.45-.24,1,1,0,0,1,.32-.06l1.81.05c1.22,0,1.4-.12,1.4-.12l1.31,0a4.82,4.82,0,0,0,1.45-.24c.07,0,.16.1.16.1a4.14,4.14,0,0,0,.11.8,6.47,6.47,0,0,0,.41,1.13,7.06,7.06,0,0,1,.05,1.36c-.08.38,0,.85-.08,1.06a16.19,16.19,0,0,0-.43,3.32,3.55,3.55,0,0,0,.43,2.07,6.19,6.19,0,0,1-.06.87,14.76,14.76,0,0,0-.21,1.68,14,14,0,0,0,.39,2.56,1.4,1.4,0,0,1,0,.78.72.72,0,0,0,0,.29,1.29,1.29,0,0,1-.15.37c-.09.14-.24.36-.35.51a1.08,1.08,0,0,0-.24.38c0,.08.07,0,.12.08s.09,0,.09.09.1,0,.18.06.19-.06.19-.06a.09.09,0,0,1,.08.06c0,.07.19.09.45-.12s.15-.41.17-.52.11-.05.22-.2-.05-.38,0-.49a.67.67,0,0,0,0-.44,1.47,1.47,0,0,1-.11-.47,8.07,8.07,0,0,1,.06-1c0-.34.26-.86.3-1.4a13.29,13.29,0,0,0-.15-1.36c0-.29.22-.69.2-.91a6,6,0,0,1,.08-.69c0-.16.11-.62.31-1.47a3.61,3.61,0,0,0,.09-1.43c0-.2,0-.19.17-.18s.14,0,.09.19a11.6,11.6,0,0,0,.14,1.62A14.32,14.32,0,0,0,15.07,24a6.53,6.53,0,0,0,.11.93c.06.2.12.44.12.44s-.09.81-.1,1.65a11.35,11.35,0,0,0,.25,1.75,2.29,2.29,0,0,1-.07.9c-.07.12,0,.28,0,.48a1.08,1.08,0,0,0,.15.47.41.41,0,0,1,0,.19,3.54,3.54,0,0,0,.06.45.86.86,0,0,0,.34.25.27.27,0,0,0,.2-.08.33.33,0,0,0,.21.07.93.93,0,0,1,.24,0c.1,0,.06-.16.1-.17s.05,0,.11-.12-.35-.43-.42-.47a5.45,5.45,0,0,1-.28-1.08,3.65,3.65,0,0,1,.22-1.52,6.5,6.5,0,0,0,.26-2.19,7.91,7.91,0,0,1-.14-.91c0-.16-.05-.57-.05-.67a2.51,2.51,0,0,1,.06-.69,11.92,11.92,0,0,0,.3-1.72,19.52,19.52,0,0,0,0-2.33c-.06-.94-.35-1.05-.3-1.23a2.46,2.46,0,0,0-.1-1,6.6,6.6,0,0,1,0-1.18,3.51,3.51,0,0,0,.26-.59A10.86,10.86,0,0,0,16.87,14a3,3,0,0,0,.24-.18,1.51,1.51,0,0,0,.94.39,12.57,12.57,0,0,0,1.58-.05l.32.15a6.14,6.14,0,0,0,1.71,0c.77,0,2.33,0,2.33,0a1,1,0,0,1,.32.07.66.66,0,0,0,.49.23,1.57,1.57,0,0,1,.38,0,3.17,3.17,0,0,0,.49.23c.06,0,.36.12.41.06s-.35-.2-.4-.24a1,1,0,0,0-.23-.12l.08-.05a4.47,4.47,0,0,0,.47,0c.19,0,.62,0,.62-.07s-.31-.13-.31-.13H26l-.39-.05s0,0,0-.08A2.84,2.84,0,0,1,26.24,14.08Z" style="fill:#005d83"/><path d="M14.48,12.52c-.27,0-.53,0-.53,0a5.74,5.74,0,0,0-.86-.43c-.68-.3-1-.14-1-.14l-.33-.18a7.44,7.44,0,0,1-1-.37,7.36,7.36,0,0,0-1-.68,7.73,7.73,0,0,0-1.73-.57,2.41,2.41,0,0,1-.55-.22c-.16-.09-.38-.13-.36-.23.08-.28-.3-.61-.37-.67a.72.72,0,0,1-.26-.3.52.52,0,0,0-.21-.19.22.22,0,0,0,0,.28c0,.06.18.15.22.2l.08.11c-.09,0-.17,0-.28,0s-.31-.17-.39-.2a1.21,1.21,0,0,1-.3-.22c-.12-.09-.2-.17-.28-.09s.11.25.16.28l.33.22c.06,0,.12.12.16.16a.43.43,0,0,0-.07.1,2.91,2.91,0,0,1-.45-.27c-.24-.15-.42-.3-.49-.19s.16.27.35.4a3.55,3.55,0,0,1,.47.32l0,.08-.26-.09h0l-.44-.25c-.06,0-.17-.06-.22,0s.16.21.32.29.47.25.6.31l0,.05a1.55,1.55,0,0,1-.35,0c-.07,0-.33-.09-.35,0s.18.13.39.16l.54,0,.13.07.16.1.06,0a.51.51,0,0,0,.52,0,1.25,1.25,0,0,1,.31.1l1.53,1c1,.64,1.28.59,1.28.59l1.12.68a4.87,4.87,0,0,0,1.38.52c.05,0,.08.16.08.16a1.23,1.23,0,0,1,0,.85c-.11.35.22.89.19,1.12l1.2.33Z" style="fill:#005d83"/><path d="M5.57,9.58h0Z" style="fill:#005d83"/><path d="M14.53,12.52c.27,0,.53,0,.53,0a5.74,5.74,0,0,1,.86-.43c.68-.3,1-.14,1-.14l.33-.18a8.2,8.2,0,0,0,1-.37,6.47,6.47,0,0,1,1-.68,7.73,7.73,0,0,1,1.73-.57,2.41,2.41,0,0,0,.55-.22c.16-.09.38-.13.36-.23-.08-.28.3-.61.38-.67a.79.79,0,0,0,.25-.3.52.52,0,0,1,.21-.19.22.22,0,0,1,0,.28c0,.06-.18.15-.22.2l-.08.11c.09,0,.17,0,.28,0A4,4,0,0,1,23,8.88a1.21,1.21,0,0,0,.3-.22c.12-.09.2-.17.28-.09s-.11.25-.16.28l-.33.22L23,9.23a.43.43,0,0,1,.07.1,2.48,2.48,0,0,0,.45-.27c.25-.15.42-.3.5-.19s-.17.27-.36.4a3.55,3.55,0,0,0-.47.32.26.26,0,0,1,0,.08l.26-.09h0l.45-.25c.05,0,.16-.06.21,0s-.16.21-.32.29-.47.25-.6.31l0,.05a1.55,1.55,0,0,0,.35,0c.07,0,.33-.09.35,0s-.18.13-.38.16l-.55,0-.13.07-.16.1-.06,0a.51.51,0,0,1-.52,0,1.25,1.25,0,0,0-.31.1l-1.53,1c-1,.64-1.28.59-1.28.59l-1.11.68a5,5,0,0,1-1.39.52c-.05,0-.08.16-.08.16a1.19,1.19,0,0,0,0,.85c.11.35-.34.93-.31,1.16L15,15.74Z" style="fill:#005d83"/><path d="M23.44,9.58h0Z" style="fill:#005d83"/><path d="M13.14,17.7a16,16,0,0,0-2,2.65,3.56,3.56,0,0,0-.67,2,6.8,6.8,0,0,1-.49.73,13.88,13.88,0,0,0-1,1.34A14.12,14.12,0,0,0,8,26.84a1.42,1.42,0,0,1-.43.66.65.65,0,0,0-.12.26,1.17,1.17,0,0,1-.31.25c-.15.08-.4.19-.57.26a1.11,1.11,0,0,0-.39.22c0,.06,0,.06.06.12s.06.09,0,.13.07.07.12.14.2,0,.2,0a.09.09,0,0,1,0,.1c0,.07.12.17.45.12s.34-.28.41-.38.12,0,.29-.06.15-.35.24-.42a.64.64,0,0,0,.26-.36,1.29,1.29,0,0,1,.14-.46A9.52,9.52,0,0,1,9,26.65a11,11,0,0,0,1-1.06c.3-.45.4-1,.56-1.25s.53-.5.63-.7a4.37,4.37,0,0,1,.41-.55c.09-.14.41-.48,1-1.12a3.62,3.62,0,0,0,.79-1.19c.09-.17.07-.17.22-.08l.56-.83Z" style="fill:#005d83"/><path d="M16.15,17.7a16,16,0,0,1,2,2.65,3.56,3.56,0,0,1,.67,2,6.8,6.8,0,0,0,.49.73,13.88,13.88,0,0,1,1,1.34,14.12,14.12,0,0,1,.94,2.41,1.42,1.42,0,0,0,.43.66.65.65,0,0,1,.12.26,1.17,1.17,0,0,0,.31.25c.15.08.4.19.57.26a1.11,1.11,0,0,1,.39.22c.05.06,0,.06-.07.12s-.05.09,0,.13-.07.07-.12.14-.2,0-.2,0a.09.09,0,0,0,0,.1c0,.07-.12.17-.45.12s-.34-.28-.41-.38-.11,0-.29-.06-.15-.35-.24-.42a.64.64,0,0,1-.26-.36,1.29,1.29,0,0,0-.14-.46,9.52,9.52,0,0,0-.53-.81,11,11,0,0,1-1-1.06c-.3-.45-.4-1-.56-1.25s-.53-.5-.63-.7a5.62,5.62,0,0,0-.41-.55c-.09-.14-.41-.48-1-1.12A3.62,3.62,0,0,1,16,20.78c-.09-.17-.07-.17-.22-.08l-.56-.83Z" style="fill:#005d83"/></svg>