<svg xmlns="http://www.w3.org/2000/svg" viewBox="0 0 40 40"><title>bc_rrhr</title><path d="M22.29,28.53h0a.37.37,0,0,1-.35-.35l-.65-10.94-.39,5a.36.36,0,0,1-.27.32.35.35,0,0,1-.39-.13l-.44-.58h-.29a.37.37,0,0,1-.32-.2l-.53-1-.52,1.13a.38.38,0,0,1-.34.22h-.53l-.14.76a.4.4,0,0,1-.32.3.37.37,0,0,1-.38-.21l-.48-1H15.4a.28.28,0,0,1-.13,0l-1.52-.57L12.42,22a.47.47,0,0,1-.17,0H7.62a.37.37,0,0,1,0-.74h4.54l1.4-.72a.35.35,0,0,1,.3,0l1.6.61h.7a.36.36,0,0,1,.33.21l.1.19a.36.36,0,0,1,.35-.27h.61l.73-1.6a.38.38,0,0,1,.67,0l.77,1.48H20a.35.35,0,0,1,.25.1L21,11.81a.37.37,0,0,1,.37-.34.37.37,0,0,1,.37.35l.77,13L23,21.51a.38.38,0,0,1,.39-.31l1.13.07,2-1.93a.4.4,0,0,1,.29-.1.37.37,0,0,1,.27.16l1.31,1.88h4a.37.37,0,0,1,0,.74H28.2a.37.37,0,0,1-.3-.16l-1.17-1.69-1.81,1.75a.39.39,0,0,1-.28.1L23.69,22l-1,6.26A.37.37,0,0,1,22.29,28.53Z" style="fill:#005d83"/></svg>