<svg xmlns="http://www.w3.org/2000/svg" viewBox="0 0 40 40"><title>bc_hrmax</title><path d="M35.76,21.64H32.55l-.77-1.57a.31.31,0,0,0-.31-.18.32.32,0,0,0-.28.24l-.37,1.39-.71-3.46a.33.33,0,0,0-.34-.25.33.33,0,0,0-.3.29l-1,10.82-1.06-22a.3.3,0,0,0-.31-.3h0a.32.32,0,0,0-.31.3l-.89,14.17L25.27,19a.31.31,0,0,0-.33-.22.31.31,0,0,0-.29.27l-.7,5-1.18-2.67a.31.31,0,0,0-.29-.19H17.93l-.77-1.57a.32.32,0,0,0-.6.06L16.2,21.1l-.72-3.46a.32.32,0,0,0-.33-.26.33.33,0,0,0-.3.29l-1,10.82-1.06-22a.33.33,0,0,0-.32-.31h0a.32.32,0,0,0-.32.3l-.88,14.18-.62-2.08a.32.32,0,0,0-.33-.23.33.33,0,0,0-.3.27l-.69,5L8.15,21a.33.33,0,0,0-.29-.19H4.24a.33.33,0,0,0-.32.32.32.32,0,0,0,.32.32H7.65l1.55,3.5a.31.31,0,0,0,.6-.08l.65-4.66.72,2.39a.32.32,0,0,0,.63-.07l.63-10.19,1,20.74a.31.31,0,0,0,.31.3h0a.32.32,0,0,0,.32-.29l1.22-13.21.56,2.7a.32.32,0,0,0,.31.25h0a.31.31,0,0,0,.31-.24L17,20.7l.48,1a.31.31,0,0,0,.29.18h4.54l1.55,3.5a.32.32,0,0,0,.34.19.32.32,0,0,0,.27-.27l.65-4.66L25.79,23a.34.34,0,0,0,.35.23.33.33,0,0,0,.28-.3l.63-10.19,1,20.73a.33.33,0,0,0,.32.31h0a.32.32,0,0,0,.32-.29l1.22-13.21L30.47,23a.33.33,0,0,0,.31.26h0A.33.33,0,0,0,31.1,23l.49-1.87.47,1a.33.33,0,0,0,.29.18h3.41a.32.32,0,0,0,.32-.32A.33.33,0,0,0,35.76,21.64Z" style="fill:#005d83"/></svg>