<svg xmlns="http://www.w3.org/2000/svg" viewBox="0 0 100 100"><title>bc_res_abf</title><path d="M6.1,55l7.27-3.24s3.81-2.62,4.58-4.54l6-10.67s.34-2,5.15-6.26c0,0,5.45-5.47,6.09-9.42,0,0,.6-4.9-.46-7.17,0,0,3.93-2.28,6.19,2.77,0,0,3.24,6.44.51,11.71l-4,7.51L37,38.18l4.88,1.24,6.33.58s7.46,1.83,8.61,4.31c0,0,5.79,6-1,8.77,0,0,2.83,4.84-3.2,8.64,0,0,1,3.37-3.11,6.13,0,0,1.27,6.4-4.7,7.78l-1.41.4s-1.25,1.33-4.27-.12c0,0-9.56.34-13.23-.93,0,0-5.09.45-5.42.78Z" style="fill:#65a5cd"/><path d="M59.1,61.64a8.05,8.05,0,1,1,8.05,7.88A7.85,7.85,0,0,1,59.1,61.64Zm4.41,22.69L86.07,52l3.43,2.44L66.93,86.77Zm6.38-22.69a2.64,2.64,0,0,0-2.74-2.7,2.7,2.7,0,1,0,0,5.4A2.62,2.62,0,0,0,69.89,61.64Zm7.92,15.5a8,8,0,1,1,8,7.87A7.82,7.82,0,0,1,77.81,77.14Zm10.79,0a2.63,2.63,0,0,0-2.74-2.7,2.68,2.68,0,1,0,0,5.35A2.61,2.61,0,0,0,88.6,77.14Z" style="fill:#65a5cd"/></svg>