<svg xmlns="http://www.w3.org/2000/svg" viewBox="0 0 100 100"><title>bc_res_bf</title><path d="M61.38,49.3a8.05,8.05,0,1,1,8.05,7.88A7.84,7.84,0,0,1,61.38,49.3ZM65.79,72,88.35,39.67l3.43,2.44L69.21,74.43ZM72.17,49.3a2.64,2.64,0,0,0-2.74-2.69,2.68,2.68,0,0,0-2.79,2.69A2.66,2.66,0,0,0,69.43,52,2.62,2.62,0,0,0,72.17,49.3Zm7.92,15.5a8,8,0,1,1,8,7.88A7.82,7.82,0,0,1,80.09,64.8Zm10.79,0a2.62,2.62,0,0,0-2.74-2.69,2.68,2.68,0,1,0,0,5.35A2.62,2.62,0,0,0,90.88,64.8Z" style="fill:#36c5f3"/><path d="M67.31,33.57c.64,0,1.42,0,1.4-.46s-1-.26-1.46-.23-1.22-.05-1.53,0c0-.13,0-.17,0-.27l.66-.16c.18,0,.87-.06,1.1-.08s.93-.14.94-.45-.55-.29-1-.22a5,5,0,0,1-1.06.16c-.23,0-1-.06-1.37-.06s-.29-.17-.48-.28a1.86,1.86,0,0,0,.33-.24c.15-.07.58-.1.78-.18a.52.52,0,0,0,.32-.69.89.89,0,0,0-.76.17,2.4,2.4,0,0,1-1,.36c-1.8.31-1.34.89-1.84,1.08a22.22,22.22,0,0,1-3.66-.11,11.15,11.15,0,0,1-1.42-.15s-3.2-.76-5-1a3.64,3.64,0,0,0-2.47.28A6.07,6.07,0,0,1,48,30.88c-1-.22-2.88-.25-3.28-.47a12.73,12.73,0,0,0-3-1.14c-1.52-.37-2.05,0-2.05,0S37.74,28.12,37,27.6a1.52,1.52,0,0,1-.4-1.46,1.44,1.44,0,0,0,.29-.8v-.68a1.6,1.6,0,0,0,.75-.76c.19-.48.15-1.16,0-1.24a3,3,0,0,1-.34-.15s.3-3.46-2.15-3.42a2.47,2.47,0,0,0-2.59,2.75v.71a.25.25,0,0,0-.42,0A1.46,1.46,0,0,0,32,23.68a5,5,0,0,0,.75.87,3.91,3.91,0,0,1,0,.63,1.41,1.41,0,0,0,.22.65,10.77,10.77,0,0,1-.19,1.8c-.15.52-2.63,1.64-2.63,1.64a16.69,16.69,0,0,0-2.66.15c-2,.22-2.51,1-2.51,1l-1,0c-1,0-1.8.49-2.82.43a17.43,17.43,0,0,0-3.28-.28,20.41,20.41,0,0,0-5,1,6.67,6.67,0,0,1-1.62.23c-.51,0-1.1.22-1.17,0C10,31,8.59,30.74,8.33,30.72a2.49,2.49,0,0,1-1-.36,1.19,1.19,0,0,0-.76-.16.57.57,0,0,0,.32.69c.2.09.63.1.79.17l.35.17c-.17.21-.41.24-.68.37s-1,0-1.2,0a3.58,3.58,0,0,1-1.06-.11c-.4-.06-.71-.14-.79.16s.61.45.78.46a9.29,9.29,0,0,1,1.11.07,4.59,4.59,0,0,1,.59.16,1.72,1.72,0,0,0,0,.34,9,9,0,0,1-1.46,0c-.79,0-1.44-.13-1.45.23s.76.41,1.39.47a10.31,10.31,0,0,1,1.58.11.85.85,0,0,0,0,.24s-1,.19-.78.16a8.91,8.91,0,0,0-1.38,0c-.16,0-.49.07-.5.35s.68.26,1.19.25,1.45-.05,1.86-.1l.1.09a4.42,4.42,0,0,1-.86.44c-.21,0-.9.25-.8.54s.62.06,1.13-.16c.33-.14,1.06-.51,1.37-.64l.41,0a5,5,0,0,1,.52,0h.21A1.42,1.42,0,0,0,10.58,34a2.79,2.79,0,0,1,.88-.19l5,.15c3.38.11,3.9-.34,3.9-.34l3.62.09a12.62,12.62,0,0,0,4-.68c.19,0,.44.28.44.28a11.51,11.51,0,0,0,.31,2.24,17.82,17.82,0,0,0,1.14,3.12A18.57,18.57,0,0,1,30,42.49c-.22,1,.09,2.35-.22,2.94a44.16,44.16,0,0,0-1.18,9.19c-.12,3.93,1.18,5.76,1.18,5.76a17.83,17.83,0,0,1-.16,2.41,39.26,39.26,0,0,0-.58,4.65,37,37,0,0,0,1.08,7.09A3.72,3.72,0,0,1,30,76.69a2.47,2.47,0,0,0,.06.81,3.41,3.41,0,0,1-.4,1c-.25.4-.68,1-1,1.43A3.54,3.54,0,0,0,28,81c0,.22.19.09.34.22s.25.12.25.24.28.06.5.19.52-.19.52-.19a.25.25,0,0,1,.22.19c.06.18.53.25,1.24-.34s.43-1.15.47-1.46.3-.12.61-.55-.12-1.06,0-1.34a1.86,1.86,0,0,0,.13-1.23,3.59,3.59,0,0,1-.31-1.3,26.66,26.66,0,0,1,.15-2.7A35,35,0,0,0,33,68.86a35.94,35.94,0,0,0-.41-3.78c0-.8.59-1.91.56-2.53a15.41,15.41,0,0,1,.22-1.89,40.85,40.85,0,0,1,.87-4.09,10.25,10.25,0,0,0,.25-4c0-.56-.07-.53.46-.49s.37-.1.24.52a31.89,31.89,0,0,0,.38,4.49c.15,1.46.74,3.68.77,3.9a18.06,18.06,0,0,0,.28,2.57c.19.56.34,1.24.34,1.24s-.25,2.23-.28,4.58.65,3.65.71,4.83a6.33,6.33,0,0,1-.21,2.51c-.19.34-.07.77-.09,1.33a2.83,2.83,0,0,0,.4,1.3,1,1,0,0,1,.12.52,10.76,10.76,0,0,0,.15,1.24,2.51,2.51,0,0,0,1,.72.73.73,0,0,0,.56-.22s.31.25.56.18a2.48,2.48,0,0,1,.68-.12c.28,0,.16-.43.28-.46s.12-.07.31-.35-1-1.17-1.18-1.3a15.93,15.93,0,0,1-.77-3,9.72,9.72,0,0,1,.62-4.24,17.86,17.86,0,0,0,.71-6.07,19.82,19.82,0,0,1-.4-2.5c0-.47-.13-1.58-.13-1.86A7.09,7.09,0,0,1,40.12,60,29.91,29.91,0,0,0,41,55.27a53.32,53.32,0,0,0-.13-6.47c-.19-2.59-1-2.91-.84-3.4a7.3,7.3,0,0,0-.27-2.76,18.45,18.45,0,0,1,0-3.25,9,9,0,0,0,.71-1.64,31.7,31.7,0,0,0,.9-4.49,7.17,7.17,0,0,0,.65-.5,4.29,4.29,0,0,0,2.6,1.08A32.41,32.41,0,0,0,49,33.69l.9.41c.89.4,2.26,0,4.74,0L61.05,34a3.2,3.2,0,0,1,.9.18,1.76,1.76,0,0,0,1.36.65,3.9,3.9,0,0,1,1,0,9.36,9.36,0,0,0,1.36.64c.16.1,1,.32,1.13.15s-.95-.54-1.09-.66a3.45,3.45,0,0,0-.65-.34s.16-.07.22-.13c.32,0,1.12.1,1.32.11.51,0,1.72.1,1.72-.18s-.88-.38-.88-.38h-.82l-1.1-.16c0-.07,0-.12.05-.2A6.67,6.67,0,0,1,67.31,33.57Z" style="fill:#36c5f3"/><path d="M34.7,29.25c-.75,0-1.47-.09-1.47-.09A17.16,17.16,0,0,0,30.84,28c-1.88-.83-2.66-.39-2.66-.39l-.9-.49a24.25,24.25,0,0,1-2.66-1,17.66,17.66,0,0,0-2.7-1.88,20.49,20.49,0,0,0-4.8-1.59A6.74,6.74,0,0,1,15.6,22c-.44-.26-1.06-.37-1-.63.21-.78-.83-1.71-1-1.86a2.44,2.44,0,0,1-.71-.83,1.19,1.19,0,0,0-.58-.52.58.58,0,0,0-.07.76c.13.17.5.4.6.55l.22.31c-.25.11-.47,0-.77,0-.32-.18-.87-.47-1.07-.55a3.58,3.58,0,0,1-.86-.63c-.32-.26-.55-.47-.76-.25s.29.69.44.78a8.76,8.76,0,0,1,.92.62,6,6,0,0,1,.44.43,1.32,1.32,0,0,0-.19.29,8.37,8.37,0,0,1-1.25-.76c-.68-.41-1.18-.83-1.37-.53s.45.75,1,1.11a9.14,9.14,0,0,1,1.31.89,1,1,0,0,0-.08.23L10,21.11s0,0,0,0,0,0,0,0c-.1-.09-1.11-.64-1.23-.69s-.46-.18-.61.06.46.56.9.8,1.28.69,1.67.85a.4.4,0,0,0,0,.13,4.42,4.42,0,0,1-1-.05c-.2-.08-.9-.24-1,.07s.5.36,1.06.42c.35.05,1.17.1,1.5.14a2.46,2.46,0,0,1,.37.18l.44.28.18.1a1.38,1.38,0,0,0,1.43.07,2.9,2.9,0,0,1,.86.29L19,26.39c2.88,1.79,3.55,1.66,3.55,1.66s1.3.78,3.09,1.89a12.66,12.66,0,0,0,3.83,1.42c.16.09.23.46.23.46a3.47,3.47,0,0,1,0,2.35c-.31,1,.6,2.47.53,3.12l3.32.9Z" style="fill:#36c5f3"/><path d="M10,21.11s.06,0,0,0S9.93,21.08,10,21.11Z" style="fill:#36c5f3"/><path d="M34.83,29.25c.75,0,1.48-.09,1.48-.09A16.47,16.47,0,0,1,38.68,28c1.88-.83,2.68-.39,2.68-.39l.9-.49a24.91,24.91,0,0,0,2.65-1,17.66,17.66,0,0,1,2.7-1.88,20.26,20.26,0,0,1,4.81-1.59A6.84,6.84,0,0,0,53.93,22c.44-.26,1.06-.37,1-.63-.21-.78.84-1.71,1-1.86a2.35,2.35,0,0,0,.72-.83,1.15,1.15,0,0,1,.57-.52.57.57,0,0,1,.07.76c-.12.17-.5.4-.59.55s-.12.16-.23.31c.25.11.47,0,.77,0,.32-.19.88-.48,1.07-.56a3.58,3.58,0,0,0,.86-.63c.32-.26.55-.47.77-.25s-.3.69-.45.78a8.76,8.76,0,0,0-.92.62,4.36,4.36,0,0,0-.43.43,2.94,2.94,0,0,1,.19.29,7.86,7.86,0,0,0,1.24-.76c.68-.41,1.18-.83,1.38-.53s-.46.75-1,1.11a9.74,9.74,0,0,0-1.31.89,1,1,0,0,1,.08.23l.72-.25s0,0,0,0,0,0,0,0a13.56,13.56,0,0,1,1.24-.69c.14-.05.46-.18.6.06s-.45.56-.9.8-1.29.69-1.67.85a.4.4,0,0,1,0,.13,4.42,4.42,0,0,0,1-.05c.2-.08.9-.24,1,.07s-.5.36-1.06.42c-.35.05-1.17.1-1.5.14a3,3,0,0,0-.37.18l-.44.28-.18.1a1.37,1.37,0,0,1-1.42.07,2.87,2.87,0,0,0-.87.29l-4.25,2.63C47.7,28.18,47,28.05,47,28.05s-1.3.78-3.09,1.89a12.66,12.66,0,0,1-3.83,1.42c-.16.09-.23.46-.23.46a3.22,3.22,0,0,0-.1,2.35c.3,1-.94,2.59-.87,3.23L36,38.19Z" style="fill:#36c5f3"/><path d="M59.55,21.11s0,0,0,0S59.6,21.08,59.55,21.11Z" style="fill:#36c5f3"/><path d="M31,43.62A44.21,44.21,0,0,0,25.37,51c-2.07,3.34-1.86,5.57-1.86,5.57a18.76,18.76,0,0,1-1.34,2,39,39,0,0,0-2.83,3.72A37.24,37.24,0,0,0,16.73,69a3.8,3.8,0,0,1-1.19,1.81,2.64,2.64,0,0,0-.35.73,3,3,0,0,1-.86.68c-.42.23-1.1.55-1.57.74a3.58,3.58,0,0,0-1.09.59c-.13.17.12.17.19.35s.15.23.09.34.21.19.34.41.54.1.54.1a.25.25,0,0,1,.1.27c0,.2.33.48,1.24.33s.95-.78,1.13-1,.33,0,.82-.17.41-1,.66-1.16a1.86,1.86,0,0,0,.73-1,3.55,3.55,0,0,1,.38-1.28,24.83,24.83,0,0,1,1.48-2.25A34.58,34.58,0,0,0,22,65.49,35.43,35.43,0,0,0,23.57,62c.43-.68,1.47-1.37,1.75-1.92a13.83,13.83,0,0,1,1.14-1.53,40.64,40.64,0,0,1,2.79-3.1,9.73,9.73,0,0,0,2.19-3.31c.25-.48.21-.48.62-.22l1.55-2.3Z" style="fill:#36c5f3"/><path d="M39.34,43.62A44.93,44.93,0,0,1,44.93,51c2.08,3.34,1.86,5.57,1.86,5.57a17.86,17.86,0,0,0,1.35,2A40.71,40.71,0,0,1,51,62.29,37.91,37.91,0,0,1,53.57,69a3.8,3.8,0,0,0,1.19,1.81,2.14,2.14,0,0,1,.35.73,3.33,3.33,0,0,0,.86.68c.42.23,1.1.55,1.57.74a3.58,3.58,0,0,1,1.09.59c.14.17-.11.17-.19.35s-.15.23-.09.34-.21.19-.33.41-.55.1-.55.1a.25.25,0,0,0-.1.27c0,.2-.33.48-1.24.33s-1-.78-1.13-1-.33,0-.82-.17-.41-1-.66-1.16a1.86,1.86,0,0,1-.73-1,3.55,3.55,0,0,0-.38-1.28,24.83,24.83,0,0,0-1.48-2.25,36.37,36.37,0,0,1-2.66-2.94A35.43,35.43,0,0,1,46.73,62c-.43-.68-1.46-1.37-1.75-1.92a15.24,15.24,0,0,0-1.13-1.53c-.26-.38-1.13-1.34-2.79-3.1a9.84,9.84,0,0,1-2.2-3.31c-.24-.48-.21-.48-.61-.22l-1.55-2.3Z" style="fill:#36c5f3"/></svg>