<svg xmlns="http://www.w3.org/2000/svg" viewBox="0 0 100 100"><title>bc_res_wthratio</title><circle cx="51.33" cy="56.96" r="0.99" style="fill:#3c55a4"/><path d="M59.92,38.12a.63.63,0,0,1-.19,0C49.47,34.92,43.44,38,43.38,38a.67.67,0,0,1-.9-.27.66.66,0,0,1,.27-.89c.27-.14,6.54-3.4,17.37-.05a.66.66,0,0,1,.43.83A.65.65,0,0,1,59.92,38.12Z" style="fill:#3c55a4"/><path d="M56.39,46.24a17.76,17.76,0,0,1-5.07-.82c-4.18,1.2-7.43,1-9.68-.62a7.39,7.39,0,0,1-2.87-5.33.66.66,0,1,1,1.32,0,6.15,6.15,0,0,0,2.34,4.32c1.93,1.37,4.86,1.5,8.71.36a.64.64,0,0,1,.41,0c.05,0,5.65,1.93,8.82-.19a5.46,5.46,0,0,0,2.2-4.52.66.66,0,0,1,1.32.08A6.69,6.69,0,0,1,61.1,45,8.44,8.44,0,0,1,56.39,46.24Z" style="fill:#3c55a4"/><path d="M46.75,54.28a8.2,8.2,0,0,1-4.86-1.39,7.9,7.9,0,0,1-3.12-5.58.66.66,0,0,1,.62-.7.65.65,0,0,1,.7.61h0a6.7,6.7,0,0,0,2.57,4.6c1.86,1.3,4.55,1.49,8,.56v-19a.66.66,0,1,1,1.32,0v19.5a.65.65,0,0,1-.48.64A17.06,17.06,0,0,1,46.75,54.28Z" style="fill:#3c55a4"/><path d="M56,54.14a21.94,21.94,0,0,1-4.78-.61.66.66,0,0,1,.3-1.29c4.33,1,7.47.71,9.32-.86a5.39,5.39,0,0,0,1.77-4.07.66.66,0,0,1,1.32-.09,6.63,6.63,0,0,1-2.22,5.15A8.52,8.52,0,0,1,56,54.14Z" style="fill:#3c55a4"/><path d="M69.4,37.39h-3a.67.67,0,0,1,0-1.33h3a.67.67,0,0,1,0,1.33Z" style="fill:#3c55a4"/><path d="M70.72,41.43H67.91a.67.67,0,0,1,0-1.33h2.81a.67.67,0,0,1,0,1.33Z" style="fill:#3c55a4"/><path d="M36.46,37.39H33.15a.67.67,0,0,1,0-1.33h3.31a.67.67,0,0,1,0,1.33Z" style="fill:#3c55a4"/><path d="M34.8,41.43H32.16a.67.67,0,0,1,0-1.33H34.8a.67.67,0,1,1,0,1.33Z" style="fill:#3c55a4"/><path d="M42,62.69a.67.67,0,0,1-.49-.21c-1.55-1.67-1.9-6.58-1.94-7.13a.67.67,0,0,1,.62-.7.66.66,0,0,1,.7.62c.09,1.37.55,5.19,1.59,6.31A.66.66,0,0,1,42,62.69Z" style="fill:#3c55a4"/><path d="M60.81,62.69a.67.67,0,0,1-.53-.26.66.66,0,0,1,.12-.92c.41-.39,1-3.25,1.18-6.25a.66.66,0,0,1,.71-.61.67.67,0,0,1,.61.71c-.14,1.87-.59,6.33-1.69,7.19A.67.67,0,0,1,60.81,62.69Z" style="fill:#3c55a4"/><path d="M30.07,64.34H30a.65.65,0,0,1-.53-.77c2.14-11.8-4.1-28.72-4.16-28.89a.66.66,0,0,1,1.24-.47c.26.71,6.43,17.44,4.22,29.6A.66.66,0,0,1,30.07,64.34Z" style="fill:#3c55a4"/><path d="M72.89,64.34a.65.65,0,0,1-.65-.54c-2.22-12.16,4-28.89,4.21-29.6a.66.66,0,0,1,.85-.38.65.65,0,0,1,.39.85c-.06.17-6.3,17.1-4.15,28.89a.67.67,0,0,1-.54.77Z" style="fill:#3c55a4"/><path d="M79.2,44.16a.64.64,0,0,1-.43-.16.67.67,0,0,1-.2-.68l1.32-4.72a.66.66,0,0,1,.81-.45.65.65,0,0,1,.46.81l-.94,3.37c5-2.33,7.62-4.64,7.44-6.73-.33-3.81-9.51-6.8-13-7.63A.66.66,0,0,1,75,26.68a46.33,46.33,0,0,1,6.7,2.22c4.66,2,7.12,4.2,7.33,6.59.25,3-2.86,5.78-9.52,8.62A.58.58,0,0,1,79.2,44.16Z" style="fill:#3c55a4"/><path d="M84.05,45.83a.76.76,0,0,1-.21,0L79,44.13a.66.66,0,0,1,.43-1.25l4.85,1.67a.66.66,0,0,1-.22,1.28Z" style="fill:#3c55a4"/><path d="M80.81,74.79a.72.72,0,0,1-.44-.16.69.69,0,0,1-.2-.68l1.33-4.72a.66.66,0,1,1,1.27.36L81.83,73c5-2.33,7.62-4.64,7.44-6.73-.33-3.82-9.51-6.8-13-7.63a.67.67,0,0,1-.49-.8.66.66,0,0,1,.8-.49,46.33,46.33,0,0,1,6.7,2.22c4.65,2,7.12,4.2,7.32,6.59.26,3-2.85,5.78-9.51,8.62A.75.75,0,0,1,80.81,74.79Z" style="fill:#3c55a4"/><path d="M85.66,76.46a.83.83,0,0,1-.22,0l-4.85-1.67a.67.67,0,0,1-.4-.85.65.65,0,0,1,.84-.4l4.84,1.67a.66.66,0,0,1-.21,1.28Z" style="fill:#3c55a4"/><path d="M30.26,74.48l-.15,0a46.33,46.33,0,0,1-6.7-2.22c-4.66-2-7.12-4.2-7.33-6.59-.25-3,2.86-5.78,9.52-8.62a.66.66,0,0,1,.89.79l-1.32,4.72a.66.66,0,1,1-1.27-.36l.94-3.37c-5.05,2.33-7.62,4.64-7.44,6.73.33,3.82,9.51,6.8,13,7.63a.67.67,0,0,1,.5.8A.68.68,0,0,1,30.26,74.48Z" style="fill:#3c55a4"/><path d="M25.86,58.3a.54.54,0,0,1-.22,0l-4.85-1.67a.66.66,0,0,1-.41-.84.68.68,0,0,1,.84-.41L26.07,57a.67.67,0,0,1,.41.85A.65.65,0,0,1,25.86,58.3Z" style="fill:#3c55a4"/><path d="M24.69,43.85l-.15,0a45.49,45.49,0,0,1-6.7-2.22c-4.66-2-7.12-4.19-7.33-6.59-.25-3,2.86-5.78,9.51-8.62a.66.66,0,0,1,.7.12.65.65,0,0,1,.2.67L19.6,31.91a.66.66,0,1,1-1.28-.36l.95-3.37c-5.06,2.33-7.62,4.64-7.44,6.73.32,3.82,9.5,6.81,13,7.64a.66.66,0,0,1-.15,1.3Z" style="fill:#3c55a4"/><path d="M20.28,27.67a.76.76,0,0,1-.21,0L15.22,26a.67.67,0,0,1-.41-.84.65.65,0,0,1,.84-.41l4.85,1.67a.66.66,0,0,1-.22,1.28Z" style="fill:#3c55a4"/></svg>