<svg xmlns="http://www.w3.org/2000/svg" viewBox="0 0 100 100"><title>bc_res_bmi</title><path d="M77.49,76.79c9.84-27.41,1.91-50.48,1.91-50.48-28.66-7.14-58.72.3-58.72.3s-8.15,22.33,2,50.18" style="fill:#0082ca"/><path d="M63.63,51.72V62H60.84V58h-4v4H54.09V51.72h2.79v3.72h4V51.72Z" style="fill:#fff"/><path d="M74.39,54.28h-3.3V62H68.3V54.28H65V51.72h9.39Z" style="fill:#fff"/><path d="M48.09,56.28l4.39-12.19,1.61.61L49.7,56.86Z" style="fill:#fff"/><path d="M25.61,38.13V38h2.93l1.72,6,1.92-5.73h2L36.09,44l1.71-6h2.93v.13L37.41,48.28H35.05L33.17,42.7l-1.88,5.58H28.94Z" style="fill:#fff"/><path d="M50.62,40.56h-3.3v7.72H44.53V40.56h-3.3V38h9.39Z" style="fill:#fff"/></svg>