<svg xmlns="http://www.w3.org/2000/svg" viewBox="0 0 40 40"><title>bc_sf_subscapular</title><path d="M29.91,17.48c-.13-.21-.64-1-.64-1A17.68,17.68,0,0,0,27,12.88c-.25-.17-2-2-2-2a5.49,5.49,0,0,0-1.6-1.64,38.8,38.8,0,0,0-4.1-.64c-.89,0-1.06.38-1.06.38a13.75,13.75,0,0,1-.55,2.32c0,.47,1.1.43,1.1.43a.6.6,0,0,0,.64.8c.08-.21.93-.38.93-.38a4.51,4.51,0,0,0,1.9-.68c.8-.29,2.19,3,2.19,3a10.27,10.27,0,0,0,.85,3.68c-1.52-.64-4.23.25-4.23.25-3.75-1.14-5.77-.2-6.59.4-.55-.34-1.08-.69-1.41-.93a1.9,1.9,0,0,1-.5-1.83,1.84,1.84,0,0,0,.36-1v-.86a2,2,0,0,0,1-1c.23-.61.18-1.46-.05-1.56s-.43-.18-.43-.18.38-4.35-2.69-4.31a4.24,4.24,0,0,0-1.34.23V32.85h7.07c0-.13,0-.2,0-.2a12,12,0,0,0,.89-2.06,24.81,24.81,0,0,0,1-5,12.64,12.64,0,0,0,.52-1.42C24,25.89,28,21.92,28,21.92c2.49-1,2.7-2.16,2.7-2.16A8.16,8.16,0,0,0,29.91,17.48Z" style="fill:#005d83"/></svg>