<svg xmlns="http://www.w3.org/2000/svg" viewBox="0 0 40 40"><title>bc_sf_supersillac</title><circle cx="19.93" cy="24.24" r="0.5" style="fill:#005d83"/><path d="M24.25,14.76l-.09,0c-5.17-1.6-8.21,0-8.24,0a.33.33,0,0,1-.31-.59c.13-.07,3.29-1.71,8.74,0a.33.33,0,0,1-.1.65Z" style="fill:#005d83"/><path d="M22.48,18.85a8.72,8.72,0,0,1-2.56-.42c-2.1.61-3.74.5-4.87-.31a3.7,3.7,0,0,1-1.45-2.68.34.34,0,0,1,.32-.35.34.34,0,0,1,.35.32,3,3,0,0,0,1.17,2.17c1,.7,2.45.76,4.39.19a.37.37,0,0,1,.21,0s2.84,1,4.44-.09a2.79,2.79,0,0,0,1.11-2.28.33.33,0,1,1,.66,0,3.4,3.4,0,0,1-1.4,2.79A4.24,4.24,0,0,1,22.48,18.85Z" style="fill:#005d83"/><path d="M17.62,22.9a4.19,4.19,0,0,1-2.45-.7,4,4,0,0,1-1.57-2.82.33.33,0,0,1,.31-.35.34.34,0,0,1,.36.31h0a3.35,3.35,0,0,0,1.29,2.32,4.78,4.78,0,0,0,4,.28V12.37a.34.34,0,0,1,.67,0v9.82a.33.33,0,0,1-.24.32A8.54,8.54,0,0,1,17.62,22.9Z" style="fill:#005d83"/><path d="M22.26,22.82a11.07,11.07,0,0,1-2.41-.3.34.34,0,0,1-.25-.4.33.33,0,0,1,.4-.25c2.18.5,3.76.35,4.7-.44a2.72,2.72,0,0,0,.89-2.05A.33.33,0,0,1,25.9,19a.33.33,0,0,1,.35.31,3.34,3.34,0,0,1-1.12,2.59A4.23,4.23,0,0,1,22.26,22.82Z" style="fill:#005d83"/><path d="M29,14.39h-1.5a.34.34,0,1,1,0-.67H29a.34.34,0,0,1,0,.67Z" style="fill:#005d83"/><path d="M29.69,16.42H28.28a.34.34,0,0,1-.34-.33.33.33,0,0,1,.34-.33h1.41a.32.32,0,0,1,.33.33A.33.33,0,0,1,29.69,16.42Z" style="fill:#005d83"/><path d="M12.44,14.39H10.77a.34.34,0,0,1,0-.67h1.67a.34.34,0,0,1,0,.67Z" style="fill:#005d83"/><path d="M11.6,16.42H10.27a.33.33,0,0,1-.33-.33.33.33,0,0,1,.33-.33H11.6a.33.33,0,0,1,.34.33A.34.34,0,0,1,11.6,16.42Z" style="fill:#005d83"/><path d="M15.21,27.13A.32.32,0,0,1,15,27c-.78-.84-1-3.31-1-3.59a.33.33,0,0,1,.66,0c0,.69.28,2.62.8,3.18a.33.33,0,0,1,0,.47A.35.35,0,0,1,15.21,27.13Z" style="fill:#005d83"/><path d="M24.7,27.13a.34.34,0,0,1-.27-.13.35.35,0,0,1,.06-.47,9.3,9.3,0,0,0,.6-3.14.32.32,0,0,1,.35-.31.33.33,0,0,1,.31.36c-.07.94-.29,3.19-.85,3.62A.31.31,0,0,1,24.7,27.13Z" style="fill:#005d83"/><path d="M9.22,28H9.16a.34.34,0,0,1-.27-.39C10,21.63,6.83,13.1,6.8,13a.33.33,0,1,1,.62-.24c.13.36,3.24,8.79,2.13,14.91A.33.33,0,0,1,9.22,28Z" style="fill:#005d83"/><path d="M30.78,28a.33.33,0,0,1-.33-.27c-1.11-6.12,2-14.55,2.13-14.91a.33.33,0,0,1,.43-.19.33.33,0,0,1,.19.43c0,.08-3.17,8.61-2.09,14.55a.34.34,0,0,1-.27.39Z" style="fill:#005d83"/></svg>