<svg xmlns="http://www.w3.org/2000/svg" viewBox="0 0 40 40"><title>bc_sf_chest</title><path d="M32.7,18.28c-1,.48-2,.6-3,1.1-1.12.6-1.19.65-1.19.65s-1-.59-3.52.52l-.88.39c-.51-.32-1-.65-1.32-.88a2,2,0,0,1-.53-1.92,1.92,1.92,0,0,0,.39-1.05v-.9a2.15,2.15,0,0,0,1-1c.25-.64.2-1.54,0-1.64a4.63,4.63,0,0,1-.45-.19s.4-4.57-2.82-4.52a3.25,3.25,0,0,0-3.43,3.62v.94a.32.32,0,0,0-.55.06,1.89,1.89,0,0,0-.15,1.44,6.69,6.69,0,0,0,1,1.14,5.5,5.5,0,0,1,.05.84,2,2,0,0,0,.28.86,13.3,13.3,0,0,1-.24,2.36c-.08.28-.65.68-1.3,1.06-.38-.18-.81-.38-1.34-.61-2.48-1.11-3.52-.52-3.52-.52s-.07-.05-1.19-.65a25.7,25.7,0,0,0-2.64-.92v4.43l.42.26,0,0,0,0a13.15,13.15,0,0,1,3.12,3,3.37,3.37,0,0,1,.63,1.48l0,0v.1a7,7,0,0,1,.07.81,17.29,17.29,0,0,0,.34,2c0,.13.06.27.1.4q6.59,0,13.18.13h.75l2,0c.23-1.19.37-2.39.46-3.06a2.94,2.94,0,0,1,.34-1.57c.72-1.26,2.16-2.18,3.09-3.29h0l0,0a.25.25,0,0,1,.12-.07l.75-.46Z" style="fill:#005d83"/></svg>