<?xml version="1.0" encoding="utf-8"?>
<!-- Generator: Adobe Illustrator 23.0.3, SVG Export Plug-In . SVG Version: 6.00 Build 0)  -->
<svg version="1.1" id="Layer_1" xmlns="http://www.w3.org/2000/svg" xmlns:xlink="http://www.w3.org/1999/xlink" x="0px" y="0px"
	 viewBox="0 0 40 40" style="enable-background:new 0 0 40 40;" xml:space="preserve">
<style type="text/css">
	.st0{fill:#005D83;}
</style>
<g>
	<g>
		<g>
			<path class="st0" d="M25.7,16.2c-0.1,0-0.2,0-0.2,0c-2.7-0.1-4.7-2.2-5.4-3c-1.9,2.1-3.9,3.1-6,3c-3.4-0.2-5.6-3.2-5.7-3.3
				c-0.1-0.2-0.1-0.4,0.1-0.5c0.2-0.1,0.4-0.1,0.5,0.1c0,0,2.1,2.9,5.2,3c1.9,0.1,3.8-0.9,5.7-3c0.1-0.1,0.2-0.1,0.3-0.1
				c0.1,0,0.2,0.1,0.3,0.1c0,0,2.1,2.9,5.2,3.1c1.9,0.1,3.8-1,5.6-3.1c0.1-0.1,0.3-0.2,0.5,0c0.1,0.1,0.2,0.3,0,0.5
				C29.8,15,27.7,16.2,25.7,16.2z"/>
		</g>
		<g>
			<circle class="st0" cx="12.1" cy="12.7" r="0.5"/>
		</g>
		<g>
			<circle class="st0" cx="27.8" cy="12.7" r="0.5"/>
		</g>
		<g>
			<circle class="st0" cx="20" cy="29.1" r="0.5"/>
		</g>
		<g>
			<path class="st0" d="M24.6,19.1c0,0-0.1,0-0.1,0c-5.5-1.7-8.7,0-8.7,0c-0.2,0.1-0.4,0-0.5-0.1c-0.1-0.2,0-0.4,0.1-0.5
				c0.1-0.1,3.5-1.8,9.3,0c0.2,0.1,0.3,0.3,0.2,0.4C24.9,19,24.7,19.1,24.6,19.1z"/>
		</g>
		<g>
			<path class="st0" d="M22.7,23.4c-1.2,0-2.4-0.3-2.7-0.4c-2.2,0.6-4,0.5-5.2-0.3c-1.4-1-1.5-2.8-1.5-2.8c0-0.2,0.1-0.4,0.3-0.4
				c0.2,0,0.4,0.1,0.4,0.3c0,0,0.1,1.5,1.2,2.3c1,0.7,2.6,0.8,4.7,0.2c0.1,0,0.1,0,0.2,0c0,0,3,1,4.7-0.1c0.7-0.5,1.1-1.3,1.2-2.4
				c0-0.2,0.2-0.3,0.4-0.3c0.2,0,0.3,0.2,0.3,0.4c-0.1,1.4-0.6,2.4-1.5,3C24.5,23.2,23.6,23.4,22.7,23.4z"/>
		</g>
		<g>
			<path class="st0" d="M17.6,27.7c-1,0-1.9-0.2-2.6-0.7c-1.5-1.1-1.7-2.9-1.7-3c0-0.2,0.1-0.4,0.3-0.4c0.2,0,0.4,0.1,0.4,0.3l0,0
				c0,0,0.1,1.6,1.4,2.5c1,0.7,2.4,0.8,4.3,0.3V16.5c0-0.2,0.2-0.4,0.4-0.4c0.2,0,0.4,0.2,0.4,0.4v10.4c0,0.2-0.1,0.3-0.3,0.3
				C19.2,27.5,18.3,27.7,17.6,27.7z"/>
		</g>
		<g>
			<path class="st0" d="M22.5,27.6c-0.8,0-1.6-0.1-2.5-0.3c-0.2,0-0.3-0.2-0.3-0.4c0-0.2,0.2-0.3,0.4-0.3c2.3,0.5,4,0.4,5-0.5
				c1-0.8,0.9-2.2,0.9-2.2c0-0.2,0.1-0.4,0.3-0.4c0.2,0,0.4,0.1,0.4,0.3c0,0.1,0.1,1.7-1.2,2.7C24.8,27.3,23.8,27.6,22.5,27.6z"/>
		</g>
		<g>
			<path class="st0" d="M20,12.9C20,12.9,20,12.9,20,12.9c-0.2,0-0.4-0.2-0.4-0.4l0.1-4.4c0-0.2,0.2-0.3,0.4-0.3c0,0,0,0,0,0
				c0.2,0,0.4,0.2,0.3,0.4l-0.1,4.4C20.4,12.8,20.2,12.9,20,12.9z"/>
		</g>
		<g>
			<path class="st0" d="M29.6,18.7h-1.6c-0.2,0-0.4-0.2-0.4-0.4c0-0.2,0.2-0.4,0.4-0.4h1.6c0.2,0,0.4,0.2,0.4,0.4
				C30,18.5,29.8,18.7,29.6,18.7z"/>
		</g>
		<g>
			<path class="st0" d="M30.3,20.8h-1.5c-0.2,0-0.4-0.2-0.4-0.4c0-0.2,0.2-0.4,0.4-0.4h1.5c0.2,0,0.4,0.2,0.4,0.4
				C30.7,20.7,30.5,20.8,30.3,20.8z"/>
		</g>
		<g>
			<path class="st0" d="M12.1,18.7h-1.8c-0.2,0-0.4-0.2-0.4-0.4c0-0.2,0.2-0.4,0.4-0.4h1.8c0.2,0,0.4,0.2,0.4,0.4
				C12.4,18.5,12.3,18.7,12.1,18.7z"/>
		</g>
		<g>
			<path class="st0" d="M11.2,20.8H9.8c-0.2,0-0.4-0.2-0.4-0.4c0-0.2,0.2-0.4,0.4-0.4h1.4c0.2,0,0.4,0.2,0.4,0.4
				C11.5,20.7,11.4,20.8,11.2,20.8z"/>
		</g>
		<g>
			<path class="st0" d="M15,32.2c-0.1,0-0.2,0-0.3-0.1c-0.8-0.9-1-3.5-1-3.8c0-0.2,0.1-0.4,0.3-0.4c0.2,0,0.4,0.1,0.4,0.3
				c0,0.7,0.3,2.8,0.8,3.4c0.1,0.1,0.1,0.4,0,0.5C15.2,32.1,15.1,32.2,15,32.2z"/>
		</g>
		<g>
			<path class="st0" d="M25.1,32.2c-0.1,0-0.2,0-0.3-0.1c-0.1-0.2-0.1-0.4,0.1-0.5c0.2-0.2,0.5-1.7,0.6-3.3c0-0.2,0.2-0.3,0.4-0.3
				c0.2,0,0.3,0.2,0.3,0.4c-0.1,1-0.3,3.4-0.9,3.8C25.2,32.1,25.1,32.2,25.1,32.2z"/>
		</g>
	</g>
</g>
</svg>
