<svg xmlns="http://www.w3.org/2000/svg" viewBox="0 0 40 40"><title>bc_sf_thigh</title><path d="M29.5,31l0,.07c0,.08-.78,0-.78,0l-2-.77a10.74,10.74,0,0,1-2.32-1.18,5.65,5.65,0,0,1-.88-2.21c-.3-1.47.84-5.48.84-5.48,1.4-2.72,1.88-7.8,1.88-7.8.55-3.38-1.36-3.82-1.36-3.82-.3,0-4.53-1.48-4.53-1.48a19,19,0,0,0-5.66-.53A67.53,67.53,0,0,0,10.32,16a1.33,1.33,0,0,0,.46.06,20.64,20.64,0,0,1,6.68-.74h3.36c-1,3.75,0,5.34,0,5.34.29,2.2-.78,7.83-.78,7.83-.95,2.21-.55,3.24-.55,3.24.26.92,3.53.33,3.53.33.74-.51,3.54.19,3.79.19A6.57,6.57,0,0,0,28.73,32h.48A.59.59,0,0,0,29.5,31Z" style="fill:#005d83"/></svg>