<svg xmlns="http://www.w3.org/2000/svg" viewBox="0 0 40 40"><title>bc_sf_tricep</title><path d="M34.76,13.77l-.06,0-.11-.05c.15-.4.45-1.36,0-1.66l-.09,0h-.39a1.12,1.12,0,0,0,0-.78.29.29,0,0,0-.17-.14.51.51,0,0,0-.3-.09,1.36,1.36,0,0,0-.86.45.43.43,0,0,0-.4-.33c-.25,0-.55.21-.94.65a32.58,32.58,0,0,0-2.61,3.31l-.09.11c0-.59-.08-1.49-.75-1.78a.9.9,0,0,0-.38-.11.35.35,0,0,0-.29.13.86.86,0,0,0-.05.72A4.69,4.69,0,0,1,27,16.27a2.17,2.17,0,0,0-.24,2.11,10.41,10.41,0,0,1,.32,1.53,26.08,26.08,0,0,1-6.45,1.54h0a6.52,6.52,0,0,1-2.34.34,13.65,13.65,0,0,1-2.22-.2,19.32,19.32,0,0,0-5.83-3c-.11-.17-.5-.71-1-1.33-2.79.41-4,3-4.16,5.68a18,18,0,0,0,5.41,2.9A42.32,42.32,0,0,0,17.23,29s0,0,.06,0a8.13,8.13,0,0,0,1.35-.29c.15,0,1.1-.11,1.93-.26.07,0,6.84-2.55,10.18-6.07a6.49,6.49,0,0,0,3-4.6C34,17.38,35.43,14.59,34.76,13.77Z" style="fill:#005d83"/></svg>