<svg xmlns="http://www.w3.org/2000/svg" viewBox="0 0 40 40"><title>bc_weight</title><polygon points="28.18 23.12 28.19 23.12 28.18 23.11 28.18 23.12" style="fill:#005d83"/><path d="M13,21.34h0Z" style="fill:#005d83"/><polygon points="11.81 23.12 11.82 23.12 11.81 23.11 11.81 23.12" style="fill:#005d83"/><path d="M27,21.34h0Z" style="fill:#005d83"/><path d="M9.73,30.58a5.46,5.46,0,0,1-.37-2.87,1.06,1.06,0,0,0-.15-.85,1.8,1.8,0,0,1,.43-2.24.41.41,0,0,1,.55-.35v.05h0a1.81,1.81,0,0,1,.09-.82c.21-.83.74-.88.74-.88a.69.69,0,0,1,.78.49,4.13,4.13,0,0,1,0-.72A1,1,0,0,1,13,21.33c-.11-.67.66-.85.66-.85,1.36-.32,1.27,1.29,1.24,1.59s.21,1.17.21,1.17a3.24,3.24,0,0,1,.09.57h.07l.05,0,.09.06.15.13,0,0h0l.14-.22a11.26,11.26,0,0,0-.33-1.14c-1.21-2.74.64-3.12.64-3.12,2.06-.34,2.24,2.25,2.24,2.25-.06.27.07,2.44.07,2.44a11.92,11.92,0,0,1,.24,2,36.88,36.88,0,0,0,0,4.28h2.78a36.88,36.88,0,0,0,0-4.28,11.92,11.92,0,0,1,.24-2s.13-2.17.07-2.44c0,0,.18-2.59,2.24-2.25,0,0,1.84.38.63,3.12a11.79,11.79,0,0,0-.32,1.14l.14.22h0l0,0,.15-.13.09-.06.05,0h.07a3.24,3.24,0,0,1,.09-.57s.17-.93.21-1.17-.12-1.91,1.24-1.59c0,0,.77.18.66.85a1,1,0,0,1,1.22,1.06,4.13,4.13,0,0,1,0,.72.69.69,0,0,1,.78-.49s.53.05.74.88a2,2,0,0,1,.09.82h0v-.05a.41.41,0,0,1,.55.35,1.8,1.8,0,0,1,.43,2.24,1.06,1.06,0,0,0-.15.85,5.46,5.46,0,0,1-.37,2.87H31a33,33,0,0,0,.7-19.93c-11.43-2.84-23.4.12-23.4.12A31.47,31.47,0,0,0,9,30.58ZM20,10.43a4.29,4.29,0,0,1,4.39,4.19A4.29,4.29,0,0,1,20,18.81a4.3,4.3,0,0,1-4.4-4.19A4.3,4.3,0,0,1,20,10.43Z" style="fill:#005d83"/><path d="M20,14.25l-2.48-2.83,2.13,3c0,.22,0,.42,0,.42a2.07,2.07,0,0,1,.8.31,3.81,3.81,0,0,1-.12-.82A1.29,1.29,0,0,1,20,14.25Z" style="fill:#005d83"/></svg>