<svg xmlns="http://www.w3.org/2000/svg" viewBox="0 0 100 100"><title>c_balance</title><path d="M49.09,22.51a2.22,2.22,0,0,1-.37-1.68,1.88,1.88,0,0,0,.34-1.06l0-.91a2.09,2.09,0,0,0,.95-1c.22-.65.14-1.54-.11-1.63L49.41,16s.22-4.58-3-4.4a3.24,3.24,0,0,0-3.27,3.75l0,.94a.31.31,0,0,0-.54.07,1.85,1.85,0,0,0-.1,1.45,6.74,6.74,0,0,0,1,1.1,5.56,5.56,0,0,1,.08.83,1.92,1.92,0,0,0,.32.85A13.36,13.36,0,0,1,43.82,23a1.44,1.44,0,0,1-.52.59.6.6,0,0,1-.42.09,5.32,5.32,0,0,0,7.41.12A3.4,3.4,0,0,1,49.09,22.51Z" style="fill:#fff"/><path d="M68.05,55.1l-3.77-3.64c-3.5-3.07-9.52-4-9.52-4a4.63,4.63,0,0,1-2.07-3.2A12.89,12.89,0,0,0,51.78,39c0-.26.82-2.73.82-2.73h1.6A11.15,11.15,0,0,0,60,34.5c2.2.39,1.34-2.08,1.34-2.08-.3-2.72-3.42-3.89-3.42-3.89a3,3,0,0,0-1.17-2.42c-1.42-1.56-4.63-1.26-4.63-1.26A10,10,0,0,1,49.44,23l-.2-.09L46.8,21.82s-1.95-.43-2.51.61-3.59,2.42-3.59,2.42a8.18,8.18,0,0,0-1.47-.26,4.81,4.81,0,0,0-4.37,3.9A6.12,6.12,0,0,0,33,30.13a20.1,20.1,0,0,0-1.52,3.2C31.14,35.24,33,35,33,35a36.43,36.43,0,0,0,5.72,1.6l.77,2.47a17.55,17.55,0,0,0,.22,3.67v1.35a41.48,41.48,0,0,0-.91,6.31c-.56,5.15,1.95,12.72,1.95,12.72.43.65,1,6.06,1,6.06A24.11,24.11,0,0,0,43.12,76c.22.17,2.2,5.24,2.2,5.24.89.52,1.52,2.85,1.52,2.85a7.52,7.52,0,0,1-.08,2.38c0,.26-1.3,1-1.3,1-.43.78.26,1,.26,1s.56.09.56.09c0,.21.61.21.61.21.17.44,1.21.26,1.21.26.95.35,1.73-.73,1.73-.73,1.25-.43.43-1.56.43-1.56A14.91,14.91,0,0,1,49.79,85a14.83,14.83,0,0,0-1-3,39.62,39.62,0,0,1-.65-4.24,15.64,15.64,0,0,1-.43-3.29,11,11,0,0,0-1.64-4.76v-.34a3.65,3.65,0,0,0,.6-1.43,2.63,2.63,0,0,0,.56-1c0-.13.61-1.47.61-1.47a5,5,0,0,0,1-2.29c.6-1.56,4.5-2,4.5-2a61.07,61.07,0,0,0,6.23-.3c.47-.17,3.89-.48,3.89-.48a6.72,6.72,0,0,0,3-.3C69.91,58,68.05,55.1,68.05,55.1ZM54.89,31.47l.52.5-.86.5Zm-16.57,1v.34l-.73-.67.73-.67A7.77,7.77,0,0,0,38.32,32.47ZM50.7,58.3,48,58.6s-1.86-.65-2.12-.3A11.21,11.21,0,0,0,47,54.62s1-1.51,1.39-1.43c0,0,4.93,2.73,5.67,2.73,0,0,2.59.56,2.77.56A54.36,54.36,0,0,1,50.7,58.3Z" style="fill:#fff"/></svg>