<svg xmlns="http://www.w3.org/2000/svg" viewBox="0 0 100 100"><title>c_bodyComposition_r</title><path d="M43.19,39.36q6.66-.42,13.34-.47c0-.9.06-2.47.06-3.16a.86.86,0,0,1,.07-.36c-1.4-.29-1.9.05-1.9.05s-2-1.19-2.74-1.74a1.58,1.58,0,0,1-.42-1.52,1.52,1.52,0,0,0,.31-.82v-.72a1.69,1.69,0,0,0,.78-.78c.2-.51.16-1.22,0-1.3s-.35-.15-.35-.15.31-3.6-2.23-3.57a2.57,2.57,0,0,0-2.71,2.86v.74a.25.25,0,0,0-.43,0,1.47,1.47,0,0,0-.12,1.13,5.06,5.06,0,0,0,.79.91,4.28,4.28,0,0,1,0,.66,1.59,1.59,0,0,0,.22.68,9.62,9.62,0,0,1-.19,1.86c-.16.55-2.74,1.71-2.74,1.71a12.59,12.59,0,0,0-1.78.07.92.92,0,0,1,.16.49A25.34,25.34,0,0,1,43.19,39.36Z" style="fill:#fff"/><path d="M44.31,45.25a19.4,19.4,0,0,1,.13,3.94c-.23,1.09.09,2.45-.23,3.06a18.3,18.3,0,0,0-.67,3.36c4-.26,8-.5,12.05-.68-.28-1.94-.92-2.26-.77-2.71a7.67,7.67,0,0,0-.29-2.87,19.07,19.07,0,0,1,0-3.39,9.7,9.7,0,0,0,.74-1.71,19.73,19.73,0,0,0,.81-4c-4.4,0-8.8.18-13.19.46,0,.35.11.77.22,1.26A18.69,18.69,0,0,0,44.31,45.25Z" style="fill:#fff"/><path d="M55.05,87.84a16.37,16.37,0,0,1-.8-3.1,10.12,10.12,0,0,1,.64-4.41A18.22,18.22,0,0,0,55.63,74a19.56,19.56,0,0,1-.41-2.61c0-.48-.13-1.64-.13-1.93a7.28,7.28,0,0,1,.16-2,30.59,30.59,0,0,0,.87-5,54.17,54.17,0,0,0-.1-6.2c-4.12.18-8.24.44-12.36.7-.18,1.53-.32,3.23-.38,4.82-.12,4.1,1.23,6,1.23,6a19.36,19.36,0,0,1-.16,2.51,41.43,41.43,0,0,0-.61,4.84c-.1,2,.84,6,1.13,7.38a4,4,0,0,1-.13,2.26,2.65,2.65,0,0,0,.06.84,3.38,3.38,0,0,1-.42,1.06,16.51,16.51,0,0,1-1,1.48,4.08,4.08,0,0,0-.68,1.1c0,.23.19.1.36.23s.25.13.25.25.29.07.52.2.55-.2.55-.2a.26.26,0,0,1,.23.2c.06.19.55.26,1.29-.36s.45-1.19.48-1.51.32-.13.64-.58-.13-1.1,0-1.39a2,2,0,0,0,.14-1.29,3.62,3.62,0,0,1-.33-1.35A26.63,26.63,0,0,1,47,80.68a34.75,34.75,0,0,0,.87-4c.1-1.54-.45-3.09-.42-3.93s.62-2,.58-2.64a16.74,16.74,0,0,1,.23-2,42.43,42.43,0,0,1,.9-4.25,10.35,10.35,0,0,0,.26-4.13c0-.58-.07-.55.48-.51s.39-.1.26.54a33,33,0,0,0,.39,4.67c.16,1.52.77,3.84.8,4.07a20.05,20.05,0,0,0,.3,2.67c.19.58.35,1.29.35,1.29s-.26,2.32-.29,4.77.67,3.81.74,5a6.81,6.81,0,0,1-.22,2.62c-.2.35-.07.8-.1,1.38a3.14,3.14,0,0,0,.42,1.36,1.08,1.08,0,0,1,.12.54,9.29,9.29,0,0,0,.17,1.29,2.39,2.39,0,0,0,1,.74.7.7,0,0,0,.57-.22s.33.26.59.19a2.71,2.71,0,0,1,.71-.13c.29,0,.16-.45.29-.48s.12-.07.32-.36S55.25,88,55.05,87.84Z" style="fill:#fff"/><path d="M47.42,38.05a22.53,22.53,0,0,0-.28-2.64C46.83,33.29,46,32.84,46,32.84s0-.06-.07-1.06a28.81,28.81,0,0,1-.57-2.91,18.67,18.67,0,0,0,.15-3.43,21.15,21.15,0,0,0-1.28-5.11,7,7,0,0,1-.31-1.68c0-.52-.27-1.13,0-1.22.81-.25,1-1.69,1-2a2.5,2.5,0,0,1,.33-1.09,1.22,1.22,0,0,0,.14-.8.61.61,0,0,0-.71.36c-.08.21-.08.67-.15.83l-.15.38c-.23-.17-.27-.42-.42-.7a12.43,12.43,0,0,0-.1-1.25A3.79,3.79,0,0,1,44,12.1c.05-.43.11-.75-.2-.81s-.45.65-.45.83a9.11,9.11,0,0,1,0,1.15c0,.2-.1.45-.14.62-.11,0-.22,0-.36,0a8.89,8.89,0,0,1,0-1.51c0-.83.08-1.5-.3-1.5s-.4.81-.43,1.47A9.92,9.92,0,0,1,42,14l-.25.07s-.13-.58-.18-.78c0,0,0,0,0,0s0,0,0,0c0-.14-.06-1.33-.08-1.46s-.1-.52-.39-.51-.24.72-.21,1.24.12,1.51.19,1.94a.5.5,0,0,0-.1.11,4.59,4.59,0,0,1-.49-.88c0-.22-.3-.93-.59-.81s0,.65.21,1.17c.16.34.57,1.09.72,1.4a3.75,3.75,0,0,1,0,.42c0,.17,0,.34,0,.55v.21a1.47,1.47,0,0,0,.74,1.3,2.77,2.77,0,0,1,.23.91c0,.34,0,1.58,0,5.21s.52,4.05.52,4.05,0,1.58.06,3.77a13.55,13.55,0,0,0,.88,4.16A10.69,10.69,0,0,0,47.42,38.05Z" style="fill:#fff"/><path d="M41.55,13.24s0,0,0,0S41.54,13.17,41.55,13.24Z" style="fill:#fff"/><path d="M52.58,38.05a22.53,22.53,0,0,1,.28-2.64c.31-2.12,1.14-2.57,1.14-2.57s0-.06.07-1.06a28.81,28.81,0,0,0,.57-2.91,18.67,18.67,0,0,1-.15-3.43,21.15,21.15,0,0,1,1.28-5.11,7,7,0,0,0,.31-1.68c0-.52.27-1.13,0-1.22-.81-.25-1-1.69-1-2a2.5,2.5,0,0,0-.33-1.09,1.22,1.22,0,0,1-.14-.8.61.61,0,0,1,.71.36c.08.21.08.67.15.83l.15.38c.23-.17.27-.42.42-.7a12.43,12.43,0,0,1,.1-1.25A3.79,3.79,0,0,0,56,12.1c-.05-.43-.11-.75.2-.81s.45.65.45.83a9.11,9.11,0,0,0,0,1.15c0,.2.1.45.14.62.11,0,.22,0,.36,0a8.89,8.89,0,0,0,0-1.51c0-.83-.08-1.5.3-1.5s.4.81.43,1.47A9.92,9.92,0,0,0,58,14l.25.07s.13-.58.18-.78c0,0,0,0,0,0s0,0,0,0c0-.14.06-1.33.08-1.46s.1-.52.39-.51.24.72.21,1.24-.12,1.51-.19,1.94a.5.5,0,0,1,.1.11,4.59,4.59,0,0,0,.49-.88c0-.22.3-.93.59-.81s0,.65-.21,1.17c-.16.34-.57,1.09-.72,1.4a3.75,3.75,0,0,0,0,.42c0,.17,0,.34,0,.55v.21a1.47,1.47,0,0,1-.74,1.3,2.77,2.77,0,0,0-.23.91c0,.34,0,1.58,0,5.21s-.52,4.05-.52,4.05,0,1.58-.06,3.77a13.55,13.55,0,0,1-.88,4.16A10.69,10.69,0,0,1,52.58,38.05Z" style="fill:#fff"/><path d="M58.45,24.45c0,.05,0,.06,0,0S58.46,24.39,58.45,24.45Z" style="fill:#fff"/></svg>