<svg xmlns="http://www.w3.org/2000/svg" viewBox="0 0 100 100"><title>c_cardio</title><path d="M79.1,29.33l0,0-.06,0c.09-.24.26-.8,0-1h-.28a.67.67,0,0,0,0-.46.18.18,0,0,0-.1-.09.32.32,0,0,0-.18,0A.78.78,0,0,0,78,28a.26.26,0,0,0-.24-.2c-.14,0-.32.13-.55.38a21.36,21.36,0,0,0-1.53,1.95l0,.06c0-.35-.05-.88-.45-1A.41.41,0,0,0,75,29a.2.2,0,0,0-.17.08c-.07.08-.07.22,0,.42a2.57,2.57,0,0,1-.21,1.26A1.32,1.32,0,0,0,74.41,32a7.17,7.17,0,0,1,.18.9,15.35,15.35,0,0,1-3.78.9h0a3.91,3.91,0,0,1-1.38.2,7.66,7.66,0,0,1-1.3-.12,11.61,11.61,0,0,0-3.42-1.79,11.13,11.13,0,0,0-1.45-1.69,1.14,1.14,0,0,0,.39-.72c.22,0,.33-.06.34-.16l.07-.31a1.07,1.07,0,0,0,.34-.09.06.06,0,0,0,.05-.06,3.61,3.61,0,0,1,.11-.5h.2a.81.81,0,0,0,.59-.19.11.11,0,0,0,0-.07A12,12,0,0,1,65.15,27c.14-.07.49-.35.44-1.12,0-.18.35-2.82-1.65-4.17a3.83,3.83,0,0,0-2.29-.8A3.76,3.76,0,0,0,59,22.07a8.81,8.81,0,0,0-1.41,4.28l0,.12a31.58,31.58,0,0,0-4,.29c-.78-.28-6.4-2.31-7-2.37-.13-.07-1.08-.57-1.27-.72s-.75-.37-6,.8a35.3,35.3,0,0,0-3.61,1.3c-.23,0-2.11.26-2.7,1-.92,0-3,.14-3,.58a.17.17,0,0,0,0,.12c0,.06.13.23,1.09.23.34,0,.76,0,1.25-.06,0,0,.11.14.09.22s-.14.13-.33.16c-.62.09-2.62.4-2.68.93a.23.23,0,0,0,0,.18c.1.19.53.16,1.31-.07l1.65-.42a.12.12,0,0,1,0,.08.29.29,0,0,1-.1.18,10.26,10.26,0,0,0-2.56,1.78c0,.09.11.24.36.24a2,2,0,0,0,.9-.35c.06,0,1.35-.86,1.67-1.11.1,0,.25,0,.29.13s0,.14-.07.19a8.58,8.58,0,0,0-1.05,1.14c-.15.13-.71.64-.71.92a.23.23,0,0,0,.24.23c.26,0,.7-.28,1.34-.87l.86-1a4.15,4.15,0,0,1,.79-.57h0a.18.18,0,0,1,.06.1s0,.08,0,.14-.53,1.05-.33,1.48a.34.34,0,0,0,.25.2l.09,0c.1,0,.28-.07.28-.51a10.47,10.47,0,0,1,.79-1.24,3.11,3.11,0,0,0,.85-1.66,25.09,25.09,0,0,1,2.9-.69h.05c.06,0,4.85-.09,6.17-.26a8.42,8.42,0,0,0,3.75,2.38c-.46.52-2.46,2.87-2.75,4.48-.18.25-2.37,3.23-3.49,3.59-.05,0-5.1,1-4.37,7.2a3.55,3.55,0,0,1-.46,1.9,18.25,18.25,0,0,0-2.7,5.62,7.89,7.89,0,0,1-1.79,3.21,33.69,33.69,0,0,1-2.9,2.29s-.94.65-2.24,3.29A47.65,47.65,0,0,1,24.78,67l-.59.55a5.23,5.23,0,0,1-.74.17c-.11,0-2.72.54-2.65,1.7,0,.11-.07,1,1,3.17,0,.39-.33,5,3.47,6.59h0s.56-.08.72-.37a.41.41,0,0,0,0-.39.07.07,0,0,0,0,0c-.23-.08-.59-.25-.61-.41s-.07-4.94.83-6.27c0,0,1.92-4.22,2.9-5.23.16-.15,4-3.66,4.64-4.93A11.1,11.1,0,0,1,35.27,60c.11-.05,2.72-1.35,3.33-2.25A9.2,9.2,0,0,1,40,56.12l0,0s2.33-2.65,3.56-4a17.89,17.89,0,0,1,1.86-2.19h.07a6.6,6.6,0,0,1,1.9.65,15.8,15.8,0,0,0,2.17.7,11.13,11.13,0,0,1,1.45.58,12.33,12.33,0,0,0-2.29,1.33c-.22.18-4.27,3.61-5.54,4l0,0a3.6,3.6,0,0,1-1.75.51,2.12,2.12,0,0,1-.44,0,3.8,3.8,0,0,0-.4,0c-.55,0-1.84.14-2,1.38,0,0,0,1,1.45,3.5a5.59,5.59,0,0,1,.32,2.1v0a4.13,4.13,0,0,0,1.12,2.29,5.09,5.09,0,0,0,1.51.48.4.4,0,0,0,.29-.1.26.26,0,0,0,.05-.2.14.14,0,0,0,0-.06L43,66.7c0-.37-.42-3.89.57-5.34l2.21-2.07A14.66,14.66,0,0,1,48.93,58h0a21.25,21.25,0,0,0,5.56-2.29c.32-.09,4.24-1.16,4.27-2.58a2.87,2.87,0,0,0-.24-2c0-.06-4.24-5.82-8.17-7.63a2.56,2.56,0,0,0,0-.86,11.46,11.46,0,0,1,1.78-1.84h0a12.37,12.37,0,0,0,2.28-1.32s.42-.37,1.73-1.85a11.65,11.65,0,0,1,1.62-1.28h0c.1,0,.47-.16,1.85-1.7a5.18,5.18,0,0,1,1.19-.63,12.05,12.05,0,0,0,4,2.35,25.23,25.23,0,0,0,4,1.89h0a4.86,4.86,0,0,0,.79-.18c.09,0,.64-.06,1.13-.14,0,0,4-1.5,6-3.57a3.84,3.84,0,0,0,1.77-2.7C78.64,31.45,79.49,29.81,79.1,29.33Z" style="fill:#fff"/></svg>