<?xml version="1.0" encoding="utf-8"?>
<!-- Generator: Adobe Illustrator 23.0.3, SVG Export Plug-In . SVG Version: 6.00 Build 0)  -->
<svg version="1.1" id="Layer_1" xmlns="http://www.w3.org/2000/svg" xmlns:xlink="http://www.w3.org/1999/xlink" x="0px" y="0px"
	 viewBox="0 0 100 100" style="enable-background:new 0 0 100 100;" xml:space="preserve">
<style type="text/css">
	.st0{fill:#FFFFFF;}
</style>
<path class="st0" d="M70.45,24.41v-0.4h-1.37v0.4h-0.11v-2.72h-1.02v2.05h-0.2v-2.74H66.6v2.74h-0.2V20.3h-1.26v3.44h-0.2v-3.77
	H63.5v3.65h-0.21v0.37h-0.7v0.42h-6.26l0-0.05c0-0.01-0.01-0.02-0.02-0.03c0,0-0.07-0.04-0.14-0.07c-0.05-0.06-0.11-0.09-0.15-0.1v0
	c-0.01-0.01-0.02-0.02-0.03-0.02c-0.04-0.01-0.43-0.06-0.56,0.04c-0.01,0.01-0.02,0.02-0.02,0.03c-0.09-0.05-0.31-0.16-0.42-0.1
	c-0.03,0.01-0.06,0.04-0.06,0.09l-0.22,0.11c-0.01-0.07-0.03-0.17-0.09-0.19c-0.04-0.01-0.07,0-0.11,0.05l-0.13,0.15
	c0,0-0.03,0.04-0.07,0.08h-4.22h-0.18H45.5c-0.04-0.04-0.07-0.07-0.07-0.08l-0.13-0.15c-0.04-0.04-0.08-0.06-0.11-0.05
	c-0.06,0.02-0.08,0.12-0.09,0.19l-0.22-0.11c-0.01-0.05-0.04-0.08-0.06-0.09c-0.11-0.06-0.33,0.05-0.42,0.1
	c-0.01-0.01-0.01-0.02-0.02-0.03c-0.12-0.1-0.51-0.05-0.56-0.04c-0.01,0-0.02,0.01-0.03,0.02l0,0c-0.03,0.01-0.09,0.04-0.15,0.1
	c-0.08,0.03-0.14,0.06-0.14,0.07c-0.01,0.01-0.02,0.02-0.02,0.03l0,0.05h-6.06v-0.42h-0.7v-0.37H36.5v-3.65h-1.44v3.77h-0.2V20.3
	H33.6v3.44h-0.2v-2.74h-1.16v2.74h-0.2v-2.05h-1.02v2.72h-0.11v-0.4h-1.37v0.4h-1.9v0.91h1.9v0.4h1.37v-0.4h0.11v2.72h1.02v-2.05
	h0.2v2.74h1.16v-2.74h0.2v3.44h1.26v-3.44h0.2v3.77h1.44v-3.65h0.21v-0.37h0.7v-0.42h5.62c-0.04,0.2-0.05,0.38-0.05,0.4
	c0,0.01,0,0.01,0,0.02c0.22,0.49,0.03,2.72,0.03,2.75c-0.24,1.65,0.16,3.04,0.17,3.05c0.28,0.85,0.46,2.3,0.48,2.44
	c-0.74,1.61,0.46,4.49,0.47,4.52c0,0.01,0.51,2.72,0.82,4.32c0,0.01,0,0.01,0,0.02c0.03,0.28,0.09,0.68,0.19,1.16c0,0,0,0,0,0.01
	c0,0,0,0,0,0c0.01,0.02,0.01,0.04,0.01,0.07c0.24,1.08,0.89,2.42,0.89,2.42s0.26,2.12,0.1,2.94c-0.17,0.82,0.07,1.83-0.17,2.28
	c-0.24,0.46-0.82,4.09-0.92,7.14c-0.1,3.06,0.92,4.48,0.92,4.48s0,1.18-0.12,1.87c-0.12,0.7-0.38,2.14-0.45,3.61
	c-0.07,1.46,0.62,4.5,0.84,5.51c0.21,1.01-0.05,1.37-0.1,1.68c-0.05,0.31,0.05,0.55,0.05,0.63c0,0.07-0.12,0.48-0.31,0.79
	c-0.19,0.31-0.53,0.79-0.77,1.11c-0.24,0.31-0.48,0.65-0.51,0.82c-0.02,0.17,0.14,0.07,0.27,0.17c0.12,0.09,0.19,0.09,0.19,0.19
	c0,0.1,0.22,0.05,0.38,0.14c0.17,0.1,0.41-0.14,0.41-0.14s0.12,0,0.17,0.14c0.05,0.15,0.41,0.2,0.96-0.26
	c0.55-0.46,0.34-0.89,0.36-1.13c0.02-0.24,0.24-0.1,0.48-0.43c0.24-0.34-0.1-0.82,0-1.04c0.1-0.22,0.21-0.72,0.1-0.96
	c-0.12-0.24-0.24-0.72-0.24-1.01c0-0.29,0.02-1.37,0.12-2.09c0.1-0.72,0.58-1.85,0.65-3.01c0.07-1.15-0.34-2.31-0.31-2.93
	c0.03-0.62,0.46-1.49,0.43-1.97c-0.02-0.48,0.14-1.11,0.17-1.47c0.02-0.36,0.24-1.35,0.67-3.17c0.43-1.83,0.22-2.65,0.19-3.08
	c-0.03-0.43-0.05-0.41,0.36-0.38c0.41,0.02,0.29-0.07,0.19,0.41c-0.1,0.48,0.17,2.36,0.29,3.49c0.12,1.13,0.58,2.86,0.6,3.03
	c0.02,0.17,0.07,1.56,0.22,2c0.14,0.43,0.26,0.96,0.26,0.96s-0.19,1.73-0.22,3.56c-0.03,1.83,0.5,2.84,0.55,3.75
	c0.05,0.91-0.02,1.68-0.17,1.95c-0.14,0.26-0.05,0.6-0.07,1.03c-0.02,0.43,0.31,1.01,0.31,1.01s0.09,0.14,0.09,0.41
	c0,0.27,0.1,0.87,0.12,0.96c0.03,0.1,0.53,0.5,0.75,0.55c0.22,0.05,0.43-0.17,0.43-0.17s0.24,0.2,0.43,0.15
	c0.19-0.05,0.31-0.1,0.53-0.1c0.22,0,0.12-0.33,0.22-0.36c0.09-0.02,0.09-0.05,0.24-0.27c0.14-0.22-0.77-0.91-0.92-1.01
	c-0.15-0.1-0.55-1.97-0.6-2.31c-0.05-0.34-0.1-1.83,0.48-3.3c0.58-1.47,0.65-4.45,0.55-4.71c-0.1-0.26-0.29-1.59-0.31-1.95
	c-0.02-0.36-0.1-1.23-0.1-1.44c0-0.22-0.02-1.13,0.12-1.49c0.15-0.36,0.58-2.55,0.65-3.7c0.07-1.16,0.05-3.01-0.1-5.03
	c-0.14-2.02-0.77-2.26-0.65-2.64c0.12-0.39-0.07-1.88-0.22-2.14c-0.15-0.27,0-2.53,0-2.53s0.07-0.05,0.55-1.27
	c0.19-0.49,0.33-1.13,0.43-1.73c0.01,0,0.02-0.01,0.03-0.02c0.01-0.02,0-0.04-0.02-0.05l0,0c0.01-0.08,0.03-0.16,0.04-0.24
	c0.06-0.3,0.16-0.85,0.28-1.48c0.01-0.01,0.02-0.01,0.03-0.02c0-0.07,0.01-0.14,0.01-0.21c0.29-1.56,0.66-3.49,0.66-3.5
	c0.01-0.03,1.21-2.91,0.47-4.52c0.02-0.13,0.2-1.59,0.48-2.44c0-0.01,0.41-1.4,0.17-3.05c0-0.02-0.2-2.25,0.03-2.75
	c0,0,0-0.01,0-0.02c0-0.02-0.01-0.2-0.05-0.4h5.81v0.42h0.7v0.37h0.21v3.65h1.44v-3.77h0.2v3.44h1.26v-3.44h0.2v2.74h1.16v-2.74h0.2
	v2.05h1.02v-2.72h0.11v0.4h1.37v-0.4h1.9v-0.91H70.45z M56,24.24c0,0,0.01,0,0.02,0.01C56.02,24.24,56.01,24.24,56,24.24
	C56,24.24,56,24.24,56,24.24z M43.8,24.24C43.81,24.24,43.81,24.24,43.8,24.24c0,0.01-0.01,0.01-0.02,0.01
	C43.8,24.24,43.8,24.24,43.8,24.24z M55.32,26.17c0.03,0.11,0.16,0.74-0.05,2.41c-0.04,0.1-1.04,2.68-0.88,3.62
	c-0.14,0.15-1.32,1.5-1.05,3.89c-0.17,0.12-1.41,1.03-1.48,1.61c-0.06,0.01-0.21,0.04-0.35,0.07c-0.29-0.3-0.29-0.77-0.24-1.05
	c0.12-0.16,0.21-0.36,0.23-0.62v-0.53c0,0,0.44-0.2,0.58-0.59c0.15-0.38,0.12-0.9-0.03-0.96c-0.15-0.06-0.26-0.12-0.26-0.12
	s0.23-2.69-1.67-2.66c-1.9,0.03-2.02,1.58-2.02,2.13c0,0.55,0,0.55,0,0.55s-0.17-0.2-0.32,0.03c-0.15,0.23-0.18,0.64-0.09,0.85
	c0.09,0.2,0.58,0.67,0.58,0.67s0.03,0.17,0.03,0.5c0,0.11,0.05,0.31,0.17,0.51c-0.01,0.3-0.05,0.95-0.13,1.3
	c-0.15-0.04-0.32-0.07-0.39-0.08c-0.08-0.58-1.31-1.49-1.48-1.61c0.27-2.39-0.91-3.75-1.05-3.89c0.16-0.95-0.84-3.52-0.88-3.62
	c-0.22-1.67-0.08-2.3-0.05-2.41c0.88-0.28,1.05-0.67,1.08-0.85h4.35h0.18h4.15C54.27,25.5,54.44,25.9,55.32,26.17z"/>
</svg>
