<svg xmlns="http://www.w3.org/2000/svg" viewBox="0 0 100 100"><title>c_range-of-motion_r</title><path d="M80.59,41.1c.63,0,1.4,0,1.38-.46s-1-.25-1.44-.22-1.21-.05-1.51,0a1.17,1.17,0,0,0,0-.27l.65-.16c.18,0,.86-.06,1.09-.07s.91-.15.92-.44-.54-.29-.94-.22a5.55,5.55,0,0,1-1,.16c-.24,0-1-.07-1.36-.07s-.28-.16-.48-.27a1.29,1.29,0,0,0,.33-.24c.15-.07.58-.1.78-.17a.52.52,0,0,0,.31-.68.84.84,0,0,0-.75.16,2.22,2.22,0,0,1-1,.35c-1.78.31-1.32.89-1.82,1.08a22.72,22.72,0,0,1-3.6-.12,10.82,10.82,0,0,1-1.4-.15s-3.15-.74-5-1a3.65,3.65,0,0,0-2.44.28,6.28,6.28,0,0,1-1.8-.12c-1-.22-2.83-.25-3.23-.46a12.3,12.3,0,0,0-2.93-1.13c-1.49-.36-2,0-2,0s-1.89-1.13-2.59-1.65a1.48,1.48,0,0,1-.4-1.43,1.49,1.49,0,0,0,.29-.79v-.67a1.62,1.62,0,0,0,.74-.74c.18-.48.15-1.15,0-1.23L51,30.21s.29-3.41-2.11-3.38a2.43,2.43,0,0,0-2.56,2.71v.7a.24.24,0,0,0-.41,0,1.43,1.43,0,0,0-.11,1.08,4.69,4.69,0,0,0,.74.85,3.91,3.91,0,0,1,0,.63,1.41,1.41,0,0,0,.21.64,9.47,9.47,0,0,1-.18,1.76c-.15.52-2.59,1.62-2.59,1.62a16.2,16.2,0,0,0-2.62.15c-2,.22-2.48,1-2.48,1l-1,0a26.9,26.9,0,0,1-2.78.43,16.87,16.87,0,0,0-3.23-.28,19.92,19.92,0,0,0-4.88,1,6.9,6.9,0,0,1-1.6.22c-.5,0-1.08.22-1.15,0-.21-.77-1.56-1-1.82-1.07a2.29,2.29,0,0,1-1-.35,1.16,1.16,0,0,0-.75-.16.58.58,0,0,0,.32.68c.19.08.62.1.78.17l.34.16c-.16.21-.4.24-.67.36s-1,0-1.18.06a3.76,3.76,0,0,1-1-.11c-.4-.06-.7-.14-.78.15s.6.45.77.46a7.41,7.41,0,0,1,1.09.07c.18,0,.43.11.58.15a1.83,1.83,0,0,0,0,.34,9,9,0,0,1-1.44,0c-.78,0-1.41-.14-1.43.22s.75.41,1.38.46A9.93,9.93,0,0,1,21,41a.93.93,0,0,0,.05.24s-1,.18-.77.15a8.66,8.66,0,0,0-1.36,0c-.15,0-.48.07-.49.35s.67.26,1.17.24S21,42,21.4,41.93c.06.07,0,0,.1.1a4.49,4.49,0,0,1-.86.43c-.2,0-.88.24-.78.53s.6.06,1.11-.16c.32-.14,1.05-.5,1.35-.63l.4,0a4.88,4.88,0,0,1,.52,0h.21a1.38,1.38,0,0,0,1.24-.64,2.86,2.86,0,0,1,.87-.19l4.94.16c3.33.1,3.84-.34,3.84-.34l3.57.09a12.73,12.73,0,0,0,4-.67c.19,0,.43.28.43.28a11.51,11.51,0,0,0,.3,2.2,18,18,0,0,0,1.13,3.07,18,18,0,0,1,.13,3.72c-.22,1,.09,2.32-.22,2.9a43.46,43.46,0,0,0-1.16,9.06c-.12,3.87,1.16,5.67,1.16,5.67a18.55,18.55,0,0,1-.15,2.38,38.26,38.26,0,0,0-.58,4.58,36.74,36.74,0,0,0,1.07,7,3.76,3.76,0,0,1-.12,2.14,2.36,2.36,0,0,0,.06.79,3.39,3.39,0,0,1-.4,1c-.24.39-.67,1-1,1.4a3.45,3.45,0,0,0-.64,1c0,.21.18.09.34.21s.24.12.24.24.27.06.49.19.52-.19.52-.19a.24.24,0,0,1,.21.19c.06.18.52.24,1.22-.34s.43-1.13.46-1.43.31-.13.61-.55-.12-1,0-1.31a1.9,1.9,0,0,0,.12-1.22,3.69,3.69,0,0,1-.3-1.28A26,26,0,0,1,46,79.68a34.57,34.57,0,0,0,.82-3.81,30.36,30.36,0,0,0-.4-3.72c0-.79.59-1.89.56-2.5a15.24,15.24,0,0,1,.21-1.86,39.71,39.71,0,0,1,.85-4,9.74,9.74,0,0,0,.25-3.9c0-.55-.07-.52.46-.49s.36-.09.24.52a30.55,30.55,0,0,0,.37,4.42,37.48,37.48,0,0,0,.76,3.84,19,19,0,0,0,.27,2.54,12.45,12.45,0,0,1,.34,1.22s-.25,2.19-.28,4.51.64,3.6.7,4.76a6.32,6.32,0,0,1-.21,2.47c-.18.33-.06.76-.09,1.31a2.89,2.89,0,0,0,.4,1.28,1,1,0,0,1,.12.52A8.75,8.75,0,0,0,51.48,88a2.37,2.37,0,0,0,1,.7.7.7,0,0,0,.54-.21.81.81,0,0,0,.55.18,2.48,2.48,0,0,1,.68-.12c.27,0,.15-.43.27-.46s.12-.06.31-.34-1-1.16-1.17-1.28a15.8,15.8,0,0,1-.76-2.92,9.7,9.7,0,0,1,.61-4.18,17.26,17.26,0,0,0,.7-6,19.09,19.09,0,0,1-.39-2.47c0-.46-.12-1.56-.12-1.83a6.83,6.83,0,0,1,.15-1.89,28.5,28.5,0,0,0,.82-4.7,53.39,53.39,0,0,0-.12-6.37c-.18-2.56-1-2.87-.82-3.36A7,7,0,0,0,53.4,50a19,19,0,0,1,0-3.21,8.7,8.7,0,0,0,.7-1.61A32.14,32.14,0,0,0,55,40.8a7,7,0,0,0,.64-.49,4.31,4.31,0,0,0,2.57,1,31.84,31.84,0,0,0,4.32-.14l.88.4c.89.39,2.23,0,4.67,0l6.35-.07a3,3,0,0,1,.88.18c.16.12.66.73,1.34.64a4.39,4.39,0,0,1,1,0A8.46,8.46,0,0,0,79,43c.16.1,1,.32,1.12.15s-.94-.53-1.08-.66a3.56,3.56,0,0,0-.64-.33s.16-.06.21-.12c.32,0,1.11.09,1.31.1.5,0,1.69.1,1.69-.18s-.86-.36-.86-.36l-.81,0-1.08-.15c0-.07,0-.12,0-.2A6.55,6.55,0,0,1,80.59,41.1Z" style="fill:#fff"/><path d="M48.46,36.84c-.74,0-1.45-.08-1.45-.08a15.84,15.84,0,0,0-2.35-1.18c-1.85-.83-2.63-.39-2.63-.39l-.89-.48a26.5,26.5,0,0,1-2.61-1,17.91,17.91,0,0,0-2.67-1.85,19.94,19.94,0,0,0-4.73-1.57,7.41,7.41,0,0,1-1.49-.6c-.43-.25-1.05-.36-1-.62.21-.77-.83-1.69-1-1.83a2.28,2.28,0,0,1-.71-.82,1.19,1.19,0,0,0-.57-.52.56.56,0,0,0-.07.75c.13.18.49.4.59.54l.22.32c-.25.1-.47,0-.76,0-.31-.18-.86-.47-1.06-.55a3.43,3.43,0,0,1-.84-.62c-.32-.25-.54-.46-.75-.25s.29.69.44.78a8.25,8.25,0,0,1,.9.6c.15.12.31.31.43.42-.05.1-.13.16-.19.29A9,9,0,0,1,24,27.4c-.66-.41-1.15-.82-1.35-.52s.45.73,1,1.08a9.76,9.76,0,0,1,1.29.88,1,1,0,0,0-.07.23l-.72-.25s0,0,0,0,0,0,0,0c-.1-.08-1.09-.63-1.21-.67s-.46-.19-.6.05.45.55.89.79,1.26.68,1.64.84a.4.4,0,0,0,0,.13,5,5,0,0,1-.95-.05c-.2-.08-.89-.24-.95.06s.5.36,1.05.42c.34.05,1.15.1,1.48.13l.36.18.43.28.18.1a1.37,1.37,0,0,0,1.41.07,2.67,2.67,0,0,1,.84.28C29,31.6,30,32.21,33,34s3.49,1.63,3.49,1.63,1.28.77,3.05,1.86a12.58,12.58,0,0,0,3.77,1.4c.15.09.23.45.23.45a3.5,3.5,0,0,1,0,2.32c-.3,1,.59,2.44.53,3.07l3.26.89Z" style="fill:#fff"/><path d="M24.11,28.82s.05,0,0,0S24.05,28.79,24.11,28.82Z" style="fill:#fff"/><path d="M48.59,36.84c.74,0,1.45-.08,1.45-.08a15.84,15.84,0,0,1,2.35-1.18c1.85-.83,2.63-.39,2.63-.39l.88-.48a25.72,25.72,0,0,0,2.62-1,17.67,17.67,0,0,1,2.66-1.85,20.15,20.15,0,0,1,4.74-1.57,7.41,7.41,0,0,0,1.49-.6c.43-.25,1-.36,1-.62-.21-.77.83-1.69,1-1.83a2.48,2.48,0,0,0,.7-.82,1.26,1.26,0,0,1,.57-.52.56.56,0,0,1,.07.75c-.13.18-.5.4-.59.54l-.22.32c.25.1.47,0,.76,0,.31-.18.86-.47,1-.55a3.24,3.24,0,0,0,.85-.62c.32-.25.54-.46.75-.25s-.29.69-.44.78a9.37,9.37,0,0,0-.91.6c-.14.12-.31.31-.42.42.05.1.13.16.19.29A7.7,7.7,0,0,0,73,27.4c.67-.41,1.16-.82,1.36-.52s-.45.73-1,1.08a9.76,9.76,0,0,0-1.29.88,1,1,0,0,1,.07.23l.72-.25s0,0,0,0,0,0,0,0c.1-.08,1.09-.63,1.21-.67s.46-.19.6.05-.45.55-.89.79-1.27.68-1.64.84a1,1,0,0,1,0,.13,5,5,0,0,0,.95-.05c.19-.08.89-.24,1,.06s-.5.36-1,.42c-.34.05-1.15.1-1.48.13l-.36.18-.43.28-.18.1a1.35,1.35,0,0,1-1.4.07,2.65,2.65,0,0,0-.85.28c-.28.17-1.28.78-4.2,2.6s-3.49,1.63-3.49,1.63-1.28.77-3,1.86a12.69,12.69,0,0,1-3.78,1.4c-.16.09-.23.45-.23.45a3.21,3.21,0,0,0-.1,2.32c.3,1-.92,2.55-.86,3.18l-2.86.78Z" style="fill:#fff"/><path d="M72.94,28.82s0,0,0,0S73,28.79,72.94,28.82Z" style="fill:#fff"/><path d="M43.51,36.79a19.72,19.72,0,0,0-1.9,1.63c-1.48,1.39-1.39,2.27-1.39,2.27l-.78.63c-.74.59-1.12,1.46-2,2a17.73,17.73,0,0,0-2.75,1.73,20.37,20.37,0,0,0-3.29,3.75A6.43,6.43,0,0,1,30.3,50c-.39.3-.73.82-.94.66-.64-.49-1.88.1-2.09.24a2.44,2.44,0,0,1-1,.33,1.15,1.15,0,0,0-.7.32.55.55,0,0,0,.66.35c.21,0,.56-.29.73-.33l.37-.08c0,.27-.18.43-.31.7a11.11,11.11,0,0,0-.92.75,3.41,3.41,0,0,1-.89.54c-.36.2-.65.32-.53.59s.75,0,.88-.09a7.35,7.35,0,0,1,.92-.6A5.93,5.93,0,0,1,27,53.1c.07.08.1.18.19.28a8.15,8.15,0,0,1-1.16.84c-.64.46-1.21.75-1,1s.85-.12,1.38-.46A10.65,10.65,0,0,1,27.7,54a1.35,1.35,0,0,0,.19.16l-.51.56s0,0,0,0,0,0,0,0-1,.76-1.09.85-.35.35-.19.58.69-.2,1.08-.51,1.11-.9,1.41-1.19l.13,0a4.77,4.77,0,0,1-.41.85c-.15.15-.57.73-.31.9s.52-.32.79-.8c.18-.3.54-1,.7-1.31a3.22,3.22,0,0,1,.31-.26c.12-.09.25-.19.42-.3l.16-.12A1.4,1.4,0,0,0,31,52.12a2.77,2.77,0,0,1,.58-.67l4-2.85C38.34,46.68,38.48,46,38.48,46L41.38,44A12.83,12.83,0,0,0,44.14,41c.14-.11.51,0,.51,0h0A16.43,16.43,0,0,0,43.51,36.79Z" style="fill:#fff"/><path d="M27.37,54.71s0,0,0,0S27.32,54.75,27.37,54.71Z" style="fill:#fff"/><path d="M53.1,36.79A20.54,20.54,0,0,1,55,38.42c1.48,1.39,1.38,2.27,1.38,2.27l.79.63c.73.59,1.11,1.46,2,2a17.73,17.73,0,0,1,2.75,1.73,20.37,20.37,0,0,1,3.29,3.75A6.43,6.43,0,0,0,66.31,50c.4.3.74.82,1,.66.63-.49,1.87.1,2.09.24a2.35,2.35,0,0,0,1,.33,1.14,1.14,0,0,1,.69.32.55.55,0,0,1-.66.35c-.21,0-.56-.29-.73-.33l-.37-.08c0,.27.18.43.32.7s.76.6.91.75a3.47,3.47,0,0,0,.9.54c.36.2.64.32.52.59s-.74,0-.88-.09a7.18,7.18,0,0,0-.91-.6c-.17-.09-.41-.17-.56-.23a1.74,1.74,0,0,1-.19.28,8.76,8.76,0,0,0,1.16.84c.64.46,1.21.75,1,1s-.84-.12-1.37-.46A10.76,10.76,0,0,0,68.91,54a1.29,1.29,0,0,1-.18.16s.38.41.5.56c0,0,0,0,0,0s0,0,0,0c.12.06,1,.76,1.1.85s.34.35.18.58-.69-.2-1.08-.51-1.11-.9-1.41-1.19l-.13,0a4.31,4.31,0,0,0,.42.85c.14.15.56.73.31.9s-.53-.32-.8-.8c-.17-.3-.54-1-.7-1.31-.08-.08-.18-.16-.3-.26l-.43-.3-.16-.12a1.36,1.36,0,0,1-.61-1.27,3,3,0,0,0-.59-.67c-.26-.19-1.21-.87-4-2.85S58.14,46,58.14,46L55.24,44A12.73,12.73,0,0,1,52.47,41c-.14-.11-.5,0-.5,0h0A16.43,16.43,0,0,1,53.1,36.79Z" style="fill:#fff"/><path d="M69.25,54.71s0,0,0,0S69.29,54.75,69.25,54.71Z" style="fill:#fff"/><path d="M44.78,51a43.58,43.58,0,0,0-5.51,7.25c-2.05,3.3-1.84,5.49-1.84,5.49a17.2,17.2,0,0,1-1.32,2,37.94,37.94,0,0,0-2.79,3.67A37,37,0,0,0,30.76,76a3.71,3.71,0,0,1-1.18,1.79,2.38,2.38,0,0,0-.34.72,3.26,3.26,0,0,1-.85.67c-.41.22-1.08.54-1.55.73a3.44,3.44,0,0,0-1.07.58c-.13.16.11.17.19.35s.15.23.08.33.21.19.34.4.54.1.54.1a.25.25,0,0,1,.09.27c0,.19.32.47,1.23.32s.93-.76,1.11-1,.32,0,.8-.17.41-1,.66-1.14a1.87,1.87,0,0,0,.71-1,3.45,3.45,0,0,1,.38-1.27,24.14,24.14,0,0,1,1.46-2.22A36.79,36.79,0,0,0,36,72.55a34,34,0,0,0,1.51-3.42c.43-.67,1.45-1.35,1.73-1.89a16,16,0,0,1,1.12-1.51c.25-.37,1.11-1.32,2.75-3.06a9.76,9.76,0,0,0,2.16-3.26c.24-.47.21-.47.61-.21l1.52-2.27Z" style="fill:#fff"/><path d="M53,51a43.58,43.58,0,0,1,5.51,7.25c2,3.3,1.83,5.49,1.83,5.49a17.83,17.83,0,0,0,1.33,2,37.94,37.94,0,0,1,2.79,3.67A37.77,37.77,0,0,1,67.05,76a3.64,3.64,0,0,0,1.18,1.79,2.14,2.14,0,0,1,.34.72,3.26,3.26,0,0,0,.85.67c.41.22,1.08.54,1.55.73a3.57,3.57,0,0,1,1.07.58c.13.16-.12.17-.19.35s-.15.23-.09.33-.2.19-.33.4-.54.1-.54.1a.25.25,0,0,0-.09.27c0,.19-.33.47-1.23.32s-.93-.76-1.11-1-.32,0-.8-.17-.42-1-.66-1.14a1.87,1.87,0,0,1-.71-1,3.65,3.65,0,0,0-.38-1.27,24.14,24.14,0,0,0-1.46-2.22,34.91,34.91,0,0,1-2.62-2.89,34,34,0,0,1-1.51-3.42c-.43-.67-1.45-1.35-1.73-1.89a16,16,0,0,0-1.12-1.51c-.25-.37-1.11-1.32-2.75-3.06a9.59,9.59,0,0,1-2.16-3.26c-.24-.47-.21-.47-.61-.21l-1.52-2.27Z" style="fill:#fff"/><path d="M46,38.1a20.37,20.37,0,0,0-.26-2.5c-.3-2-1.08-2.43-1.08-2.43s0-.06-.07-1a25.92,25.92,0,0,1-.54-2.76,16.88,16.88,0,0,0,.14-3.24A20.36,20.36,0,0,0,43,21.33a6.18,6.18,0,0,1-.3-1.58c0-.5-.25-1.08,0-1.16.76-.24,1-1.6,1-1.85a2.42,2.42,0,0,1,.32-1,1.18,1.18,0,0,0,.13-.75.57.57,0,0,0-.67.34c-.08.2-.08.63-.14.79l-.15.35c-.22-.16-.25-.4-.39-.66s-.06-1-.1-1.18a3.38,3.38,0,0,1,.07-1c0-.41.1-.71-.19-.77s-.43.61-.42.78a10.46,10.46,0,0,1,0,1.09,4.32,4.32,0,0,1-.13.59c-.1,0-.2,0-.34,0a9.06,9.06,0,0,1,0-1.43c0-.78.07-1.42-.28-1.42s-.38.77-.41,1.39a9,9,0,0,1-.05,1.56.86.86,0,0,0-.23.06s-.12-.55-.17-.74c0,0,0,0,0,0s0,0,0,0c0-.12-.06-1.26-.08-1.38s-.09-.49-.37-.48-.23.68-.19,1.18.1,1.42.17,1.83l-.09.1a4.39,4.39,0,0,1-.46-.83c0-.2-.28-.88-.56-.76s0,.61.2,1.1c.15.32.53,1,.68,1.32,0,.11,0,.25,0,.41s0,.31,0,.51a1.48,1.48,0,0,0,0,.21,1.39,1.39,0,0,0,.69,1.22,2.78,2.78,0,0,1,.22.87c0,.31,0,1.49.05,4.92s.49,3.83.49,3.83,0,1.5.06,3.57a13,13,0,0,0,.83,3.94A10.15,10.15,0,0,0,46,38.1Z" style="fill:#fff"/><path d="M40.48,14.62c0,.05,0,.05,0,0S40.47,14.56,40.48,14.62Z" style="fill:#fff"/><path d="M50.92,38.1a18.31,18.31,0,0,1,.26-2.5c.29-2,1.07-2.43,1.07-2.43s0-.06.07-1a23.64,23.64,0,0,0,.54-2.76,18,18,0,0,1-.13-3.24,20.36,20.36,0,0,1,1.2-4.84,6.58,6.58,0,0,0,.29-1.58c0-.5.26-1.08,0-1.16-.77-.24-1-1.6-1-1.85a2.53,2.53,0,0,0-.31-1,1.11,1.11,0,0,1-.13-.75.57.57,0,0,1,.67.34c.07.2.07.63.14.79l.14.35c.22-.16.25-.4.4-.66a11.13,11.13,0,0,1,.1-1.18,3.72,3.72,0,0,0-.07-1c-.05-.41-.11-.71.19-.77s.42.61.42.78a8.15,8.15,0,0,0,0,1.09c0,.2.1.43.13.59.11,0,.21,0,.34,0a8.2,8.2,0,0,0,0-1.43c0-.78-.08-1.42.28-1.42s.38.77.4,1.39a10.09,10.09,0,0,0,0,1.56.94.94,0,0,1,.24.06s.12-.55.17-.74c0,0,0,0,0,0s0,0,0,0a12.77,12.77,0,0,1,.08-1.38c0-.16.09-.49.37-.48s.22.68.19,1.18-.11,1.42-.17,1.83l.09.1a4.39,4.39,0,0,0,.46-.83c0-.2.28-.88.56-.76s0,.61-.2,1.1c-.15.32-.54,1-.68,1.32a3.79,3.79,0,0,0,0,.41c0,.15,0,.31,0,.51v.21a1.37,1.37,0,0,1-.7,1.22,3.09,3.09,0,0,0-.22.87c0,.31,0,1.49,0,4.92s-.5,3.83-.5,3.83,0,1.5,0,3.57a13.3,13.3,0,0,1-.83,3.94A10.15,10.15,0,0,1,50.92,38.1Z" style="fill:#fff"/><path d="M56.47,25.23c0,.05,0,.05,0,0S56.47,25.17,56.47,25.23Z" style="fill:#fff"/></svg>