<svg xmlns="http://www.w3.org/2000/svg" viewBox="0 0 40 40"><title>cf_hr_w</title><path d="M22.51,29.36h0a.4.4,0,0,1-.39-.38l-.72-12L21,22.5a.37.37,0,0,1-.29.35.39.39,0,0,1-.43-.14l-.48-.64h-.31a.39.39,0,0,1-.36-.22l-.58-1.11L17.94,22a.41.41,0,0,1-.37.23H17l-.15.84a.4.4,0,0,1-.35.32.38.38,0,0,1-.41-.22l-.54-1.08H15a.32.32,0,0,1-.14,0l-1.66-.63-1.46.76a.41.41,0,0,1-.19,0H6.42a.4.4,0,0,1-.41-.4.41.41,0,0,1,.41-.41h5l1.54-.79a.42.42,0,0,1,.33,0l1.75.67h.77a.41.41,0,0,1,.36.23l.11.21a.4.4,0,0,1,.39-.3h.66l.81-1.75a.41.41,0,0,1,.36-.24.42.42,0,0,1,.36.22l.85,1.63H20a.39.39,0,0,1,.27.11L21,11a.41.41,0,0,1,.41-.37.4.4,0,0,1,.4.38l.85,14.3.61-3.67a.4.4,0,0,1,.42-.34l1.23.08,2.2-2.11a.43.43,0,0,1,.32-.11.4.4,0,0,1,.3.17l1.43,2.06h4.37a.41.41,0,0,1,.41.41.4.4,0,0,1-.41.4H29a.41.41,0,0,1-.34-.17l-1.28-1.85-2,1.91a.39.39,0,0,1-.31.11l-1-.06L22.91,29A.4.4,0,0,1,22.51,29.36Z" style="fill:#fff"/></svg>