<svg xmlns="http://www.w3.org/2000/svg" viewBox="0 0 100 100"><title>cf_res_hr</title><path d="M56.85,75.54H56.8a1.1,1.1,0,0,1-1-1l-2-32.76L52.63,56.81a1.1,1.1,0,0,1-.79,1,1.11,1.11,0,0,1-1.2-.4l-1.29-1.74h-.86a1.12,1.12,0,0,1-1-.59l-1.57-3L44.37,55.4a1.12,1.12,0,0,1-1,.64H41.77l-.43,2.28a1.11,1.11,0,0,1-2.08.28l-1.45-3H36.22a1,1,0,0,1-.39-.07L31.3,53.86l-4,2.06a1.08,1.08,0,0,1-.5.12H12.94a1.11,1.11,0,1,1,0-2.21h13.6l4.19-2.16a1.13,1.13,0,0,1,.9-.05l4.79,1.82H38.5a1.1,1.1,0,0,1,1,.62l.29.59a1.11,1.11,0,0,1,1.07-.82h1.81L44.86,49a1.12,1.12,0,0,1,1-.64,1.08,1.08,0,0,1,1,.6l2.31,4.44h.75a1.15,1.15,0,0,1,.75.29l2.19-28.25a1.1,1.1,0,0,1,1.11-1,1.12,1.12,0,0,1,1.1,1l2.31,39,1.65-10a1.11,1.11,0,0,1,1.16-.93l3.37.22,6-5.77a1.06,1.06,0,0,1,.87-.3,1.07,1.07,0,0,1,.8.47l3.91,5.63H87.06a1.11,1.11,0,1,1,0,2.21H74.55a1.13,1.13,0,0,1-.91-.47l-3.49-5-5.42,5.21a1.08,1.08,0,0,1-.84.31L61,55.85l-3.1,18.76A1.1,1.1,0,0,1,56.85,75.54Z" style="fill:#ab0033"/></svg>