<?xml version="1.0" encoding="utf-8"?>
<!-- Generator: Adobe Illustrator 23.0.3, SVG Export Plug-In . SVG Version: 6.00 Build 0)  -->
<svg version="1.1" id="Layer_1" xmlns="http://www.w3.org/2000/svg" xmlns:xlink="http://www.w3.org/1999/xlink" x="0px" y="0px"
	 viewBox="0 0 100.08 100" style="enable-background:new 0 0 100.08 100;" xml:space="preserve">
<style type="text/css">
	.st0{fill:#529BB3;}
	.st1{fill:#A2C979;}
	.st2{fill:#30B6A9;}
	.st3{fill:#005D83;}
</style>
<g>
	<g>
		<g>
			<rect x="24.58" y="48.26" class="st0" width="37.41" height="1.1"/>
		</g>
		<g>
			<rect x="10.71" y="45.16" class="st0" width="48.48" height="1.1"/>
		</g>
		<g>
			<rect x="16.83" y="51.25" class="st0" width="37.49" height="1.1"/>
		</g>
		<g>
			<rect x="4.76" y="54.24" class="st0" width="48.48" height="1.1"/>
		</g>
		<g>
			<rect x="20.56" y="57.23" class="st0" width="46.32" height="1.1"/>
		</g>
	</g>
	<g>
		<g>
			<rect x="30.12" y="64.88" class="st1" width="44.86" height="1.1"/>
		</g>
		<g>
			<rect x="35.47" y="61.79" class="st1" width="53.38" height="1.1"/>
		</g>
		<g>
			<rect x="35.47" y="67.87" class="st1" width="47.25" height="1.1"/>
		</g>
		<g>
			<rect x="46.32" y="70.86" class="st1" width="48.48" height="1.1"/>
		</g>
		<g>
			<rect x="30.52" y="73.85" class="st1" width="48.48" height="1.1"/>
		</g>
	</g>
	<g>
		<g>
			<rect x="37.67" y="43.36" class="st2" width="37.82" height="1.1"/>
		</g>
		<g>
			<rect x="50.4" y="40.27" class="st2" width="38.98" height="1.1"/>
		</g>
		<g>
			<rect x="39.83" y="49.34" class="st2" width="55.49" height="1.1"/>
		</g>
		<g>
			<rect x="35.48" y="52.33" class="st2" width="44.04" height="1.1"/>
		</g>
	</g>
	<path class="st3" d="M84.63,36.21c0.53,0,1.19-0.02,1.17-0.39c-0.02-0.3-0.88-0.21-1.22-0.19c-0.33,0.03-1.03-0.04-1.29-0.03
		c0.01-0.11-0.02-0.14-0.01-0.23c0.14-0.04,0.35-0.09,0.55-0.14c0.15-0.03,0.73-0.05,0.92-0.06c0.19-0.01,0.78-0.12,0.79-0.38
		c0.01-0.24-0.46-0.25-0.8-0.18c-0.41,0.08-0.61,0.14-0.88,0.13c-0.2,0-0.87-0.06-1.15-0.05c-0.31-0.11-0.24-0.14-0.41-0.23
		c0.16-0.08,0.23-0.18,0.28-0.2c0.13-0.06,0.49-0.09,0.66-0.15c0.21-0.08,0.36-0.29,0.27-0.58c0,0-0.28-0.1-0.64,0.14
		c-0.32,0.22-0.63,0.26-0.87,0.3c-1.51,0.26-1.12,0.75-1.55,0.91c-0.4,0.15-2.42-0.07-3.07-0.1c-0.65-0.03-1.19-0.13-1.19-0.13
		s-2.68-0.63-4.21-0.83c-1.49-0.2-2.08,0.23-2.08,0.23s-0.7,0.08-1.53-0.1c-0.83-0.18-2.42-0.21-2.76-0.39
		c-0.14-0.07-0.39-0.2-0.71-0.35c0.03-0.02,0.07-0.03,0.1-0.06c1.5-0.93,2.59-1.58,2.59-1.58s0.56,0.11,2.98-1.39
		c2.49-1.55,3.34-2.07,3.57-2.21c0.07-0.03,0.57-0.26,0.72-0.24c0.16,0.02,0.54,0.34,1.19-0.06c0.05-0.03,0.1-0.06,0.15-0.09
		c0.13-0.09,0.26-0.17,0.37-0.23c0.12-0.06,0.22-0.11,0.31-0.15c0.28-0.03,0.97-0.07,1.26-0.11c0.47-0.05,0.93-0.14,0.89-0.36
		c-0.05-0.25-0.64-0.12-0.81-0.05c-0.17,0.06-0.81,0.04-0.81,0.04c0.02-0.06,0.02-0.03,0.03-0.11c0.32-0.14,1.04-0.52,1.4-0.71
		c0.37-0.2,0.9-0.44,0.76-0.68c-0.12-0.2-0.39-0.09-0.51-0.05c-0.1,0.04-0.95,0.5-1.03,0.58c-0.16,0.05-0.61,0.21-0.61,0.21
		c-0.02-0.07-0.03-0.12-0.06-0.19c0.29-0.29,0.76-0.51,1.1-0.75c0.44-0.3,1.01-0.63,0.82-0.92c-0.17-0.26-0.58,0.1-1.15,0.44
		c-0.07,0.04-0.71,0.5-1.05,0.63c-0.05-0.11-0.12-0.16-0.16-0.24c0.1-0.09,0.24-0.26,0.36-0.36c0.21-0.17,0.61-0.42,0.77-0.51
		c0.13-0.08,0.55-0.48,0.38-0.66c-0.18-0.18-0.37,0-0.65,0.22c-0.27,0.22-0.42,0.4-0.72,0.52c-0.16,0.07-0.63,0.32-0.9,0.47
		c-0.25,0.01-0.43,0.1-0.65,0.01c0.09-0.13,0.16-0.23,0.19-0.27c0.08-0.12,0.39-0.31,0.5-0.46c0.11-0.14,0.17-0.43-0.06-0.64
		c0,0-0.29,0.1-0.48,0.44c-0.19,0.34-0.4,0.56-0.6,0.7c-0.18,0.12-1.06,0.9-0.88,1.56c0.06,0.22-0.46,0.31-0.83,0.52
		c-0.34,0.18-0.75,0.37-1.27,0.51c-1.17,0.32-2.59,0.56-4.03,1.34c-1.44,0.77-1.55,1.11-2.27,1.58c-0.72,0.47-1.52,0.49-2.23,0.87
		c-0.71,0.38-0.76,0.41-0.76,0.41s-0.66-0.37-2.24,0.33c-0.2,0.09-0.39,0.17-0.56,0.25c-0.33-0.21-0.64-0.41-0.84-0.56
		c-0.41-0.31-0.39-0.89-0.34-1.22c0.13-0.17,0.22-0.38,0.24-0.67v-0.58c0,0,0.47-0.22,0.63-0.63c0.16-0.41,0.13-0.98-0.03-1.04
		c-0.16-0.06-0.28-0.12-0.28-0.12s0.25-2.91-1.8-2.88c-2.05,0.03-2.18,1.7-2.18,2.31c0,0.6,0,0.6,0,0.6s-0.19-0.22-0.35,0.03
		c-0.16,0.25-0.19,0.69-0.1,0.92c0.1,0.22,0.63,0.73,0.63,0.73s0.03,0.19,0.03,0.53c0,0.12,0.06,0.33,0.18,0.55
		c-0.01,0.35-0.05,1.16-0.16,1.5c-0.05,0.18-0.42,0.43-0.83,0.67c-0.24-0.11-0.51-0.24-0.85-0.39c-1.58-0.7-2.24-0.33-2.24-0.33
		s-0.05-0.03-0.76-0.41c-0.71-0.38-1.51-0.39-2.23-0.87c-0.72-0.47-0.83-0.8-2.27-1.58c-1.44-0.77-2.86-1.02-4.03-1.34
		c-0.52-0.14-0.94-0.33-1.27-0.51c-0.37-0.21-0.89-0.31-0.83-0.52c0.17-0.66-0.7-1.44-0.88-1.56c-0.2-0.13-0.41-0.36-0.6-0.7
		c-0.19-0.34-0.48-0.44-0.48-0.44c-0.23,0.21-0.16,0.49-0.06,0.64c0.11,0.15,0.42,0.34,0.5,0.46c0.02,0.03,0.1,0.14,0.19,0.27
		c-0.21,0.09-0.4,0-0.65-0.02c-0.26-0.15-0.73-0.4-0.9-0.47c-0.3-0.12-0.45-0.31-0.72-0.52c-0.27-0.22-0.46-0.4-0.64-0.22
		c-0.18,0.18,0.25,0.59,0.37,0.66c0.16,0.1,0.56,0.34,0.77,0.51c0.13,0.1,0.27,0.27,0.36,0.36c-0.04,0.08-0.11,0.14-0.16,0.24
		c-0.34-0.13-0.98-0.59-1.05-0.63c-0.57-0.35-0.99-0.7-1.15-0.44c-0.19,0.29,0.38,0.62,0.82,0.92c0.34,0.24,0.81,0.46,1.1,0.75
		c-0.03,0.08-0.05,0.12-0.06,0.2c0,0-0.45-0.16-0.61-0.21c-0.08-0.07-0.93-0.54-1.03-0.58c-0.12-0.05-0.39-0.16-0.51,0.05
		c-0.14,0.23,0.38,0.47,0.76,0.68c0.35,0.19,1.08,0.57,1.4,0.71c0.02,0.08,0.01,0.05,0.03,0.11c0,0-0.64,0.02-0.81-0.04
		c-0.17-0.07-0.76-0.2-0.81,0.05c-0.04,0.22,0.42,0.31,0.89,0.36c0.29,0.04,0.98,0.08,1.26,0.11c0.09,0.04,0.19,0.09,0.31,0.15
		c0.11,0.07,0.23,0.14,0.37,0.23c0.05,0.03,0.1,0.06,0.15,0.09c0.65,0.4,1.04,0.08,1.2,0.06c0.15-0.02,0.65,0.2,0.72,0.24
		c0.23,0.14,1.08,0.67,3.57,2.21c2.42,1.5,2.98,1.39,2.98,1.39s1.09,0.66,2.59,1.58c0.01,0.01,0.02,0.01,0.03,0.01
		c-0.37,0.2-0.49,0.39-0.49,0.39s-0.05,0-0.86,0.03c-0.81,0.02-1.51,0.41-2.37,0.36c-0.86-0.05-1.12-0.29-2.75-0.24
		c-1.64,0.05-2.99,0.55-4.16,0.86c-0.53,0.14-0.98,0.18-1.36,0.19c-0.43,0-0.92,0.19-0.98-0.03c-0.18-0.66-1.33-0.89-1.55-0.91
		c-0.24-0.02-0.53-0.11-0.87-0.3c-0.34-0.2-0.64-0.14-0.64-0.14c-0.09,0.29,0.11,0.51,0.27,0.58c0.16,0.07,0.53,0.09,0.66,0.15
		c0.04,0.02,0.15,0.07,0.29,0.14c-0.14,0.18-0.34,0.2-0.57,0.31c-0.3,0-0.83,0.02-1.01,0.04c-0.32,0.05-0.54-0.05-0.89-0.09
		c-0.34-0.05-0.6-0.11-0.66,0.13c-0.06,0.25,0.5,0.38,0.65,0.39c0.19,0,0.66,0.01,0.93,0.06c0.16,0.03,0.36,0.1,0.49,0.13
		c0,0.09-0.03,0.17-0.02,0.29c-0.36,0.06-1.15-0.02-1.22-0.02c-0.67-0.02-1.2-0.12-1.22,0.19c-0.02,0.35,0.64,0.35,1.17,0.39
		c0.41,0.04,0.93-0.01,1.33,0.1c0.01,0.08,0.02,0.13,0.04,0.2c0,0-0.47,0.09-0.63,0.12c-0.1-0.02-1.08,0-1.18,0.02
		c-0.13,0.02-0.41,0.06-0.42,0.3c-0.01,0.27,0.57,0.22,1,0.21c0.4-0.01,1.22-0.04,1.57-0.09c0.05,0.06,0.03,0.04,0.08,0.08
		c0,0-0.55,0.34-0.73,0.37c-0.17,0.02-0.76,0.21-0.67,0.45c0.07,0.22,0.52,0.05,0.95-0.13c0.28-0.12,0.89-0.42,1.15-0.54
		c0.09-0.01,0.21-0.02,0.34-0.02c0.13,0,0.27,0,0.44,0.02c0.06,0,0.12,0,0.18,0c0.76,0.01,0.94-0.45,1.06-0.55
		c0.12-0.1,0.67-0.15,0.74-0.16c0.28,0.01,1.27,0.03,4.2,0.13c2.84,0.09,3.27-0.29,3.27-0.29s1.27,0.03,3.04,0.08
		c1.77,0.05,3.22-0.57,3.38-0.57c0.16,0,0.36,0.24,0.36,0.24s0,0.7,0.26,1.87c0.26,1.17,0.96,2.62,0.96,2.62s0.28,2.29,0.1,3.17
		c-0.12,0.61-0.05,1.31-0.07,1.85c-1,1.18-2.61,3.3-3.84,5.28c-1.74,2.81-1.56,4.68-1.56,4.68s-0.64,1.1-1.13,1.69
		c-0.49,0.59-1.52,1.8-2.38,3.13c-0.86,1.34-1.84,4.55-2.19,5.61c-0.34,1.06-0.79,1.26-1,1.52c-0.21,0.27-0.25,0.54-0.29,0.61
		c-0.04,0.07-0.37,0.38-0.72,0.57c-0.35,0.19-0.92,0.46-1.32,0.62c-0.39,0.16-0.8,0.35-0.91,0.49c-0.11,0.14,0.09,0.14,0.16,0.3
		c0.06,0.15,0.13,0.19,0.08,0.28c-0.05,0.09,0.18,0.16,0.28,0.34c0.1,0.18,0.46,0.09,0.46,0.09s0.11,0.06,0.08,0.23
		c-0.03,0.16,0.28,0.4,1.05,0.27c0.76-0.13,0.79-0.65,0.95-0.86c0.15-0.21,0.28,0.04,0.68-0.15c0.41-0.19,0.35-0.82,0.56-0.97
		c0.21-0.15,0.59-0.56,0.61-0.85c0.02-0.29,0.16-0.81,0.32-1.08c0.16-0.27,0.76-1.27,1.24-1.89c0.48-0.62,1.54-1.42,2.23-2.46
		c0.69-1.04,0.93-2.34,1.29-2.91c0.36-0.58,1.23-1.15,1.47-1.61c0.24-0.46,0.73-0.96,0.95-1.28c0.19-0.28,0.77-0.93,1.85-2.08
		c0.15,2.44,0.97,3.6,0.97,3.6s0,1.27-0.13,2.02c-0.13,0.75-0.41,2.31-0.49,3.9c-0.08,1.58,0.67,4.86,0.91,5.95
		c0.23,1.09-0.05,1.48-0.1,1.82c-0.05,0.34,0.05,0.6,0.05,0.67c0,0.08-0.13,0.52-0.34,0.86c-0.21,0.34-0.57,0.85-0.83,1.19
		c-0.26,0.34-0.52,0.7-0.55,0.89c-0.03,0.18,0.15,0.07,0.29,0.18c0.13,0.1,0.21,0.1,0.21,0.21c0,0.1,0.23,0.05,0.42,0.15
		c0.18,0.1,0.44-0.15,0.44-0.15s0.13,0,0.18,0.15c0.05,0.16,0.44,0.21,1.04-0.29c0.6-0.49,0.36-0.96,0.39-1.22
		c0.02-0.26,0.26-0.1,0.52-0.47c0.26-0.36-0.1-0.88,0-1.12c0.11-0.23,0.23-0.78,0.11-1.04c-0.13-0.26-0.26-0.78-0.26-1.09
		c0-0.31,0.03-1.48,0.13-2.26c0.1-0.78,0.62-2,0.7-3.25c0.08-1.25-0.36-2.49-0.34-3.17c0.03-0.68,0.5-1.61,0.47-2.13
		c-0.03-0.52,0.16-1.19,0.18-1.58c0.02-0.39,0.26-1.45,0.73-3.43c0.47-1.97,0.23-2.86,0.21-3.33c-0.03-0.47-0.05-0.44,0.39-0.41
		c0.44,0.02,0.31-0.08,0.21,0.44c-0.1,0.52,0.18,2.55,0.31,3.77c0.13,1.22,0.62,3.09,0.65,3.27c0.03,0.18,0.08,1.69,0.24,2.16
		c0.15,0.47,0.28,1.04,0.28,1.04s-0.21,1.87-0.23,3.84c-0.03,1.97,0.54,3.06,0.6,4.05c0.05,0.99-0.03,1.82-0.18,2.11
		c-0.16,0.29-0.05,0.65-0.08,1.12c-0.03,0.47,0.34,1.09,0.34,1.09s0.1,0.15,0.1,0.44c0,0.29,0.11,0.94,0.13,1.04
		c0.03,0.1,0.57,0.54,0.81,0.6c0.23,0.05,0.47-0.18,0.47-0.18s0.26,0.21,0.47,0.16c0.21-0.05,0.34-0.1,0.57-0.1
		c0.24,0,0.13-0.36,0.24-0.39c0.1-0.03,0.1-0.05,0.26-0.29c0.15-0.24-0.83-0.99-0.99-1.09c-0.16-0.1-0.6-2.13-0.65-2.49
		c-0.05-0.37-0.1-1.97,0.52-3.56c0.62-1.58,0.7-4.81,0.6-5.09c-0.1-0.29-0.31-1.72-0.34-2.1c-0.03-0.39-0.11-1.33-0.11-1.56
		c0-0.24-0.03-1.22,0.13-1.61c0.15-0.39,0.61-2.68,0.7-3.94c0.03,0.03,0.06,0.07,0.09,0.1c1.39,1.48,2.13,2.28,2.35,2.6
		c0.22,0.33,0.71,0.82,0.95,1.28c0.24,0.46,1.11,1.04,1.47,1.61c0.36,0.57,0.6,1.87,1.29,2.91c0.69,1.04,1.75,1.84,2.23,2.46
		c0.48,0.62,1.09,1.62,1.24,1.89c0.16,0.27,0.3,0.78,0.32,1.08c0.02,0.29,0.4,0.7,0.61,0.85c0.21,0.15,0.15,0.78,0.56,0.97
		c0.41,0.19,0.53-0.06,0.68,0.15c0.15,0.21,0.18,0.73,0.95,0.86c0.77,0.13,1.07-0.11,1.04-0.27c-0.03-0.16,0.08-0.23,0.08-0.23
		s0.35,0.09,0.46-0.09c0.11-0.18,0.34-0.25,0.28-0.34c-0.05-0.09,0.01-0.13,0.07-0.28c0.06-0.16,0.27-0.16,0.16-0.3
		c-0.11-0.14-0.52-0.33-0.91-0.49c-0.4-0.16-0.97-0.43-1.32-0.62c-0.35-0.19-0.68-0.51-0.72-0.57c-0.04-0.07-0.08-0.35-0.29-0.61
		c-0.21-0.27-0.65-0.46-1-1.52c-0.34-1.06-1.33-4.27-2.19-5.61c-0.86-1.33-1.89-2.54-2.37-3.13c-0.49-0.59-1.13-1.69-1.13-1.69
		s0.18-1.87-1.56-4.68c-1.36-2.19-3.17-4.53-4.13-5.61c-0.05-0.58-0.16-1.22-0.25-1.39c-0.16-0.29,0-2.73,0-2.73s0.08-0.05,0.6-1.38
		c0.52-1.32,0.67-3.74,0.75-3.77c0.08-0.03,0.55-0.42,0.55-0.42s0.64,0.71,2.19,0.9c1,0.13,3.68-0.12,3.68-0.12s0,0,0.75,0.34
		c0.75,0.34,1.9,0.02,3.98,0c1.8-0.03,5.41-0.06,5.41-0.06s0.62,0.05,0.75,0.15c0.13,0.1,0.56,0.62,1.14,0.54
		c0.4-0.05,0.68-0.01,0.88,0c0.58,0.38,1.01,0.45,1.15,0.54c0.13,0.09,0.83,0.28,0.95,0.13c0.17-0.21-0.8-0.45-0.92-0.56
		c-0.11-0.11-0.55-0.29-0.55-0.29c0.05-0.04,0.14-0.05,0.19-0.1c0.27,0.03,0.94,0.08,1.11,0.09c0.43,0.01,1.44,0.09,1.44-0.15
		c0-0.24-0.73-0.31-0.73-0.31l-0.69-0.01l-0.92-0.13c0.02-0.06,0.03-0.1,0.04-0.17C83.55,36.22,84.14,36.21,84.63,36.21z"/>
</g>
</svg>
