<?xml version="1.0" encoding="utf-8"?>
<!-- Generator: Adobe Illustrator 23.0.3, SVG Export Plug-In . SVG Version: 6.00 Build 0)  -->
<svg version="1.1" id="Layer_1" xmlns="http://www.w3.org/2000/svg" xmlns:xlink="http://www.w3.org/1999/xlink" x="0px" y="0px"
	 viewBox="0 0 100.08 100" style="enable-background:new 0 0 100.08 100;" xml:space="preserve">
<style type="text/css">
	.st0{fill:#7AC143;}
	.st1{fill:#FFFFFF;}
</style>
<g>
	<g>
		<path class="st0" d="M26.47,20.64c-2.84,0.34-5.06,2.77-5.06,5.69v9.23l-0.02,0l0.02,27.66v10.42c0,3.15,2.58,5.73,5.73,5.73
			h45.82c3.1,0,5.64-2.49,5.73-5.57V20.64l-2.91,0H26.47z"/>
	</g>
	<g>
		<g>
			<path class="st1" d="M68.58,44.28c0.38,0,0.85-0.01,0.83-0.28c-0.01-0.22-0.62-0.15-0.87-0.13c-0.24,0.02-0.73-0.03-0.92-0.02
				c0.01-0.08-0.01-0.1-0.01-0.16c0.1-0.03,0.25-0.07,0.39-0.1c0.11-0.02,0.52-0.03,0.66-0.04c0.14-0.01,0.56-0.09,0.56-0.27
				c0.01-0.17-0.32-0.18-0.57-0.13c-0.29,0.05-0.43,0.1-0.63,0.1c-0.14,0-0.62-0.04-0.82-0.04c-0.22-0.08-0.17-0.1-0.29-0.16
				c0.12-0.06,0.16-0.13,0.2-0.14c0.09-0.04,0.35-0.06,0.47-0.11c0.15-0.06,0.26-0.2,0.19-0.41c0,0-0.2-0.07-0.45,0.1
				c-0.23,0.15-0.45,0.19-0.62,0.21c-1.08,0.19-0.8,0.54-1.1,0.65c-0.28,0.1-1.72-0.05-2.18-0.07c-0.46-0.02-0.85-0.09-0.85-0.09
				s-1.91-0.45-3-0.59c-1.06-0.14-1.48,0.17-1.48,0.17s-0.5,0.06-1.09-0.07c-0.59-0.13-1.72-0.15-1.96-0.28
				c-0.24-0.13-0.87-0.46-1.78-0.68c-0.91-0.22-1.22,0-1.22,0s-1.15-0.69-1.57-1c-0.29-0.22-0.28-0.63-0.24-0.87
				c0.09-0.12,0.16-0.27,0.17-0.47v-0.41c0,0,0.34-0.16,0.45-0.45c0.11-0.29,0.09-0.7-0.02-0.74c-0.11-0.04-0.2-0.09-0.2-0.09
				s0.18-2.07-1.28-2.05c-1.46,0.02-1.55,1.21-1.55,1.64c0,0.42,0,0.42,0,0.42s-0.13-0.16-0.25,0.02c-0.11,0.18-0.14,0.49-0.07,0.65
				c0.07,0.16,0.45,0.52,0.45,0.52s0.02,0.13,0.02,0.38c0,0.09,0.04,0.24,0.13,0.39c-0.01,0.25-0.04,0.83-0.11,1.07
				c-0.09,0.31-1.57,0.98-1.57,0.98s-0.37-0.04-1.59,0.09c-1.22,0.13-1.5,0.59-1.5,0.59s-0.04,0-0.61,0.02
				c-0.57,0.02-1.07,0.29-1.68,0.26c-0.61-0.04-0.79-0.2-1.96-0.17c-1.16,0.04-2.12,0.39-2.96,0.61c-0.37,0.1-0.7,0.13-0.97,0.14
				c-0.3,0-0.66,0.13-0.7-0.02c-0.13-0.47-0.95-0.64-1.1-0.65c-0.17-0.01-0.38-0.08-0.62-0.21c-0.24-0.14-0.45-0.1-0.45-0.1
				c-0.06,0.21,0.08,0.36,0.19,0.41c0.12,0.05,0.38,0.06,0.47,0.1c0.03,0.01,0.11,0.05,0.21,0.1c-0.1,0.13-0.24,0.14-0.41,0.22
				c-0.21,0-0.59,0.01-0.72,0.03c-0.23,0.03-0.39-0.03-0.63-0.07c-0.24-0.04-0.43-0.08-0.47,0.1c-0.05,0.18,0.36,0.27,0.47,0.27
				c0.14,0,0.47,0.01,0.66,0.04c0.11,0.02,0.26,0.07,0.35,0.1c0,0.06-0.02,0.12-0.01,0.2c-0.26,0.04-0.82-0.01-0.87-0.01
				c-0.47-0.01-0.86-0.08-0.87,0.13c-0.01,0.25,0.45,0.25,0.83,0.28c0.29,0.03,0.66-0.01,0.94,0.07c0.01,0.06,0.01,0.09,0.03,0.14
				c0,0-0.62,0.11-0.47,0.1c0.2-0.03-0.74-0.01-0.83,0.01c-0.09,0.02-0.29,0.04-0.3,0.21c0,0.19,0.4,0.16,0.71,0.15
				c0.29-0.01,0.87-0.03,1.12-0.06c0.04,0.04,0.02,0.03,0.06,0.06c0,0-0.39,0.24-0.52,0.26c-0.12,0.02-0.54,0.15-0.48,0.32
				c0.05,0.15,0.37,0.04,0.67-0.09c0.2-0.08,0.63-0.3,0.82-0.38c0.07-0.01,0.15-0.01,0.24-0.01c0.09,0,0.19,0,0.31,0.01
				c0.04,0,0.09,0,0.13,0c0.54,0.01,0.67-0.32,0.76-0.39c0.09-0.07,0.47-0.11,0.53-0.11c0.2,0,0.91,0.02,2.99,0.09
				c2.02,0.07,2.33-0.2,2.33-0.2s0.91,0.02,2.16,0.05c1.26,0.04,2.29-0.41,2.4-0.41c0.11,0,0.26,0.17,0.26,0.17s0,0.5,0.18,1.33
				c0.19,0.83,0.69,1.86,0.69,1.86s0.2,1.63,0.07,2.26c-0.13,0.63,0.06,1.4-0.13,1.76c-0.19,0.35-0.63,3.14-0.7,5.49
				c-0.07,2.35,0.7,3.44,0.7,3.44s0,0.91-0.09,1.44c-0.09,0.54-0.29,1.65-0.35,2.77c-0.06,1.12,0.48,3.46,0.65,4.23
				c0.17,0.78-0.04,1.05-0.07,1.29c-0.04,0.24,0.04,0.42,0.04,0.48c0,0.05-0.09,0.37-0.24,0.61c-0.15,0.24-0.41,0.61-0.59,0.85
				c-0.19,0.24-0.37,0.5-0.39,0.63c-0.02,0.13,0.11,0.05,0.2,0.13c0.09,0.07,0.15,0.07,0.15,0.15c0,0.07,0.17,0.04,0.3,0.11
				c0.13,0.07,0.32-0.11,0.32-0.11s0.09,0,0.13,0.11c0.04,0.11,0.31,0.15,0.74-0.2c0.42-0.35,0.26-0.68,0.28-0.87
				c0.02-0.19,0.18-0.07,0.37-0.33c0.18-0.26-0.07-0.63,0-0.8c0.08-0.17,0.17-0.55,0.08-0.74c-0.09-0.19-0.19-0.55-0.19-0.78
				c0-0.22,0.02-1.05,0.09-1.61c0.07-0.56,0.44-1.42,0.5-2.31c0.06-0.89-0.26-1.77-0.24-2.26c0.02-0.48,0.35-1.15,0.33-1.51
				c-0.02-0.37,0.11-0.85,0.13-1.13c0.02-0.28,0.18-1.04,0.52-2.44c0.33-1.4,0.17-2.03,0.15-2.37c-0.02-0.33-0.04-0.31,0.28-0.29
				c0.31,0.02,0.22-0.06,0.15,0.31c-0.07,0.37,0.13,1.81,0.22,2.68c0.09,0.87,0.44,2.2,0.46,2.33c0.02,0.13,0.05,1.2,0.17,1.54
				c0.11,0.33,0.2,0.74,0.2,0.74s-0.15,1.33-0.17,2.73c-0.02,1.4,0.39,2.18,0.42,2.88c0.04,0.7-0.02,1.29-0.13,1.5
				c-0.11,0.2-0.04,0.46-0.06,0.79c-0.02,0.33,0.24,0.78,0.24,0.78s0.07,0.11,0.07,0.31c0,0.2,0.08,0.67,0.09,0.74
				c0.02,0.07,0.41,0.39,0.57,0.42c0.17,0.04,0.33-0.13,0.33-0.13s0.19,0.15,0.33,0.11c0.15-0.04,0.24-0.07,0.41-0.07
				c0.17,0,0.09-0.26,0.17-0.28c0.07-0.02,0.07-0.04,0.18-0.2c0.11-0.17-0.59-0.7-0.7-0.78c-0.11-0.07-0.42-1.52-0.46-1.77
				c-0.04-0.26-0.07-1.4,0.37-2.53c0.44-1.13,0.5-3.42,0.42-3.62c-0.07-0.2-0.22-1.22-0.24-1.5c-0.02-0.28-0.07-0.94-0.07-1.11
				s-0.02-0.87,0.09-1.15c0.11-0.28,0.44-1.96,0.5-2.85c0.05-0.89,0.04-2.31-0.08-3.86c-0.11-1.55-0.59-1.74-0.5-2.03
				c0.09-0.3-0.05-1.44-0.17-1.65c-0.11-0.2,0-1.94,0-1.94s0.05-0.04,0.42-0.98c0.37-0.94,0.48-2.66,0.54-2.68
				c0.05-0.02,0.39-0.3,0.39-0.3s0.45,0.5,1.56,0.64c0.71,0.09,2.62-0.08,2.62-0.08s0,0,0.53,0.24c0.53,0.24,1.35,0.02,2.83,0
				c1.28-0.02,3.85-0.04,3.85-0.04s0.44,0.04,0.53,0.11c0.09,0.07,0.39,0.44,0.81,0.39c0.28-0.03,0.49-0.01,0.63,0
				c0.41,0.27,0.72,0.32,0.82,0.38c0.1,0.06,0.59,0.2,0.68,0.09c0.12-0.15-0.57-0.32-0.65-0.4c-0.08-0.08-0.39-0.2-0.39-0.2
				c0.03-0.03,0.1-0.04,0.13-0.07c0.19,0.02,0.67,0.06,0.79,0.06c0.31,0.01,1.03,0.06,1.03-0.11c0-0.17-0.52-0.22-0.52-0.22
				l-0.49-0.01l-0.66-0.09c0.01-0.04,0.02-0.07,0.03-0.12C67.82,44.29,68.23,44.28,68.58,44.28z"/>
			<g>
				<g>
					<path class="st1" d="M49.11,41.7c-0.45-0.01-0.88-0.05-0.88-0.05s-0.3-0.22-1.42-0.72c-1.12-0.5-1.59-0.24-1.59-0.24
						s-0.03-0.02-0.54-0.29c-0.5-0.27-1.08-0.28-1.58-0.62c-0.51-0.34-0.59-0.57-1.62-1.12c-1.03-0.55-2.04-0.73-2.87-0.95
						c-0.37-0.1-0.67-0.23-0.91-0.36c-0.26-0.15-0.63-0.22-0.59-0.37c0.12-0.47-0.5-1.02-0.63-1.11c-0.14-0.1-0.29-0.25-0.43-0.49
						c-0.14-0.24-0.34-0.31-0.34-0.31c-0.16,0.15-0.12,0.35-0.04,0.45c0.08,0.1,0.3,0.24,0.36,0.33c0.02,0.02,0.07,0.1,0.13,0.19
						c-0.15,0.06-0.28,0-0.46-0.01c-0.19-0.11-0.52-0.28-0.64-0.33c-0.21-0.09-0.32-0.22-0.51-0.37c-0.19-0.15-0.33-0.28-0.46-0.15
						c-0.13,0.13,0.18,0.42,0.26,0.47c0.12,0.07,0.4,0.24,0.55,0.37c0.09,0.07,0.19,0.19,0.26,0.26c-0.03,0.06-0.08,0.1-0.11,0.17
						c-0.24-0.09-0.7-0.42-0.74-0.45c-0.4-0.25-0.7-0.5-0.82-0.32c-0.14,0.21,0.27,0.44,0.58,0.66c0.24,0.17,0.57,0.33,0.78,0.53
						c-0.02,0.05-0.03,0.09-0.05,0.14c0,0-0.32-0.11-0.43-0.15c0.01,0.01,0.01,0.01-0.02,0c-0.03-0.02-0.02-0.01,0.02,0
						c-0.06-0.05-0.66-0.38-0.74-0.41c-0.09-0.03-0.28-0.11-0.36,0.03c-0.1,0.17,0.27,0.34,0.54,0.48c0.25,0.14,0.77,0.41,1,0.51
						c0.01,0.05,0.01,0.03,0.02,0.08c0,0-0.46,0.01-0.58-0.03c-0.12-0.05-0.54-0.14-0.57,0.04c-0.03,0.16,0.3,0.22,0.63,0.26
						c0.21,0.03,0.7,0.06,0.9,0.08c0.06,0.03,0.13,0.06,0.22,0.11c0.08,0.05,0.17,0.1,0.26,0.17c0.04,0.02,0.07,0.04,0.11,0.06
						c0.46,0.28,0.74,0.06,0.85,0.04c0.11-0.02,0.46,0.14,0.51,0.17c0.17,0.1,0.77,0.47,2.54,1.57c1.72,1.07,2.12,0.99,2.12,0.99
						s0.78,0.47,1.85,1.13c1.07,0.66,2.19,0.79,2.29,0.85c0.09,0.05,0.14,0.27,0.14,0.27s0.27,0.59,0.01,1.4
						c-0.18,0.58,0.36,1.48,0.32,1.86c1.88,0.51,1.98,0.54,1.98,0.54L49.11,41.7z"/>
					<path class="st1" d="M34.35,36.84c0.03,0.01,0.03,0.01,0.02,0C34.33,36.83,34.31,36.82,34.35,36.84z"/>
				</g>
				<g>
					<path class="st1" d="M49.18,41.7c0.45-0.01,0.88-0.05,0.88-0.05s0.3-0.22,1.42-0.72c1.12-0.5,1.59-0.24,1.59-0.24
						s0.03-0.02,0.54-0.29c0.5-0.27,1.08-0.28,1.59-0.62c0.51-0.34,0.59-0.57,1.61-1.12c1.03-0.55,2.04-0.73,2.87-0.95
						c0.37-0.1,0.66-0.23,0.91-0.36c0.26-0.15,0.63-0.22,0.59-0.37c-0.12-0.47,0.5-1.02,0.63-1.11c0.14-0.1,0.29-0.25,0.43-0.49
						c0.14-0.24,0.34-0.31,0.34-0.31c0.16,0.15,0.12,0.35,0.04,0.45c-0.07,0.1-0.3,0.24-0.35,0.33c-0.02,0.02-0.07,0.1-0.13,0.19
						c0.15,0.06,0.28,0,0.46-0.01c0.19-0.11,0.52-0.29,0.64-0.33c0.21-0.09,0.32-0.22,0.51-0.37c0.19-0.15,0.33-0.28,0.46-0.15
						c0.13,0.13-0.18,0.42-0.27,0.47c-0.11,0.07-0.4,0.24-0.55,0.37c-0.09,0.07-0.19,0.19-0.26,0.26c0.03,0.06,0.08,0.1,0.11,0.17
						c0.24-0.09,0.7-0.42,0.74-0.45c0.41-0.25,0.7-0.5,0.82-0.32c0.14,0.21-0.27,0.44-0.58,0.66c-0.24,0.17-0.58,0.33-0.78,0.53
						c0.02,0.05,0.03,0.09,0.04,0.14c0,0,0.32-0.11,0.43-0.15c-0.01,0.01-0.01,0.01,0.02,0c0.03-0.02,0.02-0.01-0.02,0
						c0.06-0.05,0.66-0.38,0.74-0.41c0.09-0.03,0.28-0.11,0.36,0.03c0.1,0.17-0.27,0.34-0.54,0.48c-0.25,0.14-0.77,0.41-1,0.51
						c-0.01,0.05-0.01,0.03-0.02,0.08c0,0,0.46,0.01,0.58-0.03c0.12-0.05,0.54-0.14,0.57,0.04c0.03,0.16-0.3,0.22-0.63,0.26
						c-0.21,0.03-0.7,0.06-0.9,0.08c-0.06,0.03-0.13,0.06-0.22,0.11c-0.08,0.05-0.17,0.1-0.26,0.17c-0.04,0.02-0.07,0.04-0.11,0.06
						c-0.46,0.28-0.74,0.06-0.85,0.04c-0.11-0.02-0.46,0.14-0.51,0.17c-0.17,0.1-0.77,0.47-2.54,1.57
						c-1.72,1.07-2.12,0.99-2.12,0.99s-0.78,0.47-1.84,1.13c-1.07,0.66-2.19,0.8-2.29,0.85c-0.1,0.06-0.14,0.27-0.14,0.27
						s-0.32,0.59-0.06,1.4c0.18,0.58-0.56,1.55-0.52,1.93c-1.88,0.51-1.73,0.47-1.73,0.47L49.18,41.7z"/>
					<path class="st1" d="M63.94,36.84c-0.03,0.01-0.03,0.01-0.02,0C63.96,36.83,63.98,36.82,63.94,36.84z"/>
				</g>
			</g>
			<g>
				<path class="st1" d="M46.11,41.67c-0.13,0.09-0.47,0.35-1.15,0.99c-0.9,0.84-0.84,1.37-0.84,1.37s-0.03,0.02-0.48,0.38
					c-0.44,0.36-0.68,0.88-1.19,1.22c-0.51,0.34-0.76,0.32-1.66,1.05c-0.91,0.73-1.46,1.59-1.99,2.27c-0.24,0.3-0.47,0.52-0.69,0.69
					c-0.24,0.18-0.45,0.5-0.58,0.4c-0.38-0.3-1.14,0.06-1.27,0.14c-0.14,0.09-0.35,0.17-0.62,0.2c-0.28,0.03-0.42,0.19-0.42,0.19
					c0.08,0.21,0.28,0.24,0.4,0.21c0.13-0.03,0.34-0.18,0.44-0.2c0.03-0.01,0.12-0.03,0.23-0.05c0,0.16-0.11,0.26-0.19,0.42
					c-0.17,0.13-0.46,0.37-0.55,0.46c-0.16,0.16-0.33,0.21-0.54,0.33c-0.22,0.12-0.39,0.19-0.32,0.36c0.07,0.17,0.45,0,0.54-0.06
					c0.11-0.08,0.38-0.27,0.55-0.36c0.1-0.05,0.25-0.1,0.34-0.14c0.04,0.05,0.06,0.11,0.11,0.17c-0.18,0.19-0.66,0.48-0.7,0.51
					c-0.39,0.28-0.73,0.45-0.61,0.63c0.14,0.21,0.51-0.08,0.83-0.28c0.25-0.16,0.52-0.4,0.79-0.51c0.04,0.04,0.07,0.06,0.11,0.1
					c0,0-0.23,0.25-0.31,0.34c0.01-0.01,0.01,0-0.01,0.02c-0.03,0.03-0.02,0.01,0.01-0.02c-0.07,0.04-0.61,0.46-0.66,0.52
					c-0.07,0.07-0.21,0.21-0.11,0.35c0.11,0.16,0.42-0.12,0.65-0.31c0.22-0.18,0.67-0.55,0.86-0.72c0.05,0.01,0.03,0.01,0.08,0.01
					c0,0-0.16,0.43-0.25,0.52c-0.09,0.09-0.34,0.44-0.19,0.54c0.13,0.09,0.32-0.19,0.48-0.48c0.11-0.18,0.33-0.62,0.42-0.8
					c0.05-0.05,0.11-0.1,0.19-0.16c0.07-0.06,0.16-0.11,0.26-0.18c0.04-0.03,0.07-0.05,0.1-0.07c0.44-0.32,0.34-0.66,0.37-0.77
					c0.03-0.11,0.31-0.37,0.36-0.41c0.16-0.11,0.74-0.52,2.44-1.72c1.65-1.17,1.74-1.56,1.74-1.56s0.73-0.53,1.76-1.26
					c1.03-0.73,1.59-1.71,1.68-1.77c0.09-0.07,0.31-0.02,0.31-0.02h0C46.64,43.34,46.48,42.46,46.11,41.67z"/>
				<path class="st1" d="M36.32,52.53c0.02-0.02,0.02-0.02,0.01-0.02C36.3,52.54,36.29,52.56,36.32,52.53z"/>
			</g>
			<g>
				<path class="st1" d="M51.92,41.67c0.13,0.09,0.47,0.35,1.15,0.99c0.9,0.84,0.84,1.37,0.84,1.37s0.03,0.02,0.48,0.38
					c0.44,0.36,0.68,0.88,1.19,1.22c0.51,0.34,0.76,0.32,1.66,1.05c0.91,0.73,1.46,1.59,1.99,2.27c0.24,0.3,0.47,0.52,0.69,0.69
					c0.24,0.18,0.45,0.5,0.58,0.4c0.38-0.3,1.14,0.06,1.27,0.14c0.14,0.09,0.35,0.17,0.62,0.2c0.28,0.03,0.42,0.19,0.42,0.19
					c-0.08,0.21-0.28,0.24-0.4,0.21c-0.13-0.03-0.34-0.18-0.44-0.2c-0.03-0.01-0.12-0.03-0.23-0.05c0,0.16,0.11,0.26,0.19,0.42
					c0.17,0.13,0.46,0.37,0.55,0.46c0.16,0.16,0.33,0.21,0.54,0.33c0.22,0.12,0.39,0.19,0.32,0.36c-0.07,0.17-0.45,0-0.54-0.06
					c-0.11-0.08-0.38-0.27-0.55-0.36c-0.1-0.05-0.25-0.1-0.34-0.14c-0.04,0.05-0.06,0.11-0.11,0.17c0.18,0.19,0.66,0.48,0.7,0.51
					c0.39,0.28,0.73,0.45,0.61,0.63c-0.14,0.21-0.51-0.08-0.83-0.28c-0.25-0.16-0.52-0.4-0.79-0.51c-0.04,0.04-0.07,0.06-0.11,0.1
					c0,0,0.23,0.25,0.31,0.34c-0.01-0.01-0.01,0,0.01,0.02c0.03,0.03,0.02,0.01-0.01-0.02c0.07,0.04,0.61,0.46,0.66,0.52
					c0.07,0.07,0.21,0.21,0.11,0.35c-0.11,0.16-0.42-0.12-0.65-0.31c-0.22-0.18-0.67-0.55-0.86-0.72c-0.05,0.01-0.03,0.01-0.08,0.01
					c0,0,0.16,0.43,0.25,0.52c0.09,0.09,0.34,0.44,0.19,0.54c-0.13,0.09-0.32-0.19-0.48-0.48c-0.11-0.18-0.33-0.62-0.42-0.8
					c-0.05-0.05-0.11-0.1-0.19-0.16c-0.07-0.06-0.16-0.11-0.26-0.18c-0.04-0.03-0.07-0.05-0.1-0.07c-0.44-0.32-0.34-0.66-0.37-0.77
					c-0.03-0.11-0.31-0.37-0.36-0.41c-0.16-0.11-0.74-0.52-2.44-1.72c-1.65-1.17-1.74-1.56-1.74-1.56s-0.73-0.53-1.76-1.26
					c-1.03-0.73-1.59-1.71-1.68-1.77c-0.09-0.07-0.31-0.02-0.31-0.02h0C51.39,43.34,51.54,42.46,51.92,41.67z"/>
				<path class="st1" d="M61.7,52.53c-0.02-0.02-0.02-0.02-0.01-0.02C61.72,52.54,61.73,52.56,61.7,52.53z"/>
			</g>
			<g>
				<path class="st1" d="M46.88,50.28c-0.36,0.25-2.12,2.42-3.34,4.39c-1.24,2-1.11,3.33-1.11,3.33s-0.45,0.78-0.8,1.2
					c-0.35,0.42-1.08,1.28-1.69,2.23c-0.61,0.95-1.31,3.24-1.55,3.99c-0.24,0.76-0.56,0.89-0.71,1.08
					c-0.15,0.19-0.18,0.39-0.21,0.44c-0.03,0.05-0.26,0.27-0.51,0.41c-0.25,0.13-0.66,0.32-0.94,0.44
					c-0.28,0.12-0.57,0.25-0.65,0.35c-0.08,0.1,0.07,0.1,0.11,0.21c0.04,0.11,0.09,0.14,0.05,0.2c-0.04,0.06,0.13,0.11,0.2,0.24
					c0.07,0.13,0.33,0.06,0.33,0.06s0.08,0.05,0.06,0.16c-0.02,0.12,0.2,0.29,0.74,0.19c0.54-0.09,0.57-0.46,0.67-0.62
					c0.11-0.15,0.2,0.03,0.49-0.1c0.29-0.13,0.25-0.58,0.4-0.69c0.15-0.11,0.42-0.4,0.43-0.6c0.01-0.21,0.12-0.57,0.23-0.77
					c0.11-0.19,0.54-0.9,0.89-1.35c0.34-0.44,1.1-1.01,1.59-1.75c0.49-0.74,0.66-1.66,0.92-2.07c0.26-0.41,0.88-0.82,1.05-1.15
					c0.17-0.33,0.52-0.68,0.68-0.91c0.15-0.23,0.68-0.8,1.67-1.85c0.99-1.05,1.16-1.68,1.31-1.98c0.15-0.29,0.13-0.29,0.37-0.13
					l0.92-1.37L46.88,50.28z"/>
			</g>
			<g>
				<path class="st1" d="M51.87,50.28c0.36,0.25,2.12,2.42,3.34,4.39c1.24,2,1.11,3.33,1.11,3.33s0.45,0.78,0.8,1.2
					c0.35,0.42,1.08,1.28,1.69,2.23c0.61,0.95,1.31,3.24,1.56,3.99c0.24,0.76,0.56,0.89,0.71,1.08c0.15,0.19,0.18,0.39,0.21,0.44
					c0.03,0.05,0.26,0.27,0.51,0.41c0.25,0.13,0.66,0.32,0.94,0.44c0.28,0.12,0.57,0.25,0.65,0.35c0.08,0.1-0.07,0.1-0.11,0.21
					c-0.04,0.11-0.09,0.14-0.05,0.2c0.04,0.06-0.13,0.11-0.2,0.24c-0.07,0.13-0.33,0.06-0.33,0.06s-0.08,0.05-0.06,0.16
					c0.02,0.12-0.2,0.29-0.74,0.19c-0.54-0.09-0.57-0.46-0.67-0.62c-0.11-0.15-0.2,0.03-0.49-0.1c-0.29-0.13-0.25-0.58-0.4-0.69
					c-0.15-0.11-0.42-0.4-0.43-0.6c-0.01-0.21-0.12-0.57-0.23-0.77c-0.11-0.19-0.54-0.9-0.88-1.35c-0.34-0.44-1.1-1.01-1.59-1.75
					c-0.49-0.74-0.66-1.66-0.92-2.07c-0.26-0.41-0.88-0.82-1.05-1.15c-0.17-0.33-0.52-0.68-0.68-0.91c-0.15-0.23-0.68-0.8-1.67-1.85
					c-0.99-1.05-1.16-1.68-1.31-1.98c-0.15-0.29-0.13-0.29-0.37-0.13l-0.92-1.37L51.87,50.28z"/>
			</g>
			<g>
				<path class="st1" d="M47.63,42.46c0-0.16-0.02-0.59-0.16-1.51c-0.18-1.22-0.65-1.47-0.65-1.47s0-0.04-0.04-0.61
					c-0.04-0.57-0.34-1.06-0.33-1.67c0.01-0.61,0.17-0.8,0.08-1.97c-0.08-1.16-0.48-2.11-0.73-2.93c-0.12-0.37-0.16-0.69-0.18-0.96
					c-0.01-0.3-0.16-0.65,0-0.7c0.46-0.15,0.6-0.97,0.6-1.12c0-0.17,0.06-0.38,0.19-0.63c0.13-0.24,0.08-0.46,0.08-0.46
					c-0.21-0.05-0.36,0.09-0.41,0.21c-0.05,0.12-0.05,0.38-0.09,0.48c-0.01,0.03-0.05,0.11-0.09,0.21c-0.13-0.1-0.15-0.24-0.24-0.4
					c-0.01-0.21-0.04-0.59-0.06-0.72c-0.04-0.22,0.02-0.39,0.04-0.63c0.03-0.25,0.06-0.43-0.11-0.47c-0.18-0.04-0.26,0.37-0.26,0.48
					c0,0.14,0.01,0.47-0.02,0.66c-0.01,0.12-0.06,0.26-0.08,0.36c-0.07,0-0.13-0.02-0.21,0c-0.05-0.25-0.02-0.82-0.02-0.87
					c-0.01-0.47,0.04-0.86-0.17-0.86c-0.25,0-0.23,0.46-0.24,0.84c-0.01,0.29,0.03,0.66-0.03,0.94c-0.06,0.01-0.09,0.02-0.14,0.04
					c0,0-0.07-0.33-0.11-0.44c0,0.01,0,0.01-0.01-0.02c-0.01-0.04,0-0.02,0.01,0.02c0.01-0.08-0.03-0.76-0.05-0.84
					c-0.02-0.09-0.05-0.29-0.22-0.29c-0.19,0-0.14,0.41-0.12,0.71c0.02,0.29,0.07,0.87,0.11,1.11c-0.04,0.04-0.03,0.02-0.05,0.06
					c0,0-0.26-0.38-0.28-0.5c-0.02-0.12-0.17-0.53-0.34-0.46c-0.15,0.06-0.02,0.37,0.12,0.67c0.09,0.19,0.33,0.62,0.41,0.8
					c0.01,0.07,0.02,0.15,0.02,0.24c0,0.09,0.01,0.19,0,0.31c0,0.04,0,0.09,0,0.12c0.01,0.54,0.35,0.65,0.42,0.74
					c0.07,0.08,0.13,0.47,0.13,0.52c0,0.19,0.01,0.9,0.03,2.99c0.02,2.02,0.3,2.32,0.3,2.32s0.02,0.91,0.04,2.16
					c0.01,1.26,0.5,2.27,0.5,2.39C45.31,41.42,46.77,42.32,47.63,42.46z"/>
				<path class="st1" d="M44.27,28.24c0.01,0.03,0.01,0.03,0.01,0.02C44.27,28.21,44.27,28.2,44.27,28.24z"/>
			</g>
			<g>
				<path class="st1" d="M50.6,42.46c0-0.16,0.02-0.59,0.16-1.51c0.18-1.22,0.65-1.47,0.65-1.47s0-0.04,0.04-0.61
					c0.04-0.57,0.34-1.06,0.33-1.67c-0.01-0.61-0.17-0.8-0.08-1.97c0.08-1.16,0.48-2.11,0.73-2.93c0.12-0.37,0.16-0.69,0.18-0.96
					c0.01-0.3,0.16-0.65,0-0.7c-0.46-0.15-0.6-0.97-0.6-1.12c0-0.17-0.06-0.38-0.19-0.63c-0.13-0.24-0.08-0.46-0.08-0.46
					c0.21-0.05,0.36,0.09,0.41,0.21c0.05,0.12,0.05,0.38,0.09,0.48c0.01,0.03,0.05,0.11,0.09,0.21c0.13-0.1,0.15-0.24,0.24-0.4
					c0.01-0.21,0.04-0.59,0.06-0.72c0.04-0.22-0.02-0.39-0.04-0.63c-0.03-0.25-0.06-0.43,0.11-0.47c0.18-0.04,0.26,0.37,0.26,0.48
					c0,0.14-0.01,0.47,0.02,0.66c0.01,0.12,0.06,0.26,0.08,0.36c0.07,0,0.13-0.02,0.21,0c0.05-0.25,0.02-0.82,0.02-0.87
					c0.01-0.47-0.04-0.86,0.17-0.86c0.25,0,0.23,0.46,0.24,0.84c0.01,0.29-0.03,0.66,0.03,0.94c0.06,0.01,0.09,0.02,0.14,0.04
					c0,0,0.07-0.33,0.11-0.44c0,0.01,0,0.01,0.01-0.02c0.01-0.04,0-0.02-0.01,0.02c-0.01-0.08,0.03-0.76,0.05-0.84
					c0.02-0.09,0.05-0.29,0.22-0.29c0.19,0,0.14,0.41,0.12,0.71c-0.02,0.29-0.07,0.87-0.11,1.11c0.04,0.04,0.03,0.02,0.05,0.06
					c0,0,0.26-0.38,0.28-0.5c0.02-0.12,0.17-0.53,0.34-0.46c0.15,0.06,0.02,0.37-0.12,0.67c-0.09,0.19-0.33,0.62-0.41,0.8
					c-0.01,0.07-0.02,0.15-0.02,0.24c0,0.09-0.01,0.19,0,0.31c0,0.04,0,0.09,0,0.12c-0.01,0.54-0.35,0.65-0.42,0.74
					c-0.07,0.08-0.13,0.47-0.13,0.52c0,0.19-0.01,0.9-0.03,2.99c-0.02,2.02-0.3,2.32-0.3,2.32s-0.02,0.91-0.04,2.16
					c-0.01,1.26-0.5,2.27-0.5,2.39C52.92,41.42,51.46,42.32,50.6,42.46z"/>
				<path class="st1" d="M53.96,34.67c-0.01,0.03-0.01,0.03-0.01,0.02C53.96,34.64,53.96,34.63,53.96,34.67z"/>
			</g>
		</g>
	</g>
</g>
</svg>
