<?xml version="1.0" encoding="utf-8"?>
<!-- Generator: Adobe Illustrator 23.0.3, SVG Export Plug-In . SVG Version: 6.00 Build 0)  -->
<svg version="1.1" id="Layer_1" xmlns="http://www.w3.org/2000/svg" xmlns:xlink="http://www.w3.org/1999/xlink" x="0px" y="0px"
	 viewBox="0 0 100.08 100" style="enable-background:new 0 0 100.08 100;" xml:space="preserve">
<style type="text/css">
	.st0{fill:#9551A0;}
	.st1{fill:#FFFFFF;}
</style>
<g>
	<g>
		<path class="st0" d="M26.47,20.64c-2.84,0.34-5.06,2.77-5.06,5.69v9.23l-0.02,0l0.02,27.66v10.42c0,3.15,2.58,5.73,5.73,5.73
			h45.82c3.1,0,5.64-2.49,5.73-5.57V20.64l-2.91,0H26.47z"/>
	</g>
	<g>
		<g>
			<path class="st1" d="M49.49,33.14c-0.26-0.3-0.25-0.75-0.22-1.02c0.12-0.17,0.2-0.37,0.21-0.64l-0.02-0.55
				c0,0,0.44-0.23,0.58-0.63c0.14-0.39,0.08-0.93-0.07-0.99c-0.15-0.05-0.27-0.11-0.27-0.11s0.13-2.77-1.82-2.67
				c-1.95,0.11-2.01,1.7-1.99,2.27c0.02,0.57,0.02,0.57,0.02,0.57s-0.19-0.2-0.33,0.05c-0.14,0.25-0.16,0.67-0.06,0.88
				c0.1,0.21,0.63,0.67,0.63,0.67s0.04,0.18,0.05,0.51c0,0.12,0.07,0.31,0.19,0.51c0,0.34-0.01,1.11-0.09,1.44
				c-0.02,0.1-0.14,0.22-0.31,0.36c-0.05,0.05-0.15,0.06-0.26,0.05c1.26,1.29,3.14,1.22,4.49,0.08
				C49.92,33.73,49.64,33.44,49.49,33.14z"/>
			<path class="st1" d="M60.98,52.89l-2.28-2.2c-2.12-1.86-5.77-2.44-5.77-2.44c-1.05-0.52-1.26-1.94-1.26-1.94
				c0.18-1.34-0.55-3.17-0.55-3.17c0-0.16,0.5-1.65,0.5-1.65h0.97c2.1-0.05,3.51-1.08,3.51-1.08c1.34,0.24,0.81-1.26,0.81-1.26
				c-0.18-1.65-2.07-2.36-2.07-2.36c-0.03-1.02-0.71-1.47-0.71-1.47c-0.87-0.94-2.81-0.76-2.81-0.76c-0.52-0.1-1.62-1.1-1.62-1.1
				l-0.12-0.06l-1.48-0.68c0,0-1.18-0.26-1.52,0.37s-2.18,1.47-2.18,1.47c-0.13-0.08-0.89-0.16-0.89-0.16
				c-2.26,0.13-2.65,2.36-2.65,2.36c-0.47,0.16-1.13,1-1.13,1c-0.37,0.5-0.92,1.94-0.92,1.94c-0.21,1.15,0.94,1.02,0.94,1.02
				c1,0.47,3.46,0.97,3.46,0.97l0.47,1.49c-0.1,0.73,0.13,2.23,0.13,2.23c0,0.1,0,0.81,0,0.81c-0.31,0.84-0.55,3.83-0.55,3.83
				c-0.34,3.12,1.18,7.71,1.18,7.71c0.26,0.39,0.63,3.67,0.63,3.67c-0.03,1.76,0.79,4.09,0.79,4.09c0.13,0.1,1.33,3.17,1.33,3.17
				c0.54,0.31,0.93,1.73,0.93,1.73c0.1,0.71-0.05,1.44-0.05,1.44c-0.03,0.16-0.79,0.6-0.79,0.6c-0.26,0.47,0.16,0.6,0.16,0.6
				c0.05,0.08,0.34,0.05,0.34,0.05c0,0.13,0.37,0.13,0.37,0.13c0.1,0.26,0.73,0.16,0.73,0.16c0.58,0.21,1.05-0.45,1.05-0.45
				c0.76-0.26,0.26-0.94,0.26-0.94c-0.08-0.13-0.29-1-0.29-1c-0.03-0.5-0.6-1.81-0.6-1.81c-0.16-0.42-0.39-2.57-0.39-2.57
				c-0.21-0.52-0.26-1.99-0.26-1.99c-0.05-1.44-1-2.88-1-2.88v-0.21c0.24-0.24,0.37-0.87,0.37-0.87c0.21-0.18,0.34-0.63,0.34-0.63
				c0-0.08,0.37-0.89,0.37-0.89c0.47-0.47,0.63-1.39,0.63-1.39c0.37-0.94,2.73-1.23,2.73-1.23c2.52-0.03,3.78-0.18,3.78-0.18
				c0.29-0.1,2.36-0.29,2.36-0.29c0.73,0.18,1.84-0.18,1.84-0.18C62.1,54.65,60.98,52.89,60.98,52.89z M53.01,38.57l0.31,0.3
				l-0.52,0.3L53.01,38.57z M42.96,39.18v0.21l-0.45-0.41l0.45-0.41C42.96,38.57,42.94,38.97,42.96,39.18z M50.46,54.83l-1.65,0.18
				c0,0-1.13-0.39-1.28-0.18c0,0,0.55-1.02,0.68-2.23c0,0,0.6-0.92,0.84-0.87c0,0,2.99,1.65,3.44,1.65c0,0,1.57,0.34,1.68,0.34
				C54.16,53.73,50.91,54.86,50.46,54.83z"/>
		</g>
	</g>
</g>
</svg>
