<?xml version="1.0" encoding="utf-8"?>
<!-- Generator: Adobe Illustrator 23.0.3, SVG Export Plug-In . SVG Version: 6.00 Build 0)  -->
<svg version="1.1" id="Layer_1" xmlns="http://www.w3.org/2000/svg" xmlns:xlink="http://www.w3.org/1999/xlink" x="0px" y="0px"
	 viewBox="0 0 40 40" style="enable-background:new 0 0 40 40;" xml:space="preserve">
<style type="text/css">
	.st0{fill:#FFFFFF;}
</style>
<path class="st0" d="M28.46,13.78l-0.04-0.3l-0.77-0.31l-0.2-2.93L27.04,7.8c0,0-0.33-1.79-1.95-2.12c0,0-1.71-0.73-3.09,0.77
	l-3.01,4.48c0,0-2.16-0.65-2.48,0.69L9.99,28.06c0,0,0.28,1.38,1.75,2.03c0,0,1.83,1.1,2.97-0.24l6.84-16.6V12.6l4.03,1.26
	c0,0-0.85,0.53-0.98,0.98l-1.22,18.31c0,0,1.51,1.46,3.46,1.34c0,0,1.67-0.16,1.79-1.26l1.38-18.19
	C30.01,15.04,30.01,14.27,28.46,13.78z M20,11.01l0.65-1.14c0,0,0.32,1.3,0.91,1.71L20,11.01z M21.56,9.32
	c0-1.41,1.1-2.55,2.45-2.55c1.35,0,2.45,1.14,2.45,2.55c0,1.41-1.1,2.55-2.45,2.55C22.66,11.87,21.56,10.73,21.56,9.32z
	 M24.56,12.52c0,0,1.79-0.53,2.08-1.42c0,0,0.2,1.34,0.24,1.91L24.56,12.52z"/>
</svg>
