<?xml version="1.0" encoding="utf-8"?>
<!-- Generator: Adobe Illustrator 23.0.3, SVG Export Plug-In . SVG Version: 6.00 Build 0)  -->
<svg version="1.1" id="Layer_1" xmlns="http://www.w3.org/2000/svg" xmlns:xlink="http://www.w3.org/1999/xlink" x="0px" y="0px"
	 viewBox="0 0 40 40" style="enable-background:new 0 0 40 40;" xml:space="preserve">
<style type="text/css">
	.st0{fill:#FFFFFF;}
</style>
<path class="st0" d="M26.76,27.13c0.86-0.86,1.17-2.64,1.17-2.64c0.89-1.86-0.33-2.78-0.44-2.97c-0.27-0.48-1.83-0.39-1.83-0.39
	l-0.08-0.31l0.28-0.44c0.56-0.83-0.81-2.86-0.81-2.86c0-0.28-0.25-1.97-0.25-1.97c-0.22-1.61-1.86-1.75-1.86-1.75
	c-0.08-0.19-1.99-1.31-1.99-1.31c-0.2-0.24-0.2-0.59-0.18-0.81c0.09-0.13,0.16-0.3,0.16-0.51l-0.02-0.43c0,0,0.35-0.18,0.46-0.5
	c0.11-0.31,0.07-0.74-0.05-0.79c-0.12-0.04-0.22-0.09-0.22-0.09s0.1-2.2-1.45-2.12c-1.55,0.08-1.6,1.35-1.58,1.81
	c0.02,0.45,0.02,0.45,0.02,0.45s-0.15-0.16-0.26,0.04c-0.11,0.2-0.12,0.53-0.05,0.7c0.08,0.16,0.5,0.53,0.5,0.53s0.03,0.14,0.04,0.4
	c0,0.09,0.05,0.25,0.15,0.41c0,0.22-0.01,0.67-0.05,0.97c-0.67,0.3-2.28,1.69-2.28,1.69c-1.42,0.28-1.17,3.72-1.17,3.72
	c-0.22,0.03-0.53,1.28-0.53,1.28c-0.33,0.42-0.17,1.72-0.17,1.72c-0.53-0.28-1.64,0.33-1.64,0.33c-1.45,0.75-0.69,2.86-0.69,2.86
	c0.08,1.5,2.45,4.53,2.45,4.53c0.5,0.47,0.22,1.53,0.22,1.53c-0.03,0.69-0.86,1.56-0.86,1.56l-0.28,0.33l0.22,0.19
	c0,0.08,0.39,0.17,0.39,0.17c0,0.14,0.39-0.06,0.39-0.06l0.14,0.11c0.25,0.14,0.58-0.19,0.58-0.19c0.36,0,0.67-0.86,0.67-0.86
	c0.53-0.08,0.67-0.61,0.67-0.61c0.39-0.61-0.33-1.56-0.33-1.56l-0.53-1.08c-0.03-0.17-0.33-1.45-0.33-1.45c0.03-0.22,0-1.7,0-1.7
	c1.78,1.56,5.03,0.56,5.03,0.56c2.45,0.97,4.56-0.72,4.56-0.72c-0.11,0.33,0.06,1.75,0.06,1.75c0.03,0.58-0.67,2.45-0.67,2.45
	c-0.08,0.08-0.22,1.25-0.22,1.25c-0.14,0.11-0.14,0.78-0.14,0.78c-0.06,0.39,0.75,0.72,0.75,0.72c-0.08,0.44,0.5,0.91,0.5,0.91
	l0.5-0.04c0.08,0.1,0.42-0.01,0.42-0.01c0.14,0.08,0.22-0.31,0.22-0.31l0.22,0.17c0.42-0.11,0.06-1.11,0.06-1.11
	c-0.03-0.22-0.75-1.28-0.75-1.28c-0.19-0.31-0.08-1.2-0.08-1.2C25.7,28.63,26.76,27.13,26.76,27.13z M16.92,21.15l0.28-0.5l0.22,1
	L16.92,21.15z M22.7,21.46l0.11-0.67c0,0.14,0.81,0.67,0.81,0.67H22.7z"/>
</svg>
