<?xml version="1.0" encoding="utf-8"?>
<!-- Generator: Adobe Illustrator 23.0.3, SVG Export Plug-In . SVG Version: 6.00 Build 0)  -->
<svg version="1.1" id="Layer_1" xmlns="http://www.w3.org/2000/svg" xmlns:xlink="http://www.w3.org/1999/xlink" x="0px" y="0px"
	 viewBox="0 0 40 40" style="enable-background:new 0 0 40 40;" xml:space="preserve">
<style type="text/css">
	.st0{fill:#FFFFFF;}
</style>
<path class="st0" d="M35.48,19.98c-0.86-0.86-4.58-2.42-6.21-2.6c0,0-1.63-1.35-3.76-1.21c0,0-0.53-0.04-1.1-0.13
	c-0.21-0.06-0.49-0.11-0.88-0.16c-0.54-0.07-1.03-0.12-1.48-0.15v-0.08c0,0,0.57-0.27,0.76-0.76c0.19-0.49,0.15-1.18-0.04-1.25
	c-0.19-0.08-0.34-0.15-0.34-0.15s0.3-3.5-2.17-3.46c-2.47,0.04-2.62,2.05-2.62,2.78c0,0.72,0,0.72,0,0.72s-0.23-0.26-0.42,0.04
	c-0.19,0.31-0.23,0.83-0.11,1.1c0.11,0.27,0.76,0.87,0.76,0.87s0.02,0.12,0.03,0.35c-0.57,0.05-1.73,0.26-1.73,0.26l0,0
	c-0.29,0.04-0.56,0.09-0.7,0.14c0,0-2.86-0.19-4.12,1.01c0,0-2.9,0.36-5.61,1.91c0,0-0.92,0.39-1.18,0.88c0,0-0.64,0.26-0.37,0.92
	c0.27,0.67,1.24,5.05,2.69,7.2c0,0,0.19,0.17,0.21,0.43c0.03,0.26,0.24,0.57,0.24,0.57s-0.11,0.37,0.04,0.52
	c0,0-0.08,0.18,0.04,0.24C7.55,30.01,7.86,30,8.01,29.8c0,0,0.17-0.03,0.33,0.03c0.15,0.06,0.15,0.06,0.15,0.06s0.45,0.18,0.7-0.01
	c0,0,0.05-0.06,0-0.12c0,0,0.08,0.02,0.15-0.01c0,0,0.02,0.24,0.45,0.19c0,0,0.19,0.03,0.32-0.15l0.02-0.13l0.12,0.12
	c0,0-0.02,0.17,0.39,0.13c0.41-0.03,0.24-0.27,0.24-0.27s0.03-0.09,0.26-0.01c0.23,0.08,0.55,0.33,1.31,0.25
	c0.77-0.09,0.43-0.49,0.24-0.49s-0.19,0-0.19,0l-0.19-0.01c0,0-0.45-0.19-0.75-0.17c-0.3,0.02-0.44-0.41-1.03-0.29
	c0,0-0.43-0.27-0.74-0.22c0,0-0.38-0.1-0.45-0.26c-0.07-0.17-0.82-2.39-1.04-2.9c0,0-0.28-2.34-0.75-3.53c0,0,2.39-0.19,5-1.56
	c0,0,0.58-0.49,1.55,0.48c0.97,0.97,1.05,1.37,1.05,1.37s-0.38,1.07-0.1,2.16c0.28,1.09,0.84,2.41,2.91,2.73
	c0,0-0.18,0.77-0.03,1.09c0,0-0.08,0.55,0.14,0.76c0,0-0.06,0.4,0.53,0.32c0,0,0.27,0.13,0.58-0.06c0,0,0.53,0.19,0.99-0.02
	c0,0,0.08-0.1,0.04-0.27c0,0,0.17-0.14,0.19-0.26c0,0,0.08,0.14,0.13,0.17l0.07,0.26c0,0,0.02,0.22,0.47,0.17
	c0.45-0.05,0.47-0.09,0.47-0.09s0.23,0.22,0.69,0.07c0,0,0.19,0.13,0.38-0.01c0,0,0.17,0.09,0.18-0.28
	c0.01-0.37,0.12-0.85,0.12-0.85s0.06-1.18-0.01-1.55c0,0,0.5-0.13,0.65-0.29c0,0,1.76-0.84,1.63-3.38c0,0,0.03-0.27-0.06-0.46
	c0,0,1.03-1.25,1.32-1.79c0,0,0.33-0.35,0.52-0.43c0,0,0.26-0.06,0.43-0.13c0.17-0.07,0.92,0.36,0.92,0.36s2.43,1.37,4.3,1.31
	c0,0-0.57,2.52-0.5,3.47c0,0,0.01,0.11-0.08,0.25c-0.09,0.14-0.54,1.35-0.6,1.76c-0.06,0.42-0.45,1.2-0.74,1.29
	c-0.29,0.09-0.58,0.05-0.77,0.21c-0.19,0.17-0.54-0.11-1.01,0.26c-0.47,0.37-1.29,0.08-1.41,0.43c-0.12,0.35,0.61,0.31,0.77,0.31
	c0.16,0,0.96-0.26,1.41-0.08c0,0,0.21,0.14,0.47,0.11c0,0,0.45,0.13,0.63-0.14c0,0,0.22,0.23,0.68,0.07c0,0,0.11-0.13,0.1-0.21
	l0.1,0.02c0,0,0.13,0.26,0.43,0.26c0,0,0.29,0.07,0.33-0.2c0,0,0.07-0.07,0.2,0.06c0.13,0.13,0.45,0.18,0.63,0.07
	c0,0,0.08-0.13-0.06-0.29c0,0-0.06-0.31-0.17-0.45c-0.12-0.14,0.28-0.86,0.43-1.02c0.15-0.16,1.1-2.12,1.61-4.31
	C35.52,21.5,36.34,20.85,35.48,19.98z"/>
</svg>
