<?xml version="1.0" encoding="utf-8"?>
<!-- Generator: Adobe Illustrator 23.0.3, SVG Export Plug-In . SVG Version: 6.00 Build 0)  -->
<svg version="1.1" id="Layer_1" xmlns="http://www.w3.org/2000/svg" xmlns:xlink="http://www.w3.org/1999/xlink" x="0px" y="0px"
	 viewBox="0 0 40 40" style="enable-background:new 0 0 40 40;" xml:space="preserve">
<style type="text/css">
	.st0{fill:#FFFFFF;}
</style>
<path class="st0" d="M30.15,9.08h-1.68V9.05c-0.03-0.32-0.48-0.13-0.48-0.13c-0.05-0.29-0.48-0.13-0.48-0.13
	c-0.25-0.23-0.37,0.18-0.39,0.29h-5.74C21.23,8.98,21.09,8.9,21,8.83c-0.02-0.01-0.04-0.03-0.05-0.04
	c-0.03-0.32-0.03-0.65-0.03-0.82c0.01-0.05,0.03-0.1,0.03-0.16V7.5c0,0,0.26-0.12,0.34-0.34c0.09-0.22,0.07-0.53-0.02-0.56
	c-0.08-0.03-0.15-0.07-0.15-0.07s0.14-1.57-0.97-1.55c-1.11,0.02-1.18,0.92-1.18,1.25c0,0.32,0,0.32,0,0.32s-0.1-0.12-0.19,0.02
	c-0.09,0.14-0.1,0.37-0.05,0.5c0.05,0.12,0.34,0.39,0.34,0.39s0.02,0.1,0.02,0.29c0,0.03,0.01,0.07,0.02,0.11l-0.01,0
	c0,0,0.02,0.57-0.04,1.07c-0.04,0.05-0.11,0.1-0.19,0.16h-5.95c-0.03-0.11-0.14-0.52-0.39-0.29c0,0-0.43-0.16-0.48,0.13
	c0,0-0.45-0.19-0.48,0.13v0.03H9.85v0.85h1.72v0.03c0,0,0.27,0.93,0.45,1.2c0,0,1.38,2.45,1.94,3.2c0,0,0.62,1.12,1.37,0.35
	c0,0,1.74-1.68,1.82-1.94c0,0,0.35,1.38,0.59,1.54c0,0,0.21,1.65-0.05,2.77c0,0-0.69,2.29-0.29,5.22c0,0,0.16,1.44,0.51,2.13
	c0,0,0.21,1.09,0.11,1.89c0,0-0.13,1.94,0.29,2.9c0,0,0.72,2.64,0.64,3.14c0,0-0.21,1.01-0.35,1.2c0,0-0.24,0.29-0.08,1.01
	c0,0,0.11,0.16,0.19,0.13c0,0,0.16,0.16,0.24,0.13c0,0,0.27,0.24,0.45,0.16c0,0,0.32,0.16,0.45-0.16L20,34.48c0,0,0.02-0.37,0-0.64
	c-0.01-0.16-0.17-0.51,0-0.99c0,0,0.04-0.75,0-1.01c0,0-0.31-0.48-0.25-1.97c0,0,0.32-1.84-0.11-3.17c0,0,0.03-0.61,0.08-1.28
	c0,0,0.19-1.01,0.13-2.66c0,0,0.24-1.84,0.03-2.72l0.14-0.08l0-0.04h0l0,0.04l0.14,0.08c-0.21,0.88,0.03,2.72,0.03,2.72
	c-0.05,1.65,0.13,2.66,0.13,2.66c0.05,0.67,0.08,1.28,0.08,1.28c-0.43,1.33-0.11,3.17-0.11,3.17c0.05,1.49-0.25,1.97-0.25,1.97
	c-0.04,0.27,0,1.01,0,1.01c0.17,0.48,0.01,0.83,0,0.99c-0.02,0.27,0,0.64,0,0.64l0.15,0.35c0.13,0.32,0.45,0.16,0.45,0.16
	c0.19,0.08,0.45-0.16,0.45-0.16c0.08,0.03,0.24-0.13,0.24-0.13c0.08,0.03,0.19-0.13,0.19-0.13c0.16-0.72-0.08-1.01-0.08-1.01
	c-0.13-0.19-0.35-1.2-0.35-1.2c-0.08-0.51,0.64-3.14,0.64-3.14c0.43-0.96,0.29-2.9,0.29-2.9c-0.11-0.8,0.11-1.89,0.11-1.89
	c0.35-0.69,0.51-2.13,0.51-2.13c0.4-2.93-0.29-5.22-0.29-5.22c-0.27-1.12-0.05-2.77-0.05-2.77c0.24-0.16,0.59-1.54,0.59-1.54
	c0.08,0.27,1.82,1.94,1.82,1.94c0.76,0.77,1.37-0.35,1.37-0.35c0.56-0.75,1.94-3.2,1.94-3.2c0.19-0.27,0.45-1.2,0.45-1.2V9.93h1.68
	V9.08z M16.29,10.54c0,0-0.59,0.99-0.64,1.41c0,0-0.85,0.88-0.85,1.15c0,0-1.65-2.02-1.81-2.08c-0.16-0.05-0.16-0.05-0.16-0.05
	s0.48-0.59,0.53-1.04h3.85C16.81,10.08,16.45,10.29,16.29,10.54z M27.21,10.97c0,0,0,0-0.16,0.05c-0.16,0.05-1.81,2.08-1.81,2.08
	c0-0.27-0.85-1.15-0.85-1.15c-0.05-0.43-0.64-1.41-0.64-1.41c-0.16-0.25-0.52-0.46-0.92-0.61h3.85
	C26.73,10.38,27.21,10.97,27.21,10.97z"/>
</svg>
