<?xml version="1.0" encoding="utf-8"?>
<!-- Generator: Adobe Illustrator 23.0.3, SVG Export Plug-In . SVG Version: 6.00 Build 0)  -->
<svg version="1.1" id="Layer_1" xmlns="http://www.w3.org/2000/svg" xmlns:xlink="http://www.w3.org/1999/xlink" x="0px" y="0px"
	 viewBox="0 0 40 40" style="enable-background:new 0 0 40 40;" xml:space="preserve">
<style type="text/css">
	.st0{fill:#FFFFFF;}
</style>
<path class="st0" d="M35.12,13.5v-0.3H34.1v0.3h-0.08v-2.01h-0.75V13h-0.15v-2.02h-0.86V13h-0.15v-2.54h-0.93V13h-0.15v-2.79h-1.06
	v2.7h-0.16v0.27H29.3v0.31h-4.62l0-0.03c0-0.01,0-0.02-0.01-0.02c0,0-0.05-0.03-0.11-0.05c-0.04-0.05-0.08-0.07-0.11-0.07v0
	c0-0.01-0.01-0.01-0.02-0.01c-0.03,0-0.32-0.04-0.41,0.03c-0.01,0.01-0.01,0.01-0.02,0.02c-0.07-0.04-0.23-0.11-0.31-0.07
	c-0.02,0.01-0.04,0.03-0.05,0.07l-0.16,0.08c-0.01-0.05-0.02-0.12-0.07-0.14c-0.03-0.01-0.05,0-0.08,0.04l-0.09,0.11
	c0,0-0.03,0.03-0.05,0.06h-3.12h-0.13h-3.26c-0.03-0.03-0.05-0.05-0.05-0.06l-0.09-0.11c-0.03-0.03-0.06-0.05-0.08-0.04
	c-0.04,0.01-0.06,0.09-0.07,0.14l-0.16-0.08c-0.01-0.04-0.03-0.06-0.05-0.07c-0.08-0.04-0.24,0.04-0.31,0.07
	c0-0.01-0.01-0.01-0.02-0.02c-0.09-0.07-0.38-0.03-0.41-0.03c-0.01,0-0.02,0.01-0.02,0.01l0,0c-0.02,0.01-0.07,0.03-0.11,0.07
	c-0.06,0.02-0.1,0.05-0.1,0.05c-0.01,0.01-0.02,0.01-0.02,0.02l0,0.03H10.7v-0.31h-0.52v-0.27h-0.16v-2.7H8.96V13H8.81v-2.54H7.88
	V13H7.73v-2.02H6.87V13H6.73v-1.52H5.97v2.01H5.9v-0.3H4.88v0.3h-1.4v0.67h1.4v0.3H5.9v-0.3h0.08v2.01h0.75v-1.52h0.15v2.02h0.86
	v-2.02h0.15v2.54h0.93v-2.54h0.15v2.79h1.06v-2.7h0.16v-0.27h0.52v-0.31h4.15c-0.03,0.15-0.04,0.28-0.04,0.29c0,0,0,0.01,0,0.01
	c0.17,0.36,0.02,2.01,0.02,2.03c-0.18,1.22,0.12,2.25,0.12,2.26c0.21,0.63,0.34,1.7,0.35,1.8c-0.55,1.19,0.34,3.32,0.35,3.34
	c0,0.01,0.38,2.01,0.6,3.19c0,0.01,0,0.01,0,0.02c0.02,0.21,0.07,0.5,0.14,0.86c0,0,0,0,0,0c0,0,0,0,0,0c0,0.02,0.01,0.03,0.01,0.05
	c0.17,0.76,0.6,1.67,0.64,1.76h5.85c0.05-0.13,0.12-0.3,0.21-0.52c0.14-0.36,0.24-0.83,0.32-1.28c0,0,0.02-0.01,0.02-0.01
	c0.01-0.01,0-0.03-0.01-0.03l0,0c0.01-0.06,0.02-0.12,0.03-0.18c0.04-0.22,0.12-0.63,0.21-1.09c0.01-0.01,0.01-0.01,0.02-0.01
	c0-0.05,0.01-0.11,0.01-0.16c0.22-1.16,0.49-2.58,0.49-2.59c0.01-0.02,0.9-2.15,0.35-3.34c0.01-0.1,0.15-1.17,0.35-1.8
	c0-0.01,0.3-1.04,0.12-2.26c0-0.02-0.15-1.67,0.02-2.03c0,0,0-0.01,0-0.01c0-0.01-0.01-0.15-0.04-0.29h4.29v0.31h0.52v0.27h0.16v2.7
	h1.06v-2.79h0.15v2.54h0.93v-2.54h0.15v2.02h0.86v-2.02h0.15v1.52h0.75v-2.01h0.08v0.3h1.01v-0.3h1.4V13.5H35.12z M24.44,13.37
	c0,0,0.01,0,0.01,0L24.44,13.37L24.44,13.37z M15.42,13.37L15.42,13.37l-0.01,0C15.41,13.37,15.42,13.37,15.42,13.37z M23.93,14.8
	c0.02,0.08,0.12,0.55-0.04,1.78c-0.03,0.08-0.77,1.98-0.65,2.68c-0.1,0.11-0.98,1.11-0.78,2.88c-0.12,0.09-1.04,0.76-1.1,1.19
	c-0.04,0.01-0.15,0.03-0.26,0.05c-0.22-0.22-0.21-0.57-0.18-0.78c0.09-0.12,0.15-0.26,0.17-0.46v-0.39c0,0,0.32-0.15,0.43-0.43
	c0.11-0.28,0.09-0.67-0.02-0.71c-0.11-0.04-0.19-0.09-0.19-0.09s0.17-1.99-1.23-1.97c-1.4,0.02-1.49,1.17-1.49,1.58
	c0,0.41,0,0.41,0,0.41s-0.13-0.15-0.24,0.02c-0.11,0.17-0.13,0.47-0.07,0.63c0.07,0.15,0.43,0.5,0.43,0.5s0.02,0.13,0.02,0.37
	c0,0.08,0.04,0.23,0.12,0.37c-0.01,0.22-0.03,0.7-0.09,0.96c-0.11-0.03-0.24-0.05-0.29-0.06c-0.06-0.43-0.97-1.1-1.1-1.19
	c0.2-1.77-0.68-2.77-0.78-2.88c0.12-0.7-0.62-2.6-0.65-2.68c-0.16-1.23-0.06-1.7-0.04-1.78c0.65-0.21,0.78-0.5,0.8-0.63h3.21h0.13
	h3.07C23.16,14.3,23.28,14.59,23.93,14.8z"/>
</svg>
