<?xml version="1.0" encoding="utf-8"?>
<!-- Generator: Adobe Illustrator 23.0.3, SVG Export Plug-In . SVG Version: 6.00 Build 0)  -->
<svg version="1.1" id="Layer_1" xmlns="http://www.w3.org/2000/svg" xmlns:xlink="http://www.w3.org/1999/xlink" x="0px" y="0px"
	 viewBox="0 0 100 100" style="enable-background:new 0 0 100 100;" xml:space="preserve">
<style type="text/css">
	.st0{fill:#FCB74E;}
</style>
<path class="st0" d="M87.16,34.01v-0.73h-2.49v0.73h-0.19v-4.94h-1.85v3.73h-0.36v-4.98h-2.11v4.98H79.8v-6.25h-2.3v6.25h-0.36
	v-6.86h-2.62v6.64h-0.38v0.67h-1.28v0.77H61.5l0-0.08c0-0.02-0.01-0.04-0.03-0.05c0,0-0.12-0.07-0.26-0.12
	c-0.1-0.11-0.21-0.16-0.27-0.18v0c-0.01-0.02-0.03-0.03-0.05-0.04c-0.08-0.01-0.79-0.11-1.01,0.07c-0.02,0.01-0.03,0.03-0.04,0.05
	c-0.16-0.09-0.56-0.28-0.76-0.18c-0.05,0.02-0.1,0.07-0.12,0.17l-0.4,0.2c-0.02-0.12-0.06-0.31-0.17-0.34
	c-0.07-0.02-0.13,0.01-0.2,0.09l-0.23,0.28c0,0-0.05,0.07-0.13,0.14h-7.67h-0.32h-8.02c-0.08-0.07-0.13-0.13-0.13-0.14l-0.23-0.28
	c-0.07-0.08-0.14-0.11-0.2-0.09c-0.11,0.04-0.15,0.22-0.17,0.34l-0.4-0.2c-0.02-0.1-0.07-0.15-0.12-0.17
	c-0.2-0.11-0.6,0.09-0.76,0.18c-0.01-0.02-0.03-0.03-0.04-0.05c-0.22-0.18-0.93-0.08-1.01-0.07c-0.02,0-0.04,0.02-0.05,0.04l0,0
	c-0.06,0.02-0.17,0.07-0.27,0.18c-0.14,0.05-0.25,0.11-0.25,0.11c-0.03,0.02-0.04,0.04-0.04,0.06l0,0.08H27.13v-0.77h-1.28v-0.67
	h-0.38v-6.64h-2.62v6.86h-0.36v-6.25h-2.3v6.25h-0.36v-4.98h-2.11v4.98h-0.36v-3.73h-1.85v4.94h-0.19v-0.73h-2.49v0.73H9.39v1.66
	h3.45v0.73h2.49v-0.73h0.19v4.94h1.85v-3.73h0.36v4.98h2.11v-4.98h0.36v6.25h2.3v-6.25h0.36v6.86h2.62V37.1h0.38v-0.67h1.28v-0.77
	h10.21c-0.07,0.37-0.09,0.7-0.09,0.72c0,0.01,0,0.02,0.01,0.03c0.41,0.89,0.05,4.95,0.05,4.99c-0.43,3,0.3,5.52,0.31,5.55
	c0.51,1.55,0.84,4.18,0.87,4.43c-1.35,2.93,0.83,8.16,0.85,8.21c0.01,0.02,0.94,4.94,1.48,7.84c0,0.01,0,0.03,0,0.04
	c0.05,0.51,0.16,1.23,0.35,2.12c0,0,0,0.01,0,0.01c0,0,0,0,0.01,0.01c0.01,0.04,0.02,0.08,0.02,0.12c0.42,1.87,1.48,4.11,1.58,4.33
	h14.38c0.13-0.32,0.3-0.73,0.52-1.27c0.35-0.88,0.59-2.05,0.78-3.15c0.01,0,0.04-0.01,0.05-0.04c0.01-0.03,0-0.07-0.03-0.08l0,0
	c0.03-0.17,0.05-0.33,0.08-0.5c0.1-0.55,0.29-1.52,0.5-2.64c0.02-0.01,0.03-0.02,0.06-0.04c0-0.11,0.01-0.23,0.01-0.34
	c0.54-2.85,1.21-6.4,1.21-6.42c0.02-0.05,2.2-5.28,0.85-8.21c0.03-0.24,0.36-2.88,0.87-4.43c0.01-0.03,0.74-2.55,0.31-5.55
	c0-0.04-0.36-4.1,0.05-4.99c0-0.01,0.01-0.02,0.01-0.03c0-0.03-0.02-0.36-0.09-0.72h10.55v0.77h1.28v0.67h0.38v6.64h2.62v-6.86h0.36
	v6.25h2.3v-6.25h0.36v4.98h2.11v-4.98h0.36v3.73h1.85v-4.94h0.19v0.73h2.49v-0.73h3.45v-1.66H87.16z M60.91,33.69
	c0,0,0.02,0.01,0.03,0.01l-0.04,0L60.91,33.69z M38.74,33.69l0.01,0.01l-0.04,0C38.73,33.7,38.73,33.7,38.74,33.69z M59.67,37.21
	c0.05,0.19,0.3,1.35-0.1,4.38c-0.07,0.18-1.88,4.86-1.6,6.58c-0.25,0.27-2.41,2.73-1.91,7.07c-0.31,0.22-2.55,1.87-2.69,2.92
	c-0.11,0.02-0.4,0.07-0.66,0.13c-0.52-0.54-0.49-1.4-0.41-1.92c0.22-0.28,0.38-0.65,0.41-1.12v-0.97c0,0,0.8-0.37,1.06-1.07
	c0.27-0.69,0.21-1.64-0.05-1.75c-0.26-0.1-0.48-0.21-0.48-0.21s0.42-4.89-3.03-4.84c-3.45,0.05-3.66,2.87-3.66,3.88c0,1,0,1,0,1
	s-0.32-0.37-0.59,0.06s-0.32,1.17-0.16,1.54c0.16,0.37,1.06,1.22,1.06,1.22s0.06,0.31,0.06,0.9c0,0.21,0.1,0.56,0.31,0.92
	c-0.02,0.54-0.08,1.72-0.22,2.36c-0.28-0.07-0.59-0.13-0.71-0.15c-0.14-1.06-2.39-2.7-2.69-2.92c0.49-4.34-1.66-6.81-1.91-7.07
	c0.28-1.72-1.52-6.4-1.6-6.58c-0.4-3.03-0.15-4.19-0.1-4.38c1.61-0.51,1.91-1.22,1.96-1.55h7.9h0.32h7.55
	C57.76,35.99,58.06,36.71,59.67,37.21z"/>
</svg>
