<?xml version="1.0" encoding="utf-8"?>
<!-- Generator: Adobe Illustrator 23.0.3, SVG Export Plug-In . SVG Version: 6.00 Build 0)  -->
<svg version="1.1" id="Layer_1" xmlns="http://www.w3.org/2000/svg" xmlns:xlink="http://www.w3.org/1999/xlink" x="0px" y="0px"
	 viewBox="0 0 100 100" style="enable-background:new 0 0 100 100;" xml:space="preserve">
<style type="text/css">
	.st0{fill:#FCB74E;}
</style>
<path class="st0" d="M69.51,28.99h-3.24v-0.05c-0.05-0.61-0.92-0.26-0.92-0.26c-0.1-0.56-0.92-0.26-0.92-0.26
	c-0.49-0.45-0.71,0.35-0.76,0.56H52.63c-0.27-0.18-0.53-0.34-0.7-0.47c-0.04-0.03-0.07-0.06-0.1-0.09
	c-0.06-0.62-0.06-1.25-0.06-1.58c0.03-0.09,0.05-0.19,0.06-0.3v-0.6c0,0,0.49-0.23,0.66-0.66c0.16-0.42,0.13-1.01-0.03-1.08
	c-0.16-0.06-0.29-0.13-0.29-0.13s0.26-3.02-1.87-2.99c-2.13,0.03-2.26,1.77-2.26,2.39c0,0.62,0,0.62,0,0.62s-0.2-0.23-0.36,0.04
	c-0.16,0.26-0.2,0.72-0.1,0.95c0.1,0.23,0.66,0.75,0.66,0.75s0.03,0.19,0.03,0.56c0,0.06,0.01,0.13,0.04,0.22l-0.02,0
	c0,0,0.05,1.1-0.08,2.05c-0.08,0.09-0.21,0.2-0.37,0.31H36.4c-0.05-0.21-0.27-1.01-0.76-0.56c0,0-0.82-0.31-0.92,0.26
	c0,0-0.87-0.36-0.92,0.26v0.05h-3.3v1.64h3.3v0.05c0,0,0.51,1.79,0.87,2.3c0,0,2.66,4.71,3.74,6.14c0,0,1.19,2.15,2.64,0.67
	c0,0,3.35-3.23,3.5-3.74c0,0,0.67,2.66,1.13,2.97c0,0,0.41,3.17-0.1,5.33c0,0-1.33,4.4-0.56,10.04c0,0,0.31,2.76,0.97,4.1
	c0,0,0.41,2.1,0.2,3.64c0,0-0.26,3.74,0.56,5.58c0,0,1.38,5.07,1.23,6.04c0,0-0.41,1.95-0.67,2.3c0,0-0.46,0.56-0.15,1.95
	c0,0,0.2,0.31,0.36,0.26c0,0,0.31,0.31,0.46,0.26c0,0,0.51,0.46,0.87,0.31c0,0,0.61,0.31,0.87-0.31L50,77.84c0,0,0.04-0.71,0-1.23
	c-0.03-0.31-0.33-0.97,0-1.89c0,0,0.08-1.43,0-1.95c0,0-0.59-0.92-0.49-3.79c0,0,0.61-3.53-0.2-6.09c0,0,0.05-1.18,0.15-2.46
	c0,0,0.36-1.95,0.26-5.12c0,0,0.46-3.53,0.05-5.22l0.26-0.15l0-0.07h0l0,0.07l0.26,0.15c-0.41,1.69,0.05,5.22,0.05,5.22
	c-0.1,3.17,0.26,5.12,0.26,5.12c0.1,1.28,0.15,2.46,0.15,2.46c-0.82,2.56-0.2,6.09-0.2,6.09c0.1,2.87-0.49,3.79-0.49,3.79
	c-0.08,0.51,0,1.95,0,1.95c0.33,0.92,0.03,1.59,0,1.89c-0.04,0.52,0,1.23,0,1.23l0.28,0.67c0.26,0.61,0.87,0.31,0.87,0.31
	c0.36,0.15,0.87-0.31,0.87-0.31c0.15,0.05,0.46-0.26,0.46-0.26C52.7,78.3,52.91,78,52.91,78c0.31-1.38-0.15-1.95-0.15-1.95
	c-0.26-0.36-0.67-2.3-0.67-2.3c-0.15-0.97,1.23-6.04,1.23-6.04c0.82-1.84,0.56-5.58,0.56-5.58c-0.2-1.54,0.2-3.64,0.2-3.64
	c0.67-1.33,0.97-4.1,0.97-4.1c0.77-5.63-0.56-10.04-0.56-10.04c-0.51-2.15-0.1-5.33-0.1-5.33c0.46-0.31,1.13-2.97,1.13-2.97
	c0.15,0.51,3.5,3.74,3.5,3.74c1.46,1.48,2.64-0.67,2.64-0.67c1.08-1.43,3.74-6.14,3.74-6.14c0.36-0.51,0.87-2.3,0.87-2.3v-0.05h3.24
	V28.99z M42.86,31.81c0,0-1.13,1.89-1.23,2.71c0,0-1.64,1.69-1.64,2.2c0,0-3.17-3.89-3.48-3.99c-0.31-0.1-0.31-0.1-0.31-0.1
	s0.92-1.14,1.02-2h7.41C43.86,30.93,43.17,31.32,42.86,31.81z M63.87,32.63c0,0,0,0-0.31,0.1c-0.31,0.1-3.48,3.99-3.48,3.99
	c0-0.51-1.64-2.2-1.64-2.2c-0.1-0.82-1.23-2.71-1.23-2.71c-0.32-0.49-1-0.88-1.77-1.18h7.41C62.94,31.49,63.87,32.63,63.87,32.63z"
	/>
</svg>
