<?xml version="1.0" encoding="utf-8"?>
<!-- Generator: Adobe Illustrator 23.0.3, SVG Export Plug-In . SVG Version: 6.00 Build 0)  -->
<svg version="1.1" id="Layer_1" xmlns="http://www.w3.org/2000/svg" xmlns:xlink="http://www.w3.org/1999/xlink" x="0px" y="0px"
	 viewBox="0 0 100 100" style="enable-background:new 0 0 100 100;" xml:space="preserve">
<style type="text/css">
	.st0{fill:#FCB74E;}
</style>
<path class="st0" d="M69.49,61.03c2.19-4.58-0.82-6.83-1.09-7.31c-0.67-1.17-4.51-0.96-4.51-0.96l-0.2-0.75l0.68-1.09
	c1.37-2.05-1.98-7.04-1.98-7.04c0-0.68-0.62-4.85-0.62-4.85c-0.55-3.96-4.58-4.29-4.58-4.29c-0.2-0.47-4.9-3.21-4.9-3.21
	c-0.5-0.58-0.5-1.46-0.43-1.99c0.23-0.32,0.39-0.73,0.4-1.26l-0.04-1.07c0,0,0.86-0.45,1.13-1.22c0.26-0.77,0.16-1.83-0.13-1.93
	c-0.3-0.1-0.54-0.21-0.54-0.21s0.26-5.42-3.55-5.22c-3.81,0.21-3.93,3.33-3.88,4.44c0.04,1.11,0.04,1.11,0.04,1.11
	s-0.37-0.39-0.64,0.09c-0.28,0.48-0.31,1.3-0.11,1.71c0.19,0.4,1.23,1.3,1.23,1.3s0.08,0.35,0.1,0.99c0.01,0.23,0.13,0.61,0.38,1
	c0,0.54-0.01,1.64-0.11,2.37c-1.65,0.73-5.61,4.17-5.61,4.17c-3.49,0.68-2.87,9.16-2.87,9.16c-0.55,0.07-1.3,3.14-1.3,3.14
	c-0.82,1.03-0.41,4.24-0.41,4.24c-1.3-0.68-4.03,0.82-4.03,0.82c-3.55,1.85-1.71,7.04-1.71,7.04c0.2,3.69,6.01,11.14,6.01,11.14
	c1.23,1.16,0.55,3.76,0.55,3.76c-0.07,1.71-2.12,3.83-2.12,3.83l-0.68,0.82l0.55,0.48c0,0.21,0.96,0.41,0.96,0.41
	c0,0.34,0.96-0.14,0.96-0.14l0.34,0.27c0.61,0.34,1.44-0.48,1.44-0.48c0.89,0,1.64-2.12,1.64-2.12c1.3-0.21,1.64-1.5,1.64-1.5
	c0.96-1.5-0.82-3.83-0.82-3.83l-1.3-2.67c-0.07-0.41-0.82-3.55-0.82-3.55c0.07-0.55,0-4.17,0-4.17c4.37,3.83,12.37,1.37,12.37,1.37
	c6.01,2.39,11.21-1.78,11.21-1.78c-0.27,0.82,0.14,4.31,0.14,4.31c0.07,1.43-1.64,6.01-1.64,6.01c-0.21,0.21-0.55,3.08-0.55,3.08
	c-0.34,0.27-0.34,1.91-0.34,1.91c-0.14,0.96,1.85,1.78,1.85,1.78c-0.2,1.09,1.23,2.24,1.23,2.24l1.23-0.1
	c0.21,0.23,1.03-0.03,1.03-0.03c0.34,0.2,0.55-0.75,0.55-0.75l0.55,0.41c1.03-0.27,0.14-2.73,0.14-2.73
	c-0.07-0.55-1.85-3.14-1.85-3.14c-0.48-0.75-0.21-2.94-0.21-2.94c-0.21-0.89,2.39-4.58,2.39-4.58
	C68.74,65.41,69.49,61.03,69.49,61.03z M42.43,52.83l0.68-1.23l0.55,2.46L42.43,52.83z M56.64,53.59l0.27-1.64
	c0,0.34,1.98,1.64,1.98,1.64H56.64z"/>
</svg>
