<?xml version="1.0" encoding="utf-8"?>
<!-- Generator: Adobe Illustrator 23.0.3, SVG Export Plug-In . SVG Version: 6.00 Build 0)  -->
<svg version="1.1" id="Layer_1" xmlns="http://www.w3.org/2000/svg" xmlns:xlink="http://www.w3.org/1999/xlink" x="0px" y="0px"
	 viewBox="0 0 100 100" style="enable-background:new 0 0 100 100;" xml:space="preserve">
<style type="text/css">
	.st0{fill:#F7CB4D;}
</style>
<path class="st0" d="M69.85,36.86l-0.04-0.66l-1.64-0.82l0.04-6.46l-0.49-5.42c0,0-0.42-3.98-3.94-4.96c0,0-3.63-1.89-6.91,1.19
	l-7.34,9.32c0,0-4.62-1.78-5.56,1.11l-17,34.99c0,0,0.4,3.08,3.5,4.75c0,0,3.84,2.71,6.56-0.05l17.74-35.29l0.11-1.43l8.63,3.43
	c0,0-1.96,1.02-2.3,1.98l-5.7,39.97c0,0,3.06,3.46,7.37,3.52c0,0,3.69-0.08,4.14-2.47l6.04-39.68
	C73.04,39.89,73.16,38.19,69.85,36.86z M51.74,29.4L53.36,27c0,0,0.49,2.91,1.72,3.9L51.74,29.4z M55.45,25.94
	c0.23-3.09,2.83-5.41,5.8-5.18s5.19,2.91,4.96,5.99c-0.23,3.09-2.83,5.41-5.8,5.18C57.44,31.71,55.22,29.03,55.45,25.94z
	 M61.49,33.45c0,0,4.02-0.86,4.79-2.78c0,0,0.22,2.98,0.22,4.24L61.49,33.45z"/>
</svg>
