<?xml version="1.0" encoding="utf-8"?>
<!-- Generator: Adobe Illustrator 23.0.3, SVG Export Plug-In . SVG Version: 6.00 Build 0)  -->
<svg version="1.1" id="Layer_1" xmlns="http://www.w3.org/2000/svg" xmlns:xlink="http://www.w3.org/1999/xlink" x="0px" y="0px"
	 viewBox="0 0 100 100" style="enable-background:new 0 0 100 100;" xml:space="preserve">
<style type="text/css">
	.st0{fill:#FCB74E;}
</style>
<g>
	<path class="st0" d="M74.24,55.86c0,0-5.5-6.84-20.39-2.32c0,0-7.82-2.56-12.21-0.73c0,0,2.44-5.37,2.44-10.63
		c0,0,4.03-9.4,6.35-8.55c0,0,2.56,1.71,5.5,1.95c0,0,2.44,0.49,2.69,1.1c0,0,2.44,0.12,1.83-2.32c0,0,3.18,0.12,3.18-1.22
		c0,0-1.71-5.62-1.59-6.72c0,0-0.49-0.98-3.05-1.1c0,0-11.48,1.34-11.85,1.83c0,0-2.08,1.1-4.64,4.76c0,0-5.13,5.25-5.86,5.74
		c0,0-4.52,5.37-6.72,10.5c0,0-1.47,2.2-1.83,2.81c0,0-2.44,4.89-2.32,6.59c0,0,0.61,3.3,7.82,6.23c0,0,11.6,11.48,26.62,6.47
		c0,0,1.22,4.03,1.71,4.4l3.66-0.73l6.59-9.4L74.24,55.86z"/>
</g>
</svg>
