<?xml version="1.0" encoding="utf-8"?>
<!-- Generator: Adobe Illustrator 23.0.3, SVG Export Plug-In . SVG Version: 6.00 Build 0)  -->
<svg version="1.1" id="Layer_1" xmlns="http://www.w3.org/2000/svg" xmlns:xlink="http://www.w3.org/1999/xlink" x="0px" y="0px"
	 viewBox="0 0 600 400" style="enable-background:new 0 0 600 400;" xml:space="preserve">
<style type="text/css">
	.st0{opacity:0.1;}
	.st1{fill:#FCB74E;}
</style>
<g class="st0">
	<g>
		<path class="st1" d="M245.07,323.18c2.38,10.56,8.18,23.35,9.71,26.65h89.93c0.81-1.94,1.82-4.42,3.07-7.62
			c5.44-13.87,7.06-39.25,7.9-39.48c0.17-0.06,0.54-0.3,1-0.63c0.2-10.7,1.44-21.47,2.88-32.43c0.09-0.65,0.24-1.25,0.44-1.81
			c-0.36-0.09-0.71-0.19-1.07-0.27c-13.35-3.27-17.96,0-17.96,0s-16.89-10.1-23.16-14.71c-4.31-3.2-4.09-9.34-3.54-12.84
			c1.36-1.77,2.34-4.03,2.55-7v-6.03c0,0,4.96-2.32,6.62-6.64c1.66-4.28,1.32-10.24-0.33-10.92c-1.65-0.65-2.97-1.31-2.97-1.31
			s2.63-30.46-18.87-30.14c-21.52,0.34-22.84,17.88-22.84,24.18c0,6.26,0,6.26,0,6.26s-1.98-2.3-3.65,0.36c-1.66,2.66-2,7.27-1,9.61
			c1,2.32,6.62,7.61,6.62,7.61s0.35,1.96,0.35,5.61c0,1.29,0.59,3.48,1.91,5.73c-0.14,3.71-0.56,12.21-1.63,15.77
			c-1.35,4.64-23.17,14.46-23.17,14.46s-5.24-0.54-22.34,1.24c4.71,12.03,7.38,26.29,7.2,40.3
			C243.09,312.49,243.76,317.25,245.07,323.18z"/>
		<path class="st1" d="M237.75,270.54"/>
		<path class="st1" d="M358.09,280.31"/>
		<path class="st1" d="M285.51,253.96c-0.03-0.09-0.09-0.18-0.18-0.23l-1.39-0.81c-1.27-0.74-5.85-1.56-7.08-1.78
			c-0.87-6.59-14.88-16.86-16.79-18.23c3.08-27.06-10.36-42.43-11.92-44.1c1.77-10.74-9.5-39.89-9.96-41.04
			c-2.48-18.87-0.94-26.1-0.62-27.31c12.02-3.8,12.35-9.49,12.3-10.57c3.25-4.37,2.16-7.95,2.11-8.11c-0.06-0.17-0.21-0.3-0.41-0.28
			c-1.93,0.14-3.33-1.83-3.37-1.88l-1.45-1.72c-0.43-0.51-0.85-0.69-1.26-0.56c-0.68,0.23-0.94,1.35-1.03,2.13l-2.52-1.24
			c-0.11-0.61-0.45-0.91-0.73-1.06c-1.26-0.66-3.73,0.55-4.75,1.1c-0.07-0.11-0.16-0.21-0.27-0.3c-1.37-1.11-5.79-0.52-6.29-0.45
			c-0.13,0.02-0.25,0.1-0.3,0.22l0,0c-0.37,0.13-1.05,0.44-1.65,1.14c-0.87,0.3-1.57,0.71-1.62,0.74c-0.12,0.07-0.19,0.2-0.19,0.33
			l-0.09,4.48c-0.77-0.17-1.48-0.04-2.13,0.38c-3.04,2-3.4,10.16-3.41,10.5c0,0.06,0.01,0.13,0.04,0.18
			c2.54,5.57,0.34,30.87,0.32,31.1c-2.71,18.68,1.87,34.41,1.92,34.58c3.18,9.64,5.24,26.09,5.42,27.6
			c-8.43,18.27,5.16,50.87,5.3,51.2c0.07,0.17,11.67,61.82,11.67,61.82l-0.09,0.04c-0.2,0.09-0.29,0.32-0.2,0.53
			c0.07,0.15,0.21,0.23,0.36,0.23c0.06,0,0.11-0.01,0.16-0.03l53.59-24.1c0.18-0.08,0.28-0.29,0.22-0.48L285.51,253.96z
			 M229.83,98.51c0.01,0.02,0.03,0.05,0.04,0.07c-0.07-0.01-0.15,0-0.23,0C229.72,98.55,229.77,98.53,229.83,98.51z"/>
		<path class="st1" d="M298.63,298c-0.06,0.19,0.03,0.4,0.22,0.48l53.59,24.1c0.05,0.02,0.11,0.03,0.11,0.03
			c0.21,0,0.35-0.09,0.42-0.23c0.09-0.2,0-0.44-0.2-0.53l-0.09-0.04c0,0,11.6-61.64,11.67-61.82c0.14-0.33,13.73-32.93,5.3-51.2
			c0.18-1.52,2.25-17.96,5.43-27.6c0.05-0.17,4.62-15.9,1.92-34.58c-0.02-0.23-2.22-25.53,0.32-31.1c0.02-0.06,0.04-0.12,0.04-0.18
			c-0.01-0.35-0.38-8.51-3.41-10.5c-0.64-0.43-1.36-0.55-2.13-0.38l-0.09-4.48c0-0.14-0.08-0.26-0.19-0.33
			c-0.05-0.03-0.75-0.44-1.62-0.74c-0.6-0.7-1.28-1.01-1.65-1.14v0c-0.06-0.12-0.17-0.2-0.3-0.22c-0.5-0.07-4.92-0.66-6.29,0.45
			c-0.11,0.09-0.2,0.19-0.27,0.3c-1.01-0.55-3.49-1.76-4.75-1.1c-0.28,0.15-0.62,0.45-0.73,1.06l-2.52,1.24
			c-0.1-0.78-0.36-1.9-1.03-2.13c-0.41-0.13-0.83,0.05-1.26,0.56l-1.45,1.72c-0.04,0.05-1.44,2.02-3.37,1.88
			c-0.19-0.02-0.35,0.1-0.41,0.28c-0.05,0.15-1.14,3.74,2.11,8.11c-0.05,1.08,0.28,6.77,12.3,10.57c0.32,1.21,1.86,8.44-0.62,27.31
			c-0.46,1.15-11.73,30.3-9.96,41.04c-1.56,1.68-15,17.05-11.92,44.1c-1.91,1.37-15.92,11.64-16.79,18.23
			c-1.23,0.21-5.82,1.03-7.08,1.78l-1.39,0.81c-0.09,0.05-0.15,0.13-0.18,0.23L298.63,298z M368.19,98.59c0,0-0.15-0.01-0.23,0
			c0.01-0.02,0.03-0.05,0.04-0.07C368.06,98.53,368.12,98.55,368.19,98.59z"/>
	</g>
	<polygon class="st1" points="553.15,100.48 531.67,100.48 531.67,95.91 516.16,95.91 516.16,100.48 514.97,100.48 514.97,69.66 
		503.43,69.66 503.43,92.92 501.18,92.92 501.18,61.9 488.05,61.9 488.05,92.92 485.8,92.92 485.8,53.95 471.48,53.95 471.48,92.92 
		469.23,92.92 469.23,50.17 452.92,50.17 452.92,91.53 450.54,91.53 450.54,95.71 442.58,95.71 442.58,100.48 300.99,100.48 
		299.01,100.48 157.42,100.48 157.42,95.71 149.46,95.71 149.46,91.53 147.08,91.53 147.08,50.17 130.77,50.17 130.77,92.92 
		128.52,92.92 128.52,53.95 114.2,53.95 114.2,92.92 111.95,92.92 111.95,61.9 98.82,61.9 98.82,92.92 96.57,92.92 96.57,69.66 
		85.03,69.66 85.03,100.48 83.84,100.48 83.84,95.91 68.33,95.91 68.33,100.48 46.85,100.48 46.85,110.82 68.33,110.82 68.33,115.4 
		83.84,115.4 83.84,110.82 85.03,110.82 85.03,141.64 96.57,141.64 96.57,118.38 98.82,118.38 98.82,149.4 111.95,149.4 
		111.95,118.38 114.2,118.38 114.2,157.35 128.52,157.35 128.52,118.38 130.77,118.38 130.77,161.13 147.08,161.13 147.08,119.77 
		149.46,119.77 149.46,115.59 157.42,115.59 157.42,110.82 299.01,110.82 300.99,110.82 442.58,110.82 442.58,115.59 450.54,115.59 
		450.54,119.77 452.92,119.77 452.92,161.13 469.23,161.13 469.23,118.38 471.48,118.38 471.48,157.35 485.8,157.35 485.8,118.38 
		488.05,118.38 488.05,149.4 501.18,149.4 501.18,118.38 503.43,118.38 503.43,141.64 514.97,141.64 514.97,110.82 516.16,110.82 
		516.16,115.4 531.67,115.4 531.67,110.82 553.15,110.82 	"/>
</g>
</svg>
