<?xml version="1.0" encoding="utf-8"?>
<!-- Generator: Adobe Illustrator 23.0.3, SVG Export Plug-In . SVG Version: 6.00 Build 0)  -->
<svg version="1.1" id="Layer_1" xmlns="http://www.w3.org/2000/svg" xmlns:xlink="http://www.w3.org/1999/xlink" x="0px" y="0px"
	 viewBox="0 0 100 100" style="enable-background:new 0 0 100 100;" xml:space="preserve">
<style type="text/css">
	.st0{fill:#4BA484;}
</style>
<path class="st0" d="M53.93,62.87c0.41-0.36,0.78-2.58,0.78-2.58c0.97-1.47,1.76-6.15,1.76-6.15c0.33-2.97-0.26-5.67-0.26-5.67
	c-0.36-1.45-2.14-4.53-2.14-4.53c-1.11-1.85-3.8-2.82-3.8-2.82c-0.03-0.6-0.55-2.92-0.55-2.92v-0.64l-0.16-0.48
	c-0.09-1.47-1.47-5.2-1.47-5.2L48,31.01l-0.76-0.8l-0.09-0.38l-0.12-0.67c-0.09-0.26-0.67-0.6-0.67-0.6
	c-0.36-0.07-0.57,1.42-0.57,1.42c-0.31,0.1,0.28,0.88,0.28,0.88c0.09,0.43,1,1.12,1,1.12l0.38,5.6l0.43,0.88
	C47.86,38.79,48,40.38,48,40.38v1.94c-0.23-0.14-0.41-0.28-0.41-0.28s-0.01-0.11,0-0.28c0,0,0.12-1.23-0.52-0.9
	c0,0-0.11-0.14-0.29-0.03c0,0-0.11-0.12-0.27-0.06c0,0-0.18,0.02-0.22-0.1c0,0-0.15-0.23-0.39-0.01c0,0-0.35,0.36-0.42,0.38
	c0,0-0.33,0.05-0.34,0.01c0,0-1.41,0.36-1.67,1.61c0,0-0.26,1.3,0.57,2.18c0,0,0.58,0.54,1.47,0.57c0.4,0.04,0.88,0.01,1.14-0.31
	c0.2-0.1,0.48-0.2,0.82-0.17c0,0.01,0,0.03,0.01,0.07c0.22,0.02,0.44,0.07,0.63,0.16c0.93,1.98,3.21,3.39,3.21,3.39
	c1.05,0.64,1.14,2.07,1.14,2.07l-0.83,1.71c-1.54,2.8,0.43,4.08,0.43,4.08c-0.62,2.16-0.22,3.94-0.22,3.94
	c0.14,0.92-0.16,1.35-0.16,1.35c-0.92,1.47-0.66,3.56-0.66,3.56c0.22,0.79-0.02,2.85-0.02,2.85l-0.31,1.71l-0.26,0.9
	c-0.21,0.93,1.21,0.68,1.21,0.68c0.55-0.16,2.16-0.03,2.16-0.03c0.86,0.1,1.56-0.14,1.56-0.14c0.5-0.59-0.38-0.43-0.38-0.43
	l-0.93-0.31c-0.28-0.26-1.37-0.9-1.37-0.9c-0.26-0.83,0.21-2.64,0.21-2.64L53.93,62.87z"/>
</svg>
