<?xml version="1.0" encoding="utf-8"?>
<!-- Generator: Adobe Illustrator 23.0.3, SVG Export Plug-In . SVG Version: 6.00 Build 0)  -->
<svg version="1.1" id="Layer_1" xmlns="http://www.w3.org/2000/svg" xmlns:xlink="http://www.w3.org/1999/xlink" x="0px" y="0px"
	 viewBox="0 0 40 40" style="enable-background:new 0 0 40 40;" xml:space="preserve">
<style type="text/css">
	.st0{fill:#FFFFFF;}
</style>
<path class="st0" d="M38.85,15.73c0.33-0.18,0.78-0.39,0.66-0.59c-0.11-0.18-0.34-0.08-0.45-0.04c-0.09,0.03-0.83,0.44-0.9,0.51
	c0.01,0,0.02-0.01,0.03-0.01c-0.01,0-0.02,0.01-0.03,0.01c0,0,0,0,0,0c0,0,0,0,0,0c-0.14,0.04-0.53,0.18-0.53,0.18
	c-0.01-0.06-0.03-0.1-0.06-0.17c0.25-0.25,0.66-0.45,0.96-0.66c0.38-0.27,0.88-0.55,0.72-0.81c-0.15-0.22-0.51,0.09-1.01,0.39
	c-0.06,0.04-0.62,0.44-0.91,0.55c-0.04-0.09-0.1-0.14-0.14-0.21c0.08-0.08,0.21-0.22,0.31-0.32c0.19-0.15,0.53-0.37,0.67-0.45
	c0.11-0.07,0.48-0.42,0.33-0.58c-0.16-0.16-0.33,0-0.56,0.19c-0.24,0.19-0.36,0.35-0.63,0.46c-0.14,0.06-0.55,0.28-0.79,0.41
	c-0.22,0.01-0.38,0.09-0.57,0.01c0.08-0.11,0.14-0.2,0.16-0.23c0.07-0.11,0.34-0.28,0.43-0.4c0.09-0.13,0.15-0.37-0.05-0.56
	c0,0-0.25,0.09-0.42,0.39c-0.17,0.3-0.35,0.49-0.52,0.61c-0.16,0.11-0.92,0.79-0.77,1.37c0.05,0.19-0.41,0.28-0.73,0.46
	c-0.3,0.16-0.66,0.33-1.11,0.45c-1.02,0.28-2.26,0.5-3.52,1.18c-1.26,0.68-1.35,0.97-1.98,1.38c-0.62,0.42-1.33,0.43-1.95,0.76
	c-0.62,0.34-0.66,0.36-0.66,0.36s-0.58-0.32-1.96,0.29c-0.18,0.08-0.34,0.15-0.48,0.22c-0.29-0.18-0.56-0.36-0.74-0.49
	c-0.36-0.27-0.34-0.78-0.3-1.07c0.11-0.15,0.19-0.34,0.21-0.58l0-0.5c0,0,0.41-0.19,0.55-0.56c0.14-0.36,0.11-0.85-0.03-0.91
	c-0.14-0.05-0.25-0.11-0.25-0.11s0.21-2.54-1.58-2.51c-1.79,0.03-1.9,1.5-1.9,2.02c0,0.52,0,0.52,0,0.52s-0.17-0.19-0.3,0.03
	c-0.14,0.22-0.17,0.61-0.08,0.8c0.08,0.19,0.55,0.63,0.55,0.63s0.03,0.16,0.03,0.47c0,0.11,0.05,0.29,0.16,0.48
	c-0.01,0.31-0.04,1.02-0.13,1.32c-0.04,0.15-0.36,0.38-0.72,0.59c-0.21-0.1-0.45-0.21-0.74-0.34c-1.38-0.61-1.96-0.29-1.96-0.29
	s-0.04-0.02-0.66-0.36c-0.62-0.33-1.32-0.34-1.95-0.75c-0.63-0.41-0.73-0.7-1.99-1.38c-1.26-0.67-2.5-0.89-3.53-1.16
	c-0.46-0.12-0.82-0.28-1.12-0.45c-0.32-0.18-0.78-0.27-0.73-0.46c0.15-0.58-0.62-1.26-0.77-1.36c-0.18-0.12-0.36-0.31-0.53-0.61
	c-0.17-0.3-0.42-0.39-0.42-0.39c-0.2,0.19-0.14,0.43-0.05,0.56c0.09,0.13,0.36,0.3,0.44,0.4c0.02,0.03,0.09,0.12,0.16,0.23
	c-0.19,0.08-0.35,0-0.57-0.01c-0.23-0.13-0.64-0.35-0.78-0.41c-0.26-0.1-0.39-0.27-0.63-0.46c-0.24-0.19-0.41-0.35-0.56-0.19
	c-0.16,0.16,0.22,0.51,0.33,0.58c0.14,0.09,0.49,0.3,0.68,0.45c0.11,0.09,0.23,0.23,0.32,0.31c-0.04,0.07-0.1,0.12-0.14,0.21
	c-0.3-0.11-0.86-0.51-0.92-0.55c-0.5-0.3-0.86-0.61-1.01-0.39c-0.17,0.26,0.33,0.54,0.72,0.81c0.3,0.21,0.71,0.4,0.96,0.65
	c-0.03,0.07-0.04,0.11-0.06,0.17c0,0-0.39-0.14-0.53-0.18c-0.07-0.06-0.82-0.47-0.91-0.5c-0.11-0.04-0.34-0.14-0.45,0.04
	c-0.12,0.2,0.34,0.41,0.66,0.59c0.31,0.17,0.94,0.5,1.23,0.62c0.02,0.07,0.01,0.04,0.03,0.1c0,0-0.56,0.02-0.71-0.04
	c-0.14-0.06-0.66-0.17-0.7,0.05c-0.04,0.19,0.37,0.27,0.78,0.31c0.26,0.03,0.86,0.07,1.1,0.09c0.08,0.04,0.16,0.08,0.27,0.13
	c0.1,0.06,0.2,0.12,0.32,0.2c0.05,0.03,0.09,0.05,0.13,0.08c0.57,0.34,0.91,0.07,1.05,0.05c0.13-0.02,0.57,0.18,0.63,0.21
	c0.2,0.12,0.95,0.58,3.13,1.93c2.12,1.31,2.61,1.21,2.61,1.21s0.95,0.57,2.27,1.38c0.01,0,0.01,0.01,0.02,0.01
	c-0.01,0-0.01,0.01-0.02,0.01c0.65,0.38,1.28,1.08,1.74,1.65c0.19,0.24,0.3,0.52,0.35,0.82c0.01,0.01,0.01,0.01,0.01,0.01
	s0,0.02,0,0.05c0.02,0.15,0.03,0.3,0.04,0.45c0.03,0.28,0.09,0.66,0.19,1.13c0.02,0.07,0.04,0.15,0.06,0.22
	c2.45,0.01,4.89,0.03,7.34,0.06c0.14,0,0.28,0,0.41,0l0,0c0.37,0,0.74,0.01,1.1,0.01c0.13-0.66,0.2-1.33,0.25-1.7
	c-0.01-0.31,0.03-0.61,0.19-0.87c0.4-0.7,1.2-1.21,1.72-1.83c0,0-0.01,0-0.01,0c0.01,0,0.02-0.01,0.02-0.01
	c0.02-0.02,0.04-0.03,0.07-0.04c1.31-0.81,2.25-1.38,2.25-1.38s0.49,0.1,2.6-1.22c2.17-1.36,2.91-1.82,3.12-1.94
	c0.06-0.03,0.5-0.23,0.63-0.21c0.14,0.02,0.47,0.29,1.04-0.05c0.04-0.02,0.09-0.05,0.13-0.08c0.12-0.08,0.22-0.15,0.32-0.2
	c0.11-0.06,0.19-0.1,0.27-0.14c0.24-0.03,0.84-0.07,1.1-0.1c0.41-0.05,0.81-0.12,0.78-0.32c-0.04-0.22-0.56-0.1-0.7-0.05
	c-0.15,0.06-0.71,0.04-0.71,0.04c0.02-0.05,0.01-0.03,0.03-0.1C37.91,16.24,38.54,15.9,38.85,15.73z M38.19,15.61
	c0.01-0.01,0.02-0.01,0.02-0.01C38.21,15.6,38.2,15.6,38.19,15.61c-0.02,0.01-0.03,0.01-0.03,0.01S38.17,15.61,38.19,15.61z
	 M1.81,15.69c-0.01,0-0.02-0.01-0.02-0.01c0,0,0,0,0,0c0,0,0,0,0,0C1.8,15.69,1.8,15.69,1.81,15.69c0.02,0.01,0.03,0.01,0.03,0.01
	S1.83,15.7,1.81,15.69z"/>
</svg>
