<?xml version="1.0" encoding="utf-8"?>
<!-- Generator: Adobe Illustrator 23.0.3, SVG Export Plug-In . SVG Version: 6.00 Build 0)  -->
<svg version="1.1" id="Layer_1" xmlns="http://www.w3.org/2000/svg" xmlns:xlink="http://www.w3.org/1999/xlink" x="0px" y="0px"
	 viewBox="0 0 100 100" style="enable-background:new 0 0 100 100;" xml:space="preserve">
<style type="text/css">
	.st0{fill:#5ABA47;}
</style>
<path class="st0" d="M65.19,67.61c0,0,0,0-0.06,0.12c-0.06,0.12-1.23,0-1.23,0l-3.18-1.23c-1.18-0.24-3.7-1.88-3.7-1.88
	c-0.88-0.82-1.41-3.53-1.41-3.53c-0.47-2.35,1.35-8.76,1.35-8.76c2.23-4.35,3-12.47,3-12.47c0.88-5.41-2.18-6.12-2.18-6.12
	c-0.47-0.06-7.23-2.35-7.23-2.35c-2.91-0.89-6.66-0.94-9.05-0.85c-2.64,4.15-4.92,8.51-6.97,12.99c0.34,0.08,0.63,0.13,0.73,0.1
	c4.68-1.56,10.69-1.18,10.69-1.18h5.37c-1.53,6,0.06,8.53,0.06,8.53c0.47,3.53-1.23,12.53-1.23,12.53
	c-1.53,3.53-0.88,5.17-0.88,5.17c0.41,1.47,5.65,0.53,5.65,0.53c1.18-0.82,5.65,0.29,6.06,0.29c2.1,0,3-0.29,3-0.29h0.76
	C66.07,68.73,65.19,67.61,65.19,67.61z"/>
</svg>
