<?xml version="1.0" encoding="utf-8"?>
<!-- Generator: Adobe Illustrator 23.0.3, SVG Export Plug-In . SVG Version: 6.00 Build 0)  -->
<svg version="1.1" id="Layer_1" xmlns="http://www.w3.org/2000/svg" xmlns:xlink="http://www.w3.org/1999/xlink" x="0px" y="0px"
	 viewBox="0 0 40 40" style="enable-background:new 0 0 40 40;" xml:space="preserve">
<style type="text/css">
	.st0{fill:#FFFFFF;}
</style>
<g>
	<path class="st0" d="M10.04,19.77c0,0,2.1-4.46,5.1-4.23c0,0,0.38-0.37,4.08,2.23c0,0,0.52,0.35,1.48-0.02c0,0,2.6-2.63,4.23-2.23
		c0,0,3.48,0.71,4.93,4.5c0,0,0.17,1.5-3.16,2.46c0,0-0.46,0.4,0.06,0.67c0,0,0.48,0.44-0.35,0.6c0,0-1.87,0.81-1.89,1.17
		c0,0-0.75-0.52-1.39-0.29c0,0-1.87,1.42-2.58,0.52c0,0-0.13-0.42,0.5-0.65c0,0,2.98-1.02,2.96-3.19c0,0-0.62-1.87-2.71-0.69
		c0,0-1.33,0.67-2.75,0c0,0-1.73-0.79-2.39,0c0,0-0.83,0.92,0.19,2.17c0,0,1.21,1.54,2.44,1.71c0,0,0.44,0.06,0.46,0.56
		c0,0-0.19,0.73-1.4,0.21c0,0-1.06-0.73-1.58-0.73c0,0-0.96,0.17-0.96,0.35c0,0-1.46-1.25-2.52-1.4c0,0-0.17-0.23,0.4-0.52
		c0,0,0.25-0.42-0.31-0.62C12.91,22.35,9.64,21.27,10.04,19.77z"/>
	<path class="st0" d="M29.38,28.14v1.62h-2.27v-2.35c0,0,0.15-0.92-1.37-1.15c0,0-0.98-0.35,0-1.08c0,0,1.21-1,1.75,0
		c0,0,0.92,0.15,1.1-0.19c0,0,0.65-1.64,1.64-0.44c0,0,0.92,2.02-0.12,2.67C30.11,27.21,29.38,27.54,29.38,28.14z"/>
	<path class="st0" d="M10.62,28.14v1.62h2.27v-2.35c0,0-0.15-0.92,1.37-1.15c0,0,0.98-0.35,0-1.08c0,0-1.21-1-1.75,0
		c0,0-0.92,0.15-1.1-0.19c0,0-0.65-1.64-1.64-0.44c0,0-0.92,2.02,0.12,2.67C9.89,27.21,10.62,27.54,10.62,28.14z"/>
	<path class="st0" d="M17.8,13.57c0,0,2.21,2.04,4.29,0v1.21c0,0-1.03,0.06-0.92,1.25c0,0-1,1.94-2.54,0c0,0,0.19-1.08-0.83-1.15
		V13.57z"/>
	<path class="st0" d="M17.8,10.25c0,0,2.21,2.04,4.29,0v1.21c0,0-1.03,0.06-0.92,1.25c0,0-1,1.94-2.54,0c0,0,0.19-1.08-0.83-1.15
		V10.25z"/>
</g>
</svg>
