<?xml version="1.0" encoding="utf-8"?>
<!-- Generator: Adobe Illustrator 23.0.3, SVG Export Plug-In . SVG Version: 6.00 Build 0)  -->
<svg version="1.1" id="Layer_1" xmlns="http://www.w3.org/2000/svg" xmlns:xlink="http://www.w3.org/1999/xlink" x="0px" y="0px"
	 viewBox="0 0 150 800" style="enable-background:new 0 0 150 800;" xml:space="preserve">
<style type="text/css">
	.st0{fill:#7AC143;}
</style>
<g>
	<path class="st0" d="M135.6,33.4c-2.44-0.99-4.55,4.87-4.88,6.67c-0.36,1.8-4.05,7.23-4.05,7.23c-0.42-0.53-0.22-0.3-0.79-0.87
		c0.58-3.56,1.25-11.87,1.52-16c0.29-4.34,1.1-10.18-1.69-10.23c-2.43-0.05-2.93,2.83-3.19,4.16c-0.23,1.09-0.83,10.96-0.69,12.07
		c0.15-0.58,0.22-0.8,0.14-0.26c-0.09,0.41-0.13,0.44-0.14,0.26c-0.45,1.63-1.52,6.39-1.52,6.39c-0.72-0.25-1.2-0.37-2.04-0.51
		c-0.89-4.09-0.25-9.33-0.44-13.56c-0.22-5.45,0.07-12.18-3.52-12.12c-3.1,0.02-2.35,5.56-2.46,12.37
		c0.02,0.78,0.46,8.87-0.27,12.49c-1.17-0.18-2.04,0.11-2.97,0.05c-0.28-1.37-0.91-3.44-1.12-5.11c-0.35-2.75-0.26-7.54-0.22-9.49
		c0.02-1.49-1.11-7.35-3.68-6.83c-2.55,0.53-2.03,3.16-1.65,6.71c0.34,3.53,1.19,5.85,0.6,9.08c-0.35,1.81-0.75,7.21-0.88,10.29
		c-1.24,2.27-1.51,4.34-3.43,5.71c-0.6-1.47-1.1-2.68-1.26-3.07c-0.58-1.39-0.55-5.12-1.24-6.84c-0.68-1.7-2.76-3.79-5.84-3.01
		c0,0-0.71,3.08,1.18,6.6c1.86,3.51,2.64,6.54,2.71,9.01c0.08,2.21,2,14.05,8.65,16.15c2.21,0.71,0.17,5.73-0.03,10.07
		c-0.26,3.94-0.88,8.53-2.54,13.82c-3.66,11.81-9.28,25.4-10.49,42.11c-1.21,16.7,1.06,19.44,1.21,28.25
		c0.19,8.77-4.09,15.79-4.7,23.98c-0.59,8.23-0.61,8.76-0.61,8.76s-4.33,2.36-7.39,12.17c-0.41-0.04-0.82-0.08-1.23-0.12
		c-3-1.92-5.8-3.77-7.65-5.13c-1.08-0.8-1.85-1.79-2.41-2.88v-14.1l-0.29-0.18c2.42-4.3,4.49-9.62,5.27-16.03
		c5.94,3.24,8.32-11.51,8.32-11.51c1.3-9.08-6.53-5.02-6.53-5.02l0,0c0.47-5.46,0.82-11.2,0.69-15.41
		c0-13.88-11.69-25.13-26.1-25.13c-13.71,0-24.93,10.18-26,23.12l-0.01,0v0.25c-0.04,0.58-0.09,1.17-0.09,1.76
		c0,0.59,0.05,1.18,0.09,1.76v13.55c-1.21-0.56-7.48-3.09-6.31,5.12c0,0,2.32,14.34,8.1,11.59c1.35,5.15,3.55,11.84,6.87,17.53
		l-0.33,0.22v18.81c0,0-7.04,3.15-16.88,3.58v451.41c3.7,14.63,10.07,40.18,10.07,42.71c0,0,4.21,30.15,3.89,36.64l-9.73,30.48
		c0,0-1.3,6.81,1.95,6.48c0,0,2.59,2.92,4.22,1.62c0,0,2.27,0.99,4.54,0.33c0,0,4.86,4.02,7.13,0.23c0,0,9.08,6.9,10.05-6.39
		c0,0,2.27-5.84,1.95-12.65c0,0-0.39-5.65,1.5-8.92l1.42,6.32c0,0-0.97,10.38,0,13.62c0,0-0.32,10.21,6.48,9.8
		c0,0,3.57-1.05,3.89-2.02c0,0,5.19,3.24,6.81,0.65c0,0,4.22,0.32,5.51-1.95c0,0,5.19,0.32,5.51-4.54l-2.59-7.13
		c0,0-6.48-21.4-8.75-23.67c0,0-0.65-4.22,0.65-6.81c0,0,1.3-14.27,0.97-16.54l6.16-30.48c0,0,12.32-43.45,12.65-60.31
		c0,0,0.32-23.35-2.92-37.61c0,0,1.64-24.32,2.93-31.45l17.82-77.17c0,0,9.73-38.26,1.95-72.95c0,0-11.67-41.83-16.54-53.18
		c0,0,2.25-42.51,7.41-62.37c0.1-0.9,0.22-1.79,0.34-2.68c6.53-5.35,6.13-16.8,4.93-24.51c1.27-8.43,1.92-15.27,2.35-15.39
		c0.05-0.02,0.53-18.62,0.64-28.47c0.3-0.29,0.47-0.51,0.47-0.65c0.04-1.59,7.05-16.2,7.24-34.28c0.22-18.06,0.5-31.06,0.5-31.06
		s4.03-4.24,4.27-33.33c0.26-29.94,0.4-40.15,0.43-42.93c0.1-0.81,0.86-6.34,1.91-7.54c1.08-1.24,5.89-2.84,6.04-10.65
		c0.03-0.55,0.05-1.16,0.06-1.79c-0.06-1.71-0.03-3.14,0.02-4.48c0.1-1.39,0.23-2.54,0.35-3.51c1.26-2.57,4.64-8.75,5.94-11.49
		C135.94,38.71,137.74,34.25,135.6,33.4z M51.06,695.74c0,0-0.41,32.75-1.99,32.75l-0.73,3.21c-0.25-1.06-0.52-2.13-0.85-3.21
		c0,0-2.02-18.56-3.57-34.05c-0.32-3.24,6.16-47.34,0.97-72.95c0,0-3.57-14.92-0.32-34.37c0,0,1.62-31.45-1.3-69.39
		c0,0,0.97-57.71-0.97-65.5c0,0,6.81-2.59,10.05,0v76.52c0,0-2.27,53.82,0,65.17c0,0,0.89,23.67-3.29,34.69
		C49.07,628.62,48.47,648.4,51.06,695.74z"/>
	<path class="st0" d="M121.83,128.84c0.01,0.17,0.05,0.15,0.14-0.26C122.05,128.04,121.98,128.26,121.83,128.84z"/>
</g>
</svg>
