<?xml version="1.0" encoding="utf-8"?>
<!-- Generator: Adobe Illustrator 23.0.3, SVG Export Plug-In . SVG Version: 6.00 Build 0)  -->
<svg version="1.1" id="Layer_1" xmlns="http://www.w3.org/2000/svg" xmlns:xlink="http://www.w3.org/1999/xlink" x="0px" y="0px"
	 viewBox="0 0 40 40" style="enable-background:new 0 0 40 40;" xml:space="preserve">
<style type="text/css">
	.st0{fill:#FFFFFF;}
</style>
<path class="st0" d="M27.49,28.64c0,0,0,0-0.03,0.06s-0.61,0-0.61,0l-1.56-0.6c-0.58-0.11-1.82-0.92-1.82-0.92
	c-0.43-0.4-0.7-1.73-0.7-1.73c-0.23-1.16,0.66-4.31,0.66-4.31c1.09-2.14,1.46-6.14,1.46-6.14c0.43-2.66-1.08-3.01-1.08-3.01
	c-0.23-0.03-3.56-1.15-3.56-1.15c-1.43-0.43-3.28-0.45-4.45-0.41c-1.3,2.04-2.41,4.19-3.41,6.4c0.17,0.04,0.31,0.07,0.36,0.05
	c2.3-0.77,5.26-0.59,5.26-0.59l2.64-0.01c-0.75,2.95,0.04,4.19,0.04,4.19c0.24,1.74-0.59,6.16-0.59,6.16
	c-0.75,1.74-0.43,2.55-0.43,2.55c0.2,0.72,2.78,0.25,2.78,0.25c0.58-0.41,2.78,0.14,2.98,0.14c1.03,0,1.48-0.15,1.48-0.15l0.38,0
	C27.92,29.19,27.49,28.64,27.49,28.64z"/>
</svg>
