<?xml version="1.0" encoding="utf-8"?>
<!-- Generator: Adobe Illustrator 23.0.3, SVG Export Plug-In . SVG Version: 6.00 Build 0)  -->
<svg version="1.1" id="Layer_1" xmlns="http://www.w3.org/2000/svg" xmlns:xlink="http://www.w3.org/1999/xlink" x="0px" y="0px"
	 viewBox="0 0 100 100" style="enable-background:new 0 0 100 100;" xml:space="preserve">
<style type="text/css">
	.st0{fill:#00823D;}
</style>
<path class="st0" d="M94.4,40c0.77-0.42,1.85-0.91,1.56-1.39c-0.25-0.42-0.8-0.19-1.05-0.1c-0.22,0.08-1.96,1.04-2.13,1.18
	c0.03-0.01,0.05-0.02,0.07-0.02c-0.02,0.01-0.04,0.01-0.07,0.02c-0.01,0.01,0,0.01-0.01,0.01c0,0,0,0,0.01-0.01
	c-0.33,0.1-1.25,0.43-1.25,0.43c-0.03-0.15-0.06-0.24-0.13-0.4c0.6-0.6,1.57-1.05,2.26-1.54c0.9-0.63,2.08-1.3,1.69-1.9
	c-0.34-0.53-1.2,0.2-2.38,0.92c-0.13,0.09-1.45,1.04-2.15,1.3c-0.1-0.22-0.24-0.34-0.33-0.5c0.19-0.19,0.49-0.53,0.74-0.74
	c0.44-0.36,1.26-0.86,1.59-1.06c0.26-0.16,1.14-0.98,0.78-1.36c-0.37-0.38-0.77,0-1.33,0.44c-0.56,0.44-0.86,0.83-1.48,1.08
	c-0.34,0.14-1.3,0.65-1.85,0.96c-0.51,0.03-0.89,0.21-1.33,0.03c0.18-0.26,0.34-0.48,0.39-0.55c0.17-0.25,0.81-0.65,1.03-0.95
	c0.22-0.3,0.35-0.88-0.12-1.32c0,0-0.6,0.22-0.99,0.91c-0.4,0.7-0.83,1.16-1.24,1.43c-0.37,0.25-2.18,1.85-1.82,3.21
	c0.12,0.45-0.96,0.65-1.72,1.08c-0.7,0.38-1.55,0.77-2.62,1.06c-2.41,0.65-5.33,1.16-8.31,2.75c-2.97,1.59-3.19,2.28-4.67,3.25
	c-1.47,0.98-3.13,1.01-4.59,1.78c-1.46,0.79-1.56,0.84-1.56,0.84s-1.37-0.76-4.62,0.68c-0.42,0.19-0.8,0.36-1.14,0.52
	c-0.67-0.43-1.32-0.85-1.73-1.15c-0.85-0.63-0.8-1.83-0.7-2.52c0.27-0.35,0.46-0.79,0.5-1.37v-1.18c0,0,0.97-0.46,1.3-1.3
	c0.33-0.84,0.26-2.01-0.06-2.14c-0.32-0.13-0.58-0.26-0.58-0.26s0.52-5.98-3.71-5.92c-4.23,0.07-4.49,3.51-4.49,4.75
	c0,1.23,0,1.23,0,1.23s-0.39-0.45-0.72,0.07c-0.33,0.52-0.39,1.43-0.2,1.89c0.2,0.46,1.3,1.49,1.3,1.49s0.07,0.39,0.07,1.1
	c0,0.25,0.12,0.68,0.37,1.13c-0.03,0.73-0.11,2.4-0.32,3.1c-0.11,0.36-0.85,0.89-1.71,1.39c-0.49-0.23-1.06-0.5-1.75-0.8
	c-3.25-1.45-4.61-0.68-4.61-0.68s-0.09-0.05-1.56-0.84c-1.46-0.78-3.12-0.81-4.59-1.78c-1.48-0.97-1.7-1.66-4.68-3.25
	c-2.97-1.59-5.89-2.1-8.3-2.75c-1.08-0.29-1.93-0.67-2.63-1.06c-0.76-0.43-1.83-0.63-1.72-1.08c0.36-1.36-1.45-2.96-1.82-3.21
	c-0.41-0.28-0.84-0.74-1.24-1.43c-0.4-0.7-1-0.91-1-0.91c-0.47,0.44-0.33,1.02-0.12,1.32c0.22,0.3,0.86,0.7,1.03,0.95
	c0.05,0.07,0.2,0.29,0.39,0.55c-0.44,0.18-0.82,0-1.34-0.03c-0.54-0.31-1.5-0.82-1.85-0.96c-0.61-0.25-0.92-0.64-1.48-1.08
	c-0.56-0.45-0.95-0.82-1.32-0.44c-0.37,0.38,0.51,1.2,0.77,1.36c0.34,0.2,1.16,0.7,1.59,1.06c0.26,0.22,0.55,0.55,0.75,0.74
	c-0.09,0.17-0.23,0.28-0.33,0.5c-0.7-0.26-2.03-1.21-2.16-1.3C5.86,36.49,5,35.76,4.66,36.29c-0.4,0.6,0.78,1.28,1.68,1.9
	c0.7,0.49,1.66,0.94,2.26,1.54c-0.07,0.16-0.1,0.25-0.13,0.4c0,0-0.92-0.33-1.25-0.43c-0.17-0.14-1.92-1.11-2.13-1.18
	c-0.25-0.1-0.8-0.32-1.05,0.1C3.75,39.09,4.83,39.58,5.6,40c0.73,0.4,2.22,1.18,2.89,1.47c0.04,0.16,0.02,0.1,0.06,0.23
	c0,0-1.32,0.04-1.67-0.09c-0.34-0.14-1.56-0.41-1.66,0.11c-0.09,0.46,0.87,0.63,1.83,0.74c0.61,0.07,2.02,0.17,2.6,0.23
	c0.18,0.08,0.39,0.19,0.64,0.32c0.23,0.14,0.48,0.29,0.76,0.48c0.11,0.07,0.22,0.13,0.31,0.18c1.35,0.82,2.14,0.17,2.46,0.12
	c0.32-0.05,1.34,0.42,1.49,0.49c0.48,0.29,2.23,1.37,7.35,4.55c4.98,3.09,6.13,2.87,6.13,2.87s2.24,1.35,5.34,3.26
	c0.02,0.01,0.03,0.02,0.05,0.03c-0.02,0.01-0.03,0.02-0.05,0.03c1.52,0.9,3.02,2.55,4.09,3.9c0.45,0.57,0.7,1.23,0.83,1.93
	c0.01,0.02,0.02,0.03,0.02,0.03s0,0.05,0,0.13c0.05,0.35,0.08,0.7,0.08,1.06c0.07,0.65,0.2,1.55,0.45,2.67
	c0.04,0.17,0.08,0.34,0.13,0.52c5.76,0.04,11.52,0.11,17.28,0.17c0.33,0,0.65,0.01,0.98,0.01l0,0c0.87,0.01,1.73,0.02,2.6,0.03
	c0.3-1.57,0.48-3.13,0.6-4.01c-0.02-0.72,0.08-1.43,0.44-2.06c0.94-1.65,2.83-2.85,4.05-4.31c-0.01,0-0.01-0.01-0.02-0.01
	c0.02-0.01,0.04-0.02,0.06-0.03c0.05-0.06,0.1-0.08,0.16-0.09c3.08-1.9,5.32-3.25,5.32-3.25s1.16,0.23,6.13-2.87
	c5.13-3.18,6.87-4.26,7.36-4.55c0.14-0.07,1.17-0.54,1.49-0.49c0.33,0.05,1.11,0.7,2.46-0.12c0.1-0.05,0.2-0.12,0.31-0.18
	c0.28-0.19,0.53-0.34,0.76-0.48c0.25-0.13,0.46-0.24,0.64-0.32c0.57-0.06,1.99-0.15,2.6-0.23c0.96-0.11,1.92-0.29,1.83-0.74
	c-0.1-0.52-1.32-0.25-1.66-0.11c-0.35,0.13-1.67,0.09-1.67,0.09c0.05-0.13,0.03-0.07,0.07-0.23C92.17,41.18,93.66,40.4,94.4,40z
	 M92.84,39.69c0.02-0.01,0.04-0.02,0.05-0.03C92.88,39.67,92.86,39.68,92.84,39.69c-0.04,0.01-0.06,0.02-0.06,0.02
	S92.8,39.71,92.84,39.69z M7.16,39.69c-0.02-0.01-0.04-0.02-0.05-0.02c-0.01,0-0.01-0.01,0-0.01c-0.01,0-0.01,0,0,0.01
	C7.12,39.68,7.14,39.68,7.16,39.69c0.04,0.01,0.06,0.02,0.06,0.02S7.2,39.71,7.16,39.69z"/>
</svg>
