<?xml version="1.0" encoding="utf-8"?>
<!-- Generator: Adobe Illustrator 23.0.3, SVG Export Plug-In . SVG Version: 6.00 Build 0)  -->
<svg version="1.1" id="Layer_1" xmlns="http://www.w3.org/2000/svg" xmlns:xlink="http://www.w3.org/1999/xlink" x="0px" y="0px"
	 viewBox="0 0 200 800" style="enable-background:new 0 0 200 800;" xml:space="preserve">
<style type="text/css">
	.st0{opacity:0.1;}
	.st1{fill:#7AC143;}
</style>
<g class="st0">
	<path class="st1" d="M139.81,15.91c-3.61,11.65-6.89,24.47-7.94,38.87c-1.78,24.55,1.56,28.58,1.78,41.52
		c0.28,12.89-6.01,23.21-6.91,35.25c-0.86,12.09-0.89,12.88-0.89,12.88s-6.36,3.47-10.86,17.89c-0.61-0.05-1.21-0.11-1.8-0.17
		c-4.41-2.82-8.52-5.54-11.24-7.54c-1.58-1.18-2.72-2.63-3.55-4.23v-20.73l-0.43-0.26c3.56-6.32,6.6-14.15,7.74-23.57
		c8.74,4.77,12.23-16.92,12.23-16.92c1.91-13.34-9.59-7.37-9.59-7.37l0,0c0.69-8.02,1.2-16.47,1.02-22.66
		c0-20.4-17.18-36.94-38.37-36.94c-20.15,0-36.64,14.97-38.21,33.98l-0.02,0v0.37c-0.06,0.86-0.14,1.71-0.14,2.59
		c0,0.87,0.07,1.73,0.14,2.59v19.91c-1.78-0.82-11-4.54-9.27,7.52c0,0,3.42,21.08,11.91,17.04c1.99,7.57,5.22,17.41,10.1,25.77
		l-0.48,0.32v27.64c0,0-10.34,4.63-24.81,5.27v619.14h48.49c-0.47-5.94-1.19-11.6-2.23-16.75c0,0-5.24-21.92-0.48-50.52
		c0,0,2.38-46.23-1.91-101.99c0,0,1.43-84.83-1.43-96.27c0,0,10.01-3.81,14.77,0v112.48c0,0-3.34,79.12,0,95.8
		c0,0,1.3,34.79-4.83,51c0,0-0.06,2.02-0.08,6.26h56.7c0.08-1.2,0.14-2.34,0.16-3.4c0,0,0.48-34.32-4.29-55.29
		c0,0,2.41-35.74,4.3-46.23l26.2-113.43c0,0,14.3-56.24,2.86-107.23c0,0-17.16-61.48-24.31-78.16c0,0,3.34-62.91,10.96-91.98
		c0,0,4.93-2.36,5.5-27.02c0.01,0,0.02,0,0.03,0c3.38-17.41,4.76-35.05,5.6-35.28c0.08-0.03,0.78-27.37,0.94-41.85
		c0.44-0.42,0.69-0.75,0.69-0.95c0.06-2.34,10.36-23.81,10.64-50.39c0.33-26.54,0.74-45.66,0.74-45.66s5.92-6.23,6.28-48.99
		c0.07-8.47,0.14-15.85,0.2-22.3H139.81z"/>
	<path class="st1" d="M179.54,43.2c0.02,0.26,0.07,0.22,0.21-0.39C179.86,42.02,179.76,42.35,179.54,43.2z"/>
</g>
</svg>
