<?xml version="1.0" encoding="utf-8"?>
<!-- Generator: Adobe Illustrator 23.0.3, SVG Export Plug-In . SVG Version: 6.00 Build 0)  -->
<svg version="1.1" id="Layer_1" xmlns="http://www.w3.org/2000/svg" xmlns:xlink="http://www.w3.org/1999/xlink" x="0px" y="0px"
	 viewBox="0 0 150 800" style="enable-background:new 0 0 150 800;" xml:space="preserve">
<style type="text/css">
	.st0{fill:#7AC143;}
</style>
<g>
	<path class="st0" d="M141.58,34.71c-2.88-1.16-5.36,5.74-5.75,7.85c-0.43,2.12-4.77,8.52-4.77,8.52c-0.49-0.63-0.26-0.35-0.93-1.02
		c0.68-4.2,1.47-13.99,1.79-18.84c0.34-5.11,1.29-11.99-1.99-12.06c-2.86-0.06-3.46,3.33-3.76,4.9c-0.27,1.28-0.98,12.91-0.81,14.22
		c0.17-0.68,0.25-0.95,0.17-0.31c-0.11,0.49-0.16,0.52-0.17,0.31c-0.53,1.92-1.78,7.52-1.78,7.52c-0.85-0.29-1.42-0.44-2.4-0.6
		c-1.05-4.82-0.29-10.99-0.51-15.98c-0.26-6.42,0.09-14.35-4.15-14.27c-3.65,0.02-2.77,6.54-2.89,14.57
		c0.02,0.92,0.55,10.45-0.32,14.72c-1.38-0.22-2.4,0.13-3.5,0.06c-0.33-1.61-1.07-4.05-1.32-6.02c-0.41-3.24-0.31-8.88-0.26-11.18
		c0.03-1.76-1.3-8.66-4.33-8.05c-3,0.62-2.39,3.72-1.94,7.9c0.41,4.16,1.4,6.89,0.71,10.7c-0.41,2.13-0.88,8.5-1.03,12.13
		c-1.46,2.67-1.78,5.11-4.03,6.73c-0.71-1.73-1.3-3.16-1.49-3.62c-0.68-1.64-0.65-6.03-1.46-8.06c-0.8-2-3.25-4.47-6.87-3.54
		c0,0-0.83,3.63,1.38,7.77c2.19,4.14,3.11,7.71,3.2,10.61c0.1,2.6,2.35,16.55,10.19,19.02c2.6,0.83,0.2,6.75-0.03,11.86
		c-0.3,4.64-1.03,10.05-3,16.28c-4.32,13.92-10.93,29.92-12.36,49.61c-1.43,19.68,1.25,22.91,1.42,33.28
		c0.22,10.33-4.82,18.6-5.54,28.25c-0.69,9.69-0.72,10.32-0.72,10.32s-5.3,2.86-8.91,14.99c-3.99-2.54-7.81-5.04-10.25-6.83
		c-4.95-3.68-4.7-10.73-4.07-14.75c1.56-2.03,2.69-4.62,2.93-8.04v-6.92c0,0,5.7-2.66,7.6-7.63c1.91-4.91,1.52-11.77-0.38-12.54
		c-1.89-0.75-3.41-1.5-3.41-1.5s3.03-34.99-21.67-34.62c-24.72,0.39-26.23,20.53-26.23,27.77c0,7.19,0,7.19,0,7.19
		s-2.28-2.64-4.19,0.41c-1.9,3.05-2.3,8.35-1.15,11.04c1.15,2.66,7.6,8.74,7.6,8.74s0.4,2.25,0.4,6.44c0,1.48,0.68,3.99,2.19,6.58
		c-0.16,4.26-0.64,14.02-1.88,18.11c-0.76,2.63-7.25,6.7-13.63,10.16v514.96c1.83-0.57,3.65-1.15,5.49-1.69
		c0.23-0.07,0.42-0.04,0.59,0.02c0.32-0.34,0.65-0.72,0.99-1.18c3.12-4.38-1.26-10.64,0-13.47c1.27-2.81,2.8-9.38,1.27-12.51
		c-1.6-3.15-3.14-9.39-3.14-13.15c0-3.78,0.3-17.82,1.54-27.22c1.26-9.42,7.52-24.09,8.45-39.13c0.96-14.99-4.37-30.02-4.08-38.18
		c0.33-8.11,5.98-19.39,5.66-25.64c-0.3-6.25,1.88-14.38,2.19-19.08c0.29-4.7,3.1-17.53,8.76-41.31c5.61-23.78,2.8-34.43,2.52-40.07
		c-0.33-5.62-0.65-5.33,4.68-4.96c5.32,0.29,3.75-0.97,2.48,5.28c-1.25,6.27,2.19,30.68,3.78,45.38
		c1.56,14.72,7.48,37.24,7.82,39.42c0.3,2.2,0.92,20.34,2.83,26c1.87,5.62,3.42,12.52,3.42,12.52s-2.52,22.52-2.81,46.3
		c-0.33,23.78,6.55,36.93,7.18,48.81c0.64,11.89-0.3,21.89-2.17,25.38c-1.88,3.41-0.64,7.79-0.93,13.44
		c-0.33,5.64,4.07,13.15,4.07,13.15s1.22,1.85,1.22,5.3c0,3.45,1.27,11.27,1.57,12.53c0.34,1.26,6.87,6.56,9.71,7.19
		c2.81,0.61,5.62-2.2,5.62-2.2s3.15,2.54,5.64,1.89c2.52-0.63,4.07-1.26,6.9-1.26c2.83,0,1.57-4.36,2.83-4.67
		c1.23-0.31,1.21-0.65,3.12-3.46c1.86-2.83-10.05-11.9-11.91-13.15c-1.89-1.25-7.19-25.65-7.82-30.04
		c-0.63-4.38-1.26-23.78,6.27-42.88c7.51-19.08,8.43-57.87,7.19-61.31c-1.26-3.44-3.78-20.65-4.07-25.35
		c-0.31-4.7-1.26-15.96-1.26-18.77s-0.32-14.72,1.55-19.42c1.89-4.7,7.53-33.17,8.47-48.18c0.92-15.04,0.61-39.1-1.28-65.4
		c-1.86-26.25-10-29.42-8.42-34.41c1.57-5.01-0.92-24.41-2.81-27.87c-1.89-3.46,0-32.86,0-32.86s0.92-0.63,7.19-16.59
		c6.25-15.93,8.11-45.08,9.08-45.35c0.06-0.02,0.63-21.93,0.75-33.54c0.35-0.34,0.55-0.6,0.56-0.76c0.04-1.88,8.31-19.09,8.53-40.39
		c0.26-21.27,0.59-36.59,0.59-36.59s4.74-5,5.03-39.26c0.31-35.28,0.47-47.3,0.51-50.58c0.12-0.96,1.01-7.47,2.24-8.88
		c1.27-1.46,6.93-3.35,7.12-12.55c0.04-0.65,0.06-1.36,0.08-2.11c-0.07-2.01-0.03-3.7,0.02-5.28c0.12-1.64,0.27-3,0.41-4.14
		c1.49-3.03,5.47-10.31,7-13.54C141.98,40.97,144.1,35.71,141.58,34.71z"/>
	<path class="st0" d="M125.36,147.14c0.01,0.21,0.06,0.18,0.17-0.31C125.62,146.2,125.53,146.46,125.36,147.14z"/>
</g>
</svg>
