<?xml version="1.0" encoding="utf-8"?>
<!-- Generator: Adobe Illustrator 23.0.3, SVG Export Plug-In . SVG Version: 6.00 Build 0)  -->
<svg version="1.1" id="Layer_1" xmlns="http://www.w3.org/2000/svg" xmlns:xlink="http://www.w3.org/1999/xlink" x="0px" y="0px"
	 viewBox="0 0 100 100" style="enable-background:new 0 0 100 100;" xml:space="preserve">
<style type="text/css">
	.st0{fill:#00C08B;}
</style>
<path class="st0" d="M68.87,60.98c0,0,0,0-0.14,0.28c-0.14,0.28-2.95,0-2.95,0l-7.59-2.95c-2.81-0.56-8.85-4.5-8.85-4.5
	c-2.11-1.97-3.37-8.43-3.37-8.43c-0.49-2.43,0.05-6.67,0.82-10.7c-3.8,0-7.59-0.11-11.39-0.18c-0.92,8.32-2.5,16.63-2.5,16.63
	c-3.65,8.43-2.11,12.37-2.11,12.37c0.98,3.51,13.49,1.26,13.49,1.26c2.81-1.97,13.49,0.7,14.48,0.7c5.02,0,7.17-0.7,7.17-0.7h1.83
	C70.98,63.65,68.87,60.98,68.87,60.98z"/>
</svg>
