<?xml version="1.0" encoding="utf-8"?>
<!-- Generator: Adobe Illustrator 23.0.3, SVG Export Plug-In . SVG Version: 6.00 Build 0)  -->
<svg version="1.1" id="Layer_1" xmlns="http://www.w3.org/2000/svg" xmlns:xlink="http://www.w3.org/1999/xlink" x="0px" y="0px"
	 viewBox="0 0 100 100" style="enable-background:new 0 0 100 100;" xml:space="preserve">
<style type="text/css">
	.st0{fill:#3F691B;}
</style>
<g>
	<path class="st0" d="M51.11,38.28c-1.34,0.05-8.51,1.21-9.77,5.24c-0.43,1.34-3.47,0.1-6.09-0.02c-2.39-0.15-5.16-0.53-8.36-1.54
		c-0.32-0.1-0.64-0.2-0.96-0.3v12.09c5.01,0.05,7.34,0.08,8.28,0.1c0.49,0.06,3.84,0.52,4.57,1.15c0.75,0.65,1.72,3.56,6.45,3.66
		c0.33,0.02,0.7,0.03,1.09,0.04c1.03-0.04,1.9-0.02,2.71,0.01c0.84,0.06,1.54,0.14,2.13,0.21c1.56,0.76,5.3,2.81,6.96,3.6
		c2.62,1.26,5.33,2.36,5.84,1.06c0.6-1.48-2.95-2.75-4.04-2.95c-1.09-0.22-4.38-2.45-4.38-2.45c0.32-0.25,0.18-0.14,0.52-0.48
		c2.16,0.35,7.19,0.75,9.68,0.92c2.63,0.18,6.16,0.66,6.2-1.02c0.03-1.47-1.71-1.78-2.52-1.93c-0.66-0.14-6.63-0.5-7.31-0.42
		c0.35,0.09,0.49,0.13,0.16,0.09c-0.25-0.06-0.27-0.08-0.16-0.09c-0.99-0.27-3.87-0.92-3.87-0.92c0.15-0.44,0.22-0.73,0.31-1.23
		c2.48-0.54,5.65-0.15,8.21-0.26c3.3-0.14,7.37,0.04,7.34-2.13c-0.01-1.88-3.36-1.42-7.49-1.49c-0.47,0.01-5.37,0.28-7.56-0.17
		c0.11-0.71-0.07-1.23-0.03-1.8c0.83-0.17,2.08-0.55,3.09-0.68c1.67-0.21,4.56-0.16,5.75-0.13c0.9,0.01,4.45-0.67,4.13-2.23
		c-0.32-1.54-1.91-1.23-4.06-1c-2.14,0.21-3.54,0.72-5.5,0.36c-1.1-0.21-4.37-0.45-6.23-0.53c-1.37-0.75-2.63-0.91-3.46-2.07
		c0.89-0.37,1.62-0.67,1.86-0.76c0.84-0.35,3.1-0.33,4.14-0.75c1.03-0.41,2.29-1.67,1.82-3.53c0,0-1.86-0.43-3.99,0.71
		C54.43,37.76,52.6,38.23,51.11,38.28z"/>
</g>
</svg>
