<?xml version="1.0" encoding="utf-8"?>
<!-- Generator: Adobe Illustrator 23.0.3, SVG Export Plug-In . SVG Version: 6.00 Build 0)  -->
<svg version="1.1" id="Layer_1" xmlns="http://www.w3.org/2000/svg" xmlns:xlink="http://www.w3.org/1999/xlink" x="0px" y="0px"
	 viewBox="0 0 100 100" style="enable-background:new 0 0 100 100;" xml:space="preserve">
<style type="text/css">
	.st0{fill:#7BAB41;}
</style>
<path class="st0" d="M41.88,55.79c0,0,0.19,0.88,0.25,2.52c0.02,0.58,0.33,1.56,0.96,2.55c0,1.11-0.02,3.17-0.15,4.91
	c5.09,0.14,10.19,0.3,15.28,0.45c-0.99-1.46-0.98-3.44-0.84-4.7c0.58-0.82,0.98-1.85,1.03-3.2l-0.11-2.72c0,0,2.2-1.13,2.87-3.11
	c0.67-1.96,0.42-4.64-0.34-4.91c-0.75-0.27-1.36-0.54-1.36-0.54s0.66-13.77-9.03-13.25c-9.69,0.53-9.98,8.45-9.87,11.29
	c0.11,2.82,0.11,2.82,0.11,2.82s-0.93-1-1.64,0.23c-0.7,1.23-0.78,3.31-0.28,4.35C39.25,53.51,41.88,55.79,41.88,55.79z"/>
</svg>
