<?xml version="1.0" encoding="utf-8"?>
<!-- Generator: Adobe Illustrator 23.0.3, SVG Export Plug-In . SVG Version: 6.00 Build 0)  -->
<svg version="1.1" id="Layer_1" xmlns="http://www.w3.org/2000/svg" xmlns:xlink="http://www.w3.org/1999/xlink" x="0px" y="0px"
	 viewBox="0 0 200 800" style="enable-background:new 0 0 200 800;" xml:space="preserve">
<style type="text/css">
	.st0{opacity:0.1;}
	.st1{fill:#7AC143;}
</style>
<g class="st0">
	<path class="st1" d="M17.07,159.23v624.69h14.41c3.13-11.16,6.73-24.03,7.54-37.1c1.38-21.66-6.32-43.38-5.9-55.17
		c0.47-11.72,8.64-28.02,8.17-37.05c-0.44-9.03,2.71-20.78,3.17-27.57c0.42-6.79,4.48-25.33,12.66-59.69
		c8.1-34.36,4.04-49.75,3.64-57.9c-0.47-8.11-0.94-7.7,6.77-7.17c7.68,0.42,5.42-1.4,3.59,7.63c-1.8,9.06,3.17,44.33,5.46,65.57
		c2.26,21.27,10.81,53.81,11.3,56.96c0.44,3.18,1.33,29.39,4.09,37.57c2.7,8.12,4.93,18.09,4.93,18.09s-3.64,32.54-4.06,66.9
		c-0.15,11.1,0.78,20.6,2.15,28.95h47.42c6.83-29.15,7.56-69.95,6.05-74.15c-1.82-4.97-5.46-29.84-5.88-36.63
		c-0.45-6.79-1.82-23.06-1.82-27.12s-0.46-21.27,2.24-28.06c2.73-6.79,10.88-47.93,12.24-69.62c1.33-21.73,0.88-56.5-1.85-94.5
		c-2.69-37.93-14.45-42.51-12.17-49.72c2.27-7.24-1.33-35.26-4.06-40.27c-2.73-5,0-47.48,0-47.48s1.33-0.91,10.39-23.97
		c9.03-23.02,11.72-65.15,13.12-65.53c0.09-0.03,0.91-31.69,1.09-48.47c0.5-0.49,0.79-0.87,0.8-1.1c0.06-2.71,12-27.58,12.32-58.36
		c0.38-30.74,0.86-52.88,0.86-52.88s6.22-6.55,7.17-50H133.9c-0.61,4.04-1.11,8.18-1.42,12.46c-2.06,28.43,1.81,33.1,2.06,48.08
		c0.32,14.93-6.96,26.88-8.01,40.82c-1,14-1.03,14.91-1.03,14.91s-7.66,4.14-12.88,21.65c-5.77-3.66-11.29-7.29-14.8-9.87
		c-7.15-5.32-6.79-15.5-5.88-21.31c2.26-2.94,3.88-6.68,4.23-11.62V101.2c0,0,8.24-3.85,10.99-11.02c2.75-7.1,2.19-17-0.54-18.12
		c-2.73-1.08-4.93-2.17-4.93-2.17s4.37-50.56-31.31-50.03c-35.72,0.56-37.91,29.67-37.91,40.13c0,10.39,0,10.39,0,10.39
		s-3.29-3.81-6.05,0.6c-2.75,4.41-3.33,12.07-1.66,15.95c1.66,3.85,10.99,12.63,10.99,12.63s0.58,3.25,0.58,9.31
		c0,2.13,0.98,5.77,3.17,9.52c-0.23,6.16-0.93,20.26-2.71,26.17C35.66,148.35,26.29,154.24,17.07,159.23z"/>
</g>
</svg>
