<?xml version="1.0" encoding="utf-8"?>
<!-- Generator: Adobe Illustrator 23.0.3, SVG Export Plug-In . SVG Version: 6.00 Build 0)  -->
<svg version="1.1" id="Layer_1" xmlns="http://www.w3.org/2000/svg" xmlns:xlink="http://www.w3.org/1999/xlink" x="0px" y="0px"
	 viewBox="0 0 40 40" style="enable-background:new 0 0 40 40;" xml:space="preserve">
<style type="text/css">
	.st0{fill:#FFFFFF;}
</style>
<g>
	<path class="st0" d="M20.57,13.96c-0.69,0.03-4.38,0.62-5.04,2.7c-0.22,0.69-1.79,0.05-3.14-0.01c-1.23-0.08-2.66-0.27-4.31-0.79
		c-0.16-0.05-0.33-0.1-0.49-0.16v6.23c2.58,0.03,3.78,0.04,4.27,0.05c0.25,0.03,1.98,0.27,2.35,0.59c0.39,0.34,0.89,1.84,3.32,1.88
		c0.17,0.01,0.36,0.02,0.56,0.02c0.53-0.02,0.98-0.01,1.4,0c0.43,0.03,0.79,0.07,1.1,0.11c0.8,0.39,2.73,1.45,3.58,1.85
		c1.35,0.65,2.74,1.21,3.01,0.55c0.31-0.76-1.52-1.42-2.08-1.52c-0.56-0.11-2.26-1.26-2.26-1.26c0.17-0.13,0.09-0.07,0.27-0.25
		c1.11,0.18,3.7,0.39,4.99,0.47c1.35,0.09,3.18,0.34,3.19-0.53c0.02-0.76-0.88-0.92-1.3-1c-0.34-0.07-3.42-0.26-3.77-0.21
		c0.18,0.05,0.25,0.07,0.08,0.04c-0.13-0.03-0.14-0.04-0.08-0.04c-0.51-0.14-1.99-0.47-1.99-0.47c0.08-0.22,0.12-0.37,0.16-0.63
		c1.28-0.28,2.91-0.08,4.23-0.14c1.7-0.07,3.8,0.02,3.78-1.1c-0.01-0.97-1.73-0.73-3.86-0.77c-0.24,0.01-2.77,0.14-3.9-0.09
		c0.06-0.37-0.03-0.64-0.02-0.93c0.43-0.09,1.07-0.28,1.59-0.35c0.86-0.11,2.35-0.08,2.96-0.07c0.47,0.01,2.29-0.35,2.13-1.15
		c-0.16-0.79-0.99-0.63-2.09-0.51c-1.1,0.11-1.82,0.37-2.83,0.19c-0.56-0.11-2.25-0.23-3.21-0.27c-0.71-0.39-1.35-0.47-1.78-1.07
		c0.46-0.19,0.84-0.34,0.96-0.39c0.43-0.18,1.6-0.17,2.13-0.39c0.53-0.21,1.18-0.86,0.94-1.82c0,0-0.96-0.22-2.06,0.37
		C22.28,13.69,21.34,13.94,20.57,13.96z"/>
</g>
</svg>
