<?xml version="1.0" encoding="utf-8"?>
<!-- Generator: Adobe Illustrator 23.0.3, SVG Export Plug-In . SVG Version: 6.00 Build 0)  -->
<svg version="1.1" id="Layer_1" xmlns="http://www.w3.org/2000/svg" xmlns:xlink="http://www.w3.org/1999/xlink" x="0px" y="0px"
	 viewBox="0 0 100 100" style="enable-background:new 0 0 100 100;" xml:space="preserve">
<style type="text/css">
	.st0{fill:#006939;}
</style>
<g>
	<path class="st0" d="M30.77,49.55c0,0,4.05-8.62,9.85-8.18c0,0,0.74-0.71,7.88,4.31c0,0,1,0.67,2.86-0.04c0,0,5.02-5.09,8.18-4.31
		c0,0,6.73,1.37,9.51,8.69c0,0,0.33,2.9-6.1,4.76c0,0-0.89,0.78,0.11,1.3c0,0,0.93,0.85-0.67,1.15c0,0-3.61,1.56-3.64,2.27
		c0,0-1.45-1-2.68-0.56c0,0-3.61,2.75-4.98,1c0,0-0.26-0.82,0.97-1.26c0,0,5.76-1.97,5.72-6.17c0,0-1.19-3.61-5.24-1.34
		c0,0-2.56,1.3-5.31,0c0,0-3.35-1.52-4.61,0c0,0-1.6,1.78,0.37,4.2c0,0,2.34,2.97,4.72,3.31c0,0,0.85,0.11,0.89,1.08
		c0,0-0.37,1.41-2.71,0.41c0,0-2.04-1.41-3.05-1.41c0,0-1.86,0.33-1.86,0.67c0,0-2.82-2.42-4.87-2.71c0,0-0.33-0.45,0.78-1
		c0,0,0.48-0.82-0.59-1.19C36.3,54.53,29.99,52.45,30.77,49.55z"/>
	<path class="st0" d="M68.12,65.72v3.12h-4.39v-4.53c0,0,0.3-1.78-2.64-2.23c0,0-1.9-0.67,0-2.08c0,0,2.34-1.93,3.38,0
		c0,0,1.78,0.3,2.12-0.37c0,0,1.26-3.16,3.16-0.85c0,0,1.78,3.9-0.22,5.17C69.53,63.94,68.12,64.57,68.12,65.72z"/>
	<path class="st0" d="M31.88,65.72v3.12h4.39v-4.53c0,0-0.3-1.78,2.64-2.23c0,0,1.9-0.67,0-2.08c0,0-2.34-1.93-3.38,0
		c0,0-1.78,0.3-2.12-0.37c0,0-1.26-3.16-3.16-0.85c0,0-1.78,3.9,0.22,5.17C30.47,63.94,31.88,64.57,31.88,65.72z"/>
	<path class="st0" d="M45.74,37.58c0,0,4.27,3.94,8.29,0v2.34c0,0-1.98,0.12-1.78,2.42c0,0-1.93,3.75-4.91,0c0,0,0.37-2.08-1.6-2.23
		V37.58z"/>
	<path class="st0" d="M45.74,31.16c0,0,4.27,3.94,8.29,0v2.34c0,0-1.98,0.12-1.78,2.42c0,0-1.93,3.75-4.91,0c0,0,0.37-2.08-1.6-2.23
		V31.16z"/>
</g>
</svg>
