<?xml version="1.0" encoding="utf-8"?>
<!-- Generator: Adobe Illustrator 23.0.3, SVG Export Plug-In . SVG Version: 6.00 Build 0)  -->
<svg version="1.1" id="Layer_1" xmlns="http://www.w3.org/2000/svg" xmlns:xlink="http://www.w3.org/1999/xlink" x="0px" y="0px"
	 viewBox="0 0 40 40" style="enable-background:new 0 0 40 40;" xml:space="preserve">
<style type="text/css">
	.st0{fill:#FFFFFF;}
</style>
<path class="st0" d="M32.55,14.7c-0.01-0.02-0.03-0.03-0.05-0.04l-0.09-0.04c0.13-0.34,0.38-1.15,0.04-1.41
	c-0.02-0.02-0.05-0.03-0.08-0.03h-0.33c0.06-0.2,0.13-0.5,0.03-0.67c-0.03-0.06-0.08-0.1-0.15-0.12c-0.04-0.03-0.13-0.08-0.25-0.08
	c-0.21,0-0.46,0.13-0.73,0.39c-0.05-0.15-0.15-0.28-0.34-0.28c-0.21,0-0.47,0.18-0.79,0.55c-0.07,0.08-1.69,1.9-2.23,2.81l-0.07,0.1
	c0.01-0.5-0.07-1.27-0.64-1.51c-0.02-0.01-0.17-0.1-0.32-0.1c-0.13,0-0.21,0.06-0.25,0.11c-0.09,0.12-0.11,0.32-0.04,0.61
	c0.01,0.4-0.03,1.48-0.3,1.82c-0.02,0.02-0.55,0.61-0.2,1.79c0.14,0.53,0.27,1.16,0.27,1.3c-0.25,0.12-1.65,0.71-5.48,1.3
	c-0.01,0-0.02,0.01-0.03,0.01c-0.01,0-0.67,0.29-1.99,0.29c-0.59,0-1.22-0.06-1.89-0.17c-0.3-0.22-2.83-2.09-4.95-2.59
	c-0.1-0.14-0.42-0.6-0.85-1.12C8.46,18,7.45,20.2,7.3,22.47c1.11,0.83,2.87,1.98,4.59,2.47c0.24,0.14,3.53,2.04,5.74,2.72
	c0.02,0.01,0.04,0.01,0.06,0c0.03-0.01,0.82-0.12,1.14-0.25c0.13-0.01,0.94-0.09,1.64-0.21c0.06-0.02,5.82-2.17,8.65-5.16
	c0.22-0.12,2.18-1.31,2.55-3.91C31.88,17.77,33.11,15.4,32.55,14.7z"/>
</svg>
