<?xml version="1.0" encoding="utf-8"?>
<!-- Generator: Adobe Illustrator 23.0.3, SVG Export Plug-In . SVG Version: 6.00 Build 0)  -->
<svg version="1.1" id="Layer_1" xmlns="http://www.w3.org/2000/svg" xmlns:xlink="http://www.w3.org/1999/xlink" x="0px" y="0px"
	 viewBox="0 0 40 40" style="enable-background:new 0 0 40 40;" xml:space="preserve">
<style type="text/css">
	.st0{fill:#FFFFFF;}
</style>
<path class="st0" d="M30.51,26.08c0,0,0,0-0.08,0.16c-0.08,0.16-1.64,0-1.64,0l-4.23-1.63c-1.57-0.31-4.94-2.49-4.94-2.49
	c-1.18-1.09-1.89-4.69-1.89-4.69c-0.27-1.35,0.02-3.71,0.44-5.96c-2.12,0-4.23-0.05-6.35-0.08c-0.5,4.64-1.37,9.27-1.37,9.27
	c-2.02,4.7-1.16,6.89-1.16,6.89c0.55,1.96,7.52,0.69,7.52,0.69c1.56-1.1,7.52,0.37,8.07,0.37c2.8-0.01,3.99-0.4,3.99-0.4l1.02,0
	C31.69,27.56,30.51,26.08,30.51,26.08z"/>
</svg>
