<?xml version="1.0" encoding="utf-8"?>
<!-- Generator: Adobe Illustrator 23.0.3, SVG Export Plug-In . SVG Version: 6.00 Build 0)  -->
<svg version="1.1" id="Layer_1" xmlns="http://www.w3.org/2000/svg" xmlns:xlink="http://www.w3.org/1999/xlink" x="0px" y="0px"
	 viewBox="0 0 100 100" style="enable-background:new 0 0 100 100;" xml:space="preserve">
<style type="text/css">
	.st0{fill:#89C040;}
</style>
<path class="st0" d="M75.64,39.18c-0.03-0.03-0.06-0.06-0.1-0.08l-0.19-0.08c0.26-0.7,0.78-2.36,0.08-2.88
	c-0.04-0.03-0.1-0.05-0.15-0.05H74.6c0.13-0.41,0.26-1.02,0.06-1.36c-0.07-0.12-0.17-0.2-0.3-0.24c-0.09-0.07-0.26-0.16-0.52-0.16
	c-0.44,0-0.93,0.27-1.48,0.8c-0.11-0.3-0.32-0.58-0.7-0.58c-0.42,0-0.95,0.37-1.62,1.12c-0.14,0.16-3.45,3.89-4.55,5.75l-0.14,0.2
	c0.03-1.03-0.14-2.59-1.31-3.09c-0.03-0.02-0.34-0.2-0.66-0.2c-0.27,0-0.42,0.13-0.51,0.23c-0.19,0.24-0.22,0.65-0.08,1.25
	c0.02,0.83-0.05,3.03-0.62,3.73c-0.05,0.05-1.12,1.25-0.4,3.66c0.28,1.08,0.55,2.37,0.55,2.66c-0.51,0.24-3.36,1.46-11.2,2.66
	c-0.02,0-0.05,0.01-0.07,0.02c-0.01,0.01-1.36,0.59-4.06,0.59c-1.2,0-2.5-0.12-3.86-0.35c-0.6-0.45-5.79-4.26-10.12-5.29
	c-0.2-0.28-0.87-1.23-1.74-2.3c-4.85,0.71-6.92,5.2-7.21,9.86c2.27,1.7,5.85,4.05,9.39,5.05c0.5,0.29,7.21,4.17,11.74,5.56
	c0.04,0.01,0.07,0.01,0.11,0.01c0.07-0.01,1.68-0.25,2.33-0.52c0.27-0.03,1.91-0.19,3.36-0.44c0.12-0.04,11.88-4.44,17.68-10.55
	c0.44-0.25,4.46-2.68,5.22-7.99C74.28,45.45,76.8,40.61,75.64,39.18z"/>
</svg>
