<?xml version="1.0" encoding="utf-8"?>
<!-- Generator: Adobe Illustrator 23.0.3, SVG Export Plug-In . SVG Version: 6.00 Build 0)  -->
<svg version="1.1" id="Layer_1" xmlns="http://www.w3.org/2000/svg" xmlns:xlink="http://www.w3.org/1999/xlink" x="0px" y="0px"
	 viewBox="0 0 40 40" style="enable-background:new 0 0 40 40;" xml:space="preserve">
<style type="text/css">
	.st0{fill:#FFFFFF;}
</style>
<path class="st0" d="M21.99,26.44c0.21-0.18,0.39-1.29,0.39-1.29c0.48-0.74,0.88-3.09,0.88-3.09c0.16-1.49-0.14-2.84-0.14-2.84
	c-0.18-0.73-1.08-2.27-1.08-2.27c-0.56-0.93-1.91-1.41-1.91-1.41c-0.02-0.3-0.28-1.46-0.28-1.46l0-0.32l-0.08-0.24
	c-0.05-0.74-0.74-2.61-0.74-2.61l-0.04-0.43l-0.38-0.4L18.55,9.9l-0.06-0.34c-0.04-0.13-0.34-0.3-0.34-0.3
	c-0.18-0.03-0.28,0.71-0.28,0.71c-0.16,0.05,0.14,0.44,0.14,0.44c0.04,0.22,0.5,0.56,0.5,0.56l0.2,2.81l0.22,0.44
	c-0.01,0.16,0.06,0.96,0.06,0.96l0,0.97c-0.11-0.07-0.2-0.14-0.2-0.14s0-0.05,0-0.14c0,0,0.06-0.62-0.26-0.45
	c0,0-0.06-0.07-0.15-0.02c0,0-0.06-0.06-0.13-0.03c0,0-0.09,0.01-0.11-0.05c0,0-0.08-0.12-0.19,0c0,0-0.17,0.18-0.21,0.19
	c0,0-0.17,0.03-0.17,0c0,0-0.71,0.18-0.83,0.81c0,0-0.13,0.65,0.29,1.09c0,0,0.29,0.27,0.74,0.28c0.2,0.02,0.44,0,0.57-0.16
	c0.1-0.05,0.24-0.1,0.41-0.09c0,0.01,0,0.02,0,0.03c0.11,0.01,0.23,0.04,0.32,0.08c0.47,0.99,1.6,1.69,1.6,1.69
	c0.53,0.32,0.57,1.04,0.57,1.04l-0.41,0.86c-0.77,1.41,0.22,2.04,0.22,2.04c-0.31,1.08-0.11,1.98-0.11,1.98
	c0.07,0.46-0.08,0.68-0.08,0.68c-0.46,0.74-0.32,1.79-0.32,1.79c0.11,0.4-0.01,1.43-0.01,1.43l-0.15,0.86l-0.13,0.45
	c-0.1,0.47,0.61,0.34,0.61,0.34c0.28-0.08,1.08-0.02,1.08-0.02c0.43,0.05,0.78-0.07,0.78-0.07c0.25-0.3-0.19-0.22-0.19-0.22
	l-0.47-0.15c-0.14-0.13-0.69-0.45-0.69-0.45c-0.13-0.42,0.1-1.33,0.1-1.33L21.99,26.44z"/>
</svg>
