<?xml version="1.0" encoding="utf-8"?>
<!-- Generator: Adobe Illustrator 23.0.3, SVG Export Plug-In . SVG Version: 6.00 Build 0)  -->
<svg version="1.1" id="Layer_1" xmlns="http://www.w3.org/2000/svg" xmlns:xlink="http://www.w3.org/1999/xlink" x="0px" y="0px"
	 viewBox="0 0 40 40" style="enable-background:new 0 0 40 40;" xml:space="preserve">
<style type="text/css">
	.st0{fill:#FFFFFF;}
</style>
<path class="st0" d="M15.37,23.33c0,0,0.11,0.5,0.15,1.44c0.01,0.33,0.19,0.89,0.55,1.45c0,0.63-0.01,1.81-0.08,2.8
	c2.91,0.07,5.82,0.16,8.73,0.23c-0.57-0.83-0.57-1.96-0.48-2.68c0.33-0.47,0.56-1.06,0.58-1.83l-0.06-1.55c0,0,1.25-0.65,1.63-1.78
	c0.38-1.12,0.23-2.65-0.2-2.81c-0.43-0.15-0.78-0.31-0.78-0.31s0.36-7.86-5.17-7.55c-5.53,0.31-5.69,4.84-5.62,6.46
	c0.07,1.61,0.07,1.61,0.07,1.61s-0.53-0.57-0.93,0.13c-0.4,0.7-0.44,1.89-0.16,2.48C13.87,22.02,15.37,23.33,15.37,23.33z"/>
</svg>
