<svg xmlns="http://www.w3.org/2000/svg" viewBox="0 0 160 100"><title>seva_metrics_bars</title><rect x="32.48" y="47.52" width="55.93" height="1.65" style="fill:#549bb3"/><rect x="11.74" y="42.9" width="72.48" height="1.65" style="fill:#549bb3"/><rect x="20.89" y="51.99" width="56.05" height="1.65" style="fill:#549bb3"/><rect x="2.85" y="56.46" width="72.48" height="1.65" style="fill:#549bb3"/><rect x="26.47" y="60.94" width="69.26" height="1.65" style="fill:#549bb3"/><rect x="40.75" y="72.37" width="67.07" height="1.65" style="fill:#a3c978"/><rect x="48.77" y="67.75" width="79.8" height="1.65" style="fill:#a3c978"/><rect x="48.77" y="76.84" width="70.65" height="1.65" style="fill:#a3c978"/><rect x="64.98" y="81.31" width="72.48" height="1.65" style="fill:#a3c978"/><rect x="41.36" y="85.79" width="72.48" height="1.65" style="fill:#a3c978"/><rect x="52.06" y="40.2" width="56.55" height="1.65" style="fill:#33b6a9"/><rect x="71.08" y="35.58" width="58.28" height="1.65" style="fill:#33b6a9"/><rect x="55.28" y="49.14" width="82.96" height="1.65" style="fill:#33b6a9"/><rect x="48.77" y="53.62" width="65.84" height="1.65" style="fill:#33b6a9"/><path d="M122.26,29.51c.79,0,1.78,0,1.75-.59s-1.31-.31-1.83-.28-1.54-.05-1.92-.05c0-.16,0-.21,0-.34.21-.05.52-.14.82-.2s1.09-.08,1.38-.09,1.17-.19,1.18-.57-.69-.37-1.19-.27a6.72,6.72,0,0,1-1.32.2c-.3,0-1.31-.09-1.73-.08-.46-.17-.36-.21-.61-.35a2.6,2.6,0,0,0,.42-.3c.19-.09.73-.13,1-.23a.66.66,0,0,0,.4-.87,1.14,1.14,0,0,0-1,.21,2.93,2.93,0,0,1-1.29.45c-2.26.4-1.68,1.13-2.31,1.37a28.34,28.34,0,0,1-4.59-.15,14.46,14.46,0,0,1-1.79-.19s-4-.95-6.3-1.24-3.1.35-3.1.35A8,8,0,0,1,98,26.13c-1.25-.27-3.62-.31-4.12-.58-.21-.12-.59-.31-1.06-.52l.15-.08c2.24-1.39,3.87-2.37,3.87-2.37s.84.16,4.45-2.08l5.35-3.31a3.34,3.34,0,0,1,1.08-.35,1.76,1.76,0,0,0,1.78-.09l.23-.13c.2-.14.39-.25.55-.35l.46-.23c.42,0,1.45-.11,1.89-.17.7-.08,1.39-.21,1.33-.54s-1-.18-1.21-.08a5.61,5.61,0,0,1-1.21.07,1.22,1.22,0,0,0,0-.17c.48-.2,1.56-.77,2.09-1.06s1.34-.66,1.13-1-.57-.14-.76-.07-1.42.75-1.54.86l-.92.31a1.2,1.2,0,0,0-.09-.29,13.11,13.11,0,0,1,1.64-1.11c.66-.46,1.51-.95,1.23-1.39s-.87.15-1.73.67A10.19,10.19,0,0,1,111,13a2.81,2.81,0,0,0-.24-.36c.15-.14.36-.38.54-.54a12.17,12.17,0,0,1,1.16-.77c.19-.11.82-.71.56-1s-.55,0-1,.32a4.39,4.39,0,0,1-1.08.79c-.24.1-.94.47-1.34.7-.37,0-.65.15-1,0l.28-.4c.12-.18.59-.47.75-.69a.71.71,0,0,0-.09-.95,1.49,1.49,0,0,0-.72.66,3.09,3.09,0,0,1-.9,1c-.26.18-1.58,1.35-1.32,2.33.09.33-.69.47-1.24.79a8.52,8.52,0,0,1-1.91.76,25.55,25.55,0,0,0-6,2,23.33,23.33,0,0,0-3.39,2.36c-1.07.71-2.27.73-3.33,1.3L89.68,22s-1-.56-3.35.49l-.83.38c-.49-.31-1-.62-1.26-.84a1.89,1.89,0,0,1-.5-1.83,1.81,1.81,0,0,0,.36-1v-.85a2.05,2.05,0,0,0,.94-.95c.24-.61.19-1.46,0-1.56a4.19,4.19,0,0,1-.43-.19s.38-4.34-2.69-4.29a3.08,3.08,0,0,0-3.25,3.44v.9a.3.3,0,0,0-.52.05A1.76,1.76,0,0,0,78,17.1a6.35,6.35,0,0,0,1,1.08,5.06,5.06,0,0,1,0,.8,1.76,1.76,0,0,0,.27.82A13,13,0,0,1,79,22.05c-.08.26-.62.64-1.25,1l-1.26-.59c-2.36-1-3.35-.49-3.35-.49L72,21.37c-1.06-.57-2.26-.59-3.33-1.3a23,23,0,0,0-3.4-2.36,25.49,25.49,0,0,0-6-2A8.52,8.52,0,0,1,57.35,15c-.55-.32-1.33-.46-1.24-.79.26-1-1-2.15-1.32-2.33a3.09,3.09,0,0,1-.9-1,1.49,1.49,0,0,0-.72-.66.71.71,0,0,0-.09.95c.16.22.62.51.75.69l.28.4c-.32.13-.6,0-1,0-.4-.22-1.09-.59-1.35-.69a4.54,4.54,0,0,1-1.07-.79c-.41-.32-.69-.59-1-.32s.37.88.56,1a12.13,12.13,0,0,1,1.15.77c.2.16.4.4.55.54a2.81,2.81,0,0,0-.24.36,10.19,10.19,0,0,1-1.56-.94c-.86-.52-1.48-1.05-1.73-.67s.57.93,1.23,1.39a13.11,13.11,0,0,1,1.64,1.11,2,2,0,0,0-.1.29s-.67-.24-.91-.31S49,13.07,48.81,13s-.58-.23-.77.07.58.71,1.14,1,1.61.86,2.09,1.06a.58.58,0,0,0,0,.17,5.61,5.61,0,0,1-1.21-.07c-.25-.1-1.14-.29-1.21.08s.63.46,1.33.54c.44.06,1.47.12,1.89.17l.46.23c.16.1.35.21.55.35l.23.13a1.78,1.78,0,0,0,1.79.09,3.52,3.52,0,0,1,1.08.35l5.34,3.31C65.18,22.74,66,22.58,66,22.58s1.63,1,3.88,2.37l0,0a2,2,0,0,0-.72.58l-1.29,0c-1.2,0-2.25.62-3.53.54a21.14,21.14,0,0,0-4.12-.35,26.06,26.06,0,0,0-6.21,1.28,8.44,8.44,0,0,1-2,.29c-.64,0-1.38.27-1.47-.05-.27-1-2-1.34-2.31-1.36a3.3,3.3,0,0,1-1.3-.45,1.45,1.45,0,0,0-.95-.21.71.71,0,0,0,.4.86c.24.12.79.13,1,.22l.44.21c-.21.27-.51.3-.85.46-.45,0-1.25,0-1.51.07A4.44,4.44,0,0,1,44.13,27c-.51-.08-.89-.17-1,.2s.76.57,1,.58a12,12,0,0,1,1.39.08c.23.05.54.15.74.21a2.58,2.58,0,0,0,0,.42,11.24,11.24,0,0,1-1.83,0c-1,0-1.8-.17-1.82.29s1,.52,1.75.58a12.91,12.91,0,0,1,2,.15,1.23,1.23,0,0,0,.07.29s-.71.13-.95.19a17.47,17.47,0,0,0-1.77,0c-.19,0-.61.08-.63.44s.86.33,1.49.31,1.83-.06,2.35-.13c.08.09,0,.06.12.12a5.51,5.51,0,0,1-1.08.55c-.26,0-1.13.31-1,.67s.77.08,1.41-.19c.42-.18,1.34-.64,1.72-.81l.52,0c.19,0,.4,0,.65,0h.27a1.8,1.8,0,0,0,1.59-.82,3.73,3.73,0,0,1,1.1-.23l6.29.19c4.25.14,4.89-.42,4.89-.42s1.91,0,4.55.11a16.09,16.09,0,0,0,5-.85c.24,0,.55.35.55.35a14.39,14.39,0,0,0,.39,2.8A22.4,22.4,0,0,0,75.31,36a23.09,23.09,0,0,1,.15,4.74,17.39,17.39,0,0,0-.1,2.76,73.35,73.35,0,0,0-5.74,7.9c-2.6,4.19-2.34,7-2.34,7a23.37,23.37,0,0,1-1.68,2.53,48.67,48.67,0,0,0-3.55,4.68c-1.29,2-2.76,6.79-3.27,8.38a4.67,4.67,0,0,1-1.5,2.28,2.7,2.7,0,0,0-.43.91,4,4,0,0,1-1.09.86c-.52.29-1.38.69-2,.93a4.57,4.57,0,0,0-1.37.73c-.17.22.14.22.23.45s.19.29.12.43.26.24.42.51.69.13.69.13a.3.3,0,0,1,.12.34c-.06.24.41.6,1.56.4s1.19-1,1.41-1.29.42.06,1-.22.52-1.22.83-1.44a2.34,2.34,0,0,0,.91-1.27,4.8,4.8,0,0,1,.48-1.61,31.51,31.51,0,0,1,1.86-2.83,43.72,43.72,0,0,0,3.34-3.68c1-1.55,1.39-3.5,1.93-4.35s1.84-1.72,2.2-2.42A18.45,18.45,0,0,1,71,60.88a39.9,39.9,0,0,1,2.76-3.1,11.13,11.13,0,0,0,1.45,5.38,22.44,22.44,0,0,1-.2,3A50.27,50.27,0,0,0,74.26,72c-.12,2.37,1,7.27,1.36,8.9a4.75,4.75,0,0,1-.16,2.72,3.19,3.19,0,0,0,.08,1A4.24,4.24,0,0,1,75,85.92c-.31.51-.85,1.28-1.24,1.79A4.46,4.46,0,0,0,73,89c0,.27.23.11.43.27s.31.16.31.31.35.08.62.23.66-.23.66-.23a.31.31,0,0,1,.28.23c.07.24.66.32,1.55-.42s.54-1.44.59-1.83.38-.16.77-.7-.15-1.32,0-1.67a2.37,2.37,0,0,0,.16-1.55A4.48,4.48,0,0,1,78,82a33.92,33.92,0,0,1,.19-3.39,43.42,43.42,0,0,0,1-4.85c.12-1.86-.54-3.73-.51-4.74s.75-2.41.71-3.19a19,19,0,0,1,.27-2.37,46.66,46.66,0,0,1,1.09-5.12,12.77,12.77,0,0,0,.31-5c0-.7-.08-.66.58-.62s.47-.12.31.66a38.57,38.57,0,0,0,.47,5.64c.19,1.82.93,4.62,1,4.89a22.73,22.73,0,0,0,.35,3.22c.23.71.42,1.56.42,1.56s-.31,2.8-.35,5.75.82,4.58.9,6.06a8,8,0,0,1-.27,3.15c-.24.42-.08,1-.12,1.67A3.66,3.66,0,0,0,84.83,87a1.28,1.28,0,0,1,.15.66,12.52,12.52,0,0,0,.19,1.55,3.06,3.06,0,0,0,1.21.9.93.93,0,0,0,.7-.28s.39.32.7.24a2.91,2.91,0,0,1,.85-.16c.36,0,.2-.54.36-.58s.15-.08.38-.43-1.24-1.48-1.48-1.63a20.31,20.31,0,0,1-1-3.73,12.46,12.46,0,0,1,.78-5.32,22.13,22.13,0,0,0,.89-7.62,25.18,25.18,0,0,1-.5-3.14c0-.58-.16-2-.16-2.33a8.84,8.84,0,0,1,.2-2.41,37,37,0,0,0,1-5.89l.13.15c2.09,2.21,3.18,3.41,3.51,3.89a21.85,21.85,0,0,1,1.42,1.92c.36.7,1.66,1.56,2.2,2.42s.9,2.8,1.93,4.35a42.06,42.06,0,0,0,3.34,3.68,31,31,0,0,1,1.85,2.83,4.38,4.38,0,0,1,.48,1.61A2.41,2.41,0,0,0,105,79c.3.22.22,1.17.83,1.44s.79-.09,1,.22.28,1.1,1.42,1.29,1.61-.16,1.56-.4a.3.3,0,0,1,.12-.34s.53.14.69-.13.5-.38.42-.51,0-.2.11-.43.41-.23.24-.45a4.57,4.57,0,0,0-1.37-.73,21.07,21.07,0,0,1-2-.93,4.1,4.1,0,0,1-1.08-.86,2.59,2.59,0,0,0-.44-.91A4.75,4.75,0,0,1,105,73.94c-.51-1.59-2-6.39-3.27-8.38a48.67,48.67,0,0,0-3.55-4.68,22.48,22.48,0,0,1-1.69-2.53s.27-2.8-2.33-7A71.32,71.32,0,0,0,88,43a8.12,8.12,0,0,0-.38-2.08,24,24,0,0,1,0-4.08,10.78,10.78,0,0,0,.9-2.06c.77-2,1-5.59,1.12-5.63a8.65,8.65,0,0,0,.82-.62,5.43,5.43,0,0,0,3.27,1.34,40.71,40.71,0,0,0,5.51-.18l1.12.51c1.13.5,2.84,0,6,0,2.69,0,8.09-.09,8.09-.09a4,4,0,0,1,1.12.23,2.23,2.23,0,0,0,1.71.82,6.3,6.3,0,0,1,1.32,0,10.2,10.2,0,0,0,1.71.81c.2.13,1.24.41,1.42.19s-1.2-.67-1.37-.83a4.75,4.75,0,0,0-.83-.43c.07-.05.21-.08.28-.15.4.05,1.41.12,1.66.13.65,0,2.16.13,2.16-.23s-1.1-.47-1.1-.47l-1,0-1.38-.19a2,2,0,0,0,.05-.26A8.76,8.76,0,0,1,122.26,29.51Z" style="fill:#005d83"/></svg>