<svg xmlns="http://www.w3.org/2000/svg" viewBox="0 0 100 100"><title>seva_man_r</title><path d="M88.28,29.75c.78,0,1.75,0,1.72-.58s-1.29-.31-1.8-.27-1.51-.06-1.88,0c0-.16,0-.21,0-.34l.81-.2c.22,0,1.07-.07,1.36-.09s1.15-.18,1.16-.55-.68-.37-1.18-.28a5.73,5.73,0,0,1-1.29.2c-.29,0-1.29-.08-1.7-.08-.45-.16-.35-.2-.6-.34a2.11,2.11,0,0,0,.41-.29c.19-.09.72-.13,1-.22a.66.66,0,0,0,.4-.86,1.1,1.1,0,0,0-.94.21,3,3,0,0,1-1.27.44c-2.22.39-1.65,1.11-2.27,1.34s-3.56-.11-4.51-.14a13.78,13.78,0,0,1-1.75-.19s-3.94-.93-6.19-1.22a4.49,4.49,0,0,0-3,.34,7.53,7.53,0,0,1-2.25-.15c-1.22-.27-3.55-.31-4-.58-.2-.11-.58-.3-1-.5l.15-.08c2.2-1.37,3.8-2.33,3.8-2.33s.83.16,4.38-2,4.9-3,5.24-3.25A3.45,3.45,0,0,1,74,17.3a1.73,1.73,0,0,0,1.75-.09l.22-.13c.2-.14.38-.24.55-.34l.45-.23c.41,0,1.42-.11,1.85-.16.69-.08,1.37-.2,1.31-.53s-1-.17-1.19-.08a5.41,5.41,0,0,1-1.19.07.6.6,0,0,0,.05-.16c.47-.21,1.53-.77,2.06-1.05s1.31-.65,1.11-1-.57-.14-.75-.07-1.4.74-1.52.84l-.89.31c0-.1,0-.17-.09-.28a11.42,11.42,0,0,1,1.61-1.1c.64-.45,1.48-.93,1.2-1.36s-.86.14-1.69.65a10.09,10.09,0,0,1-1.54.93c-.07-.16-.17-.24-.23-.36.14-.14.35-.37.53-.53a11.54,11.54,0,0,1,1.13-.75c.19-.11.81-.7.55-1s-.54,0-.94.31a4,4,0,0,1-1.06.77c-.24.1-.93.47-1.32.69-.36,0-.63.15-1,0l.28-.39c.12-.17.58-.46.73-.67a.7.7,0,0,0-.08-.94,1.46,1.46,0,0,0-.71.65,3,3,0,0,1-.89,1c-.26.18-1.55,1.32-1.29,2.29.08.32-.68.46-1.23.77a8,8,0,0,1-1.87.75,25.59,25.59,0,0,0-5.92,2,21.5,21.5,0,0,0-3.33,2.32c-1,.69-2.23.71-3.27,1.27l-1.11.6s-1-.54-3.29.49l-.82.37c-.48-.31-.94-.61-1.23-.83a1.82,1.82,0,0,1-.5-1.79,1.8,1.8,0,0,0,.36-1v-.85a2,2,0,0,0,.92-.93c.24-.6.19-1.43,0-1.53l-.42-.18s.37-4.27-2.64-4.23a3,3,0,0,0-3.2,3.39v.88a.3.3,0,0,0-.51.05,1.75,1.75,0,0,0-.14,1.35,6.09,6.09,0,0,0,.93,1.06,6.21,6.21,0,0,1,0,.79,1.86,1.86,0,0,0,.27.8,12.55,12.55,0,0,1-.23,2.21c-.07.26-.61.63-1.22,1-.35-.17-.75-.36-1.24-.57-2.32-1-3.29-.49-3.29-.49l-1.11-.6c-1-.56-2.22-.58-3.27-1.27a21.73,21.73,0,0,0-3.34-2.32,25.53,25.53,0,0,0-5.91-2,8.25,8.25,0,0,1-1.88-.75c-.54-.31-1.3-.45-1.22-.77.26-1-1-2.11-1.3-2.29a3.07,3.07,0,0,1-.88-1,1.46,1.46,0,0,0-.71-.65.7.7,0,0,0-.08.94c.15.21.61.5.73.67l.28.39c-.32.13-.59,0-1,0-.38-.22-1.07-.59-1.32-.69a4.09,4.09,0,0,1-1-.77c-.4-.32-.68-.58-.94-.31s.36.86.54,1a11.58,11.58,0,0,1,1.14.75c.19.16.39.39.53.53-.06.12-.16.2-.23.36a9.61,9.61,0,0,1-1.54-.93c-.83-.51-1.45-1-1.69-.65s.56.91,1.2,1.36a12.27,12.27,0,0,1,1.61,1.09,2.33,2.33,0,0,0-.09.29l-.89-.31c-.13-.1-1.37-.78-1.52-.84s-.57-.23-.75.07.56.69,1.11,1,1.58.84,2.06,1.05a.62.62,0,0,0,0,.16,5.33,5.33,0,0,1-1.18-.07c-.25-.09-1.12-.29-1.19.08s.62.45,1.31.53c.43,0,1.44.12,1.85.16l.45.23c.17.1.34.2.55.34l.22.13a1.75,1.75,0,0,0,1.76.09,3.48,3.48,0,0,1,1.06.35c.34.21,1.59,1,5.24,3.25s4.38,2,4.38,2,1.6,1,3.8,2.33l0,0a2,2,0,0,0-.71.56l-1.26,0c-1.19,0-2.22.61-3.48.54a21.12,21.12,0,0,0-4-.35,25.73,25.73,0,0,0-6.1,1.26,8.08,8.08,0,0,1-2,.28c-.63,0-1.36.27-1.45-.05-.26-1-1.95-1.31-2.27-1.33a3.13,3.13,0,0,1-1.28-.45,1.42,1.42,0,0,0-.93-.2.71.71,0,0,0,.39.85c.24.11.78.13,1,.22l.43.2c-.21.26-.51.29-.84.45-.44,0-1.22,0-1.48.07a4.21,4.21,0,0,1-1.3-.14c-.5-.07-.88-.16-1,.2s.74.56,1,.57a11.66,11.66,0,0,1,1.36.08c.23.05.53.14.72.2,0,.13,0,.25,0,.42a12.1,12.1,0,0,1-1.8,0c-1,0-1.77-.17-1.79.28s.94.51,1.72.57a12.61,12.61,0,0,1,1.95.15,1.36,1.36,0,0,0,.06.29l-.93.18a16.89,16.89,0,0,0-1.74,0c-.19,0-.6.08-.61.43s.83.32,1.46.3,1.79-.06,2.3-.12a.71.71,0,0,0,.13.12,5.75,5.75,0,0,1-1.07.54c-.26,0-1.11.3-1,.66s.75.08,1.39-.19c.4-.18,1.31-.63,1.69-.79.13,0,.3,0,.5,0s.4,0,.64,0h.26a1.73,1.73,0,0,0,1.57-.8,3.61,3.61,0,0,1,1.09-.23l6.17.19c4.17.14,4.81-.42,4.81-.42l4.46.11a15.83,15.83,0,0,0,5-.84c.23,0,.53.35.53.35a13.82,13.82,0,0,0,.39,2.75,21.84,21.84,0,0,0,1.41,3.85,22.31,22.31,0,0,1,.15,4.66,16.78,16.78,0,0,0-.1,2.71,71.73,71.73,0,0,0-5.64,7.76c-2.56,4.12-2.29,6.87-2.29,6.87a22.83,22.83,0,0,1-1.66,2.48,51,51,0,0,0-3.49,4.6c-1.26,2-2.71,6.67-3.21,8.23a4.54,4.54,0,0,1-1.47,2.24,3.07,3.07,0,0,0-.43.9,3.79,3.79,0,0,1-1.06.84c-.51.28-1.35.67-1.93.91a4.35,4.35,0,0,0-1.34.72c-.17.21.14.22.23.45s.18.28.11.41.26.24.41.5.68.13.68.13a.29.29,0,0,1,.11.33c-.05.24.41.59,1.54.4s1.17-1,1.39-1.26.41.06,1-.22.52-1.2.82-1.42a2.34,2.34,0,0,0,.9-1.24,4.5,4.5,0,0,1,.47-1.58,29.92,29.92,0,0,1,1.83-2.78,45.68,45.68,0,0,0,3.28-3.62c1-1.53,1.36-3.44,1.89-4.28s1.81-1.69,2.16-2.37a19.15,19.15,0,0,1,1.4-1.88,36.63,36.63,0,0,1,2.71-3,10.94,10.94,0,0,0,1.43,5.28,21.69,21.69,0,0,1-.2,3,46.9,46.9,0,0,0-.72,5.73c-.12,2.32,1,7.14,1.33,8.74a4.61,4.61,0,0,1-.15,2.67,3.08,3.08,0,0,0,.08,1,4,4,0,0,1-.5,1.26,21.27,21.27,0,0,1-1.22,1.75,4.49,4.49,0,0,0-.8,1.31c0,.26.22.1.42.26s.3.15.3.31.34.07.61.22.65-.22.65-.22a.3.3,0,0,1,.27.22c.08.23.65.31,1.53-.42s.53-1.41.57-1.79.38-.15.76-.69-.15-1.29,0-1.64A2.34,2.34,0,0,0,45.14,83a4.37,4.37,0,0,1-.38-1.61A32,32,0,0,1,44.94,78a40.42,40.42,0,0,0,1-4.77c.12-1.83-.53-3.66-.49-4.65s.73-2.37.69-3.13a18,18,0,0,1,.26-2.33,51.08,51.08,0,0,1,1.07-5,12.27,12.27,0,0,0,.31-4.88c0-.69-.08-.65.57-.61s.46-.12.3.64a39.73,39.73,0,0,0,.46,5.54c.19,1.79.92,4.54,1,4.81a21.93,21.93,0,0,0,.34,3.17c.23.68.42,1.53.42,1.53s-.31,2.74-.34,5.64.8,4.5.87,6a7.8,7.8,0,0,1-.26,3.1c-.23.42-.08,1-.12,1.64a3.62,3.62,0,0,0,.5,1.6,1.27,1.27,0,0,1,.15.65,10.53,10.53,0,0,0,.19,1.52,3,3,0,0,0,1.19.88c.34.08.68-.27.68-.27a1,1,0,0,0,.69.23,3.21,3.21,0,0,1,.84-.15c.35,0,.19-.53.35-.57s.14-.08.38-.42-1.23-1.45-1.46-1.61a19.56,19.56,0,0,1-1-3.66,12.11,12.11,0,0,1,.76-5.23,21.76,21.76,0,0,0,.88-7.48A23,23,0,0,1,54.72,67c0-.57-.16-1.94-.16-2.28a8.89,8.89,0,0,1,.19-2.37,35.1,35.1,0,0,0,1-5.79l.14.15c2,2.17,3.12,3.35,3.44,3.83a19.15,19.15,0,0,1,1.4,1.88c.35.68,1.63,1.53,2.16,2.37s.88,2.75,1.89,4.28a45.68,45.68,0,0,0,3.28,3.62,29.92,29.92,0,0,1,1.83,2.78,4.5,4.5,0,0,1,.47,1.58,2.32,2.32,0,0,0,.89,1.24c.31.22.22,1.15.82,1.42s.78-.09,1,.22.27,1.07,1.39,1.26,1.58-.16,1.53-.4a.3.3,0,0,1,.12-.33s.52.14.68-.13.49-.37.41-.5,0-.19.11-.41.4-.24.23-.45a4.48,4.48,0,0,0-1.34-.72c-.58-.24-1.42-.63-1.94-.91a3.85,3.85,0,0,1-1.05-.84,2.93,2.93,0,0,0-.44-.9,4.62,4.62,0,0,1-1.46-2.24c-.51-1.56-2-6.27-3.22-8.23a49.45,49.45,0,0,0-3.48-4.6A21.34,21.34,0,0,1,63,58.08s.26-2.75-2.29-6.87A69,69,0,0,0,54.63,43a7.82,7.82,0,0,0-.37-2,23.2,23.2,0,0,1,0-4,11.68,11.68,0,0,0,.88-2c.76-1.94,1-5.5,1.1-5.53a9.49,9.49,0,0,0,.8-.62,5.32,5.32,0,0,0,3.22,1.32,39.71,39.71,0,0,0,5.41-.17l1.1.5c1.11.49,2.79,0,5.84,0l8-.09a3.52,3.52,0,0,1,1.1.23,2.23,2.23,0,0,0,1.68.8,6,6,0,0,1,1.29,0,9.2,9.2,0,0,0,1.69.79c.19.13,1.22.41,1.39.19s-1.17-.66-1.35-.81a4.21,4.21,0,0,0-.81-.42c.07-.06.21-.08.28-.16.39.05,1.38.12,1.63.13.63,0,2.11.13,2.11-.22s-1.07-.46-1.07-.46l-1,0-1.36-.19a1.84,1.84,0,0,0,.05-.25A8.42,8.42,0,0,1,88.28,29.75Z" style="fill:#fff"/></svg>